<?xml version="1.0" encoding="UTF-8" standalone="no" ?>
<!DOCTYPE svg PUBLIC "-//W3C//DTD SVG 1.1//EN" "http://www.w3.org/Graphics/SVG/1.1/DTD/svg11.dtd">
<svg xmlns="http://www.w3.org/2000/svg" xmlns:xlink="http://www.w3.org/1999/xlink" version="1.1" width="1080" height="1080" viewBox="0 0 1080 1080" xml:space="preserve">
<desc>Created with Fabric.js 5.2.4</desc>
<defs>
</defs>
<g transform="matrix(1 0 0 1 540 540)" id="db993435-851b-4eca-95ba-c284fa4a523f"  >
<rect style="stroke: none; stroke-width: 1; stroke-dasharray: none; stroke-linecap: butt; stroke-dashoffset: 0; stroke-linejoin: miter; stroke-miterlimit: 4; fill: rgb(255,255,255); fill-rule: nonzero; opacity: 1; visibility: hidden;" vector-effect="non-scaling-stroke"  x="-540" y="-540" rx="0" ry="0" width="1080" height="1080" />
</g>
<g transform="matrix(1 0 0 1 540 540)" id="8cc8204a-fb82-4ad7-afbd-95bab4b8bbb2"  >
</g>
<g transform="matrix(1.19 0 0 1.19 540 575.53)"  >
<g style="" vector-effect="non-scaling-stroke"   >
		<g transform="matrix(1 0 0 1 -490 -490)"  >
<rect style="stroke: none; stroke-width: 1; stroke-dasharray: none; stroke-linecap: butt; stroke-dashoffset: 0; stroke-linejoin: miter; stroke-miterlimit: 4; fill: rgb(255,255,255); fill-opacity: 0; fill-rule: nonzero; opacity: 1;" vector-effect="non-scaling-stroke"  x="-50" y="-50" rx="0" ry="0" width="100" height="100" />
</g>
		<g transform="matrix(1 0 0 1 0 0)"  >
<rect style="stroke: none; stroke-width: 1; stroke-dasharray: none; stroke-linecap: butt; stroke-dashoffset: 0; stroke-linejoin: miter; stroke-miterlimit: 4; fill: rgb(255,255,255); fill-rule: nonzero; opacity: 1; visibility: hidden;" vector-effect="non-scaling-stroke"  x="-540" y="-540" rx="0" ry="0" width="1080" height="1080" />
</g>
		<g transform="matrix(3.7 0 0 3.7 145.97 -90.37)"  >
<path style="stroke: none; stroke-width: 1; stroke-dasharray: none; stroke-linecap: butt; stroke-dashoffset: 0; stroke-linejoin: miter; stroke-miterlimit: 4; fill: rgb(36,39,42); fill-rule: nonzero; opacity: 1;" vector-effect="non-scaling-stroke"  transform=" translate(-883.53, -475.2)" d="M 813.538 476.312 L 819.562 476.242 L 819.631 482.335 L 822.677 482.335 L 822.608 468.281 L 819.562 468.281 L 819.562 473.542 L 813.538 473.542 L 813.538 468.281 L 810.423 468.35 L 810.492 482.404 L 813.608 482.335 Z M 830.223 482.404 L 833.339 482.335 L 833.269 476.381 L 838.531 468.281 L 834.862 468.281 L 831.746 473.542 L 828.7 468.35 L 824.892 468.35 L 830.223 476.381 Z M 843.862 482.335 L 843.862 476.865 L 846.146 476.865 C 846.908 476.865 847.6 476.796 848.223 476.658 C 848.846 476.519 849.4 476.312 849.885 475.965 C 850.369 475.619 850.715 475.204 850.992 474.65 C 851.269 474.096 851.408 473.404 851.408 472.573 C 851.408 471.742 851.269 471.05 850.992 470.496 C 850.715 469.942 850.3 469.527 849.815 469.181 C 849.331 468.835 848.777 468.627 848.085 468.488 C 847.462 468.35 846.769 468.281 846.008 468.281 L 840.746 468.281 L 840.815 482.335 L 843.862 482.335 Z M 845.385 470.912 C 845.662 470.912 846.008 470.912 846.285 470.981 C 846.631 470.981 846.908 471.119 847.185 471.188 C 847.462 471.327 847.669 471.465 847.808 471.673 C 847.946 471.881 848.085 472.158 848.085 472.504 C 848.085 472.85 848.015 473.127 847.877 473.335 C 847.738 473.542 847.6 473.75 847.392 473.888 C 847.185 474.027 846.977 474.096 846.7 474.165 C 846.423 474.235 846.146 474.235 845.869 474.235 L 843.792 474.235 L 843.792 470.912 L 845.385 470.912 Z M 863.454 482.335 L 863.454 479.496 L 856.6 479.496 L 856.6 476.658 L 862.692 476.588 L 862.692 473.75 L 856.6 473.75 L 856.6 471.188 L 863.038 471.119 L 863.038 468.281 L 853.485 468.281 L 853.554 482.404 Z M 873.215 482.335 L 876.954 482.335 L 873.354 476.381 C 874.323 476.173 875.085 475.758 875.638 475.065 C 876.123 474.373 876.4 473.542 876.4 472.504 C 876.4 471.673 876.262 470.981 875.985 470.427 C 875.708 469.873 875.292 469.458 874.808 469.112 C 874.323 468.765 873.769 468.558 873.146 468.419 C 872.523 468.281 871.831 468.212 871.138 468.212 L 865.669 468.212 L 865.738 482.265 L 868.854 482.265 L 868.854 476.658 L 870.377 476.658 L 873.215 482.335 Z M 868.715 474.096 L 868.715 470.912 L 870.723 470.912 C 871 470.912 871.277 470.912 871.554 470.981 C 871.831 471.05 872.108 471.119 872.315 471.188 C 872.523 471.327 872.731 471.465 872.869 471.673 C 873.008 471.881 873.077 472.158 873.077 472.504 C 873.077 472.919 873.008 473.196 872.8 473.404 C 872.662 473.612 872.454 473.75 872.177 473.888 L 871.346 474.096 L 868.715 474.096 Z M 887.962 482.335 L 887.962 479.427 L 882.215 479.496 L 882.146 468.281 L 879.031 468.281 L 879.1 482.335 Z M 900.077 482.335 L 900.077 479.427 L 893.292 479.496 L 893.223 476.658 L 899.385 476.588 L 899.315 473.75 L 893.223 473.75 L 893.223 471.119 L 899.662 471.119 L 899.662 468.281 L 890.108 468.281 L 890.177 482.404 Z M 912.885 480.535 C 913.577 479.912 914.2 479.219 914.615 478.319 C 915.031 477.419 915.238 476.45 915.238 475.273 C 915.238 473.958 915.031 472.919 914.546 472.019 C 914.131 471.119 913.508 470.427 912.746 469.804 C 911.985 469.25 911.085 468.835 910.115 468.627 C 909.077 468.35 908.038 468.281 906.931 468.281 L 902.292 468.281 L 902.362 482.335 L 907.415 482.335 C 908.454 482.335 909.492 482.196 910.392 481.85 C 911.362 481.573 912.192 481.088 912.885 480.535 Z M 907 479.496 L 905.408 479.496 L 905.339 471.119 L 907.138 471.119 C 907.762 471.119 908.385 471.188 909.008 471.327 C 909.562 471.465 910.115 471.742 910.531 472.088 C 910.946 472.435 911.292 472.85 911.569 473.335 C 911.846 473.819 911.985 474.442 911.985 475.135 C 911.985 475.896 911.846 476.588 911.638 477.142 C 911.362 477.696 911.015 478.112 910.6 478.458 C 910.185 478.804 909.631 479.012 909.008 479.219 C 908.385 479.427 907.762 479.496 907 479.496 Z M 925.415 474.027 L 925.415 476.865 L 927.908 476.865 L 927.908 479.15 C 927.631 479.288 927.215 479.496 926.731 479.635 C 926.246 479.773 925.692 479.842 925 479.842 C 924.308 479.842 923.754 479.704 923.2 479.496 C 922.646 479.288 922.231 478.942 921.815 478.527 C 921.4 478.112 921.123 477.627 920.915 477.073 C 920.708 476.519 920.569 475.896 920.569 475.273 C 920.569 474.65 920.638 474.027 920.846 473.473 C 921.054 472.919 921.331 472.435 921.746 472.019 C 922.162 471.604 922.577 471.327 923.131 471.05 C 923.685 470.842 924.238 470.704 924.931 470.704 C 925.692 470.704 926.385 470.842 926.938 471.05 C 927.492 471.258 927.977 471.604 928.392 472.019 L 930.538 469.596 C 929.846 468.904 929.015 468.488 928.046 468.212 C 927.077 467.935 926.038 467.796 924.931 467.796 C 923.823 467.796 922.785 468.004 921.885 468.35 C 920.985 468.696 920.154 469.181 919.462 469.873 C 918.769 470.496 918.285 471.327 917.869 472.227 C 917.523 473.127 917.315 474.165 917.315 475.273 C 917.315 476.381 917.523 477.419 917.869 478.319 C 918.285 479.219 918.769 479.981 919.462 480.673 C 920.154 481.296 920.915 481.781 921.885 482.127 C 922.785 482.473 923.823 482.612 924.931 482.612 C 925.969 482.612 927.008 482.473 927.977 482.265 C 928.946 482.058 929.915 481.712 930.815 481.227 L 930.885 473.958 L 925.415 474.027 Z M 943.069 481.988 L 943.069 479.15 L 936.285 479.15 L 936.215 476.312 L 942.377 476.242 L 942.308 473.404 L 936.215 473.473 L 936.215 470.842 L 942.654 470.773 L 942.654 467.935 L 933.1 468.004 L 933.169 482.058 Z M 948.4 481.988 L 948.4 476.381 L 949.923 476.381 L 952.9 481.988 L 956.638 481.988 L 953.038 476.035 C 954.008 475.827 954.769 475.412 955.323 474.719 C 955.808 474.027 956.085 473.196 956.085 472.158 C 956.085 471.327 955.946 470.635 955.669 470.081 C 955.392 469.527 954.977 469.112 954.492 468.765 C 954.008 468.419 953.454 468.212 952.831 468.073 C 952.208 467.935 951.515 467.865 950.823 467.865 L 945.354 467.865 L 945.423 481.919 L 948.4 481.988 Z M 950.408 470.565 C 950.685 470.565 950.962 470.565 951.238 470.635 C 951.515 470.704 951.792 470.773 952 470.842 C 952.208 470.981 952.415 471.119 952.554 471.327 C 952.692 471.535 952.762 471.812 952.762 472.158 C 952.762 472.573 952.692 472.85 952.485 473.058 C 952.346 473.265 952.138 473.404 951.862 473.542 L 951.031 473.75 L 948.331 473.75 L 948.331 470.565 L 950.408 470.565 Z" stroke-linecap="round" />
</g>
		<g transform="matrix(3.7 0 0 3.7 119.07 26.56)"  >
<path style="stroke: none; stroke-width: 1; stroke-dasharray: none; stroke-linecap: butt; stroke-dashoffset: 0; stroke-linejoin: miter; stroke-miterlimit: 4; fill: rgb(241,86,74); fill-rule: nonzero; opacity: 1;" vector-effect="non-scaling-stroke"  transform=" translate(-876.26, -506.81)" d="M 810.562 492.442 L 828.7 492.442 L 828.7 496.112 L 814.508 496.112 L 814.508 505.181 L 827.731 505.181 L 827.731 508.85 L 814.508 508.85 L 814.508 521.312 L 810.631 521.312 L 810.631 492.442 Z M 840.538 492.442 L 844.069 492.442 L 856.392 521.312 L 851.823 521.312 L 848.915 514.181 L 835.208 514.181 L 832.369 521.312 L 827.8 521.312 L 840.538 492.442 Z M 847.531 510.719 L 842.131 497.496 L 842.062 497.496 L 836.592 510.719 L 847.531 510.719 Z M 858.538 492.442 L 868.577 492.442 C 873.562 492.442 877.369 494.796 877.369 499.642 C 877.369 502.965 875.362 505.042 872.385 506.012 L 872.385 506.081 C 875.846 506.358 878.615 509.404 878.615 513.281 C 878.615 518.473 874.115 521.312 868.438 521.312 L 858.538 521.312 L 858.538 492.442 Z M 862.485 504.419 L 867.815 504.419 C 870.792 504.419 873.215 503.242 873.215 500.127 C 873.215 497.842 871.762 495.904 868.646 495.904 L 862.485 495.904 L 862.485 504.419 Z M 862.485 517.85 L 868.231 517.85 C 870.585 517.85 874.462 517.019 874.462 512.935 C 874.462 509.542 872.038 507.812 868.3 507.812 L 862.485 507.812 L 862.485 517.85 Z M 883.392 492.442 L 893.569 492.442 C 900.977 492.442 902.846 496.873 902.846 500.542 C 902.846 504.212 900.146 507.673 895.785 508.158 L 903.954 521.312 L 899.038 521.312 L 891.7 508.573 L 887.339 508.573 L 887.339 521.312 L 883.392 521.312 L 883.392 492.442 Z M 887.339 505.181 L 892.462 505.181 C 895.577 505.181 898.623 504.419 898.623 500.542 C 898.623 496.665 895.508 495.904 892.462 495.904 L 887.339 495.904 L 887.339 505.181 Z M 908.315 492.442 L 912.262 492.442 L 912.262 521.312 L 908.315 521.312 L 908.315 492.442 Z M 938.085 498.673 C 936.423 496.527 933.792 495.35 931.092 495.35 C 924.585 495.35 920.362 500.542 920.362 507.05 C 920.362 513.142 924.377 518.265 931.092 518.265 C 934.415 518.265 936.908 516.812 938.638 514.388 L 941.962 516.881 C 941.131 518.058 937.669 521.935 931.023 521.935 C 921.885 521.935 916.208 514.25 916.208 507.05 C 916.208 498.119 922.369 491.681 931.231 491.681 C 935.038 491.681 938.985 493.135 941.339 496.181 L 938.085 498.673 Z" stroke-linecap="round" />
</g>
		<g transform="matrix(3.7 0 0 3.7 -299.61 -20.32)"  >
<path style="stroke: none; stroke-width: 1; stroke-dasharray: none; stroke-linecap: butt; stroke-dashoffset: 0; stroke-linejoin: miter; stroke-miterlimit: 4; fill: rgb(241,86,74); fill-rule: nonzero; opacity: 1;" vector-effect="non-scaling-stroke"  transform=" translate(-763.1, -494.14)" d="M 767.154 521.312 C 766.877 521.865 766.185 522.142 765.631 521.865 L 752.754 515.704 C 752.2 515.427 751.923 514.735 752.2 514.181 L 753.585 511.342 C 753.862 510.788 754.554 510.512 755.108 510.788 L 767.985 516.95 C 768.538 517.227 768.815 517.919 768.538 518.473 L 767.154 521.312 Z M 741.608 509.127 C 741.331 509.681 740.638 509.958 740.085 509.681 L 732.192 505.942 C 731.638 505.665 731.362 504.973 731.638 504.419 L 733.023 501.581 C 733.3 501.027 733.992 500.75 734.546 501.027 L 742.438 504.765 C 742.992 505.042 743.269 505.735 742.992 506.288 L 741.608 509.127 Z M 793.185 486.696 C 792.908 487.25 792.215 487.527 791.662 487.25 L 783.769 483.512 C 783.215 483.235 782.938 482.542 783.215 481.988 L 784.6 479.15 C 784.877 478.596 785.569 478.319 786.123 478.596 L 794.015 482.335 C 794.569 482.612 794.846 483.304 794.569 483.858 L 793.185 486.696 Z M 772.623 476.935 C 772.346 477.488 771.654 477.765 771.1 477.488 L 758.292 471.327 C 757.738 471.05 757.462 470.358 757.738 469.804 L 759.123 466.965 C 759.4 466.412 760.092 466.135 760.646 466.412 L 773.454 472.504 C 774.008 472.781 774.285 473.473 774.008 474.027 L 772.623 476.935 Z M 753.792 483.581 C 753.515 484.135 752.823 484.412 752.269 484.135 L 744.377 480.396 C 743.823 480.119 743.546 479.427 743.823 478.873 L 745.208 476.035 C 745.485 475.481 746.177 475.204 746.731 475.481 L 754.623 479.219 C 755.177 479.496 755.454 480.188 755.177 480.742 L 753.792 483.581 Z M 779.338 495.765 C 779.062 496.319 778.369 496.596 777.815 496.319 L 764.938 490.158 C 764.385 489.881 764.108 489.188 764.385 488.635 L 765.769 485.796 C 766.046 485.242 766.738 484.965 767.292 485.242 L 780.169 491.404 C 780.723 491.681 781 492.373 780.723 492.927 L 779.338 495.765 Z M 781 512.242 C 780.723 512.796 780.031 513.073 779.477 512.796 L 771.585 508.988 C 771.031 508.712 770.754 508.019 771.031 507.465 L 772.415 504.627 C 772.692 504.073 773.385 503.796 773.938 504.073 L 781.831 507.881 C 782.385 508.158 782.662 508.85 782.385 509.404 L 781 512.242 Z M 760.438 502.481 C 760.162 503.035 759.469 503.312 758.915 503.035 L 746.038 496.873 C 745.485 496.596 745.208 495.904 745.485 495.35 L 746.869 492.512 C 747.146 491.958 747.838 491.681 748.392 491.958 L 761.269 498.05 C 761.823 498.327 762.1 499.019 761.823 499.573 L 760.438 502.481 Z" stroke-linecap="round" />
</g>
		<g transform="matrix(3.7 0 0 3.7 -299.61 -20.57)"  >
<path style="stroke: none; stroke-width: 1; stroke-dasharray: none; stroke-linecap: butt; stroke-dashoffset: 0; stroke-linejoin: miter; stroke-miterlimit: 4; fill: rgb(151,214,215); fill-rule: nonzero; opacity: 1;" vector-effect="non-scaling-stroke"  transform=" translate(-763.1, -494.07)" d="M 740.292 498.95 C 740.015 499.504 739.323 499.781 738.769 499.504 L 735.931 498.119 C 735.377 497.842 735.1 497.15 735.377 496.596 L 741.538 483.719 C 741.815 483.165 742.508 482.888 743.062 483.165 L 745.9 484.55 C 746.454 484.827 746.731 485.519 746.454 486.073 L 740.292 498.95 Z M 752.477 473.404 C 752.2 473.958 751.508 474.235 750.954 473.958 L 748.115 472.573 C 747.562 472.296 747.285 471.604 747.562 471.05 L 751.3 463.227 C 751.577 462.673 752.269 462.396 752.823 462.673 L 755.662 464.058 C 756.215 464.335 756.492 465.027 756.215 465.581 L 752.477 473.404 Z M 774.908 524.912 C 774.631 525.465 773.938 525.742 773.385 525.465 L 770.546 524.081 C 769.992 523.804 769.715 523.112 769.992 522.558 L 773.731 514.735 C 774.008 514.181 774.7 513.904 775.254 514.181 L 778.092 515.565 C 778.646 515.842 778.923 516.535 778.646 517.089 L 774.908 524.912 Z M 784.669 504.488 C 784.392 505.042 783.7 505.319 783.146 505.042 L 780.308 503.658 C 779.754 503.381 779.477 502.688 779.754 502.135 L 785.915 489.258 C 786.192 488.704 786.885 488.427 787.438 488.704 L 790.277 490.088 C 790.831 490.365 791.108 491.058 790.831 491.612 L 784.669 504.488 Z M 778.023 485.588 C 777.746 486.142 777.054 486.419 776.5 486.142 L 773.662 484.758 C 773.108 484.481 772.831 483.788 773.108 483.235 L 776.777 475.481 C 777.054 474.927 777.746 474.65 778.3 474.927 L 781.138 476.312 C 781.692 476.588 781.969 477.281 781.692 477.835 L 778.023 485.588 Z M 765.838 511.135 C 765.562 511.688 764.869 511.965 764.315 511.688 L 761.477 510.304 C 760.923 510.027 760.646 509.335 760.923 508.781 L 767.085 495.904 C 767.362 495.35 768.054 495.073 768.608 495.35 L 771.446 496.735 C 772 497.012 772.277 497.704 772 498.258 L 765.838 511.135 Z M 749.362 512.727 C 749.085 513.281 748.392 513.558 747.838 513.281 L 745 511.896 C 744.446 511.619 744.169 510.927 744.446 510.373 L 748.115 502.55 C 748.392 501.996 749.085 501.719 749.638 501.996 L 752.477 503.381 C 753.031 503.658 753.308 504.35 753.031 504.904 L 749.362 512.727 Z M 759.123 492.304 C 758.846 492.858 758.154 493.135 757.6 492.858 L 754.762 491.473 C 754.208 491.196 753.931 490.504 754.208 489.95 L 760.369 477.073 C 760.646 476.519 761.338 476.242 761.892 476.519 L 764.731 477.904 C 765.285 478.181 765.562 478.873 765.285 479.427 L 759.123 492.304 Z" stroke-linecap="round" />
</g>
</g>
</g>
</svg>