<?xml version="1.0" encoding="UTF-8"?>
<svg id="a" data-name="Layer 1" xmlns="http://www.w3.org/2000/svg" viewBox="0 0 991.14 277.43">
  <path fill="currentColor" d="m361.07,60.55l26.52-.31.3,26.83h13.41l-.3-61.88h-13.41v23.16h-26.52v-23.16l-13.72.3.3,61.88,13.72-.3-.31-26.52Zm73.46,26.82l13.72-.3-.31-26.22,23.17-35.66h-16.15l-13.72,23.16-13.41-22.86h-16.77l23.47,35.36v26.52Zm60.05-.3v-24.08h10.06c3.36,0,6.4-.3,9.15-.91,2.74-.61,5.18-1.52,7.32-3.05,2.13-1.52,3.65-3.35,4.87-5.79,1.22-2.44,1.83-5.49,1.83-9.15s-.61-6.71-1.83-9.15c-1.22-2.44-3.05-4.27-5.18-5.79-2.13-1.52-4.57-2.44-7.62-3.05-2.74-.61-5.79-.91-9.15-.91h-23.17l.3,61.88h13.42Zm6.71-50.3c1.22,0,2.74,0,3.96.3,1.52,0,2.74.61,3.96.91,1.22.61,2.13,1.22,2.74,2.14.61.92,1.22,2.14,1.22,3.66s-.31,2.74-.92,3.66c-.61.91-1.22,1.83-2.14,2.43-.91.61-1.83.92-3.05,1.22-1.22.31-2.44.31-3.66.31h-9.15v-14.63h7.01Zm79.56,50.3v-12.5h-30.18v-12.5l26.82-.31v-12.5h-26.82v-11.28l28.35-.3v-12.5h-42.06l.3,62.18,43.59-.3Zm42.98,0h16.46l-15.85-26.22c4.27-.92,7.62-2.74,10.06-5.79,2.14-3.05,3.36-6.71,3.36-11.28,0-3.66-.61-6.71-1.83-9.15-1.22-2.44-3.05-4.27-5.18-5.79-2.14-1.53-4.57-2.44-7.32-3.05-2.74-.61-5.79-.91-8.84-.91h-24.08l.3,61.88h13.72v-24.69h6.71l12.5,25Zm-19.81-36.28v-14.02h8.84c1.22,0,2.44,0,3.66.3,1.22.3,2.44.61,3.35.91.92.61,1.83,1.22,2.44,2.14.61.92.92,2.14.92,3.66,0,1.83-.3,3.05-1.22,3.96-.61.92-1.52,1.52-2.74,2.13l-3.66.92h-11.58Zm84.74,36.28v-12.8l-25.3.3-.3-49.38h-13.72l.3,61.88h39.02Zm53.34,0v-12.8l-29.87.3-.3-12.5,27.13-.31-.31-12.5h-26.82v-11.58h28.35v-12.5h-42.07l.3,62.18,43.59-.3Zm56.39-7.93c3.05-2.74,5.79-5.79,7.62-9.76,1.83-3.96,2.74-8.23,2.74-13.41,0-5.79-.91-10.36-3.05-14.33-1.83-3.96-4.57-7.01-7.93-9.75-3.35-2.44-7.31-4.27-11.58-5.18-4.57-1.22-9.14-1.52-14.02-1.52h-20.43l.31,61.88h22.25c4.57,0,9.15-.61,13.11-2.14,4.27-1.22,7.93-3.36,10.98-5.79Zm-25.91-4.57h-7.01l-.3-36.88h7.92c2.75,0,5.49.3,8.23.92,2.44.61,4.87,1.83,6.71,3.35,1.83,1.53,3.35,3.36,4.57,5.49,1.22,2.13,1.83,4.87,1.83,7.93,0,3.35-.61,6.4-1.53,8.84-1.22,2.44-2.74,4.27-4.57,5.79-1.83,1.52-4.27,2.44-7.01,3.35-2.74.92-5.49,1.22-8.84,1.22Zm81.08-24.08v12.5h10.98v10.06c-1.22.61-3.05,1.52-5.18,2.14-2.14.61-4.57.91-7.62.91s-5.49-.61-7.93-1.52-4.27-2.44-6.1-4.27c-1.83-1.83-3.05-3.96-3.96-6.4-.91-2.44-1.52-5.18-1.52-7.93s.3-5.49,1.22-7.93c.92-2.44,2.14-4.57,3.96-6.4,1.83-1.83,3.66-3.05,6.1-4.27,2.44-.92,4.87-1.52,7.93-1.52,3.35,0,6.4.61,8.84,1.52,2.44.92,4.57,2.44,6.4,4.27l9.45-10.67c-3.05-3.05-6.71-4.88-10.97-6.09-4.27-1.22-8.84-1.83-13.72-1.83s-9.45.92-13.41,2.44c-3.96,1.52-7.62,3.66-10.67,6.71-3.05,2.74-5.18,6.4-7.01,10.36-1.52,3.96-2.44,8.53-2.44,13.41s.92,9.45,2.44,13.41c1.83,3.96,3.96,7.32,7.01,10.36,3.05,2.74,6.4,4.88,10.67,6.4,3.96,1.52,8.53,2.14,13.41,2.14,4.57,0,9.14-.61,13.41-1.53,4.27-.91,8.53-2.43,12.5-4.57l.31-32.01-24.08.3Zm77.73,35.05v-12.5h-29.87l-.31-12.5,27.13-.31-.3-12.5-26.83.3v-11.58l28.35-.3v-12.5l-42.07.3.3,61.88,43.59-.31Zm23.47,0v-24.69h6.71l13.11,24.69h16.46l-15.85-26.21c4.27-.92,7.62-2.74,10.06-5.79,2.14-3.05,3.36-6.71,3.36-11.28,0-3.66-.61-6.71-1.83-9.15-1.22-2.44-3.05-4.27-5.18-5.79-2.13-1.52-4.57-2.43-7.31-3.05-2.74-.61-5.79-.92-8.84-.92h-24.08l.3,61.88,13.11.3Zm8.84-50.3c1.22,0,2.44,0,3.65.31,1.22.3,2.44.61,3.36.91.92.61,1.83,1.22,2.44,2.14.61.92.92,2.14.92,3.66,0,1.83-.31,3.05-1.22,3.96-.61.91-1.53,1.52-2.74,2.13l-3.66.92h-11.89v-14.02h9.15Z" vector-effect="non-scaling-stroke"/>
  <path fill="#f1564a" d="m347.96,131.54h79.86v16.16h-62.49v39.93h58.22v16.15h-58.22v54.87h-17.07v-127.11h-.3Zm131.98,0h15.55l54.26,127.11h-20.12l-12.8-31.4h-60.35l-12.5,31.4h-20.12l56.09-127.11Zm30.79,80.47l-23.78-58.22h-.3l-24.08,58.22h48.16Zm48.46-80.47h44.2c21.95,0,38.71,10.36,38.71,31.7,0,14.63-8.84,23.78-21.94,28.05v.3c15.24,1.22,27.43,14.63,27.43,31.7,0,22.86-19.81,35.36-44.81,35.36h-43.59v-127.11Zm17.38,52.73h23.47c13.11,0,23.78-5.18,23.78-18.9,0-10.06-6.4-18.59-20.12-18.59h-27.13v37.49Zm0,59.14h25.3c10.36,0,27.43-3.66,27.43-21.64,0-14.94-10.67-22.56-27.13-22.56h-25.6v44.2Zm92.05-111.87h44.81c32.62,0,40.85,19.51,40.85,35.66s-11.89,31.4-31.09,33.53l35.97,57.92h-21.64l-32.31-56.09h-19.2v56.09h-17.38v-127.11Zm17.38,56.09h22.56c13.72,0,27.13-3.36,27.13-20.43s-13.72-20.42-27.13-20.42h-22.56v40.85Zm92.36-56.09h17.38v127.11h-17.38v-127.11Zm131.08,27.44c-7.32-9.45-18.9-14.63-30.79-14.63-28.65,0-47.24,22.86-47.24,51.52,0,26.82,17.68,49.38,47.24,49.38,14.63,0,25.61-6.4,33.23-17.07l14.64,10.98c-3.66,5.18-18.9,22.25-48.16,22.25-40.23,0-65.23-33.84-65.23-65.54,0-39.32,27.13-67.67,66.15-67.67,16.76,0,34.14,6.4,44.51,19.81l-14.33,10.97Z" vector-effect="non-scaling-stroke"/>
  <path fill="#f1564a" d="m156.85,258.66c-1.22,2.43-4.27,3.65-6.71,2.43l-56.7-27.13c-2.44-1.22-3.66-4.27-2.44-6.71l6.1-12.5c1.22-2.44,4.27-3.65,6.71-2.44l56.7,27.13c2.44,1.22,3.65,4.27,2.44,6.71l-6.09,12.5Zm-112.48-53.65c-1.22,2.44-4.27,3.66-6.71,2.44L2.92,190.98c-2.44-1.22-3.65-4.27-2.44-6.71l6.1-12.5c1.22-2.44,4.27-3.66,6.71-2.44l34.75,16.46c2.44,1.22,3.66,4.27,2.44,6.71l-6.09,12.5Zm227.09-98.76c-1.22,2.44-4.27,3.66-6.71,2.44l-34.75-16.46c-2.44-1.22-3.66-4.27-2.44-6.71l6.1-12.5c1.22-2.44,4.27-3.66,6.71-2.44l34.75,16.46c2.44,1.22,3.66,4.27,2.44,6.71l-6.09,12.5Zm-90.53-42.98c-1.22,2.43-4.27,3.65-6.71,2.43l-56.39-27.13c-2.44-1.22-3.65-4.27-2.44-6.71l6.1-12.5c1.22-2.43,4.27-3.65,6.71-2.43l56.39,26.82c2.44,1.22,3.66,4.27,2.44,6.71l-6.1,12.8Zm-82.91,29.26c-1.22,2.44-4.27,3.66-6.71,2.44l-34.75-16.46c-2.44-1.22-3.66-4.27-2.44-6.71l6.1-12.5c1.22-2.44,4.27-3.66,6.71-2.44l34.75,16.46c2.44,1.22,3.66,4.27,2.44,6.71l-6.1,12.5Zm112.48,53.65c-1.22,2.44-4.27,3.66-6.71,2.44l-56.7-27.13c-2.43-1.22-3.65-4.27-2.43-6.71l6.09-12.5c1.22-2.44,4.27-3.66,6.71-2.44l56.7,27.13c2.44,1.22,3.66,4.27,2.44,6.71l-6.1,12.5Zm7.32,72.55c-1.22,2.44-4.27,3.66-6.71,2.44l-34.75-16.77c-2.44-1.22-3.66-4.27-2.44-6.71l6.09-12.5c1.22-2.44,4.27-3.66,6.71-2.44l34.75,16.77c2.44,1.22,3.66,4.27,2.44,6.71l-6.1,12.5Zm-90.53-42.98c-1.22,2.44-4.27,3.66-6.71,2.44l-56.7-27.13c-2.44-1.22-3.65-4.27-2.44-6.71l6.09-12.5c1.22-2.44,4.27-3.66,6.71-2.44l56.7,26.82c2.44,1.22,3.66,4.27,2.44,6.71l-6.1,12.8Z" vector-effect="non-scaling-stroke"/>
  <path fill="#97d6d7" d="m38.58,160.21c-1.22,2.44-4.27,3.66-6.71,2.44l-12.5-6.1c-2.44-1.22-3.66-4.27-2.44-6.71l27.13-56.7c1.22-2.44,4.27-3.66,6.71-2.44l12.5,6.1c2.44,1.22,3.66,4.27,2.44,6.71l-27.13,56.7Zm53.65-112.48c-1.22,2.44-4.27,3.66-6.71,2.44l-12.5-6.1c-2.43-1.22-3.65-4.27-2.43-6.71L87.05,2.92c1.22-2.44,4.27-3.66,6.71-2.44l12.5,6.1c2.44,1.22,3.65,4.27,2.44,6.71l-16.46,34.44Zm98.76,226.79c-1.22,2.44-4.27,3.65-6.71,2.44l-12.5-6.09c-2.44-1.22-3.66-4.27-2.44-6.71l16.46-34.44c1.22-2.44,4.27-3.66,6.71-2.44l12.5,6.09c2.44,1.22,3.66,4.27,2.44,6.71l-16.46,34.44Zm42.98-89.93c-1.22,2.44-4.27,3.66-6.71,2.44l-12.5-6.09c-2.44-1.22-3.66-4.27-2.44-6.71l27.13-56.7c1.22-2.44,4.27-3.66,6.71-2.44l12.5,6.09c2.44,1.22,3.66,4.27,2.44,6.71l-27.13,56.69Zm-29.26-83.22c-1.22,2.44-4.27,3.66-6.71,2.44l-12.5-6.09c-2.44-1.22-3.66-4.27-2.44-6.71l16.15-34.14c1.22-2.44,4.27-3.66,6.71-2.44l12.5,6.1c2.44,1.22,3.66,4.27,2.44,6.71l-16.15,34.14Zm-53.65,112.48c-1.22,2.43-4.27,3.65-6.71,2.43l-12.5-6.09c-2.44-1.22-3.66-4.27-2.44-6.71l27.13-56.7c1.22-2.44,4.27-3.66,6.71-2.44l12.5,6.1c2.44,1.22,3.66,4.27,2.44,6.71l-27.13,56.7Zm-72.54,7.01c-1.22,2.44-4.27,3.66-6.71,2.44l-12.5-6.1c-2.44-1.22-3.66-4.27-2.44-6.71l16.15-34.44c1.22-2.44,4.27-3.66,6.71-2.44l12.5,6.1c2.44,1.22,3.66,4.27,2.44,6.71l-16.15,34.44Zm42.98-89.92c-1.22,2.44-4.27,3.66-6.71,2.44l-12.5-6.1c-2.44-1.22-3.66-4.27-2.44-6.71l27.13-56.7c1.22-2.44,4.27-3.66,6.71-2.44l12.5,6.1c2.44,1.22,3.66,4.27,2.44,6.71l-27.13,56.7Z" vector-effect="non-scaling-stroke"/>
</svg>
