<svg width="272" height="189" xmlns="http://www.w3.org/2000/svg" xmlns:xlink="http://www.w3.org/1999/xlink" xml:space="preserve" overflow="hidden"><g transform="translate(-976 -400)"><path d="M1.63708 3.02859 1.63708-9.10624 1.0641-9.10624 1.0641 3.02859Z" transform="matrix(1.00115 0 0 1 1110.81 441.874)"/><path d="M6.11859-4.84984C6.11859-5.56606 5.7707-5.7707 5.54561-5.7707 5.21819-5.7707 4.89078-5.42281 4.89078-5.13634 4.89078-4.97263 4.95216-4.89078 5.0954-4.74753 5.3819-4.48151 5.54561-4.15409 5.54561-3.68343 5.54561-3.1309 4.74753-0.143244 3.23323-0.143244 2.55793-0.143244 2.25098-0.593441 2.25098-1.2892 2.25098-2.00542 2.61932-2.9672 3.00814-4.05177 3.11045-4.27686 3.17184-4.46104 3.17184-4.7066 3.17184-5.27958 2.76258-5.7707 2.10774-5.7707 0.879929-5.7707 0.388806-3.86759 0.388806-3.76528 0.388806-3.62203 0.511587-3.62203 0.53205-3.62203 0.675295-3.62203 0.675295-3.66297 0.736685-3.86759 1.12549-5.17725 1.678-5.48421 2.0668-5.48421 2.16913-5.48421 2.39422-5.48421 2.39422-5.07494 2.39422-4.74753 2.25098-4.37918 2.16913-4.15409 1.59615-2.63978 1.43244-2.04635 1.43244-1.47337 1.43244-0.0613904 2.5784 0.143244 3.17184 0.143244 5.36143 0.143244 6.11859-4.17455 6.11859-4.84984Z" transform="matrix(1.00115 0 0 1 1108.75 423.69)"/><path d="M31.1054 48.2277C31.1054 50.0284 29.6474 51.4865 27.8415 51.4865 26.0407 51.4865 24.5828 50.0284 24.5828 48.2277 24.5828 46.4269 26.0407 44.9637 27.8415 44.9637 29.6474 44.9637 31.1054 46.4269 31.1054 48.2277Z" stroke="#000000" stroke-width="0.5219" stroke-miterlimit="10" fill="none" transform="matrix(1.00115 0 0 -1 1112.15 494.583)"/><path d="M31.3663 48.2277 24.3217 48.2277" stroke="#000000" stroke-width="0.5219" stroke-miterlimit="10" fill="none" transform="matrix(1.00115 0 0 -1 1112.15 494.583)"/><path d="M27.8415 44.7028 27.8415 51.7474" stroke="#000000" stroke-width="0.5219" stroke-miterlimit="10" fill="none" transform="matrix(1.00115 0 0 -1 1112.15 494.583)"/><path d="M9.24949-3.04905C9.26995-3.11045 9.31089-3.1923 9.31089-3.23323 9.31089-3.23323 9.31089-3.37647 9.14718-3.37647 9.02439-3.37647 9.00393-3.29461 8.98347-3.21276 8.12399-1.2892 7.65334-0.409269 5.42281-0.409269L3.51972-0.409269C3.33555-0.409269 3.29461-0.409269 3.23323-0.409269 3.08999-0.429733 3.04905-0.450196 3.04905-0.552514 3.04905-0.593441 3.04905-0.613904 3.11045-0.839002L4.01084-4.42011 5.30005-4.42011C6.40506-4.42011 6.40506-4.13362 6.40506-3.80621 6.40506-3.72435 6.40506-3.56064 6.32321-3.17184 6.30275-3.11045 6.28229-3.06952 6.28229-3.02859 6.28229-2.9672 6.32321-2.88534 6.446-2.88534 6.54831-2.88534 6.58924-2.94674 6.65062-3.15138L7.38731-6.20044C7.38731-6.28229 7.32592-6.34368 7.2236-6.34368 7.12129-6.34368 7.08036-6.26182 7.05989-6.11859 6.77342-5.11587 6.54831-4.80892 5.34096-4.80892L4.11315-4.80892 4.89078-7.96029C5.01354-8.43095 5.03401-8.47188 5.60699-8.47188L7.4487-8.47188C9.02439-8.47188 9.43366-8.10354 9.43366-7.01898 9.43366-6.71202 9.43366-6.69156 9.37227-6.32321 9.37227-6.26182 9.3518-6.1595 9.3518-6.09812 9.3518-6.03673 9.39274-5.93441 9.51551-5.93441 9.65876-5.93441 9.67922-6.01626 9.69969-6.26182L9.96572-8.53326C10.0066-8.88115 9.94525-8.88115 9.61783-8.88115L3.00814-8.88115C2.76258-8.88115 2.61932-8.88115 2.61932-8.61512 2.61932-8.47188 2.74211-8.47188 2.98767-8.47188 3.47879-8.47188 3.84713-8.47188 3.84713-8.24679 3.84713-8.18539 3.84713-8.16493 3.76528-7.91937L2.04635-1.02317C1.92357-0.511587 1.9031-0.409269 0.859466-0.409269 0.634368-0.409269 0.491123-0.409269 0.491123-0.163708 0.491123 0 0.613904 0 0.859466 0L7.63287 0C7.93983 0 7.96029-0.0204635 8.04214-0.225098Z" transform="matrix(1.00115 0 0 1 1152.09 470.219)"/><path d="M5.34096-3.31508C5.48421-3.31508 5.58652-3.31508 5.66838-3.37647 5.79117-3.47879 5.83208-3.62203 5.83208-3.68343 5.83208-3.92899 5.58652-3.92899 5.42281-3.92899L3.08999-3.92899C1.63708-3.92899 0.53205-2.49654 0.53205-1.39152 0.53205-0.552514 1.16642 0.0818539 2.10774 0.0818539 3.2537 0.0818539 4.56336-0.94132 4.56336-2.35331 4.56336-2.49654 4.56336-2.90581 4.29733-3.31508ZM2.10774-0.163708C1.61662-0.163708 1.20735-0.491123 1.20735-1.14595 1.20735-1.41197 1.37106-3.31508 2.94674-3.31508 3.39694-3.31508 3.88806-3.1309 3.88806-2.45562 3.88806-2.27145 3.80621-1.45291 3.35601-0.839002 2.9672-0.347879 2.45562-0.163708 2.10774-0.163708Z" transform="matrix(1.00115 0 0 1 1161.73 472.176)"/><path d="M58.951 0.000327416C58.951 1.80111 57.4879 3.26425 55.6871 3.26425 53.8863 3.26425 52.4233 1.80111 52.4233 0.000327416 52.4233-1.80046 53.8863-3.2636 55.6871-3.2636 57.4879-3.2636 58.951-1.80046 58.951 0.000327416Z" stroke="#000000" stroke-width="0.5219" stroke-miterlimit="10" fill="none" transform="matrix(1.00115 0 0 -1 1112.15 494.583)"/><path d="M59.2121 0.000327416 52.1623 0.000327416" stroke="#000000" stroke-width="0.5219" stroke-miterlimit="10" fill="none" transform="matrix(1.00115 0 0 -1 1112.15 494.583)"/><path d="M55.6871-3.52451 55.6871 3.52517" stroke="#000000" stroke-width="0.5219" stroke-miterlimit="10" fill="none" transform="matrix(1.00115 0 0 -1 1112.15 494.583)"/><path d="M9.24949-3.04905C9.26995-3.11045 9.31089-3.1923 9.31089-3.23323 9.31089-3.23323 9.31089-3.37647 9.14718-3.37647 9.02439-3.37647 9.00393-3.29461 8.98347-3.21276 8.12399-1.2892 7.65334-0.409269 5.42281-0.409269L3.51972-0.409269C3.33555-0.409269 3.29461-0.409269 3.23323-0.409269 3.08999-0.429733 3.04905-0.450196 3.04905-0.552514 3.04905-0.593441 3.04905-0.613904 3.11045-0.839002L4.01084-4.42011 5.30005-4.42011C6.40506-4.42011 6.40506-4.13362 6.40506-3.80621 6.40506-3.72435 6.40506-3.56064 6.32321-3.17184 6.30275-3.11045 6.28229-3.06952 6.28229-3.02859 6.28229-2.9672 6.32321-2.88534 6.446-2.88534 6.54831-2.88534 6.58924-2.94674 6.65062-3.15138L7.38731-6.20044C7.38731-6.28229 7.32592-6.34368 7.2236-6.34368 7.12129-6.34368 7.08036-6.26182 7.05989-6.11859 6.77342-5.11587 6.54831-4.80892 5.34096-4.80892L4.11315-4.80892 4.89078-7.96029C5.01354-8.43095 5.03401-8.47188 5.60699-8.47188L7.4487-8.47188C9.02439-8.47188 9.43366-8.10354 9.43366-7.01898 9.43366-6.71202 9.43366-6.69156 9.37227-6.32321 9.37227-6.26182 9.3518-6.1595 9.3518-6.09812 9.3518-6.03673 9.39274-5.93441 9.51551-5.93441 9.65876-5.93441 9.67922-6.01626 9.69969-6.26182L9.96572-8.53326C10.0066-8.88115 9.94525-8.88115 9.61783-8.88115L3.00814-8.88115C2.76258-8.88115 2.61932-8.88115 2.61932-8.61512 2.61932-8.47188 2.74211-8.47188 2.98767-8.47188 3.47879-8.47188 3.84713-8.47188 3.84713-8.24679 3.84713-8.18539 3.84713-8.16493 3.76528-7.91937L2.04635-1.02317C1.92357-0.511587 1.9031-0.409269 0.859466-0.409269 0.634368-0.409269 0.491123-0.409269 0.491123-0.163708 0.491123 0 0.613904 0 0.859466 0L7.63287 0C7.93983 0 7.96029-0.0204635 8.04214-0.225098Z" transform="matrix(1.00115 0 0 1 1152.09 525.906)"/><path d="M5.34096-3.31508C5.48421-3.31508 5.58652-3.31508 5.66838-3.37647 5.79117-3.47879 5.83208-3.62203 5.83208-3.68343 5.83208-3.92899 5.58652-3.92899 5.42281-3.92899L3.08999-3.92899C1.63708-3.92899 0.53205-2.49654 0.53205-1.39152 0.53205-0.552514 1.16642 0.0818539 2.10774 0.0818539 3.2537 0.0818539 4.56336-0.94132 4.56336-2.35331 4.56336-2.49654 4.56336-2.90581 4.29733-3.31508ZM2.10774-0.163708C1.61662-0.163708 1.20735-0.491123 1.20735-1.14595 1.20735-1.41197 1.37106-3.31508 2.94674-3.31508 3.39694-3.31508 3.88806-3.1309 3.88806-2.45562 3.88806-2.27145 3.80621-1.45291 3.35601-0.839002 2.9672-0.347879 2.45562-0.163708 2.10774-0.163708Z" transform="matrix(1.00115 0 0 1 1161.73 527.862)"/><path d="M-49.0653 19.0467C-49.0653 20.8475-50.5285 22.3106-52.3293 22.3106-54.13 22.3106-55.5932 20.8475-55.5932 19.0467-55.5932 17.2459-54.13 15.7827-52.3293 15.7827-50.5285 15.7827-49.0653 17.2459-49.0653 19.0467Z" stroke="#000000" stroke-width="0.5219" stroke-miterlimit="10" fill="none" transform="matrix(1.00115 0 0 -1 1112.15 494.583)"/><path d="M-48.8044 19.0467-55.8541 19.0467" stroke="#000000" stroke-width="0.5219" stroke-miterlimit="10" fill="none" transform="matrix(1.00115 0 0 -1 1112.15 494.583)"/><path d="M-52.3293 15.5219-52.3293 22.5715" stroke="#000000" stroke-width="0.5219" stroke-miterlimit="10" fill="none" transform="matrix(1.00115 0 0 -1 1112.15 494.583)"/><path d="M9.24949-3.04905C9.26995-3.11045 9.31089-3.1923 9.31089-3.23323 9.31089-3.23323 9.31089-3.37647 9.14718-3.37647 9.02439-3.37647 9.00393-3.29461 8.98347-3.21276 8.12399-1.2892 7.65334-0.409269 5.42281-0.409269L3.51972-0.409269C3.33555-0.409269 3.29461-0.409269 3.23323-0.409269 3.08999-0.429733 3.04905-0.450196 3.04905-0.552514 3.04905-0.593441 3.04905-0.613904 3.11045-0.839002L4.01084-4.42011 5.30005-4.42011C6.40506-4.42011 6.40506-4.13362 6.40506-3.80621 6.40506-3.72435 6.40506-3.56064 6.32321-3.17184 6.30275-3.11045 6.28229-3.06952 6.28229-3.02859 6.28229-2.9672 6.32321-2.88534 6.446-2.88534 6.54831-2.88534 6.58924-2.94674 6.65062-3.15138L7.38731-6.20044C7.38731-6.28229 7.32592-6.34368 7.2236-6.34368 7.12129-6.34368 7.08036-6.26182 7.05989-6.11859 6.77342-5.11587 6.54831-4.80892 5.34096-4.80892L4.11315-4.80892 4.89078-7.96029C5.01354-8.43095 5.03401-8.47188 5.60699-8.47188L7.4487-8.47188C9.02439-8.47188 9.43366-8.10354 9.43366-7.01898 9.43366-6.71202 9.43366-6.69156 9.37227-6.32321 9.37227-6.26182 9.3518-6.1595 9.3518-6.09812 9.3518-6.03673 9.39274-5.93441 9.51551-5.93441 9.65876-5.93441 9.67922-6.01626 9.69969-6.26182L9.96572-8.53326C10.0066-8.88115 9.94525-8.88115 9.61783-8.88115L3.00814-8.88115C2.76258-8.88115 2.61932-8.88115 2.61932-8.61512 2.61932-8.47188 2.74211-8.47188 2.98767-8.47188 3.47879-8.47188 3.84713-8.47188 3.84713-8.24679 3.84713-8.18539 3.84713-8.16493 3.76528-7.91937L2.04635-1.02317C1.92357-0.511587 1.9031-0.409269 0.859466-0.409269 0.634368-0.409269 0.491123-0.409269 0.491123-0.163708 0.491123 0 0.613904 0 0.859466 0L7.63287 0C7.93983 0 7.96029-0.0204635 8.04214-0.225098Z" transform="matrix(1.00115 0 0 1 1075.93 449.837)"/><path d="M5.34096-3.31508C5.48421-3.31508 5.58652-3.31508 5.66838-3.37647 5.79117-3.47879 5.83208-3.62203 5.83208-3.68343 5.83208-3.92899 5.58652-3.92899 5.42281-3.92899L3.08999-3.92899C1.63708-3.92899 0.53205-2.49654 0.53205-1.39152 0.53205-0.552514 1.16642 0.0818539 2.10774 0.0818539 3.2537 0.0818539 4.56336-0.94132 4.56336-2.35331 4.56336-2.49654 4.56336-2.90581 4.29733-3.31508ZM2.10774-0.163708C1.61662-0.163708 1.20735-0.491123 1.20735-1.14595 1.20735-1.41197 1.37106-3.31508 2.94674-3.31508 3.39694-3.31508 3.88806-3.1309 3.88806-2.45562 3.88806-2.27145 3.80621-1.45291 3.35601-0.839002 2.9672-0.347879 2.45562-0.163708 2.10774-0.163708Z" transform="matrix(1.00115 0 0 1 1085.57 451.793)"/><path d="M4.8559 55.4768C11.3224 54.9089 17.6507 53.2156 22.9916 50.7241" stroke="#000000" stroke-width="0.5219" stroke-miterlimit="10" fill="none" transform="matrix(1.00115 0 0 -1 1112.15 494.583)"/><path d="M-1.57083 2.09049C-1.43873 1.31084-0.00130359 0.129306 0.391251 0.00184486 0.00079323-0.129432-1.43694-1.30806-1.56821-2.09196" stroke="#000000" stroke-width="0.41861" stroke-linecap="round" stroke-linejoin="round" stroke-miterlimit="10" fill="none" transform="matrix(0.907149 0.422564 0.42305 -0.906107 1135.16 443.858)"/><path d="M31.9393 45.6185C35.9246 42.8253 39.5312 39.5204 42.2734 36.2564" stroke="#000000" stroke-width="0.5219" stroke-miterlimit="10" fill="none" transform="matrix(1.00115 0 0 -1 1112.15 494.583)"/><path d="M-1.57295 2.09798C-1.44253 1.31376-0.0021299 0.131966 0.394561-0.000426127-0.00103751-0.129516-1.44148-1.31283-1.57255-2.09813" stroke="#000000" stroke-width="0.419566" stroke-linecap="round" stroke-linejoin="round" stroke-miterlimit="10" fill="none" transform="matrix(0.643181 0.765714 0.766595 -0.642442 1154.47 458.325)"/><path d="M31.9393 45.6185C35.9246 42.8253 39.5312 39.5204 42.2734 36.2564" stroke="#000000" stroke-width="0.5219" stroke-miterlimit="10" fill="none" transform="matrix(1.00115 0 0 -1 1112.15 494.583)"/><path d="M-1.57295 2.09798C-1.44253 1.31376-0.0021299 0.131966 0.394561-0.000426127-0.00103751-0.129516-1.44148-1.31283-1.57255-2.09813" stroke="#000000" stroke-width="0.419566" stroke-linecap="round" stroke-linejoin="round" stroke-miterlimit="10" fill="none" transform="matrix(0.643181 0.765714 0.766595 -0.642442 1154.47 458.325)"/><path d="M52.3311 19.0467C53.9938 14.4731 55.0528 9.70001 55.4211 5.45384" stroke="#000000" stroke-width="0.5219" stroke-miterlimit="10" fill="none" transform="matrix(1.00115 0 0 -1 1112.15 494.583)"/><path d="M-1.56612 2.08688C-1.43409 1.30505-0.000996623 0.132325 0.393176 0.000342157 0.00179515-0.129823-1.43587-1.30357-1.56599-2.08819" stroke="#000000" stroke-width="0.417762" stroke-linecap="round" stroke-linejoin="round" stroke-miterlimit="10" fill="none" transform="matrix(0.087067 0.996202 0.997348 -0.086967 1167.63 489.131)"/><path d="M55.4723-4.85463C55.0528-9.69936 53.9938-14.4775 52.5358-18.4833" stroke="#000000" stroke-width="0.5219" stroke-miterlimit="10" fill="none" transform="matrix(1.00115 0 0 -1 1112.15 494.583)"/><path d="M-1.57107 2.09203C-1.43794 1.30741-0.00243936 0.131088 0.392774 0.0026949-0.000170976-0.129445-1.43929-1.30668-1.56843-2.08875" stroke="#000000" stroke-width="0.418099" stroke-linecap="round" stroke-linejoin="round" stroke-miterlimit="10" fill="none" transform="matrix(-0.342389 0.939558 0.940639 0.341995 1164.74 513.064)"/><path d="M42.657-35.7954C22.8894-59.354-12.2362-62.4286-35.7948-42.6609-52.3703-28.7509-59.3891-6.4866-53.9459 13.8336" stroke="#000000" stroke-width="0.5219" stroke-miterlimit="10" fill="none" transform="matrix(1.00115 0 0 -1 1112.15 494.583)"/><path d="M-1.57008 2.09027C-1.44029 1.30935-0.00197324 0.132199 0.393666-0.000146547-1.07009e-05-0.132112-1.4385-1.30676-1.56675-2.09326" stroke="#000000" stroke-width="0.418358" stroke-linecap="round" stroke-linejoin="round" stroke-miterlimit="10" fill="none" transform="matrix(0.259091 -0.965853 -0.966964 -0.258793 1058.14 480.751)"/><path d="M-50.4722 23.5333C-47.0343 30.9002-42.0208 37.4332-36.2553 42.2728" stroke="#000000" stroke-width="0.5219" stroke-miterlimit="10" fill="none" transform="matrix(1.00115 0 0 -1 1112.15 494.583)"/><path d="M-1.5721 2.09697C-1.44171 1.31276-0.00135357 0.130911 0.395332-0.00149671-0.000271144-0.130572-1.44468-1.31054-1.57187-2.09913" stroke="#000000" stroke-width="0.419579" stroke-linecap="round" stroke-linejoin="round" stroke-miterlimit="10" fill="none" transform="matrix(0.766571 -0.642472 -0.643211 -0.76569 1075.85 452.312)"/><path d="M-23.532 50.4684C-17.6487 53.2156-11.3205 54.9089-5.45257 55.4206" stroke="#000000" stroke-width="0.5219" stroke-miterlimit="10" fill="none" transform="matrix(1.00115 0 0 -1 1112.15 494.583)"/><path d="M-1.56454 2.08652C-1.43775 1.30512 0.000245331 0.131707 0.389299 0.000103641-0.00210373-0.129995-1.43487-1.30394-1.56512-2.08854" stroke="#000000" stroke-width="0.417768" stroke-linecap="round" stroke-linejoin="round" stroke-miterlimit="10" fill="none" transform="matrix(0.997334 -0.0871356 -0.0872358 -0.996188 1106.69 439.16)"/><path d="M0.920856-0.122781C0.736685 0.204635 0.859466 0.634368 1.18688 0.818539 1.5143 1.02317 1.94404 0.900393 2.1282 0.572977 2.31237 0.245562 2.21006-0.163708 1.88264-0.368343 1.55522-0.552514 1.10503-0.450196 0.920856-0.122781Z" transform="matrix(1.00115 0 0 1 1081.09 536.404)"/><path d="M0.920856-0.122781C0.736685 0.204635 0.859466 0.634368 1.18688 0.818539 1.5143 1.02317 1.94404 0.900393 2.1282 0.572977 2.31237 0.245562 2.21006-0.163708 1.88264-0.368343 1.55522-0.552514 1.10503-0.450196 0.920856-0.122781Z" transform="matrix(1.00115 0 0 1 1085 538.662)"/><path d="M0.920856-0.122781C0.736685 0.204635 0.859466 0.634368 1.18688 0.818539 1.5143 1.02317 1.94404 0.900393 2.1282 0.572977 2.31237 0.245562 2.21006-0.163708 1.88264-0.368343 1.55522-0.552514 1.10503-0.450196 0.920856-0.122781Z" transform="matrix(1.00115 0 0 1 1088.92 540.92)"/><path d="M2.55793-3.29461 1.73939-3.29461 1.73939-4.93169C1.73939-5.34096 1.84171-5.52514 2.33284-5.52514L3.02859-5.52514C3.70388-5.52514 3.84713-5.1568 4.05177-4.52242 4.15409-4.50196 4.2564-4.52242 4.35871-4.56336 4.3178-4.95216 4.17455-5.83208 4.15409-5.89348 4.15409-5.91394 4.13362-5.91394 4.11315-5.91394 3.96991-5.89348 3.88806-5.89348 3.66297-5.89348L1.35059-5.89348C1.0641-5.89348 0.53205-5.89348 0.163708-5.91394 0.102317-5.85255 0.102317-5.66838 0.163708-5.60699 0.798075-5.58652 0.961783-5.52514 0.961783-4.76798L0.961783-1.10503C0.961783-0.347879 0.798075-0.306952 0.163708-0.286489 0.102317-0.225098 0.102317-0.0409269 0.163708 0.0204635 0.511587 0 1.04364 0 1.35059 0L3.31508 0C3.74482 0 4.48151 0.0204635 4.48151 0.0204635 4.60428-0.429733 4.74753-1.04364 4.80892-1.5143 4.72707-1.55522 4.62475-1.57568 4.50196-1.55522 4.3178-0.900393 3.99038-0.347879 3.29461-0.347879L2.25098-0.347879C1.86218-0.347879 1.73939-0.511587 1.73939-0.920856L1.73939-2.94674 2.55793-2.94674C3.33555-2.94674 3.37647-2.74211 3.39694-2.33284 3.45832-2.27145 3.6425-2.27145 3.70388-2.33284 3.68343-2.55793 3.68343-2.82396 3.68343-3.1309 3.68343-3.37647 3.68343-3.70388 3.70388-3.90853 3.6425-3.96991 3.45832-3.96991 3.39694-3.90853 3.37647-3.41741 3.33555-3.29461 2.55793-3.29461Z" transform="matrix(1.00115 0 0 1 1141.28 409.895)"/><path d="M1.678-3.27416C1.61662-3.21276 1.57568-3.1923 1.57568-3.27416 1.55522-3.51972 1.53477-3.86759 1.49383-3.96991 1.47337-4.01084 1.45291-4.0313 1.39152-4.0313 1.12549-3.92899 0.900393-3.84713 0.266025-3.76528 0.245562-3.72435 0.266025-3.56064 0.286489-3.51972 0.777612-3.45832 0.879929-3.41741 0.879929-2.88534L0.879929-1.10503C0.879929-0.368343 0.777612-0.327416 0.245562-0.286489 0.184171-0.225098 0.184171-0.0409269 0.245562 0.0204635 0.511587 0 0.879929 0 1.24827 0 1.59615 0 1.88264 0 2.14866 0.0204635 2.21006-0.0409269 2.21006-0.225098 2.14866-0.286489 1.69847-0.327416 1.59615-0.368343 1.59615-1.10503L1.59615-2.61932C1.59615-2.80349 1.678-2.90581 1.75986-2.98767 2.10774-3.33555 2.51701-3.54017 2.86489-3.54017 3.04905-3.54017 3.23323-3.41741 3.35601-3.21276 3.43786-3.02859 3.45832-2.78303 3.45832-2.49654L3.45832-1.10503C3.45832-0.368343 3.37647-0.327416 2.88534-0.286489 2.84443-0.225098 2.84443-0.0409269 2.88534 0.0204635 3.17184 0 3.45832 0 3.82668 0 4.19501 0 4.52242 0 4.78845 0.0204635 4.82938-0.0409269 4.82938-0.225098 4.78845-0.286489 4.27686-0.327416 4.17455-0.368343 4.17455-1.10503L4.17455-2.47607C4.17455-2.9672 4.13362-3.41741 3.92899-3.70388 3.78574-3.88806 3.49926-4.01084 3.17184-4.01084 2.72164-4.01084 2.21006-3.88806 1.678-3.27416Z" transform="matrix(1.00115 0 0 1 1146.37 409.895)"/><path d="M3.6425-0.839002C3.60157-0.920856 3.51972-0.94132 3.43786-0.961783 3.1309-0.552514 2.74211-0.347879 2.35331-0.347879 1.678-0.347879 1.12549-1.02317 1.12549-2.10774 1.12549-3.11045 1.55522-3.70388 2.16913-3.70388 2.70118-3.70388 2.78303-3.37647 2.80349-3.06952 2.84443-2.82396 2.9672-2.74211 3.15138-2.74211 3.35601-2.74211 3.60157-2.86489 3.60157-3.1309 3.60157-3.6425 3.08999-4.01084 2.21006-4.01084 1.30966-4.01084 0.347879-3.1923 0.347879-1.9031 0.347879-0.716222 1.00271 0.0818539 2.14866 0.0818539 2.70118 0.0818539 3.17184-0.0818539 3.6425-0.839002Z" transform="matrix(1.00115 0 0 1 1151.33 409.895)"/><path d="M0.47066 0.777612C0.429733 0.961783 0.429733 1.00271 0.163708 1.00271 0.0818539 1.00271 0 1.00271 0 1.14595 0 1.20735 0.0409269 1.24827 0.0818539 1.24827 0.245562 1.24827 0.450196 1.20735 0.634368 1.20735 0.839002 1.20735 1.08456 1.24827 1.30966 1.24827 1.35059 1.24827 1.43244 1.22781 1.43244 1.10503 1.43244 1.00271 1.35059 1.00271 1.26874 1.00271 1.12549 1.00271 0.94132 1.00271 0.94132 0.94132 0.94132 0.900393 1.00271 0.736685 1.02317 0.634368 1.10503 0.306952 1.18688-0.0409269 1.24827-0.306952 1.33012-0.184171 1.53477 0.0613904 1.92357 0.0613904 2.70118 0.0613904 3.56064-0.798075 3.56064-1.73939 3.56064-2.49654 3.04905-2.82396 2.59887-2.82396 2.21006-2.82396 1.86218-2.53747 1.69847-2.37376 1.57568-2.74211 1.22781-2.82396 1.04364-2.82396 0.777612-2.82396 0.634368-2.63978 0.53205-2.47607 0.409269-2.25098 0.306952-1.88264 0.306952-1.84171 0.306952-1.75986 0.388806-1.75986 0.409269-1.75986 0.491123-1.75986 0.511587-1.78033 0.552514-1.94404 0.654831-2.31237 0.757149-2.63978 1.02317-2.63978 1.18688-2.63978 1.22781-2.49654 1.22781-2.33284 1.22781-2.25098 1.20735-2.16913 1.20735-2.1282ZM1.678-2.04635C2.04635-2.53747 2.37376-2.63978 2.5784-2.63978 2.82396-2.63978 3.04905-2.45562 3.04905-2.02589 3.04905-1.75986 2.90581-1.10503 2.72164-0.736685 2.55793-0.429733 2.25098-0.122781 1.92357-0.122781 1.45291-0.122781 1.35059-0.613904 1.35059-0.675295 1.35059-0.695758 1.35059-0.736685 1.37106-0.757149Z" transform="matrix(1.00115 0 0 1 1155.24 411.264)"/><path d="M2.00542-4.23595C2.00542-4.2564 2.02589-4.33826 2.02589-4.33826 2.02589-4.37918 2.00542-4.44057 1.92357-4.44057 1.80079-4.44057 1.26874-4.37918 1.10503-4.35871 1.04364-4.35871 0.961783-4.35871 0.961783-4.21548 0.961783-4.13362 1.04364-4.13362 1.12549-4.13362 1.43244-4.13362 1.43244-4.09269 1.43244-4.0313 1.43244-3.99038 1.43244-3.94944 1.41197-3.88806L0.511587-0.286489C0.47066-0.163708 0.47066-0.143244 0.47066-0.143244 0.47066-0.0409269 0.552514 0.0613904 0.695758 0.0613904 0.859466 0.0613904 0.94132-0.0613904 0.982247-0.204635 1.00271-0.225098 1.26874-1.35059 1.30966-1.45291 1.75986-1.39152 2.1282-1.24827 2.1282-0.920856 2.1282-0.879929 2.1282-0.859466 2.10774-0.798075 2.08727-0.695758 2.08727-0.654831 2.08727-0.593441 2.08727-0.143244 2.45562 0.0613904 2.76258 0.0613904 3.37647 0.0613904 3.56064-0.900393 3.56064-0.920856 3.56064-1.00271 3.47879-1.00271 3.45832-1.00271 3.37647-1.00271 3.37647-0.961783 3.33555-0.839002 3.2537-0.572977 3.08999-0.122781 2.78303-0.122781 2.59887-0.122781 2.55793-0.266025 2.55793-0.450196 2.55793-0.552514 2.55793-0.572977 2.59887-0.736685 2.59887-0.757149 2.61932-0.859466 2.61932-0.94132 2.61932-1.49383 1.86218-1.59615 1.59615-1.61662 1.78033-1.71893 2.00542-1.94404 2.1282-2.02589 2.43516-2.33284 2.76258-2.63978 3.1309-2.63978 3.1923-2.63978 3.27416-2.61932 3.33555-2.55793 3.04905-2.51701 3.00814-2.29191 3.00814-2.1896 3.00814-2.04635 3.11045-1.96449 3.2537-1.96449 3.43786-1.96449 3.62203-2.10774 3.62203-2.37376 3.62203-2.5784 3.45832-2.82396 3.1309-2.82396 2.76258-2.82396 2.43516-2.55793 2.10774-2.25098 1.84171-2.00542 1.63708-1.80079 1.37106-1.69847Z" transform="matrix(1.00115 0 0 1 1159.01 411.264)"/><path d="M1.82124-2.90581C1.82124-3.04905 1.80079-3.04905 1.65753-3.04905 1.33012-2.74211 0.818539-2.74211 0.736685-2.74211L0.654831-2.74211 0.654831-2.53747 0.736685-2.53747C0.839002-2.53747 1.12549-2.55793 1.39152-2.68072L1.39152-0.388806C1.39152-0.245562 1.39152-0.204635 0.920856-0.204635L0.675295-0.204635 0.675295 0C0.94132-0.0204635 1.35059-0.0204635 1.59615-0.0204635 1.86218-0.0204635 2.27145-0.0204635 2.53747 0L2.53747-0.204635 2.29191-0.204635C1.82124-0.204635 1.82124-0.245562 1.82124-0.388806Z" transform="matrix(1.00115 0 0 1 1162.9 412.178)"/><path d="M3.02859 2.1896C3.02859 2.16913 3.02859 2.14866 2.86489 1.98495 1.71893 0.839002 1.43244-0.879929 1.43244-2.27145 1.43244-3.86759 1.78033-5.46375 2.90581-6.58924 3.02859-6.71202 3.02859-6.73248 3.02859-6.75295 3.02859-6.81433 2.98767-6.8348 2.92628-6.8348 2.84443-6.8348 2.02589-6.2209 1.47337-5.07494 1.02317-4.05177 0.900393-3.04905 0.900393-2.27145 0.900393-1.57568 1.00271-0.47066 1.5143 0.572977 2.04635 1.69847 2.84443 2.27145 2.92628 2.27145 2.98767 2.27145 3.02859 2.25098 3.02859 2.1896Z" transform="matrix(1.00115 0 0 1 1166.92 409.895)"/><path d="M3.04905-2.76258C3.11045-2.98767 3.31508-3.82668 3.94944-3.82668 3.99038-3.82668 4.21548-3.82668 4.39965-3.72435 4.15409-3.66297 3.96991-3.43786 3.96991-3.21276 3.96991-3.06952 4.07224-2.90581 4.3178-2.90581 4.52242-2.90581 4.80892-3.06952 4.80892-3.43786 4.80892-3.90853 4.27686-4.0313 3.96991-4.0313 3.43786-4.0313 3.11045-3.54017 3.00814-3.33555 2.78303-3.94944 2.27145-4.0313 2.02589-4.0313 1.0641-4.0313 0.552514-2.86489 0.552514-2.61932 0.552514-2.53747 0.634368-2.53747 0.654831-2.53747 0.736685-2.53747 0.757149-2.55793 0.777612-2.63978 1.08456-3.60157 1.69847-3.82668 2.00542-3.82668 2.16913-3.82668 2.49654-3.74482 2.49654-3.21276 2.49654-2.94674 2.33284-2.33284 2.00542-1.04364 1.86218-0.491123 1.53477-0.102317 1.12549-0.102317 1.08456-0.102317 0.859466-0.102317 0.675295-0.225098 0.900393-0.266025 1.10503-0.450196 1.10503-0.716222 1.10503-0.961783 0.900393-1.02317 0.757149-1.02317 0.491123-1.02317 0.266025-0.798075 0.266025-0.511587 0.266025-0.0818539 0.716222 0.102317 1.12549 0.102317 1.71893 0.102317 2.04635-0.53205 2.08727-0.593441 2.1896-0.245562 2.51701 0.102317 3.06952 0.102317 4.01084 0.102317 4.52242-1.08456 4.52242-1.30966 4.52242-1.39152 4.44057-1.39152 4.42011-1.39152 4.33826-1.39152 4.3178-1.35059 4.29733-1.2892 3.99038-0.327416 3.37647-0.102317 3.08999-0.102317 2.72164-0.102317 2.5784-0.388806 2.5784-0.695758 2.5784-0.900393 2.63978-1.10503 2.74211-1.5143Z" transform="matrix(1.00115 0 0 1 1170.48 409.895)"/><path d="M2.14866-4.05177C2.14866-4.23595 2.1282-4.23595 1.94404-4.23595 1.53477-3.84713 0.961783-3.82668 0.695758-3.82668L0.695758-3.60157C0.839002-3.60157 1.26874-3.60157 1.61662-3.78574L1.61662-0.53205C1.61662-0.306952 1.61662-0.225098 0.982247-0.225098L0.736685-0.225098 0.736685 0C0.859466 0 1.63708-0.0204635 1.88264-0.0204635 2.0668-0.0204635 2.88534 0 3.02859 0L3.02859-0.225098 2.78303-0.225098C2.14866-0.225098 2.14866-0.306952 2.14866-0.53205Z" transform="matrix(1.00115 0 0 1 1175.71 411.264)"/><path d="M2.63978-2.27145C2.63978-2.98767 2.53747-4.09269 2.02589-5.13634 1.49383-6.26182 0.695758-6.8348 0.613904-6.8348 0.552514-6.8348 0.511587-6.81433 0.511587-6.75295 0.511587-6.73248 0.511587-6.71202 0.695758-6.54831 1.59615-5.64792 2.10774-4.19501 2.10774-2.27145 2.10774-0.716222 1.78033 0.879929 0.634368 2.02589 0.511587 2.14866 0.511587 2.16913 0.511587 2.1896 0.511587 2.25098 0.552514 2.27145 0.613904 2.27145 0.695758 2.27145 1.5143 1.65753 2.0668 0.511587 2.53747-0.511587 2.63978-1.5143 2.63978-2.27145Z" transform="matrix(1.00115 0 0 1 1179.81 409.895)"/><path d="M2.55793-3.29461 1.73939-3.29461 1.73939-4.93169C1.73939-5.34096 1.84171-5.52514 2.33284-5.52514L3.02859-5.52514C3.70388-5.52514 3.84713-5.1568 4.05177-4.52242 4.15409-4.50196 4.2564-4.52242 4.35871-4.56336 4.3178-4.95216 4.17455-5.83208 4.15409-5.89348 4.15409-5.91394 4.13362-5.91394 4.11315-5.91394 3.96991-5.89348 3.88806-5.89348 3.66297-5.89348L1.35059-5.89348C1.0641-5.89348 0.53205-5.89348 0.163708-5.91394 0.102317-5.85255 0.102317-5.66838 0.163708-5.60699 0.798075-5.58652 0.961783-5.52514 0.961783-4.76798L0.961783-1.10503C0.961783-0.347879 0.798075-0.306952 0.163708-0.286489 0.102317-0.225098 0.102317-0.0409269 0.163708 0.0204635 0.511587 0 1.04364 0 1.35059 0L3.31508 0C3.74482 0 4.48151 0.0204635 4.48151 0.0204635 4.60428-0.429733 4.74753-1.04364 4.80892-1.5143 4.72707-1.55522 4.62475-1.57568 4.50196-1.55522 4.3178-0.900393 3.99038-0.347879 3.29461-0.347879L2.25098-0.347879C1.86218-0.347879 1.73939-0.511587 1.73939-0.920856L1.73939-2.94674 2.55793-2.94674C3.33555-2.94674 3.37647-2.74211 3.39694-2.33284 3.45832-2.27145 3.6425-2.27145 3.70388-2.33284 3.68343-2.55793 3.68343-2.82396 3.68343-3.1309 3.68343-3.37647 3.68343-3.70388 3.70388-3.90853 3.6425-3.96991 3.45832-3.96991 3.39694-3.90853 3.37647-3.41741 3.33555-3.29461 2.55793-3.29461Z" transform="matrix(1.00115 0 0 1 1202.6 496.702)"/><path d="M1.678-3.27416C1.61662-3.21276 1.57568-3.1923 1.57568-3.27416 1.55522-3.51972 1.53477-3.86759 1.49383-3.96991 1.47337-4.01084 1.45291-4.0313 1.39152-4.0313 1.12549-3.92899 0.900393-3.84713 0.266025-3.76528 0.245562-3.72435 0.266025-3.56064 0.286489-3.51972 0.777612-3.45832 0.879929-3.41741 0.879929-2.88534L0.879929-1.10503C0.879929-0.368343 0.777612-0.327416 0.245562-0.286489 0.184171-0.225098 0.184171-0.0409269 0.245562 0.0204635 0.511587 0 0.879929 0 1.24827 0 1.59615 0 1.88264 0 2.14866 0.0204635 2.21006-0.0409269 2.21006-0.225098 2.14866-0.286489 1.69847-0.327416 1.59615-0.368343 1.59615-1.10503L1.59615-2.61932C1.59615-2.80349 1.678-2.90581 1.75986-2.98767 2.10774-3.33555 2.51701-3.54017 2.86489-3.54017 3.04905-3.54017 3.23323-3.41741 3.35601-3.21276 3.43786-3.02859 3.45832-2.78303 3.45832-2.49654L3.45832-1.10503C3.45832-0.368343 3.37647-0.327416 2.88534-0.286489 2.84443-0.225098 2.84443-0.0409269 2.88534 0.0204635 3.17184 0 3.45832 0 3.82668 0 4.19501 0 4.52242 0 4.78845 0.0204635 4.82938-0.0409269 4.82938-0.225098 4.78845-0.286489 4.27686-0.327416 4.17455-0.368343 4.17455-1.10503L4.17455-2.47607C4.17455-2.9672 4.13362-3.41741 3.92899-3.70388 3.78574-3.88806 3.49926-4.01084 3.17184-4.01084 2.72164-4.01084 2.21006-3.88806 1.678-3.27416Z" transform="matrix(1.00115 0 0 1 1207.7 496.702)"/><path d="M3.6425-0.839002C3.60157-0.920856 3.51972-0.94132 3.43786-0.961783 3.1309-0.552514 2.74211-0.347879 2.35331-0.347879 1.678-0.347879 1.12549-1.02317 1.12549-2.10774 1.12549-3.11045 1.55522-3.70388 2.16913-3.70388 2.70118-3.70388 2.78303-3.37647 2.80349-3.06952 2.84443-2.82396 2.9672-2.74211 3.15138-2.74211 3.35601-2.74211 3.60157-2.86489 3.60157-3.1309 3.60157-3.6425 3.08999-4.01084 2.21006-4.01084 1.30966-4.01084 0.347879-3.1923 0.347879-1.9031 0.347879-0.716222 1.00271 0.0818539 2.14866 0.0818539 2.70118 0.0818539 3.17184-0.0818539 3.6425-0.839002Z" transform="matrix(1.00115 0 0 1 1212.65 496.702)"/><path d="M0.47066 0.777612C0.429733 0.961783 0.429733 1.00271 0.163708 1.00271 0.0818539 1.00271 0 1.00271 0 1.14595 0 1.20735 0.0409269 1.24827 0.0818539 1.24827 0.245562 1.24827 0.450196 1.20735 0.634368 1.20735 0.839002 1.20735 1.08456 1.24827 1.30966 1.24827 1.35059 1.24827 1.43244 1.22781 1.43244 1.10503 1.43244 1.00271 1.35059 1.00271 1.26874 1.00271 1.12549 1.00271 0.94132 1.00271 0.94132 0.94132 0.94132 0.900393 1.00271 0.736685 1.02317 0.634368 1.10503 0.306952 1.18688-0.0409269 1.24827-0.306952 1.33012-0.184171 1.53477 0.0613904 1.92357 0.0613904 2.70118 0.0613904 3.56064-0.798075 3.56064-1.73939 3.56064-2.49654 3.04905-2.82396 2.59887-2.82396 2.21006-2.82396 1.86218-2.53747 1.69847-2.37376 1.57568-2.74211 1.22781-2.82396 1.04364-2.82396 0.777612-2.82396 0.634368-2.63978 0.53205-2.47607 0.409269-2.25098 0.306952-1.88264 0.306952-1.84171 0.306952-1.75986 0.388806-1.75986 0.409269-1.75986 0.491123-1.75986 0.511587-1.78033 0.552514-1.94404 0.654831-2.31237 0.757149-2.63978 1.02317-2.63978 1.18688-2.63978 1.22781-2.49654 1.22781-2.33284 1.22781-2.25098 1.20735-2.16913 1.20735-2.1282ZM1.678-2.04635C2.04635-2.53747 2.37376-2.63978 2.5784-2.63978 2.82396-2.63978 3.04905-2.45562 3.04905-2.02589 3.04905-1.75986 2.90581-1.10503 2.72164-0.736685 2.55793-0.429733 2.25098-0.122781 1.92357-0.122781 1.45291-0.122781 1.35059-0.613904 1.35059-0.675295 1.35059-0.695758 1.35059-0.736685 1.37106-0.757149Z" transform="matrix(1.00115 0 0 1 1216.57 498.071)"/><path d="M2.00542-4.23595C2.00542-4.2564 2.02589-4.33826 2.02589-4.33826 2.02589-4.37918 2.00542-4.44057 1.92357-4.44057 1.80079-4.44057 1.26874-4.37918 1.10503-4.35871 1.04364-4.35871 0.961783-4.35871 0.961783-4.21548 0.961783-4.13362 1.04364-4.13362 1.12549-4.13362 1.43244-4.13362 1.43244-4.09269 1.43244-4.0313 1.43244-3.99038 1.43244-3.94944 1.41197-3.88806L0.511587-0.286489C0.47066-0.163708 0.47066-0.143244 0.47066-0.143244 0.47066-0.0409269 0.552514 0.0613904 0.695758 0.0613904 0.859466 0.0613904 0.94132-0.0613904 0.982247-0.204635 1.00271-0.225098 1.26874-1.35059 1.30966-1.45291 1.75986-1.39152 2.1282-1.24827 2.1282-0.920856 2.1282-0.879929 2.1282-0.859466 2.10774-0.798075 2.08727-0.695758 2.08727-0.654831 2.08727-0.593441 2.08727-0.143244 2.45562 0.0613904 2.76258 0.0613904 3.37647 0.0613904 3.56064-0.900393 3.56064-0.920856 3.56064-1.00271 3.47879-1.00271 3.45832-1.00271 3.37647-1.00271 3.37647-0.961783 3.33555-0.839002 3.2537-0.572977 3.08999-0.122781 2.78303-0.122781 2.59887-0.122781 2.55793-0.266025 2.55793-0.450196 2.55793-0.552514 2.55793-0.572977 2.59887-0.736685 2.59887-0.757149 2.61932-0.859466 2.61932-0.94132 2.61932-1.49383 1.86218-1.59615 1.59615-1.61662 1.78033-1.71893 2.00542-1.94404 2.1282-2.02589 2.43516-2.33284 2.76258-2.63978 3.1309-2.63978 3.1923-2.63978 3.27416-2.61932 3.33555-2.55793 3.04905-2.51701 3.00814-2.29191 3.00814-2.1896 3.00814-2.04635 3.11045-1.96449 3.2537-1.96449 3.43786-1.96449 3.62203-2.10774 3.62203-2.37376 3.62203-2.5784 3.45832-2.82396 3.1309-2.82396 2.76258-2.82396 2.43516-2.55793 2.10774-2.25098 1.84171-2.00542 1.63708-1.80079 1.37106-1.69847Z" transform="matrix(1.00115 0 0 1 1220.34 498.071)"/><path d="M2.68072-0.879929 2.49654-0.879929C2.47607-0.798075 2.43516-0.511587 2.37376-0.47066 2.33284-0.429733 1.94404-0.429733 1.88264-0.429733L0.982247-0.429733C1.2892-0.654831 1.61662-0.920856 1.9031-1.10503 2.31237-1.39152 2.68072-1.65753 2.68072-2.1282 2.68072-2.72164 2.1282-3.04905 1.47337-3.04905 0.859466-3.04905 0.409269-2.68072 0.409269-2.23051 0.409269-2.00542 0.613904-1.96449 0.675295-1.96449 0.798075-1.96449 0.94132-2.04635 0.94132-2.23051 0.94132-2.39422 0.839002-2.47607 0.695758-2.49654 0.818539-2.70118 1.08456-2.84443 1.39152-2.84443 1.82124-2.84443 2.1896-2.5784 2.1896-2.1282 2.1896-1.73939 1.94404-1.45291 1.57568-1.14595L0.47066-0.204635C0.429733-0.163708 0.429733-0.163708 0.409269-0.143244L0.409269 0 2.53747 0Z" transform="matrix(1.00115 0 0 1 1224.22 498.984)"/><path d="M3.02859 2.1896C3.02859 2.16913 3.02859 2.14866 2.86489 1.98495 1.71893 0.839002 1.43244-0.879929 1.43244-2.27145 1.43244-3.86759 1.78033-5.46375 2.90581-6.58924 3.02859-6.71202 3.02859-6.73248 3.02859-6.75295 3.02859-6.81433 2.98767-6.8348 2.92628-6.8348 2.84443-6.8348 2.02589-6.2209 1.47337-5.07494 1.02317-4.05177 0.900393-3.04905 0.900393-2.27145 0.900393-1.57568 1.00271-0.47066 1.5143 0.572977 2.04635 1.69847 2.84443 2.27145 2.92628 2.27145 2.98767 2.27145 3.02859 2.25098 3.02859 2.1896Z" transform="matrix(1.00115 0 0 1 1228.25 496.702)"/><path d="M3.04905-2.76258C3.11045-2.98767 3.31508-3.82668 3.94944-3.82668 3.99038-3.82668 4.21548-3.82668 4.39965-3.72435 4.15409-3.66297 3.96991-3.43786 3.96991-3.21276 3.96991-3.06952 4.07224-2.90581 4.3178-2.90581 4.52242-2.90581 4.80892-3.06952 4.80892-3.43786 4.80892-3.90853 4.27686-4.0313 3.96991-4.0313 3.43786-4.0313 3.11045-3.54017 3.00814-3.33555 2.78303-3.94944 2.27145-4.0313 2.02589-4.0313 1.0641-4.0313 0.552514-2.86489 0.552514-2.61932 0.552514-2.53747 0.634368-2.53747 0.654831-2.53747 0.736685-2.53747 0.757149-2.55793 0.777612-2.63978 1.08456-3.60157 1.69847-3.82668 2.00542-3.82668 2.16913-3.82668 2.49654-3.74482 2.49654-3.21276 2.49654-2.94674 2.33284-2.33284 2.00542-1.04364 1.86218-0.491123 1.53477-0.102317 1.12549-0.102317 1.08456-0.102317 0.859466-0.102317 0.675295-0.225098 0.900393-0.266025 1.10503-0.450196 1.10503-0.716222 1.10503-0.961783 0.900393-1.02317 0.757149-1.02317 0.491123-1.02317 0.266025-0.798075 0.266025-0.511587 0.266025-0.0818539 0.716222 0.102317 1.12549 0.102317 1.71893 0.102317 2.04635-0.53205 2.08727-0.593441 2.1896-0.245562 2.51701 0.102317 3.06952 0.102317 4.01084 0.102317 4.52242-1.08456 4.52242-1.30966 4.52242-1.39152 4.44057-1.39152 4.42011-1.39152 4.33826-1.39152 4.3178-1.35059 4.29733-1.2892 3.99038-0.327416 3.37647-0.102317 3.08999-0.102317 2.72164-0.102317 2.5784-0.388806 2.5784-0.695758 2.5784-0.900393 2.63978-1.10503 2.74211-1.5143Z" transform="matrix(1.00115 0 0 1 1231.81 496.702)"/><path d="M3.23323-1.16642 3.00814-1.16642C2.98767-1.02317 2.92628-0.654831 2.84443-0.572977 2.78303-0.552514 2.29191-0.552514 2.21006-0.552514L1.04364-0.552514C1.69847-1.14595 1.92357-1.30966 2.31237-1.61662 2.78303-1.98495 3.23323-2.39422 3.23323-2.98767 3.23323-3.76528 2.53747-4.23595 1.73939-4.23595 0.94132-4.23595 0.409269-3.68343 0.409269-3.08999 0.409269-2.76258 0.675295-2.74211 0.736685-2.74211 0.900393-2.74211 1.08456-2.84443 1.08456-3.06952 1.08456-3.1923 1.04364-3.41741 0.695758-3.41741 0.900393-3.86759 1.33012-4.01084 1.63708-4.01084 2.27145-4.01084 2.59887-3.51972 2.59887-2.98767 2.59887-2.43516 2.21006-2.00542 2.00542-1.75986L0.47066-0.245562C0.409269-0.184171 0.409269-0.184171 0.409269 0L3.02859 0Z" transform="matrix(1.00115 0 0 1 1237.03 498.071)"/><path d="M2.63978-2.27145C2.63978-2.98767 2.53747-4.09269 2.02589-5.13634 1.49383-6.26182 0.695758-6.8348 0.613904-6.8348 0.552514-6.8348 0.511587-6.81433 0.511587-6.75295 0.511587-6.73248 0.511587-6.71202 0.695758-6.54831 1.59615-5.64792 2.10774-4.19501 2.10774-2.27145 2.10774-0.716222 1.78033 0.879929 0.634368 2.02589 0.511587 2.14866 0.511587 2.16913 0.511587 2.1896 0.511587 2.25098 0.552514 2.27145 0.613904 2.27145 0.695758 2.27145 1.5143 1.65753 2.0668 0.511587 2.53747-0.511587 2.63978-1.5143 2.63978-2.27145Z" transform="matrix(1.00115 0 0 1 1241.13 496.702)"/><path d="M2.55793-3.29461 1.73939-3.29461 1.73939-4.93169C1.73939-5.34096 1.84171-5.52514 2.33284-5.52514L3.02859-5.52514C3.70388-5.52514 3.84713-5.1568 4.05177-4.52242 4.15409-4.50196 4.2564-4.52242 4.35871-4.56336 4.3178-4.95216 4.17455-5.83208 4.15409-5.89348 4.15409-5.91394 4.13362-5.91394 4.11315-5.91394 3.96991-5.89348 3.88806-5.89348 3.66297-5.89348L1.35059-5.89348C1.0641-5.89348 0.53205-5.89348 0.163708-5.91394 0.102317-5.85255 0.102317-5.66838 0.163708-5.60699 0.798075-5.58652 0.961783-5.52514 0.961783-4.76798L0.961783-1.10503C0.961783-0.347879 0.798075-0.306952 0.163708-0.286489 0.102317-0.225098 0.102317-0.0409269 0.163708 0.0204635 0.511587 0 1.04364 0 1.35059 0L3.31508 0C3.74482 0 4.48151 0.0204635 4.48151 0.0204635 4.60428-0.429733 4.74753-1.04364 4.80892-1.5143 4.72707-1.55522 4.62475-1.57568 4.50196-1.55522 4.3178-0.900393 3.99038-0.347879 3.29461-0.347879L2.25098-0.347879C1.86218-0.347879 1.73939-0.511587 1.73939-0.920856L1.73939-2.94674 2.55793-2.94674C3.33555-2.94674 3.37647-2.74211 3.39694-2.33284 3.45832-2.27145 3.6425-2.27145 3.70388-2.33284 3.68343-2.55793 3.68343-2.82396 3.68343-3.1309 3.68343-3.37647 3.68343-3.70388 3.70388-3.90853 3.6425-3.96991 3.45832-3.96991 3.39694-3.90853 3.37647-3.41741 3.33555-3.29461 2.55793-3.29461Z" transform="matrix(1.00115 0 0 1 979.31 456.069)"/><path d="M1.678-3.27416C1.61662-3.21276 1.57568-3.1923 1.57568-3.27416 1.55522-3.51972 1.53477-3.86759 1.49383-3.96991 1.47337-4.01084 1.45291-4.0313 1.39152-4.0313 1.12549-3.92899 0.900393-3.84713 0.266025-3.76528 0.245562-3.72435 0.266025-3.56064 0.286489-3.51972 0.777612-3.45832 0.879929-3.41741 0.879929-2.88534L0.879929-1.10503C0.879929-0.368343 0.777612-0.327416 0.245562-0.286489 0.184171-0.225098 0.184171-0.0409269 0.245562 0.0204635 0.511587 0 0.879929 0 1.24827 0 1.59615 0 1.88264 0 2.14866 0.0204635 2.21006-0.0409269 2.21006-0.225098 2.14866-0.286489 1.69847-0.327416 1.59615-0.368343 1.59615-1.10503L1.59615-2.61932C1.59615-2.80349 1.678-2.90581 1.75986-2.98767 2.10774-3.33555 2.51701-3.54017 2.86489-3.54017 3.04905-3.54017 3.23323-3.41741 3.35601-3.21276 3.43786-3.02859 3.45832-2.78303 3.45832-2.49654L3.45832-1.10503C3.45832-0.368343 3.37647-0.327416 2.88534-0.286489 2.84443-0.225098 2.84443-0.0409269 2.88534 0.0204635 3.17184 0 3.45832 0 3.82668 0 4.19501 0 4.52242 0 4.78845 0.0204635 4.82938-0.0409269 4.82938-0.225098 4.78845-0.286489 4.27686-0.327416 4.17455-0.368343 4.17455-1.10503L4.17455-2.47607C4.17455-2.9672 4.13362-3.41741 3.92899-3.70388 3.78574-3.88806 3.49926-4.01084 3.17184-4.01084 2.72164-4.01084 2.21006-3.88806 1.678-3.27416Z" transform="matrix(1.00115 0 0 1 984.403 456.069)"/><path d="M3.6425-0.839002C3.60157-0.920856 3.51972-0.94132 3.43786-0.961783 3.1309-0.552514 2.74211-0.347879 2.35331-0.347879 1.678-0.347879 1.12549-1.02317 1.12549-2.10774 1.12549-3.11045 1.55522-3.70388 2.16913-3.70388 2.70118-3.70388 2.78303-3.37647 2.80349-3.06952 2.84443-2.82396 2.9672-2.74211 3.15138-2.74211 3.35601-2.74211 3.60157-2.86489 3.60157-3.1309 3.60157-3.6425 3.08999-4.01084 2.21006-4.01084 1.30966-4.01084 0.347879-3.1923 0.347879-1.9031 0.347879-0.716222 1.00271 0.0818539 2.14866 0.0818539 2.70118 0.0818539 3.17184-0.0818539 3.6425-0.839002Z" transform="matrix(1.00115 0 0 1 989.359 456.069)"/><path d="M0.47066 0.777612C0.429733 0.961783 0.429733 1.00271 0.163708 1.00271 0.0818539 1.00271 0 1.00271 0 1.14595 0 1.20735 0.0409269 1.24827 0.0818539 1.24827 0.245562 1.24827 0.450196 1.20735 0.634368 1.20735 0.839002 1.20735 1.08456 1.24827 1.30966 1.24827 1.35059 1.24827 1.43244 1.22781 1.43244 1.10503 1.43244 1.00271 1.35059 1.00271 1.26874 1.00271 1.12549 1.00271 0.94132 1.00271 0.94132 0.94132 0.94132 0.900393 1.00271 0.736685 1.02317 0.634368 1.10503 0.306952 1.18688-0.0409269 1.24827-0.306952 1.33012-0.184171 1.53477 0.0613904 1.92357 0.0613904 2.70118 0.0613904 3.56064-0.798075 3.56064-1.73939 3.56064-2.49654 3.04905-2.82396 2.59887-2.82396 2.21006-2.82396 1.86218-2.53747 1.69847-2.37376 1.57568-2.74211 1.22781-2.82396 1.04364-2.82396 0.777612-2.82396 0.634368-2.63978 0.53205-2.47607 0.409269-2.25098 0.306952-1.88264 0.306952-1.84171 0.306952-1.75986 0.388806-1.75986 0.409269-1.75986 0.491123-1.75986 0.511587-1.78033 0.552514-1.94404 0.654831-2.31237 0.757149-2.63978 1.02317-2.63978 1.18688-2.63978 1.22781-2.49654 1.22781-2.33284 1.22781-2.25098 1.20735-2.16913 1.20735-2.1282ZM1.678-2.04635C2.04635-2.53747 2.37376-2.63978 2.5784-2.63978 2.82396-2.63978 3.04905-2.45562 3.04905-2.02589 3.04905-1.75986 2.90581-1.10503 2.72164-0.736685 2.55793-0.429733 2.25098-0.122781 1.92357-0.122781 1.45291-0.122781 1.35059-0.613904 1.35059-0.675295 1.35059-0.695758 1.35059-0.736685 1.37106-0.757149Z" transform="matrix(1.00115 0 0 1 993.272 457.44)"/><path d="M2.00542-4.23595C2.00542-4.2564 2.02589-4.33826 2.02589-4.33826 2.02589-4.37918 2.00542-4.44057 1.92357-4.44057 1.80079-4.44057 1.26874-4.37918 1.10503-4.35871 1.04364-4.35871 0.961783-4.35871 0.961783-4.21548 0.961783-4.13362 1.04364-4.13362 1.12549-4.13362 1.43244-4.13362 1.43244-4.09269 1.43244-4.0313 1.43244-3.99038 1.43244-3.94944 1.41197-3.88806L0.511587-0.286489C0.47066-0.163708 0.47066-0.143244 0.47066-0.143244 0.47066-0.0409269 0.552514 0.0613904 0.695758 0.0613904 0.859466 0.0613904 0.94132-0.0613904 0.982247-0.204635 1.00271-0.225098 1.26874-1.35059 1.30966-1.45291 1.75986-1.39152 2.1282-1.24827 2.1282-0.920856 2.1282-0.879929 2.1282-0.859466 2.10774-0.798075 2.08727-0.695758 2.08727-0.654831 2.08727-0.593441 2.08727-0.143244 2.45562 0.0613904 2.76258 0.0613904 3.37647 0.0613904 3.56064-0.900393 3.56064-0.920856 3.56064-1.00271 3.47879-1.00271 3.45832-1.00271 3.37647-1.00271 3.37647-0.961783 3.33555-0.839002 3.2537-0.572977 3.08999-0.122781 2.78303-0.122781 2.59887-0.122781 2.55793-0.266025 2.55793-0.450196 2.55793-0.552514 2.55793-0.572977 2.59887-0.736685 2.59887-0.757149 2.61932-0.859466 2.61932-0.94132 2.61932-1.49383 1.86218-1.59615 1.59615-1.61662 1.78033-1.71893 2.00542-1.94404 2.1282-2.02589 2.43516-2.33284 2.76258-2.63978 3.1309-2.63978 3.1923-2.63978 3.27416-2.61932 3.33555-2.55793 3.04905-2.51701 3.00814-2.29191 3.00814-2.1896 3.00814-2.04635 3.11045-1.96449 3.2537-1.96449 3.43786-1.96449 3.62203-2.10774 3.62203-2.37376 3.62203-2.5784 3.45832-2.82396 3.1309-2.82396 2.76258-2.82396 2.43516-2.55793 2.10774-2.25098 1.84171-2.00542 1.63708-1.80079 1.37106-1.69847Z" transform="matrix(1.00115 0 0 1 997.042 457.44)"/><path d="M1.35059-0.757149C1.37106-0.818539 1.41197-0.982247 1.43244-1.0641 1.45291-1.12549 1.47337-1.20735 1.49383-1.26874 1.5143-1.33012 1.65753-1.57568 1.80079-1.69847 1.96449-1.82124 2.10774-1.86218 2.27145-1.86218 2.31237-1.86218 2.53747-1.86218 2.68072-1.78033 2.49654-1.71893 2.49654-1.5143 2.49654-1.5143 2.49654-1.43244 2.53747-1.33012 2.70118-1.33012 2.82396-1.33012 2.9672-1.43244 2.9672-1.63708 2.9672-1.98495 2.49654-2.02589 2.27145-2.02589 2.16913-2.02589 1.86218-2.02589 1.53477-1.65753 1.49383-1.9031 1.22781-2.02589 1.00271-2.02589 0.839002-2.02589 0.716222-1.94404 0.593441-1.75986 0.47066-1.57568 0.409269-1.33012 0.409269-1.30966 0.409269-1.24827 0.491123-1.24827 0.511587-1.24827 0.593441-1.24827 0.593441-1.26874 0.634368-1.37106 0.695758-1.65753 0.798075-1.86218 0.982247-1.86218 1.12549-1.86218 1.16642-1.71893 1.16642-1.61662 1.16642-1.55522 1.12549-1.39152 1.08456-1.26874 1.0641-1.14595 1.02317-0.961783 0.982247-0.859466L0.879929-0.450196C0.859466-0.327416 0.798075-0.122781 0.798075-0.102317 0.798075 0 0.879929 0.0409269 0.982247 0.0409269 1.04364 0.0409269 1.12549 0 1.18688-0.0613904 1.18688-0.102317 1.22781-0.245562 1.24827-0.347879Z" transform="matrix(1.00115 0 0 1 1000.93 458.353)"/><path d="M3.02859 2.1896C3.02859 2.16913 3.02859 2.14866 2.86489 1.98495 1.71893 0.839002 1.43244-0.879929 1.43244-2.27145 1.43244-3.86759 1.78033-5.46375 2.90581-6.58924 3.02859-6.71202 3.02859-6.73248 3.02859-6.75295 3.02859-6.81433 2.98767-6.8348 2.92628-6.8348 2.84443-6.8348 2.02589-6.2209 1.47337-5.07494 1.02317-4.05177 0.900393-3.04905 0.900393-2.27145 0.900393-1.57568 1.00271-0.47066 1.5143 0.572977 2.04635 1.69847 2.84443 2.27145 2.92628 2.27145 2.98767 2.27145 3.02859 2.25098 3.02859 2.1896Z" transform="matrix(1.00115 0 0 1 1005.07 456.069)"/><path d="M3.04905-2.76258C3.11045-2.98767 3.31508-3.82668 3.94944-3.82668 3.99038-3.82668 4.21548-3.82668 4.39965-3.72435 4.15409-3.66297 3.96991-3.43786 3.96991-3.21276 3.96991-3.06952 4.07224-2.90581 4.3178-2.90581 4.52242-2.90581 4.80892-3.06952 4.80892-3.43786 4.80892-3.90853 4.27686-4.0313 3.96991-4.0313 3.43786-4.0313 3.11045-3.54017 3.00814-3.33555 2.78303-3.94944 2.27145-4.0313 2.02589-4.0313 1.0641-4.0313 0.552514-2.86489 0.552514-2.61932 0.552514-2.53747 0.634368-2.53747 0.654831-2.53747 0.736685-2.53747 0.757149-2.55793 0.777612-2.63978 1.08456-3.60157 1.69847-3.82668 2.00542-3.82668 2.16913-3.82668 2.49654-3.74482 2.49654-3.21276 2.49654-2.94674 2.33284-2.33284 2.00542-1.04364 1.86218-0.491123 1.53477-0.102317 1.12549-0.102317 1.08456-0.102317 0.859466-0.102317 0.675295-0.225098 0.900393-0.266025 1.10503-0.450196 1.10503-0.716222 1.10503-0.961783 0.900393-1.02317 0.757149-1.02317 0.491123-1.02317 0.266025-0.798075 0.266025-0.511587 0.266025-0.0818539 0.716222 0.102317 1.12549 0.102317 1.71893 0.102317 2.04635-0.53205 2.08727-0.593441 2.1896-0.245562 2.51701 0.102317 3.06952 0.102317 4.01084 0.102317 4.52242-1.08456 4.52242-1.30966 4.52242-1.39152 4.44057-1.39152 4.42011-1.39152 4.33826-1.39152 4.3178-1.35059 4.29733-1.2892 3.99038-0.327416 3.37647-0.102317 3.08999-0.102317 2.72164-0.102317 2.5784-0.388806 2.5784-0.695758 2.5784-0.900393 2.63978-1.10503 2.74211-1.5143Z" transform="matrix(1.00115 0 0 1 1008.63 456.069)"/><path d="M1.49383-1.2892C1.5143-1.33012 1.65753-1.9031 1.65753-1.94404 1.678-1.98495 1.86218-2.31237 2.0668-2.45562 2.14866-2.51701 2.31237-2.63978 2.5784-2.63978 2.63978-2.63978 2.80349-2.63978 2.94674-2.53747 2.74211-2.49654 2.66025-2.31237 2.66025-2.1896 2.66025-2.04635 2.76258-1.96449 2.90581-1.96449 3.04905-1.96449 3.27416-2.08727 3.27416-2.35331 3.27416-2.68072 2.92628-2.82396 2.59887-2.82396 2.25098-2.82396 1.96449-2.68072 1.69847-2.35331 1.57568-2.74211 1.18688-2.82396 1.04364-2.82396 0.798075-2.82396 0.634368-2.66025 0.53205-2.49654 0.388806-2.25098 0.306952-1.86218 0.306952-1.84171 0.306952-1.75986 0.388806-1.75986 0.409269-1.75986 0.491123-1.75986 0.511587-1.78033 0.552514-1.94404 0.654831-2.33284 0.757149-2.63978 1.02317-2.63978 1.18688-2.63978 1.22781-2.49654 1.22781-2.33284 1.22781-2.21006 1.16642-1.96449 1.12549-1.80079 1.08456-1.61662 1.02317-1.35059 0.982247-1.22781L0.777612-0.409269C0.757149-0.327416 0.716222-0.163708 0.716222-0.143244 0.716222 0 0.839002 0.0613904 0.94132 0.0613904 1.02317 0.0613904 1.14595 0 1.20735-0.122781 1.22781-0.163708 1.2892-0.450196 1.33012-0.593441Z" transform="matrix(1.00115 0 0 1 1013.85 457.44)"/><path d="M2.63978-2.27145C2.63978-2.98767 2.53747-4.09269 2.02589-5.13634 1.49383-6.26182 0.695758-6.8348 0.613904-6.8348 0.552514-6.8348 0.511587-6.81433 0.511587-6.75295 0.511587-6.73248 0.511587-6.71202 0.695758-6.54831 1.59615-5.64792 2.10774-4.19501 2.10774-2.27145 2.10774-0.716222 1.78033 0.879929 0.634368 2.02589 0.511587 2.14866 0.511587 2.16913 0.511587 2.1896 0.511587 2.25098 0.552514 2.27145 0.613904 2.27145 0.695758 2.27145 1.5143 1.65753 2.0668 0.511587 2.53747-0.511587 2.63978-1.5143 2.63978-2.27145Z" transform="matrix(1.00115 0 0 1 1017.9 456.069)"/><path d="M45.5219 78.8512 29.9135 51.8087" stroke="#000000" stroke-width="0.5219" stroke-miterlimit="10" fill="none" transform="matrix(1.00115 0 0 -1 1112.15 494.583)"/><path d="M-1.57113 2.09673C-1.44132 1.30897 0.000333866 0.132253 0.391296-0.00247313 0.000249849-0.133702-1.44234-1.30931-1.57404-2.09443" stroke="#000000" stroke-width="0.418952" stroke-linecap="round" stroke-linejoin="round" stroke-miterlimit="10" fill="none" transform="matrix(-0.500435 0.865774 0.86677 0.49986 1142.09 442.774)"/><path d="M87.1293 0.000327416 59.8106 0.000327416" stroke="#000000" stroke-width="0.5219" stroke-miterlimit="10" fill="none" transform="matrix(1.00115 0 0 -1 1112.15 494.583)"/><path d="M-1.56579 2.08695C-1.43278 1.30422-0.000337238 0.132685 0.393585-0.000327416-0.000337238-0.128224-1.43278-1.30487-1.56579-2.0876" stroke="#000000" stroke-width="0.417507" stroke-linecap="round" stroke-linejoin="round" stroke-miterlimit="10" fill="none" transform="matrix(-1.00115 0 0 1 1172.03 494.583)"/><path d="M-89.7724 32.6754-56.2072 20.4586" stroke="#000000" stroke-width="0.5219" stroke-miterlimit="10" fill="none" transform="matrix(1.00115 0 0 -1 1112.15 494.583)"/><path d="M-1.56629 2.09311C-1.43799 1.30673-0.00252709 0.130377 0.392682 0.00197278-0.000266039-0.130156-1.43942-1.30734-1.56859-2.08942" stroke="#000000" stroke-width="0.418095" stroke-linecap="round" stroke-linejoin="round" stroke-miterlimit="10" fill="none" transform="matrix(0.940649 0.341969 0.342362 -0.939568 1055.87 474.124)"/><path d="M1.73939-0.757149 1.73939-5.1568C1.73939-5.46375 2.0668-5.58652 2.51701-5.58652 4.48151-5.58652 5.13634-3.99038 5.13634-2.59887 5.13634-0.757149 4.0313-0.286489 2.74211-0.286489 1.84171-0.286489 1.73939-0.47066 1.73939-0.757149ZM0.163708-5.91394C0.122781-5.85255 0.122781-5.66838 0.163708-5.60699 0.818539-5.58652 0.961783-5.52514 0.961783-4.76798L0.961783-1.10503C0.961783-0.347879 0.818539-0.306952 0.163708-0.286489 0.122781-0.225098 0.122781-0.0409269 0.163708 0.0204635 0.53205 0 1.02317 0 1.35059 0 1.69847 0 2.08727 0.0204635 3.02859 0.0204635 4.3178 0.0204635 5.99579-0.572977 5.99579-2.80349 5.99579-4.50196 4.60428-5.91394 2.86489-5.91394 2.21006-5.91394 1.69847-5.89348 1.35059-5.89348 1.02317-5.89348 0.53205-5.89348 0.163708-5.91394Z" transform="matrix(1.00115 0 0 1 1023.99 583.672)"/><path d="M1.12549-2.5784C1.30966-3.60157 1.94404-3.68343 2.16913-3.68343 2.51701-3.68343 2.92628-3.49926 2.92628-2.72164 2.92628-2.63978 2.88534-2.59887 2.78303-2.59887ZM3.51972-0.839002C3.1923-0.511587 2.92628-0.347879 2.39422-0.347879 2.0668-0.347879 1.678-0.552514 1.39152-1.02317 1.20735-1.30966 1.10503-1.73939 1.10503-2.27145L3.54017-2.25098C3.6425-2.25098 3.70388-2.29191 3.70388-2.39422 3.70388-3.17184 3.43786-3.99038 2.16913-3.99038 1.37106-3.99038 0.347879-3.23323 0.347879-1.84171 0.347879-1.33012 0.47066-0.839002 0.757149-0.491123 1.08456-0.122781 1.5143 0.0818539 2.16913 0.0818539 2.86489 0.0818539 3.35601-0.225098 3.72435-0.695758 3.68343-0.798075 3.6425-0.839002 3.51972-0.839002Z" transform="matrix(1.00115 0 0 1 1030.4 583.672)"/><path d="M3.6425-0.839002C3.60157-0.920856 3.51972-0.94132 3.43786-0.961783 3.1309-0.552514 2.74211-0.347879 2.35331-0.347879 1.678-0.347879 1.12549-1.02317 1.12549-2.10774 1.12549-3.11045 1.55522-3.70388 2.16913-3.70388 2.70118-3.70388 2.78303-3.37647 2.80349-3.06952 2.84443-2.82396 2.9672-2.74211 3.15138-2.74211 3.35601-2.74211 3.60157-2.86489 3.60157-3.1309 3.60157-3.6425 3.08999-4.01084 2.21006-4.01084 1.30966-4.01084 0.347879-3.1923 0.347879-1.9031 0.347879-0.716222 1.00271 0.0818539 2.14866 0.0818539 2.70118 0.0818539 3.17184-0.0818539 3.6425-0.839002Z" transform="matrix(1.00115 0 0 1 1034.55 583.672)"/><path d="M2.74211-2.39422C2.5784-2.35331 2.47607-2.23051 2.47607-2.10774 2.47607-1.94404 2.61932-1.9031 2.70118-1.9031 2.76258-1.9031 3.00814-1.94404 3.00814-2.25098 3.00814-2.68072 2.53747-2.82396 2.14866-2.82396 1.14595-2.82396 0.982247-2.08727 0.982247-1.88264 0.982247-1.63708 1.10503-1.49383 1.20735-1.41197 1.37106-1.2892 1.47337-1.26874 1.92357-1.18688 2.04635-1.16642 2.45562-1.08456 2.45562-0.757149 2.45562-0.654831 2.39422-0.409269 2.1282-0.245562 1.88264-0.122781 1.55522-0.122781 1.49383-0.122781 1.22781-0.122781 0.859466-0.163708 0.716222-0.388806 0.94132-0.409269 1.0641-0.572977 1.0641-0.757149 1.0641-0.900393 0.961783-0.982247 0.818539-0.982247 0.634368-0.982247 0.450196-0.839002 0.450196-0.552514 0.450196-0.163708 0.859466 0.0613904 1.47337 0.0613904 2.66025 0.0613904 2.86489-0.736685 2.86489-0.982247 2.86489-1.57568 2.23051-1.69847 1.98495-1.73939 1.94404-1.73939 1.78033-1.78033 1.73939-1.78033 1.49383-1.84171 1.39152-1.96449 1.39152-2.10774 1.39152-2.25098 1.49383-2.43516 1.63708-2.51701 1.82124-2.61932 2.04635-2.63978 2.14866-2.63978 2.27145-2.63978 2.61932-2.61932 2.74211-2.39422Z" transform="matrix(1.00115 0 0 1 1038.46 585.044)"/><path d="M2.00542-4.23595C2.00542-4.2564 2.02589-4.33826 2.02589-4.33826 2.02589-4.37918 2.00542-4.44057 1.92357-4.44057 1.80079-4.44057 1.26874-4.37918 1.10503-4.35871 1.04364-4.35871 0.961783-4.35871 0.961783-4.21548 0.961783-4.13362 1.04364-4.13362 1.12549-4.13362 1.43244-4.13362 1.43244-4.09269 1.43244-4.0313 1.43244-3.99038 1.43244-3.94944 1.41197-3.88806L0.511587-0.286489C0.47066-0.163708 0.47066-0.143244 0.47066-0.143244 0.47066-0.0409269 0.552514 0.0613904 0.695758 0.0613904 0.859466 0.0613904 0.94132-0.0613904 0.982247-0.204635 1.00271-0.225098 1.26874-1.35059 1.30966-1.45291 1.75986-1.39152 2.1282-1.24827 2.1282-0.920856 2.1282-0.879929 2.1282-0.859466 2.10774-0.798075 2.08727-0.695758 2.08727-0.654831 2.08727-0.593441 2.08727-0.143244 2.45562 0.0613904 2.76258 0.0613904 3.37647 0.0613904 3.56064-0.900393 3.56064-0.920856 3.56064-1.00271 3.47879-1.00271 3.45832-1.00271 3.37647-1.00271 3.37647-0.961783 3.33555-0.839002 3.2537-0.572977 3.08999-0.122781 2.78303-0.122781 2.59887-0.122781 2.55793-0.266025 2.55793-0.450196 2.55793-0.552514 2.55793-0.572977 2.59887-0.736685 2.59887-0.757149 2.61932-0.859466 2.61932-0.94132 2.61932-1.49383 1.86218-1.59615 1.59615-1.61662 1.78033-1.71893 2.00542-1.94404 2.1282-2.02589 2.43516-2.33284 2.76258-2.63978 3.1309-2.63978 3.1923-2.63978 3.27416-2.61932 3.33555-2.55793 3.04905-2.51701 3.00814-2.29191 3.00814-2.1896 3.00814-2.04635 3.11045-1.96449 3.2537-1.96449 3.43786-1.96449 3.62203-2.10774 3.62203-2.37376 3.62203-2.5784 3.45832-2.82396 3.1309-2.82396 2.76258-2.82396 2.43516-2.55793 2.10774-2.25098 1.84171-2.00542 1.63708-1.80079 1.37106-1.69847Z" transform="matrix(1.00115 0 0 1 1041.91 585.044)"/><path d="M2.31237-1.71893C2.14866-1.678 2.1282-1.53477 2.1282-1.49383 2.1282-1.39152 2.23051-1.33012 2.31237-1.33012 2.35331-1.33012 2.53747-1.37106 2.53747-1.61662 2.53747-1.92357 2.1896-2.02589 1.84171-2.02589 1.0641-2.02589 0.920856-1.55522 0.920856-1.39152 0.920856-1.22781 1.02317-1.12549 1.10503-1.0641 1.22781-0.961783 1.37106-0.94132 1.61662-0.900393 1.9031-0.859466 2.21006-0.818539 2.21006-0.572977 2.21006-0.572977 2.21006-0.102317 1.37106-0.102317 1.20735-0.102317 0.920856-0.122781 0.777612-0.266025 0.94132-0.286489 1.02317-0.429733 1.02317-0.53205 1.02317-0.675295 0.920856-0.716222 0.818539-0.716222 0.654831-0.716222 0.53205-0.593441 0.53205-0.388806 0.53205 0.0409269 1.22781 0.0409269 1.37106 0.0409269 2.31237 0.0409269 2.45562-0.491123 2.45562-0.675295 2.45562-1.08456 1.96449-1.16642 1.71893-1.20735 1.39152-1.24827 1.18688-1.2892 1.18688-1.47337 1.18688-1.47337 1.18688-1.86218 1.84171-1.86218 1.94404-1.86218 2.1896-1.86218 2.31237-1.71893Z" transform="matrix(1.00115 0 0 1 1045.8 585.956)"/><path d="M3.02859 2.1896C3.02859 2.16913 3.02859 2.14866 2.86489 1.98495 1.71893 0.839002 1.43244-0.879929 1.43244-2.27145 1.43244-3.86759 1.78033-5.46375 2.90581-6.58924 3.02859-6.71202 3.02859-6.73248 3.02859-6.75295 3.02859-6.81433 2.98767-6.8348 2.92628-6.8348 2.84443-6.8348 2.02589-6.2209 1.47337-5.07494 1.02317-4.05177 0.900393-3.04905 0.900393-2.27145 0.900393-1.57568 1.00271-0.47066 1.5143 0.572977 2.04635 1.69847 2.84443 2.27145 2.92628 2.27145 2.98767 2.27145 3.02859 2.25098 3.02859 2.1896Z" transform="matrix(1.00115 0 0 1 1049.78 583.672)"/><path d="M6.46646-2.1282C6.48692-2.16913 6.50738-2.23051 6.50738-2.25098 6.50738-2.27145 6.50738-2.35331 6.40506-2.35331 6.32321-2.35331 6.30275-2.29191 6.28229-2.25098 5.68885-0.900393 5.34096-0.286489 3.78574-0.286489L2.45562-0.286489C2.33284-0.286489 2.31237-0.286489 2.25098-0.286489 2.16913-0.306952 2.1282-0.306952 2.1282-0.388806 2.1282-0.409269 2.1282-0.429733 2.1896-0.593441L2.80349-3.08999 3.70388-3.08999C4.48151-3.08999 4.48151-2.88534 4.48151-2.66025 4.48151-2.59887 4.48151-2.49654 4.42011-2.21006 4.39965-2.16913 4.39965-2.14866 4.39965-2.10774 4.39965-2.0668 4.42011-2.02589 4.50196-2.02589 4.58382-2.02589 4.60428-2.0668 4.64522-2.1896L5.1568-4.33826C5.1568-4.39965 5.11587-4.44057 5.05448-4.44057 4.97263-4.44057 4.95216-4.37918 4.93169-4.27686 4.72707-3.58111 4.56336-3.37647 3.72435-3.37647L2.86489-3.37647 3.41741-5.56606C3.49926-5.89348 3.51972-5.91394 3.90853-5.91394L5.19772-5.91394C6.32321-5.91394 6.58924-5.66838 6.58924-4.91123 6.58924-4.68613 6.58924-4.66567 6.54831-4.42011 6.54831-4.37918 6.54831-4.3178 6.54831-4.2564 6.54831-4.21548 6.56877-4.15409 6.65062-4.15409 6.75295-4.15409 6.75295-4.21548 6.77342-4.37918L6.95758-5.95488C6.99851-6.20044 6.93712-6.20044 6.71202-6.20044L2.10774-6.20044C1.92357-6.20044 1.84171-6.20044 1.84171-6.01626 1.84171-5.91394 1.92357-5.91394 2.08727-5.91394 2.43516-5.91394 2.68072-5.91394 2.68072-5.75023 2.68072-5.72977 2.68072-5.70932 2.63978-5.54561L1.43244-0.716222C1.35059-0.347879 1.33012-0.286489 0.593441-0.286489 0.450196-0.286489 0.347879-0.286489 0.347879-0.102317 0.347879 0 0.429733 0 0.593441 0L5.34096 0C5.54561 0 5.56606 0 5.62746-0.163708Z" transform="matrix(1.00115 0 0 1 1053.34 583.672)"/><path d="M3.74482-2.31237C3.84713-2.31237 3.90853-2.31237 3.96991-2.37376 4.05177-2.43516 4.07224-2.53747 4.07224-2.5784 4.07224-2.74211 3.90853-2.74211 3.80621-2.74211L2.16913-2.74211C1.14595-2.74211 0.368343-1.73939 0.368343-0.982247 0.368343-0.388806 0.818539 0.0613904 1.47337 0.0613904 2.27145 0.0613904 3.1923-0.654831 3.1923-1.63708 3.1923-1.73939 3.1923-2.02589 3.00814-2.31237ZM1.47337-0.122781C1.12549-0.122781 0.839002-0.347879 0.839002-0.798075 0.839002-0.982247 0.961783-2.31237 2.04635-2.31237 2.37376-2.31237 2.72164-2.1896 2.72164-1.71893 2.72164-1.59615 2.66025-1.02317 2.35331-0.593441 2.0668-0.245562 1.71893-0.122781 1.47337-0.122781Z" transform="matrix(1.00115 0 0 1 1060.09 585.044)"/><path d="M3.02859 2.1896C3.02859 2.16913 3.02859 2.14866 2.86489 1.98495 1.71893 0.839002 1.43244-0.879929 1.43244-2.27145 1.43244-3.86759 1.78033-5.46375 2.90581-6.58924 3.02859-6.71202 3.02859-6.73248 3.02859-6.75295 3.02859-6.81433 2.98767-6.8348 2.92628-6.8348 2.84443-6.8348 2.02589-6.2209 1.47337-5.07494 1.02317-4.05177 0.900393-3.04905 0.900393-2.27145 0.900393-1.57568 1.00271-0.47066 1.5143 0.572977 2.04635 1.69847 2.84443 2.27145 2.92628 2.27145 2.98767 2.27145 3.02859 2.25098 3.02859 2.1896Z" transform="matrix(1.00115 0 0 1 1065.01 583.672)"/><path d="M4.27686-3.39694C4.27686-3.88806 4.0313-4.0313 3.86759-4.0313 3.6425-4.0313 3.41741-3.80621 3.41741-3.60157 3.41741-3.47879 3.45832-3.41741 3.56064-3.31508 3.76528-3.1309 3.88806-2.90581 3.88806-2.5784 3.88806-2.1896 3.31508-0.102317 2.25098-0.102317 1.78033-0.102317 1.57568-0.429733 1.57568-0.900393 1.57568-1.41197 1.82124-2.0668 2.10774-2.82396 2.16913-2.98767 2.21006-3.11045 2.21006-3.29461 2.21006-3.70388 1.92357-4.0313 1.47337-4.0313 0.613904-4.0313 0.266025-2.70118 0.266025-2.61932 0.266025-2.53747 0.347879-2.53747 0.368343-2.53747 0.47066-2.53747 0.47066-2.55793 0.511587-2.70118 0.777612-3.62203 1.18688-3.82668 1.43244-3.82668 1.5143-3.82668 1.678-3.82668 1.678-3.54017 1.678-3.31508 1.57568-3.06952 1.5143-2.90581 1.10503-1.84171 1.00271-1.43244 1.00271-1.02317 1.00271-0.0409269 1.80079 0.102317 2.21006 0.102317 3.74482 0.102317 4.27686-2.92628 4.27686-3.39694Z" transform="matrix(1.00115 0 0 1 1068.57 583.672)"/><path d="M2.63978-2.27145C2.63978-2.98767 2.53747-4.09269 2.02589-5.13634 1.49383-6.26182 0.695758-6.8348 0.613904-6.8348 0.552514-6.8348 0.511587-6.81433 0.511587-6.75295 0.511587-6.73248 0.511587-6.71202 0.695758-6.54831 1.59615-5.64792 2.10774-4.19501 2.10774-2.27145 2.10774-0.716222 1.78033 0.879929 0.634368 2.02589 0.511587 2.14866 0.511587 2.16913 0.511587 2.1896 0.511587 2.25098 0.552514 2.27145 0.613904 2.27145 0.695758 2.27145 1.5143 1.65753 2.0668 0.511587 2.53747-0.511587 2.63978-1.5143 2.63978-2.27145Z" transform="matrix(1.00115 0 0 1 1073.33 583.672)"/><path d="M6.58924-2.27145C6.58924-3.96991 5.21819-5.3205 3.54017-5.3205 1.86218-5.3205 0.511587-3.94944 0.511587-2.27145 0.511587-0.593441 1.86218 0.757149 3.54017 0.757149 5.23865 0.757149 6.58924-0.613904 6.58924-2.27145ZM0.736685-2.39422C0.818539-3.92899 2.00542-5.01354 3.43786-5.0954L3.43786-2.39422ZM3.66297-5.0954C5.0954-5.01354 6.26182-3.92899 6.36415-2.39422L3.66297-2.39422ZM3.43786 0.53205C2.02589 0.450196 0.818539-0.613904 0.736685-2.16913L3.43786-2.16913ZM6.36415-2.16913C6.26182-0.613904 5.07494 0.450196 3.66297 0.53205L3.66297-2.16913Z" transform="matrix(1.00115 0 0 1 1078.91 583.672)"/><path d="M4.27686-3.39694C4.27686-3.88806 4.0313-4.0313 3.86759-4.0313 3.6425-4.0313 3.41741-3.80621 3.41741-3.60157 3.41741-3.47879 3.45832-3.41741 3.56064-3.31508 3.76528-3.1309 3.88806-2.90581 3.88806-2.5784 3.88806-2.1896 3.31508-0.102317 2.25098-0.102317 1.78033-0.102317 1.57568-0.429733 1.57568-0.900393 1.57568-1.41197 1.82124-2.0668 2.10774-2.82396 2.16913-2.98767 2.21006-3.11045 2.21006-3.29461 2.21006-3.70388 1.92357-4.0313 1.47337-4.0313 0.613904-4.0313 0.266025-2.70118 0.266025-2.61932 0.266025-2.53747 0.347879-2.53747 0.368343-2.53747 0.47066-2.53747 0.47066-2.55793 0.511587-2.70118 0.777612-3.62203 1.18688-3.82668 1.43244-3.82668 1.5143-3.82668 1.678-3.82668 1.678-3.54017 1.678-3.31508 1.57568-3.06952 1.5143-2.90581 1.10503-1.84171 1.00271-1.43244 1.00271-1.02317 1.00271-0.0409269 1.80079 0.102317 2.21006 0.102317 3.74482 0.102317 4.27686-2.92628 4.27686-3.39694Z" transform="matrix(1.00115 0 0 1 1088.06 583.672)"/><path d="M2.74211-2.39422C2.5784-2.35331 2.47607-2.23051 2.47607-2.10774 2.47607-1.94404 2.61932-1.9031 2.70118-1.9031 2.76258-1.9031 3.00814-1.94404 3.00814-2.25098 3.00814-2.68072 2.53747-2.82396 2.14866-2.82396 1.14595-2.82396 0.982247-2.08727 0.982247-1.88264 0.982247-1.63708 1.10503-1.49383 1.20735-1.41197 1.37106-1.2892 1.47337-1.26874 1.92357-1.18688 2.04635-1.16642 2.45562-1.08456 2.45562-0.757149 2.45562-0.654831 2.39422-0.409269 2.1282-0.245562 1.88264-0.122781 1.55522-0.122781 1.49383-0.122781 1.22781-0.122781 0.859466-0.163708 0.716222-0.388806 0.94132-0.409269 1.0641-0.572977 1.0641-0.757149 1.0641-0.900393 0.961783-0.982247 0.818539-0.982247 0.634368-0.982247 0.450196-0.839002 0.450196-0.552514 0.450196-0.163708 0.859466 0.0613904 1.47337 0.0613904 2.66025 0.0613904 2.86489-0.736685 2.86489-0.982247 2.86489-1.57568 2.23051-1.69847 1.98495-1.73939 1.94404-1.73939 1.78033-1.78033 1.73939-1.78033 1.49383-1.84171 1.39152-1.96449 1.39152-2.10774 1.39152-2.25098 1.49383-2.43516 1.63708-2.51701 1.82124-2.61932 2.04635-2.63978 2.14866-2.63978 2.27145-2.63978 2.61932-2.61932 2.74211-2.39422Z" transform="matrix(1.00115 0 0 1 1092.49 585.044)"/><path d="M2.63978-2.27145C2.63978-2.98767 2.53747-4.09269 2.02589-5.13634 1.49383-6.26182 0.695758-6.8348 0.613904-6.8348 0.552514-6.8348 0.511587-6.81433 0.511587-6.75295 0.511587-6.73248 0.511587-6.71202 0.695758-6.54831 1.59615-5.64792 2.10774-4.19501 2.10774-2.27145 2.10774-0.716222 1.78033 0.879929 0.634368 2.02589 0.511587 2.14866 0.511587 2.16913 0.511587 2.1896 0.511587 2.25098 0.552514 2.27145 0.613904 2.27145 0.695758 2.27145 1.5143 1.65753 2.0668 0.511587 2.53747-0.511587 2.63978-1.5143 2.63978-2.27145Z" transform="matrix(1.00115 0 0 1 1096.4 583.672)"/><path d="M-45.6172-79.0143-28.1466-48.7488" stroke="#000000" stroke-width="0.5219" stroke-miterlimit="10" stroke-dasharray="3.91436 3.91436" fill="none" transform="matrix(1.00115 0 0 -1 1112.15 494.583)"/><path d="M-1.57184 2.09653C-1.44201 1.30877-0.000349311 0.132064 0.395046-9.87e-05-0.00043103-0.133889-1.44301-1.30951-1.57027-2.09208" stroke="#000000" stroke-width="0.418954" stroke-linecap="round" stroke-linejoin="round" stroke-miterlimit="10" fill="none" transform="matrix(0.500443 -0.86577 -0.866765 -0.499868 1083.97 543.331)"/></g></svg>