<?xml version="1.0" encoding="UTF-8" standalone="no" ?>
<!DOCTYPE svg PUBLIC "-//W3C//DTD SVG 1.1//EN" "http://www.w3.org/Graphics/SVG/1.1/DTD/svg11.dtd">
<svg xmlns="http://www.w3.org/2000/svg" xmlns:xlink="http://www.w3.org/1999/xlink" version="1.1" width="1080" height="1080" viewBox="0 0 1080 1080" xml:space="preserve">
<desc>Created with Fabric.js 5.2.4</desc>
<defs>
</defs>
<rect x="0" y="0" width="100%" height="100%" fill="transparent"></rect>
<g transform="matrix(1 0 0 1 540 540)" id="6ab30392-3105-463e-b668-79e042c1e079"  >
<rect style="stroke: none; stroke-width: 1; stroke-dasharray: none; stroke-linecap: butt; stroke-dashoffset: 0; stroke-linejoin: miter; stroke-miterlimit: 4; fill: rgb(255,255,255); fill-rule: nonzero; opacity: 1; visibility: hidden;" vector-effect="non-scaling-stroke"  x="-540" y="-540" rx="0" ry="0" width="1080" height="1080" />
</g>
<g transform="matrix(1 0 0 1 540 540)" id="41c7347b-5a14-4bf3-93c9-2dcf2c8f8c12"  >
</g>
<g transform="matrix(0.31 0 0 0.31 540 507.08)"  >
<g style="" vector-effect="non-scaling-stroke"   >
		<g transform="matrix(1.33 0 0 1.33 0 0)"  >
<path style="stroke: none; stroke-width: 1; stroke-dasharray: none; stroke-linecap: butt; stroke-dashoffset: 0; stroke-linejoin: miter; stroke-miterlimit: 4; fill: rgb(0,0,0); fill-rule: nonzero; opacity: 1;" vector-effect="non-scaling-stroke"  transform=" translate(-512, -511.9)" d="M 478.5 0.6 C 476.3 0.8 469.3 1.5 463 2 C 317.7 15.1 181.60000000000002 93.5 95.39999999999998 214 C 47.39999999999998 281 16.699999999999974 357 5.09999999999998 437.5 C 0.9999999999999805 465.6 0.49999999999998046 473.9 0.49999999999998046 512 C 0.49999999999998046 550.1 0.9999999999999805 558.4 5.09999999999998 586.5 C 32.89999999999998 778.6 169.59999999999997 940 354.99999999999994 999.8 C 388.19999999999993 1010.5 423.19999999999993 1017.8 462.99999999999994 1022.1999999999999 C 478.49999999999994 1023.9 545.5 1023.9 561 1022.1999999999999 C 629.7 1014.5999999999999 687.9 997.5999999999999 745.3 968.3 C 754.0999999999999 963.8 755.8 962.5999999999999 754.5999999999999 961.5999999999999 C 753.8 960.9999999999999 716.3 910.6999999999999 671.3 849.8999999999999 L 589.5 739.3999999999999 L 487 587.6999999999998 C 430.6 504.29999999999984 384.2 436.0999999999998 383.8 436.0999999999998 C 383.40000000000003 435.9999999999998 383 503.3999999999998 382.8 585.6999999999998 C 382.5 729.7999999999998 382.40000000000003 735.5999999999998 380.6 738.9999999999998 C 378 743.8999999999997 376 745.8999999999997 371.8 748.0999999999998 C 368.6 749.6999999999998 365.8 749.9999999999998 350.7 749.9999999999998 L 333.4 749.9999999999998 L 328.79999999999995 747.0999999999998 C 325.79999999999995 745.1999999999998 323.59999999999997 742.6999999999998 322.09999999999997 739.7999999999998 L 319.99999999999994 735.2999999999998 L 320.19999999999993 534.7999999999998 L 320.49999999999994 334.1999999999998 L 323.59999999999997 330.29999999999984 C 325.2 328.1999999999998 328.59999999999997 325.49999999999983 330.99999999999994 324.1999999999998 C 335.09999999999997 322.1999999999998 336.69999999999993 321.99999999999983 353.99999999999994 321.99999999999983 C 374.3999999999999 321.99999999999983 377.79999999999995 322.79999999999984 383.09999999999997 328.59999999999985 C 384.59999999999997 330.1999999999999 440.09999999999997 413.79999999999984 506.5 514.4999999999999 C 572.9000000000001 615.1999999999999 663.7 752.6999999999998 708.3 820.1999999999998 L 789.3 942.8999999999999 L 793.4 940.1999999999998 C 829.6999999999999 916.5999999999998 868.1 882.9999999999998 898.5 847.9999999999998 C 963.2 773.6999999999998 1004.9 683.0999999999998 1018.9 586.4999999999998 C 1023 558.3999999999997 1023.5 550.0999999999998 1023.5 511.9999999999998 C 1023.5 473.89999999999975 1023 465.5999999999998 1018.9 437.4999999999998 C 991.1 245.39999999999978 854.4 83.99999999999977 669 24.19999999999976 C 636.3 13.599999999999762 601.5 6.299999999999763 562.5 1.8999999999997605 C 552.9 0.8999999999997605 486.8 -0.20000000000023954 478.5 0.5999999999997605 z M 687.9 310 C 692.6999999999999 312.4 696.6 317 698 321.8 C 698.8 324.40000000000003 699 380 698.8 505.3 L 698.5 685.1 L 666.8 636.5 L 635 587.9 L 635 457.2 C 635 372.7 635.4 325.2 636 322.9 C 637.6 317.29999999999995 641.1 312.9 645.9 310.29999999999995 C 650 308.19999999999993 651.5 307.99999999999994 667.1999999999999 307.99999999999994 C 681.9999999999999 307.99999999999994 684.5999999999999 308.19999999999993 687.9 309.99999999999994 z" stroke-linecap="round" />
</g>
		<g transform="matrix(1.33 0 0 1.33 347.38 587.13)"  >
<path style="stroke: none; stroke-width: 1; stroke-dasharray: none; stroke-linecap: butt; stroke-dashoffset: 0; stroke-linejoin: miter; stroke-miterlimit: 4; fill: rgb(0,0,0); fill-rule: nonzero; opacity: 1;" vector-effect="non-scaling-stroke"  transform=" translate(-772.56, -952.29)" d="M 784.3 945.1 C 780.8 947.3000000000001 779.6999999999999 948.8000000000001 782.8 947.1 C 785 945.8000000000001 788.5999999999999 943.1 788 943 C 787.7 943 786 944 784.3 945.1 z M 777.4 949.6 C 775.6 951 775.6 951.1 777.8 950 C 779 949.4 780 948.7 780 948.5 C 780 947.7 779.5 947.9 777.4 949.6 z M 772.4 952.6 C 770.6 954 770.6 954.1 772.8 953 C 774 952.4 775 951.7 775 951.5 C 775 950.7 774.5 950.9 772.4 952.6 z M 767.4 955.6 C 765.6 957 765.6 957.1 767.8 956 C 769 955.4 770 954.7 770 954.5 C 770 953.7 769.5 953.9 767.4 955.6 z M 759.8 959.6 C 756 961.6 756.1999999999999 962.4 760 960.5 C 761.7 959.6 763 958.7 763 958.5 C 763 957.8 762.9 957.9 759.8 959.6 z" stroke-linecap="round" />
</g>
</g>
</g>
</svg>