<?xml version="1.0" encoding="UTF-8"?>
<svg id="a" data-name="Layer 1" xmlns="http://www.w3.org/2000/svg" viewBox="0 0 421.78 421.84">
  <g vector-effect="non-scaling-stroke">
    <path d="m197.08.11c-.91.08-3.79.37-6.39.58-59.91,5.4-116.02,37.73-151.56,87.41C19.34,115.72,6.68,147.06,1.9,180.25c-1.69,11.59-1.9,15.01-1.9,30.72s.21,19.13,1.9,30.72c11.46,79.2,67.82,145.75,144.26,170.4,13.69,4.41,28.12,7.42,44.53,9.24,6.39.7,34.01.7,40.41,0,28.33-3.13,52.32-10.14,75.99-22.22,3.63-1.86,4.33-2.35,3.83-2.76-.33-.25-15.79-20.99-34.34-46.05l-33.73-45.56-42.26-62.55c-23.25-34.39-42.38-62.5-42.55-62.5-.16-.04-.33,27.75-.41,61.68-.12,59.41-.16,61.8-.91,63.21-1.07,2.02-1.9,2.84-3.63,3.75-1.32.66-2.47.78-8.7.78h-7.13l-1.9-1.2c-1.24-.78-2.14-1.81-2.76-3.01l-.87-1.86.08-82.67.12-82.71,1.28-1.61c.66-.87,2.06-1.98,3.05-2.52,1.69-.82,2.35-.91,9.48-.91,8.41,0,9.81.33,12,2.72.62.66,23.5,35.13,50.88,76.65,27.38,41.52,64.81,98.21,83.2,126.04l33.4,50.59,1.69-1.11c14.97-9.73,30.8-23.58,43.33-38.01,26.68-30.63,43.87-67.99,49.64-107.82,1.69-11.59,1.9-15.01,1.9-30.72s-.21-19.13-1.9-30.72c-11.46-79.2-67.82-145.75-144.26-170.4-13.48-4.37-27.83-7.38-43.91-9.19-3.96-.41-31.21-.87-34.63-.54Zm86.34,127.57c1.98.99,3.59,2.89,4.16,4.87.33,1.07.41,24,.33,75.66l-.12,74.13-13.07-20.04-13.11-20.04v-53.89c0-34.84.16-54.42.41-55.37.66-2.31,2.1-4.12,4.08-5.19,1.69-.87,2.31-.95,8.78-.95,6.1,0,7.17.08,8.53.82Z" vector-effect="non-scaling-stroke"/>
    <path d="m323.42,389.97c-1.44.91-1.9,1.53-.62.82.91-.54,2.39-1.65,2.14-1.69-.12,0-.82.41-1.53.87Zm-2.84,1.86c-.74.58-.74.62.16.16.49-.25.91-.54.91-.62,0-.33-.21-.25-1.07.45Zm-2.06,1.24c-.74.58-.74.62.16.16.49-.25.91-.54.91-.62,0-.33-.21-.25-1.07.45Zm-2.06,1.24c-.74.58-.74.62.16.16.49-.25.91-.54.91-.62,0-.33-.21-.25-1.07.45Zm-3.13,1.65c-1.57.82-1.48,1.15.08.37.7-.37,1.24-.74,1.24-.82,0-.29-.04-.25-1.32.45Z" vector-effect="non-scaling-stroke"/>
  </g>
</svg>