<svg version="1.1" id="Layer_1" xmlns="http://www.w3.org/2000/svg" xmlns:xlink="http://www.w3.org/1999/xlink" x="0px" y="0px"
	 width="100%" viewBox="0 0 1005 593" enable-background="new 0 0 1005 593" xml:space="preserve">
<path fill="#F2F2F2" opacity="1.000000" stroke="none" 
	d="
M743.000000,594.000000 
	C495.333344,594.000000 248.166672,594.000000 1.000000,594.000000 
	C1.000000,396.333344 1.000000,198.666672 1.000000,1.000000 
	C336.000000,1.000000 671.000000,1.000000 1006.000000,1.000000 
	C1006.000000,198.666672 1006.000000,396.333344 1006.000000,594.000000 
	C918.500000,594.000000 831.000000,594.000000 743.000000,594.000000 
M90.162178,555.102356 
	C76.709045,557.305847 63.239113,559.414856 49.818256,561.799988 
	C47.401257,562.229553 45.186310,563.795959 41.398724,565.505005 
	C44.715931,567.263672 46.441624,568.544922 48.377609,569.128357 
	C52.356159,570.327393 56.398766,571.663452 60.499550,572.053040 
	C99.608208,575.767700 138.676453,580.259583 177.871185,582.623108 
	C222.429031,585.310059 267.093872,586.899475 311.730988,587.453613 
	C403.691864,588.595276 495.668701,589.498718 587.632385,589.073364 
	C686.932739,588.613892 786.228699,586.400452 885.251404,578.062744 
	C904.954834,576.403748 924.521851,573.048035 944.113037,570.207703 
	C947.321533,569.742554 950.328613,567.888000 953.428772,566.675598 
	C953.419067,565.905151 953.409363,565.134766 953.399658,564.364319 
	C947.736206,562.434875 942.072754,560.505432 936.133179,558.481873 
	C939.924316,550.141907 940.138672,541.798889 936.289246,533.374878 
	C935.798035,532.299866 936.494568,530.503052 937.003418,529.180054 
	C939.697937,522.174072 939.653137,515.261230 937.078796,508.194702 
	C936.425476,506.401337 936.403809,503.971497 937.052124,502.182037 
	C939.610291,495.121796 939.645386,488.245544 937.082886,481.178741 
	C936.431030,479.381073 936.392578,476.949219 937.043945,475.163055 
	C939.683044,467.925537 939.707825,460.876892 936.862488,453.710297 
	C936.312195,452.324402 936.072388,450.359375 936.629028,449.065826 
	C939.610840,442.136139 939.746033,435.181946 938.330811,427.871765 
	C938.963440,427.668091 939.586670,427.426758 940.230042,427.266052 
	C996.895081,413.108276 1020.792053,349.944366 987.798035,301.631653 
	C986.933472,300.365723 986.662720,298.694214 986.700500,296.853241 
	C1006.424011,270.111572 1008.376770,235.044449 991.168213,207.147858 
	C987.632080,201.415512 984.361328,196.653503 990.555603,190.971237 
	C990.824768,190.724274 990.704041,190.052307 990.808289,189.240707 
	C977.551392,187.059631 964.377808,184.892273 951.204285,182.724899 
	C964.453735,182.079987 977.613831,181.928284 990.766418,182.174408 
	C994.605469,182.246246 996.669678,181.079971 997.464600,177.355743 
	C999.196533,169.240692 1001.728882,161.225418 1002.649292,153.025146 
	C1003.964172,141.310760 1001.395691,129.966415 997.008179,118.749702 
	C995.356079,119.500404 994.143005,119.988716 992.986694,120.586662 
	C978.931458,127.854744 964.907837,135.184708 950.813721,142.376419 
	C948.306458,143.655792 945.515015,144.378250 942.854736,145.357864 
	C942.705627,144.993347 942.556580,144.628815 942.407471,144.264282 
	C958.822021,132.194962 975.236511,120.125641 991.729675,107.998512 
	C990.620422,106.107803 989.919678,104.788322 989.105225,103.543221 
	C959.729248,58.633926 892.761292,55.571636 859.365356,97.624390 
	C856.479797,101.257881 853.785217,105.043030 850.218872,108.380699 
	C846.759888,108.011078 843.301270,107.321831 839.841858,107.318176 
	C727.022705,107.198914 614.203491,107.119537 501.384247,107.089584 
	C381.896942,107.057869 262.409668,107.082298 142.922363,107.083878 
	C141.089401,107.083900 139.248611,106.999794 137.424759,107.134544 
	C127.402031,107.875046 119.414642,115.407196 119.199173,125.003212 
	C118.937515,136.656464 119.236694,148.322296 119.116020,160.906799 
	C119.107735,283.419220 119.060074,405.931641 119.182800,528.443909 
	C119.190704,536.329224 120.514397,544.213135 120.368843,552.096252 
	C110.585945,553.147156 100.803040,554.198059 90.162178,555.102356 
z"/>
<path fill="#3F3E56" opacity="1.000000" stroke="none" 
	d="
M121.226006,552.097717 
	C120.514397,544.213135 119.190704,536.329224 119.182800,528.443909 
	C119.060074,405.931641 119.107735,283.419220 119.654160,160.445312 
	C360.677704,159.984406 601.163086,159.985001 841.780090,160.381866 
	C845.042358,169.792709 846.841858,179.613907 851.678040,187.595047 
	C856.515991,195.579086 858.445801,201.774155 851.497742,208.854523 
	C851.275818,209.080627 851.210571,209.452087 851.025513,209.723923 
	C849.133850,212.502213 850.105103,214.144791 852.961853,215.471939 
	C856.404175,217.071152 859.692810,219.001282 863.007324,221.247803 
	C862.922485,223.846436 862.878235,225.985428 862.457336,228.079025 
	C857.855164,226.606537 853.572693,225.325180 849.423035,223.703964 
	C846.376099,222.513565 844.557861,223.189758 844.070190,226.433945 
	C843.042542,233.268585 842.141479,240.122253 841.118530,247.422821 
	C840.928833,265.501740 846.124634,281.417145 856.179382,295.864563 
	C857.011169,297.059753 857.131836,299.527985 856.470459,300.846832 
	C853.880432,306.011902 850.843872,310.953033 847.547424,316.011169 
	C844.502197,315.700592 841.882812,315.056061 839.263245,315.054962 
	C721.468445,315.005280 603.673706,315.009674 485.878906,315.019501 
	C479.909760,315.019989 478.832184,316.153137 478.938477,321.996826 
	C479.033844,327.242126 480.076904,328.063660 486.790161,328.063873 
	C603.585266,328.067108 720.380371,328.065186 837.175476,328.075470 
	C839.336975,328.075684 841.498474,328.211090 843.630981,328.640106 
	C843.067505,330.531128 842.173889,332.039581 842.060913,333.604340 
	C841.571899,340.381653 841.310913,347.175415 840.501526,353.973694 
	C723.239807,353.990295 606.443604,353.996429 489.647430,354.002808 
	C487.981293,354.002869 486.312592,354.066132 484.649506,353.995605 
	C480.252167,353.809082 478.879608,356.151672 478.878845,360.218567 
	C478.878113,364.238098 479.617920,367.241119 484.519470,367.066223 
	C486.183441,367.006836 487.851410,367.061462 489.517548,367.061676 
	C607.313293,367.076599 725.109009,367.091309 843.001404,367.469788 
	C846.832336,381.622375 853.355835,393.877533 863.109680,404.769409 
	C863.029114,448.856812 863.064880,492.501221 862.893066,536.144836 
	C862.873657,541.063843 861.681763,545.978210 860.893127,551.204346 
	C855.537537,558.704529 848.701477,561.175354 839.669006,561.167297 
	C608.351868,560.960754 377.034515,560.965820 145.717361,561.140442 
	C136.083771,561.147705 127.515808,560.219421 121.226006,552.097717 
M151.987717,457.500000 
	C151.987762,480.325714 151.985046,503.151459 151.989502,525.977173 
	C151.990891,533.084106 152.863632,533.975891 160.051422,533.976501 
	C254.020340,533.984314 347.989258,533.984375 441.958160,533.976501 
	C449.141449,533.975891 450.019318,533.080139 450.019470,525.974426 
	C450.021790,417.343689 450.021851,308.712982 450.019775,200.082245 
	C450.019623,192.380646 449.630005,192.003448 441.706848,192.003296 
	C348.071167,192.001404 254.435471,192.001617 160.799774,192.002655 
	C152.091507,192.002747 151.988144,192.111435 151.988083,201.084549 
	C151.987503,286.223022 151.987717,371.361511 151.987717,457.500000 
M689.500000,244.040695 
	C641.516296,244.040741 593.532532,244.008728 545.549133,244.134430 
	C543.121521,244.140793 538.864502,245.102325 538.596375,246.313522 
	C537.561218,250.990311 536.956116,256.106781 537.824585,260.754120 
	C538.551086,264.641937 543.019958,263.978027 546.355164,263.977478 
	C617.164368,263.965942 687.973633,263.968781 758.782837,263.968689 
	C766.280273,263.968658 773.786133,264.165009 781.270142,263.847565 
	C783.544373,263.751129 787.449097,262.568085 787.696655,261.309998 
	C788.596130,256.739075 789.080444,251.720642 787.977112,247.307022 
	C787.554199,245.615067 782.450867,244.201859 779.468689,244.178925 
	C749.813843,243.950943 720.156555,244.040771 689.500000,244.040695 
M478.947968,436.785828 
	C478.957733,444.391174 479.488647,445.045074 486.096436,445.045532 
	C604.048462,445.053619 722.000427,445.053467 839.952454,445.044983 
	C845.904297,445.044556 846.987305,444.026520 847.021179,438.684631 
	C847.056641,433.086914 846.026062,432.001740 840.285095,432.001160 
	C721.999878,431.989227 603.714661,431.992157 485.429474,431.992554 
	C484.929688,431.992554 484.283112,431.795166 483.954773,432.033691 
	C482.255157,433.268250 480.636902,434.614777 478.947968,436.785828 
M764.500000,406.057465 
	C765.999756,406.057434 767.499512,406.057404 768.999268,406.057373 
	C792.829529,406.056824 816.659912,406.023987 840.490051,406.088287 
	C844.358704,406.098724 846.965881,405.210327 847.057800,400.651581 
	C847.178833,394.652130 845.723267,393.000275 839.587585,393.000000 
	C721.769409,392.994568 603.951233,392.994171 486.133026,393.001495 
	C479.845276,393.001862 478.947845,394.132477 478.883423,400.227173 
	C478.823578,405.889343 482.330872,406.088745 486.535614,406.086975 
	C578.857056,406.047821 671.178528,406.057373 764.500000,406.057465 
M823.499756,515.130798 
	C826.663391,515.130798 829.827087,515.130737 832.990723,515.130676 
	C847.189270,515.130493 847.189392,515.130493 847.092224,501.114532 
	C847.041687,493.830048 845.271667,492.063049 837.874939,492.056396 
	C819.725647,492.040100 801.576294,492.050598 783.427002,492.050537 
	C768.995239,492.050476 768.885986,492.159729 769.030029,506.430939 
	C769.098694,513.234436 770.876953,515.102051 777.542847,515.117249 
	C792.528442,515.151428 807.514221,515.129944 823.499756,515.130798 
z"/>
<path fill="#333246" opacity="1.000000" stroke="none" 
	d="
M841.648499,159.985580 
	C601.163086,159.985001 360.677704,159.984406 119.742767,159.983246 
	C119.236694,148.322296 118.937515,136.656464 119.199173,125.003212 
	C119.414642,115.407196 127.402031,107.875046 137.424759,107.134544 
	C139.248611,106.999794 141.089401,107.083900 142.922363,107.083878 
	C262.409668,107.082298 381.896942,107.057869 501.384247,107.089584 
	C614.203491,107.119537 727.022705,107.198914 839.841858,107.318176 
	C843.301270,107.321831 846.759888,108.011078 850.555725,108.886093 
	C842.633911,125.310242 839.485718,142.162735 841.648499,159.985580 
M185.461105,127.288795 
	C185.001175,128.708176 184.365372,130.097076 184.113098,131.552460 
	C183.229004,136.653168 185.759384,142.084290 190.289658,144.048096 
	C194.732697,145.974091 198.970108,145.567108 202.658920,141.892410 
	C206.938553,137.629196 208.041092,133.586899 205.843048,128.941193 
	C202.098816,121.027512 193.035141,119.988747 185.461105,127.288795 
M167.262909,122.937988 
	C166.637070,122.720787 166.026962,122.416565 165.382919,122.300072 
	C159.935654,121.314850 154.903168,124.219437 152.749344,129.556381 
	C150.917404,134.095764 152.902054,140.607437 156.931763,143.278992 
	C161.257187,146.146591 166.977631,145.443924 170.950287,141.557007 
	C177.173370,135.468216 176.180298,129.246567 167.262909,122.937988 
M228.226410,144.993652 
	C235.657700,143.418396 238.978317,138.674377 237.977875,131.062164 
	C237.337479,126.189667 232.012009,121.778099 227.087585,122.040771 
	C220.258011,122.405067 215.883163,127.135002 215.997467,134.031006 
	C216.106705,140.621490 220.308044,144.659515 228.226410,144.993652 
z"/>
<path fill="#3FCC60" opacity="1.000000" stroke="none" 
	d="
M841.780090,160.381866 
	C839.485718,142.162735 842.633911,125.310242 850.947266,109.074615 
	C853.785217,105.043030 856.479797,101.257881 859.365356,97.624390 
	C892.761292,55.571636 959.729248,58.633926 989.105225,103.543221 
	C989.919678,104.788322 990.620422,106.107803 991.729675,107.998512 
	C975.236511,120.125641 958.822021,132.194962 942.407471,144.264282 
	C942.556580,144.628815 942.705627,144.993347 942.854736,145.357864 
	C945.515015,144.378250 948.306458,143.655792 950.813721,142.376419 
	C964.907837,135.184708 978.931458,127.854744 992.986694,120.586662 
	C994.143005,119.988716 995.356079,119.500404 997.008179,118.749702 
	C1001.395691,129.966415 1003.964172,141.310760 1002.649292,153.025146 
	C1001.728882,161.225418 999.196533,169.240692 997.464600,177.355743 
	C996.669678,181.079971 994.605469,182.246246 990.766418,182.174408 
	C977.613831,181.928284 964.453735,182.079987 951.204285,182.724899 
	C964.377808,184.892273 977.551392,187.059631 990.808289,189.240707 
	C990.704041,190.052307 990.824768,190.724274 990.555603,190.971237 
	C984.361328,196.653503 987.632080,201.415512 991.168213,207.147858 
	C1008.376770,235.044449 1006.424011,270.111572 986.342285,296.674561 
	C981.233521,292.800201 976.971130,288.050995 971.650513,285.585236 
	C943.771240,272.665009 914.615540,263.160950 884.882935,255.607727 
	C870.513855,251.957458 855.765259,249.800980 841.188538,246.968140 
	C842.141479,240.122253 843.042542,233.268585 844.070190,226.433945 
	C844.557861,223.189758 846.376099,222.513565 849.423035,223.703964 
	C853.572693,225.325180 857.855164,226.606537 862.684692,228.342682 
	C874.392944,232.515533 885.497253,236.379364 897.738586,240.638840 
	C896.855103,238.694626 896.752197,237.834045 896.322144,237.614609 
	C885.251526,231.965103 874.146790,226.382416 863.047974,220.788177 
	C859.692810,219.001282 856.404175,217.071152 852.961853,215.471939 
	C850.105103,214.144791 849.133850,212.502213 851.025513,209.723923 
	C851.210571,209.452087 851.275818,209.080627 851.497742,208.854523 
	C858.445801,201.774155 856.515991,195.579086 851.678040,187.595047 
	C846.841858,179.613907 845.042358,169.792709 841.780090,160.381866 
z"/>
<path fill="#38B856" opacity="1.000000" stroke="none" 
	d="
M841.118530,247.422821 
	C855.765259,249.800980 870.513855,251.957458 884.882935,255.607727 
	C914.615540,263.160950 943.771240,272.665009 971.650513,285.585236 
	C976.971130,288.050995 981.233521,292.800201 986.049561,296.853882 
	C986.662720,298.694214 986.933472,300.365723 987.798035,301.631653 
	C1020.792053,349.944366 996.895081,413.108276 940.230042,427.266052 
	C939.586670,427.426758 938.963440,427.668091 937.566223,428.014893 
	C926.920532,430.300140 917.039368,430.282166 906.764771,428.069153 
	C889.616272,424.393219 875.381958,416.201874 863.164673,404.326141 
	C853.355835,393.877533 846.832336,381.622375 843.021851,367.048218 
	C842.286072,362.162994 841.626526,358.063110 840.967041,353.963196 
	C841.310913,347.175415 841.571899,340.381653 842.060913,333.604340 
	C842.173889,332.039581 843.067505,330.531128 843.745483,328.233704 
	C845.250366,323.639557 846.611816,319.808472 847.973206,315.977356 
	C850.843872,310.953033 853.880432,306.011902 856.470459,300.846832 
	C857.131836,299.527985 857.011169,297.059753 856.179382,295.864563 
	C846.124634,281.417145 840.928833,265.501740 841.118530,247.422821 
z"/>
<path fill="#413F58" opacity="1.000000" stroke="none" 
	d="
M907.158264,428.158112 
	C917.039368,430.282166 926.920532,430.300140 937.177612,428.116791 
	C939.746033,435.181946 939.610840,442.136139 936.629028,449.065826 
	C936.072388,450.359375 936.312195,452.324402 936.862488,453.710297 
	C939.707825,460.876892 939.683044,467.925537 937.043945,475.163055 
	C936.392578,476.949219 936.431030,479.381073 937.082886,481.178741 
	C939.645386,488.245544 939.610291,495.121796 937.052124,502.182037 
	C936.403809,503.971497 936.425476,506.401337 937.078796,508.194702 
	C939.653137,515.261230 939.697937,522.174072 937.003418,529.180054 
	C936.494568,530.503052 935.798035,532.299866 936.289246,533.374878 
	C940.138672,541.798889 939.924316,550.141907 936.133179,558.481873 
	C942.072754,560.505432 947.736206,562.434875 953.399658,564.364319 
	C953.409363,565.134766 953.419067,565.905151 953.428772,566.675598 
	C950.328613,567.888000 947.321533,569.742554 944.113037,570.207703 
	C924.521851,573.048035 904.954834,576.403748 885.251404,578.062744 
	C786.228699,586.400452 686.932739,588.613892 587.632385,589.073364 
	C495.668701,589.498718 403.691864,588.595276 311.730988,587.453613 
	C267.093872,586.899475 222.429031,585.310059 177.871185,582.623108 
	C138.676453,580.259583 99.608208,575.767700 60.499550,572.053040 
	C56.398766,571.663452 52.356159,570.327393 48.377609,569.128357 
	C46.441624,568.544922 44.715931,567.263672 41.398724,565.505005 
	C45.186310,563.795959 47.401257,562.229553 49.818256,561.799988 
	C63.239113,559.414856 76.709045,557.305847 90.547913,555.510986 
	C89.577354,558.329346 90.693901,559.740356 92.953018,560.422058 
	C96.121841,561.378235 99.301849,562.564880 102.557381,562.923096 
	C124.913780,565.382812 147.257889,568.068420 169.671661,569.858276 
	C189.661072,571.454651 209.731506,572.069946 229.772659,572.974609 
	C247.012085,573.752930 264.259094,574.372864 281.505737,574.978638 
	C293.290070,575.392517 305.078369,575.707825 316.866852,575.984375 
	C332.983765,576.362610 349.101166,576.787659 365.220825,576.969971 
	C401.825775,577.383911 438.432098,577.908264 475.038055,577.922546 
	C508.479004,577.935608 541.920715,577.382385 575.361023,576.990356 
	C595.810791,576.750732 616.258972,576.363892 636.707214,576.007446 
	C654.324707,575.700317 671.942444,575.390625 689.557922,574.988342 
	C699.348633,574.764771 709.135437,574.362976 718.923157,574.017639 
	C737.667053,573.356262 756.409668,572.659546 775.154053,572.013550 
	C786.106750,571.636108 797.064026,571.385864 808.015015,570.966797 
	C814.142273,570.732361 820.271729,570.398926 826.381165,569.884094 
	C840.887512,568.661926 855.406921,567.525879 869.873535,565.925171 
	C879.561035,564.853271 889.180603,563.126465 898.802185,561.522034 
	C902.299194,560.938843 904.808838,559.279785 903.389038,554.961914 
	C906.886414,555.409912 906.447632,553.820557 906.487976,551.444946 
	C906.582275,545.894714 907.464050,540.360229 907.952942,534.812866 
	C908.102722,533.112793 908.513306,531.201233 907.947510,529.712219 
	C905.154175,522.362183 905.086731,515.151245 907.900208,507.790283 
	C908.473938,506.289093 908.527710,504.203979 907.959900,502.716827 
	C905.154846,495.369232 905.093750,488.156067 907.880371,480.791168 
	C908.452759,479.278473 908.545898,477.190277 907.976624,475.706146 
	C905.090515,468.182037 905.053528,460.807434 908.082520,453.326782 
	C908.575745,452.108459 908.669006,450.345917 908.165771,449.169098 
	C905.208252,442.252472 905.203064,435.270599 907.158264,428.158112 
z"/>
<path fill="#333246" opacity="1.000000" stroke="none" 
	d="
M902.994812,555.046387 
	C904.808838,559.279785 902.299194,560.938843 898.802185,561.522034 
	C889.180603,563.126465 879.561035,564.853271 869.873535,565.925171 
	C855.406921,567.525879 840.887512,568.661926 826.381165,569.884094 
	C820.271729,570.398926 814.142273,570.732361 808.015015,570.966797 
	C797.064026,571.385864 786.106750,571.636108 775.154053,572.013550 
	C756.409668,572.659546 737.667053,573.356262 718.923157,574.017639 
	C709.135437,574.362976 699.348633,574.764771 689.557922,574.988342 
	C671.942444,575.390625 654.324707,575.700317 636.707214,576.007446 
	C616.258972,576.363892 595.810791,576.750732 575.361023,576.990356 
	C541.920715,577.382385 508.479004,577.935608 475.038055,577.922546 
	C438.432098,577.908264 401.825775,577.383911 365.220825,576.969971 
	C349.101166,576.787659 332.983765,576.362610 316.866852,575.984375 
	C305.078369,575.707825 293.290070,575.392517 281.505737,574.978638 
	C264.259094,574.372864 247.012085,573.752930 229.772659,572.974609 
	C209.731506,572.069946 189.661072,571.454651 169.671661,569.858276 
	C147.257889,568.068420 124.913780,565.382812 102.557381,562.923096 
	C99.301849,562.564880 96.121841,561.378235 92.953018,560.422058 
	C90.693901,559.740356 89.577354,558.329346 90.976898,555.584290 
	C100.803040,554.198059 110.585945,553.147156 120.797424,552.096985 
	C127.515808,560.219421 136.083771,561.147705 145.717361,561.140442 
	C377.034515,560.965820 608.351868,560.960754 839.669006,561.167297 
	C848.701477,561.175354 855.537537,558.704529 861.309570,551.239990 
	C875.575928,552.326111 889.285400,553.686279 902.994812,555.046387 
z"/>
<path fill="#606060" opacity="1.000000" stroke="none" 
	d="
M151.987701,457.000000 
	C151.987717,371.361511 151.987503,286.223022 151.988083,201.084549 
	C151.988144,192.111435 152.091507,192.002747 160.799774,192.002655 
	C254.435471,192.001617 348.071167,192.001404 441.706848,192.003296 
	C449.630005,192.003448 450.019623,192.380646 450.019775,200.082245 
	C450.021851,308.712982 450.021790,417.343689 450.019470,525.974426 
	C450.019318,533.080139 449.141449,533.975891 441.958160,533.976501 
	C347.989258,533.984375 254.020340,533.984314 160.051422,533.976501 
	C152.863632,533.975891 151.990891,533.084106 151.989502,525.977173 
	C151.985046,503.151459 151.987762,480.325714 151.987701,457.000000 
M274.313995,294.685669 
	C273.787994,295.020905 273.262024,295.356110 271.975037,295.768494 
	C270.567291,296.236206 269.166107,296.724945 267.750671,297.168091 
	C261.198547,299.219330 254.642426,301.257874 247.247421,303.165192 
	C241.456253,303.458588 235.667816,303.899597 229.873199,304.007080 
	C223.051743,304.133545 223.251648,304.016113 222.976562,311.039703 
	C222.045135,334.821320 228.476715,356.744019 239.886566,377.296326 
	C243.208771,383.280548 247.746735,388.589813 251.854919,394.899506 
	C255.937180,400.288818 259.473389,406.225891 264.215454,410.953339 
	C274.068268,420.775757 284.527130,429.993683 294.847107,439.338348 
	C295.771240,440.175140 298.071045,440.882507 298.759766,440.362457 
	C303.040558,437.130066 307.043762,433.530090 311.712708,429.736969 
	C316.078217,425.998962 320.742432,422.549866 324.720459,418.437134 
	C328.294006,414.742615 331.113861,410.319092 334.811188,405.838043 
	C340.580780,398.594269 347.043610,391.791809 351.989136,384.023407 
	C366.446564,361.313751 374.177124,336.520844 372.968750,309.304199 
	C372.728760,303.899139 372.080505,303.240936 366.830536,303.864746 
	C365.676605,304.001831 364.503265,303.998199 363.338196,304.015869 
	C339.615295,304.375702 319.473328,295.812592 302.722260,279.252960 
	C299.469177,276.037048 297.358917,276.072784 294.076599,279.089081 
	C288.863831,283.879272 283.186951,288.164307 277.164795,292.811462 
	C276.414276,293.367401 275.663727,293.923340 274.313995,294.685669 
z"/>
<path fill="#F0F0F0" opacity="1.000000" stroke="none" 
	d="
M903.389038,554.961914 
	C889.285400,553.686279 875.575928,552.326111 861.450073,550.930420 
	C861.681763,545.978210 862.873657,541.063843 862.893066,536.144836 
	C863.064880,492.501221 863.029114,448.856812 863.109680,404.769409 
	C875.381958,416.201874 889.616272,424.393219 906.764771,428.069153 
	C905.203064,435.270599 905.208252,442.252472 908.165771,449.169098 
	C908.669006,450.345917 908.575745,452.108459 908.082520,453.326782 
	C905.053528,460.807434 905.090515,468.182037 907.976624,475.706146 
	C908.545898,477.190277 908.452759,479.278473 907.880371,480.791168 
	C905.093750,488.156067 905.154846,495.369232 907.959900,502.716827 
	C908.527710,504.203979 908.473938,506.289093 907.900208,507.790283 
	C905.086731,515.151245 905.154175,522.362183 907.947510,529.712219 
	C908.513306,531.201233 908.102722,533.112793 907.952942,534.812866 
	C907.464050,540.360229 906.582275,545.894714 906.487976,551.444946 
	C906.447632,553.820557 906.886414,555.409912 903.389038,554.961914 
z"/>
<path fill="#2F8355" opacity="1.000000" stroke="none" 
	d="
M690.000000,244.040741 
	C720.156555,244.040771 749.813843,243.950943 779.468689,244.178925 
	C782.450867,244.201859 787.554199,245.615067 787.977112,247.307022 
	C789.080444,251.720642 788.596130,256.739075 787.696655,261.309998 
	C787.449097,262.568085 783.544373,263.751129 781.270142,263.847565 
	C773.786133,264.165009 766.280273,263.968658 758.782837,263.968689 
	C687.973633,263.968781 617.164368,263.965942 546.355164,263.977478 
	C543.019958,263.978027 538.551086,264.641937 537.824585,260.754120 
	C536.956116,256.106781 537.561218,250.990311 538.596375,246.313522 
	C538.864502,245.102325 543.121521,244.140793 545.549133,244.134430 
	C593.532532,244.008728 641.516296,244.040741 690.000000,244.040741 
z"/>
<path fill="#2E8455" opacity="1.000000" stroke="none" 
	d="
M478.969116,436.354065 
	C480.636902,434.614777 482.255157,433.268250 483.954773,432.033691 
	C484.283112,431.795166 484.929688,431.992554 485.429474,431.992554 
	C603.714661,431.992157 721.999878,431.989227 840.285095,432.001160 
	C846.026062,432.001740 847.056641,433.086914 847.021179,438.684631 
	C846.987305,444.026520 845.904297,445.044556 839.952454,445.044983 
	C722.000427,445.053467 604.048462,445.053619 486.096436,445.045532 
	C479.488647,445.045074 478.957733,444.391174 478.969116,436.354065 
z"/>
<path fill="#2E8455" opacity="1.000000" stroke="none" 
	d="
M764.000000,406.057556 
	C671.178528,406.057373 578.857056,406.047821 486.535614,406.086975 
	C482.330872,406.088745 478.823578,405.889343 478.883423,400.227173 
	C478.947845,394.132477 479.845276,393.001862 486.133026,393.001495 
	C603.951233,392.994171 721.769409,392.994568 839.587585,393.000000 
	C845.723267,393.000275 847.178833,394.652130 847.057800,400.651581 
	C846.965881,405.210327 844.358704,406.098724 840.490051,406.088287 
	C816.659912,406.023987 792.829529,406.056824 768.999268,406.057373 
	C767.499512,406.057404 765.999756,406.057434 764.000000,406.057556 
z"/>
<path fill="#2E8355" opacity="1.000000" stroke="none" 
	d="
M847.547424,316.011169 
	C846.611816,319.808472 845.250366,323.639557 843.774414,327.877045 
	C841.498474,328.211090 839.336975,328.075684 837.175476,328.075470 
	C720.380371,328.065186 603.585266,328.067108 486.790161,328.063873 
	C480.076904,328.063660 479.033844,327.242126 478.938477,321.996826 
	C478.832184,316.153137 479.909760,315.019989 485.878906,315.019501 
	C603.673706,315.009674 721.468445,315.005280 839.263245,315.054962 
	C841.882812,315.056061 844.502197,315.700592 847.547424,316.011169 
z"/>
<path fill="#2E8455" opacity="1.000000" stroke="none" 
	d="
M840.501465,353.973694 
	C841.626526,358.063110 842.286072,362.162994 842.925171,366.684479 
	C725.109009,367.091309 607.313293,367.076599 489.517548,367.061676 
	C487.851410,367.061462 486.183441,367.006836 484.519470,367.066223 
	C479.617920,367.241119 478.878113,364.238098 478.878845,360.218567 
	C478.879608,356.151672 480.252167,353.809082 484.649506,353.995605 
	C486.312592,354.066132 487.981293,354.002869 489.647430,354.002808 
	C606.443604,353.996429 723.239807,353.990295 840.501465,353.973694 
z"/>
<path fill="#3EC95F" opacity="1.000000" stroke="none" 
	d="
M822.999817,515.130981 
	C807.514221,515.129944 792.528442,515.151428 777.542847,515.117249 
	C770.876953,515.102051 769.098694,513.234436 769.030029,506.430939 
	C768.885986,492.159729 768.995239,492.050476 783.427002,492.050537 
	C801.576294,492.050598 819.725647,492.040100 837.874939,492.056396 
	C845.271667,492.063049 847.041687,493.830048 847.092224,501.114532 
	C847.189392,515.130493 847.189270,515.130493 832.990723,515.130676 
	C829.827087,515.130737 826.663391,515.130798 822.999817,515.130981 
z"/>
<path fill="#E4EDE5" opacity="1.000000" stroke="none" 
	d="
M863.007324,221.247803 
	C874.146790,226.382416 885.251526,231.965103 896.322144,237.614609 
	C896.752197,237.834045 896.855103,238.694626 897.738586,240.638840 
	C885.497253,236.379364 874.392944,232.515533 863.061279,228.388062 
	C862.878235,225.985428 862.922485,223.846436 863.007324,221.247803 
z"/>
<path fill="#3F3D56" opacity="1.000000" stroke="none" 
	d="
M185.690033,126.973267 
	C193.035141,119.988747 202.098816,121.027512 205.843048,128.941193 
	C208.041092,133.586899 206.938553,137.629196 202.658920,141.892410 
	C198.970108,145.567108 194.732697,145.974091 190.289658,144.048096 
	C185.759384,142.084290 183.229004,136.653168 184.113098,131.552460 
	C184.365372,130.097076 185.001175,128.708176 185.690033,126.973267 
z"/>
<path fill="#3F3D56" opacity="1.000000" stroke="none" 
	d="
M167.636307,123.035980 
	C176.180298,129.246567 177.173370,135.468216 170.950287,141.557007 
	C166.977631,145.443924 161.257187,146.146591 156.931763,143.278992 
	C152.902054,140.607437 150.917404,134.095764 152.749344,129.556381 
	C154.903168,124.219437 159.935654,121.314850 165.382919,122.300072 
	C166.026962,122.416565 166.637070,122.720787 167.636307,123.035980 
z"/>
<path fill="#3F3D55" opacity="1.000000" stroke="none" 
	d="
M227.817337,144.995941 
	C220.308044,144.659515 216.106705,140.621490 215.997467,134.031006 
	C215.883163,127.135002 220.258011,122.405067 227.087585,122.040771 
	C232.012009,121.778099 237.337479,126.189667 237.977875,131.062164 
	C238.978317,138.674377 235.657700,143.418396 227.817337,144.995941 
z"/>
<path fill="#3FB3C3" opacity="1.000000" stroke="none" 
	d="
M277.706390,292.663055 
	C283.186951,288.164307 288.863831,283.879272 294.076599,279.089081 
	C297.358917,276.072784 299.469177,276.037048 302.722260,279.252960 
	C319.473328,295.812592 339.615295,304.375702 363.338196,304.015869 
	C364.503265,303.998199 365.676605,304.001831 366.830536,303.864746 
	C372.080505,303.240936 372.728760,303.899139 372.968750,309.304199 
	C374.177124,336.520844 366.446564,361.313751 351.989136,384.023407 
	C347.043610,391.791809 340.580780,398.594269 334.100403,405.961395 
	C332.803162,406.044434 332.216766,406.004120 331.730682,405.649933 
	C331.895294,404.902924 331.959534,404.469788 332.356812,403.985352 
	C334.779816,401.636230 336.869812,399.338440 339.204315,396.878174 
	C339.615723,396.366943 339.782654,396.018097 339.991516,395.350098 
	C340.420380,393.813293 340.807343,392.595612 341.493286,391.293213 
	C342.506042,390.829376 343.219849,390.450226 344.283752,389.997192 
	C345.057373,389.160950 345.480896,388.398560 345.953613,387.315643 
	C346.989990,385.352203 347.977081,383.709259 349.317139,382.015625 
	C350.492035,381.210327 351.563293,380.600830 352.099365,379.679810 
	C364.156494,358.965149 371.683563,336.968475 371.054321,312.645203 
	C370.881683,305.971069 371.016968,305.771881 364.206421,306.017426 
	C348.551971,306.581879 333.946106,303.112427 320.360901,295.296478 
	C316.129974,292.862305 311.825317,290.556305 307.431915,288.178223 
	C307.309418,288.164795 307.077484,288.081390 307.020386,287.723999 
	C304.983582,285.898346 303.003906,284.430115 300.705109,282.942627 
	C299.961609,282.907135 299.537231,282.890900 299.069336,282.941650 
	C299.025879,283.008667 299.124878,282.880646 299.126099,282.585571 
	C299.083038,281.898590 299.038757,281.506683 298.966919,280.806213 
	C298.539154,280.149597 298.138977,279.801575 297.738770,279.453522 
	C297.482422,279.970245 297.226044,280.486969 296.682495,281.158020 
	C294.573120,283.200165 292.750916,285.087982 290.631714,287.127136 
	C287.949585,288.896271 285.564453,290.514099 282.841797,292.120361 
	C281.704193,292.767609 280.904053,293.426422 280.102661,294.110046 
	C280.101379,294.134857 280.106659,294.184357 279.752319,294.092163 
	C278.834106,293.554352 278.270264,293.108704 277.706390,292.663055 
z"/>
<path fill="#417BB0" opacity="1.000000" stroke="none" 
	d="
M251.727402,394.208466 
	C247.746735,388.589813 243.208771,383.280548 239.886566,377.296326 
	C228.476715,356.744019 222.045135,334.821320 222.976562,311.039703 
	C223.251648,304.016113 223.051743,304.133545 229.873199,304.007080 
	C235.667816,303.899597 241.456253,303.458588 247.645264,303.559814 
	C248.008362,304.621826 247.973633,305.289246 247.608780,305.934998 
	C246.219635,305.640442 245.160614,305.367554 243.717010,305.117157 
	C241.218674,306.025482 239.104919,306.911377 236.607391,307.870819 
	C235.182861,307.945038 234.142105,307.945709 232.982880,307.577087 
	C227.284424,304.642090 225.069260,305.791931 225.006729,311.347076 
	C224.962357,315.288910 224.846939,319.242401 225.104904,323.168274 
	C225.193283,324.513336 226.318665,325.790283 227.003174,327.395477 
	C227.055862,328.090607 227.075653,328.488647 226.835815,329.094879 
	C227.019516,330.231415 227.462814,331.159729 227.940491,332.438232 
	C228.002075,333.491455 228.029297,334.194550 227.780914,335.157135 
	C227.364090,336.050537 226.966583,336.755066 227.119064,337.307953 
	C230.948532,351.192627 234.702942,365.117004 242.742599,377.351685 
	C243.231186,378.095215 244.219147,378.510590 245.121429,379.328125 
	C245.553101,380.285614 245.838089,380.993591 246.108307,382.085144 
	C248.078812,386.298401 250.064072,390.128082 251.970306,394.022339 
	C251.891266,394.086853 251.727402,394.208466 251.727402,394.208466 
z"/>
<path fill="#3F7BB3" opacity="1.000000" stroke="none" 
	d="
M311.139008,430.052032 
	C307.043762,433.530090 303.040558,437.130066 298.759766,440.362457 
	C298.071045,440.882507 295.771240,440.175140 294.847107,439.338348 
	C284.527130,429.993683 274.068268,420.775757 264.215454,410.953339 
	C259.473389,406.225891 255.937180,400.288818 251.791168,394.553986 
	C251.727402,394.208466 251.891266,394.086853 252.296722,394.090027 
	C254.460068,395.403259 256.217957,396.713287 257.987915,398.012268 
	C258.000000,398.001221 257.976166,398.018860 257.978394,398.380737 
	C258.984955,399.831207 259.989319,400.919800 260.996826,402.004211 
	C261.000000,402.000000 260.991547,402.004211 260.988892,402.369324 
	C263.007843,404.826782 265.029480,406.919159 267.331909,409.165588 
	C268.773376,410.804138 269.933990,412.288574 271.091064,414.139771 
	C274.059723,417.016632 277.031860,419.526733 280.296997,422.189819 
	C285.730804,426.863129 290.871674,431.383484 296.062622,436.261963 
	C297.891571,438.732758 299.237671,438.790466 300.108276,435.610352 
	C300.752167,435.230988 301.232330,435.054382 301.983826,434.821686 
	C302.482208,434.489014 302.709198,434.212402 302.921814,433.930969 
	C302.907440,433.926178 302.902496,433.896240 303.233215,433.901978 
	C304.392670,433.268860 305.221344,432.630005 306.393433,431.951599 
	C308.204224,431.292023 309.671631,430.672028 311.139008,430.052032 
z"/>
<path fill="#2F88B7" opacity="1.000000" stroke="none" 
	d="
M311.425842,429.894501 
	C309.671631,430.672028 308.204224,431.292023 306.346222,431.937103 
	C305.955627,431.962189 305.860931,431.938232 305.903168,431.612122 
	C305.942322,430.847748 305.939240,430.409515 306.095612,429.682892 
	C307.851257,427.968384 309.447449,426.542267 311.343170,424.962402 
	C318.305237,418.527069 324.967804,412.245453 331.630341,405.963837 
	C332.216766,406.004120 332.803162,406.044434 333.827881,406.150970 
	C331.113861,410.319092 328.294006,414.742615 324.720459,418.437134 
	C320.742432,422.549866 316.078217,425.998962 311.425842,429.894501 
z"/>
<path fill="#3399BC" opacity="1.000000" stroke="none" 
	d="
M247.938904,305.956635 
	C247.973633,305.289246 248.008362,304.621826 248.065430,303.627716 
	C254.642426,301.257874 261.198547,299.219330 267.750671,297.168091 
	C269.166107,296.724945 270.567291,296.236206 272.566162,296.044006 
	C273.536713,296.639679 273.916107,296.959839 274.150391,297.586975 
	C268.311798,300.550171 262.618347,303.206390 256.513916,305.888977 
	C254.722336,305.982300 253.341751,306.049286 251.789185,306.151245 
	C251.393127,306.279419 251.228790,306.435486 250.855972,306.726959 
	C250.405289,306.831696 250.222855,306.863922 249.847061,306.668579 
	C249.082092,306.279572 248.510513,306.118103 247.938904,305.956635 
z"/>
<path fill="#3399BC" opacity="1.000000" stroke="none" 
	d="
M277.435608,292.737244 
	C278.270264,293.108704 278.834106,293.554352 279.658936,294.415283 
	C278.300201,295.587952 276.680481,296.345337 275.035492,296.666779 
	C274.977875,295.646973 274.945526,295.063110 274.913177,294.479279 
	C275.663727,293.923340 276.414276,293.367401 277.435608,292.737244 
z"/>
<path fill="#3FB3C3" opacity="1.000000" stroke="none" 
	d="
M274.613586,294.582458 
	C274.945526,295.063110 274.977875,295.646973 274.844177,296.711884 
	C274.678101,297.192963 274.295532,297.279999 274.295532,297.279999 
	C273.916107,296.959839 273.536713,296.639679 272.946655,296.005432 
	C273.262024,295.356110 273.787994,295.020905 274.613586,294.582458 
z"/>
<path fill="#055195" opacity="1.000000" stroke="none" 
	d="
M274.150391,297.586975 
	C274.295532,297.279999 274.678101,297.192963 274.869446,297.147858 
	C276.680481,296.345337 278.300201,295.587952 280.013306,294.507446 
	C280.106659,294.184357 280.101379,294.134857 280.441589,294.110840 
	C281.580963,293.435181 282.380127,292.783539 283.179291,292.131927 
	C285.564453,290.514099 287.949585,288.896271 291.004150,287.134430 
	C294.157349,285.620514 296.641113,284.250580 299.124878,282.880646 
	C299.124878,282.880646 299.025879,283.008667 299.024353,283.327881 
	C298.135376,285.358154 297.629944,288.100494 296.292175,288.596069 
	C291.343170,290.429352 291.895599,294.223663 291.966492,298.346802 
	C291.313019,299.127716 290.716217,299.611481 289.742706,300.054077 
	C288.588440,300.218475 287.722748,300.269135 287.046875,300.653564 
	C279.833862,304.756378 272.642761,308.898010 265.473602,313.076965 
	C264.827240,313.453766 264.375671,314.164734 263.532593,314.779297 
	C262.826019,314.889526 262.420532,314.940979 261.850403,314.778503 
	C261.066254,314.943146 260.446747,315.321686 259.477295,315.759430 
	C258.420898,315.884247 257.714417,315.949860 257.010620,315.720306 
	C257.008453,315.228455 257.003632,315.031738 257.049377,314.478821 
	C258.969421,311.328400 260.262024,308.546417 256.924866,305.862610 
	C262.618347,303.206390 268.311798,300.550171 274.150391,297.586975 
z"/>
<path fill="#1FBADC" opacity="1.000000" stroke="none" 
	d="
M307.554413,288.191620 
	C311.825317,290.556305 316.129974,292.862305 320.360901,295.296478 
	C333.946106,303.112427 348.551971,306.581879 364.206421,306.017426 
	C371.016968,305.771881 370.881683,305.971069 371.054321,312.645203 
	C371.683563,336.968475 364.156494,358.965149 352.099365,379.679810 
	C351.563293,380.600830 350.492035,381.210327 349.375763,381.647766 
	C349.839020,379.259979 350.596588,377.189331 351.661804,375.025940 
	C354.328888,369.630646 356.688354,364.328125 359.317566,358.786865 
	C362.049561,350.029968 364.511841,341.511780 367.257751,332.700195 
	C368.021576,325.841705 368.481537,319.275024 368.990295,312.712128 
	C369.251404,309.344238 367.869690,307.864868 364.389343,307.986572 
	C359.592682,308.154297 354.785370,308.018707 349.582581,307.949463 
	C342.126801,305.911499 335.071075,303.937103 327.705658,301.812683 
	C321.973999,298.700378 316.552063,295.738098 310.951050,292.506226 
	C309.699463,290.888275 308.626953,289.539948 307.554413,288.191620 
z"/>
<path fill="#044385" opacity="1.000000" stroke="none" 
	d="
M331.730682,405.649933 
	C324.967804,412.245453 318.305237,418.527069 311.327576,424.550751 
	C311.264832,419.576019 308.002167,418.973206 304.627472,418.454956 
	C305.136353,417.745728 305.479309,417.277191 306.164490,416.840424 
	C307.263794,416.162842 308.020844,415.453461 309.044769,414.574921 
	C310.483398,413.196442 311.655090,411.987091 313.183441,410.817627 
	C316.974091,407.191376 320.408081,403.525177 324.019165,399.808533 
	C324.196320,399.758118 324.559753,399.698029 324.897766,399.867676 
	C327.498474,401.370453 329.761139,402.703583 332.023804,404.036682 
	C331.959534,404.469788 331.895294,404.902924 331.730682,405.649933 
z"/>
<path fill="#0460A8" opacity="1.000000" stroke="none" 
	d="
M307.431915,288.178223 
	C308.626953,289.539948 309.699463,290.888275 310.870178,292.905884 
	C309.934631,296.125153 308.900940,298.675079 307.515076,301.174744 
	C305.102112,299.428650 303.041321,297.732849 300.948059,295.674713 
	C299.420715,292.786621 297.866791,291.263794 295.756073,295.233032 
	C294.347839,296.311798 293.185516,297.180695 292.023163,298.049622 
	C291.895599,294.223663 291.343170,290.429352 296.292175,288.596069 
	C297.629944,288.100494 298.135376,285.358154 299.067841,283.260864 
	C299.537231,282.890900 299.961609,282.907135 300.846436,283.246399 
	C303.230377,285.073425 305.153931,286.577423 307.077484,288.081390 
	C307.077484,288.081390 307.309418,288.164795 307.431915,288.178223 
z"/>
<path fill="#075498" opacity="1.000000" stroke="none" 
	d="
M332.356812,403.985352 
	C329.761139,402.703583 327.498474,401.370453 324.941864,399.549866 
	C324.621887,398.632965 324.595825,398.203522 324.902710,397.684265 
	C326.752594,396.001251 328.269531,394.408051 330.123352,392.744415 
	C332.209534,390.359772 333.958801,388.045593 335.775024,385.461487 
	C335.942413,384.834656 336.042877,384.477722 336.452454,384.105042 
	C337.173401,384.051636 337.585236,384.014008 338.220917,384.242645 
	C342.991028,385.345642 341.594727,388.561127 341.194305,391.377960 
	C340.807343,392.595612 340.420380,393.813293 339.749329,395.520508 
	C339.296783,396.353607 339.128296,396.697113 338.959839,397.040619 
	C336.869812,399.338440 334.779816,401.636230 332.356812,403.985352 
z"/>
<path fill="#0763AC" opacity="1.000000" stroke="none" 
	d="
M341.493286,391.293213 
	C341.594727,388.561127 342.991028,385.345642 338.376099,383.930115 
	C338.830353,381.847107 339.353271,380.342865 339.905518,378.632904 
	C339.934784,378.427185 340.043182,378.026001 340.368652,377.969543 
	C341.080322,377.211426 341.466522,376.509796 341.874451,375.604248 
	C341.896118,375.400391 341.995819,375.002655 342.325684,374.954956 
	C343.055573,374.209595 343.455566,373.511963 343.890808,372.610168 
	C343.926056,372.406036 344.049469,372.010529 344.402222,372.052551 
	C346.954742,373.102631 349.154449,374.110657 351.354156,375.118683 
	C350.596588,377.189331 349.839020,379.259979 349.022827,381.698486 
	C347.977081,383.709259 346.989990,385.352203 345.647919,387.460754 
	C344.839844,388.641266 344.386749,389.356171 343.933655,390.071075 
	C343.219849,390.450226 342.506042,390.829376 341.493286,391.293213 
z"/>
<path fill="#0460A8" opacity="1.000000" stroke="none" 
	d="
M299.126099,282.585571 
	C296.641113,284.250580 294.157349,285.620514 291.301147,286.983093 
	C292.750916,285.087982 294.573120,283.200165 297.019135,281.193787 
	C298.093445,281.088409 298.543945,281.101593 298.994446,281.114777 
	C299.038757,281.506683 299.083038,281.898590 299.126099,282.585571 
z"/>
<path fill="#1FBADC" opacity="1.000000" stroke="none" 
	d="
M307.020386,287.723999 
	C305.153931,286.577423 303.230377,285.073425 301.165527,283.265686 
	C303.003906,284.430115 304.983582,285.898346 307.020386,287.723999 
z"/>
<path fill="#3399BC" opacity="1.000000" stroke="none" 
	d="
M282.841797,292.120361 
	C282.380127,292.783539 281.580963,293.435181 280.442871,294.085999 
	C280.904053,293.426422 281.704193,292.767609 282.841797,292.120361 
z"/>
<path fill="#1FBADC" opacity="1.000000" stroke="none" 
	d="
M298.966919,280.806213 
	C298.543945,281.101593 298.093445,281.088409 297.306335,281.039459 
	C297.226044,280.486969 297.482422,279.970245 297.738770,279.453522 
	C298.138977,279.801575 298.539154,280.149597 298.966919,280.806213 
z"/>
<path fill="#1FBADC" opacity="1.000000" stroke="none" 
	d="
M344.283752,389.997192 
	C344.386749,389.356171 344.839844,388.641266 345.598694,387.781250 
	C345.480896,388.398560 345.057373,389.160950 344.283752,389.997192 
z"/>
<path fill="#1FBADC" opacity="1.000000" stroke="none" 
	d="
M339.204315,396.878174 
	C339.128296,396.697113 339.296783,396.353607 339.707428,395.839661 
	C339.782654,396.018097 339.615723,396.366943 339.204315,396.878174 
z"/>
<path fill="#043A75" opacity="1.000000" stroke="none" 
	d="
M304.461578,418.695679 
	C308.002167,418.973206 311.264832,419.576019 311.028076,424.704468 
	C309.447449,426.542267 307.851257,427.968384 305.794800,429.739166 
	C304.869049,430.674835 304.403503,431.265839 303.710938,432.051758 
	C303.290070,432.796509 303.096283,433.346375 302.902496,433.896240 
	C302.902496,433.896240 302.907440,433.926178 302.670532,434.015625 
	C302.193268,434.362640 301.952881,434.620209 301.712494,434.877777 
	C301.232330,435.054382 300.752167,435.230988 299.716919,435.652344 
	C298.112061,435.899323 297.062286,435.901581 296.012512,435.903839 
	C290.871674,431.383484 285.730804,426.863129 280.159058,421.882446 
	C276.850311,418.872437 273.972473,416.322723 271.094604,413.773041 
	C269.933990,412.288574 268.773376,410.804138 267.277161,408.826141 
	C264.958252,406.223145 262.974915,404.113678 260.991547,402.004211 
	C260.991547,402.004211 261.000000,402.000000 260.968079,401.674927 
	C259.949463,400.239532 258.962799,399.129211 257.976166,398.018860 
	C257.976166,398.018860 258.000000,398.001221 257.952942,397.664337 
	C253.978271,392.118835 250.050674,386.910217 246.123077,381.701599 
	C245.838089,380.993591 245.553101,380.285614 245.098114,378.958618 
	C239.304245,363.858917 233.680374,349.378265 228.056503,334.897614 
	C228.029297,334.194550 228.002075,333.491455 227.982086,332.089752 
	C227.691345,330.556305 227.393402,329.721466 227.095444,328.886658 
	C227.075653,328.488647 227.055862,328.090607 227.038712,326.916992 
	C227.022644,322.185486 227.346039,318.190491 226.899658,314.283478 
	C226.326797,309.269379 228.140015,307.230438 233.101334,307.946350 
	C234.142105,307.945709 235.182861,307.945038 237.035248,307.938019 
	C239.852341,307.870453 241.857849,307.809265 244.254303,307.832764 
	C246.443649,307.576996 248.242050,307.236572 250.040436,306.896149 
	C250.222855,306.863922 250.405289,306.831696 251.038666,306.731049 
	C251.734634,306.556458 251.891800,306.374329 251.961151,306.116241 
	C253.341751,306.049286 254.722336,305.982300 256.513916,305.888947 
	C260.262024,308.546417 258.969421,311.328400 256.719940,314.527679 
	C255.897598,314.966278 255.455261,314.999817 254.790161,314.765106 
	C253.385880,315.018372 252.204361,315.539917 250.698822,316.290955 
	C247.584702,316.602936 244.794586,316.685425 241.841797,316.562744 
	C241.111908,316.557953 240.544708,316.758362 239.588348,317.070068 
	C238.936447,321.976105 238.338089,326.785645 238.548691,331.559509 
	C238.658463,334.047913 240.193634,336.473419 241.115234,339.194336 
	C241.129837,339.639740 241.114182,339.818207 240.773865,340.209595 
	C240.967880,343.617920 240.900375,347.058380 242.114883,349.962769 
	C245.794861,358.763092 249.971390,367.355774 254.012527,376.379761 
	C257.710693,381.490112 261.350769,386.250092 265.078735,391.170837 
	C265.166565,391.331635 265.267059,391.683990 265.208557,392.048157 
	C266.429047,393.611816 267.708008,394.811340 268.990417,395.993347 
	C268.993835,395.975800 269.029541,395.974243 269.011749,396.339813 
	C269.444153,397.729248 269.636383,399.024811 270.384430,399.734924 
	C277.874634,406.845581 285.456268,413.859924 293.290802,421.076660 
	C295.823456,423.539886 298.247070,424.056213 301.306274,421.963562 
	C302.401489,421.165466 303.111664,420.359650 303.870605,419.372864 
	C304.048279,418.969818 304.229004,418.804413 304.461578,418.695679 
z"/>
<path fill="#1C70B4" opacity="1.000000" stroke="none" 
	d="
M227.780914,335.157135 
	C233.680374,349.378265 239.304245,363.858917 244.951447,378.709106 
	C244.219147,378.510590 243.231186,378.095215 242.742599,377.351685 
	C234.702942,365.117004 230.948532,351.192627 227.119064,337.307953 
	C226.966583,336.755066 227.364090,336.050537 227.780914,335.157135 
z"/>
<path fill="#1C70B4" opacity="1.000000" stroke="none" 
	d="
M232.982880,307.577087 
	C228.140015,307.230438 226.326797,309.269379 226.899658,314.283478 
	C227.346039,318.190491 227.022644,322.185486 227.005814,326.619873 
	C226.318665,325.790283 225.193283,324.513336 225.104904,323.168274 
	C224.846939,319.242401 224.962357,315.288910 225.006729,311.347076 
	C225.069260,305.791931 227.284424,304.642090 232.982880,307.577087 
z"/>
<path fill="#1C70B4" opacity="1.000000" stroke="none" 
	d="
M246.108307,382.085144 
	C250.050674,386.910217 253.978271,392.118835 257.940857,397.675385 
	C256.217957,396.713287 254.460068,395.403259 252.375763,394.025513 
	C250.064072,390.128082 248.078812,386.298401 246.108307,382.085144 
z"/>
<path fill="#3399BC" opacity="1.000000" stroke="none" 
	d="
M243.863342,307.748077 
	C241.857849,307.809265 239.852341,307.870453 237.419006,307.864441 
	C239.104919,306.911377 241.218674,306.025482 243.687164,305.449158 
	C243.982391,306.421814 243.922867,307.084930 243.863342,307.748077 
z"/>
<path fill="#1C70B4" opacity="1.000000" stroke="none" 
	d="
M244.254303,307.832764 
	C243.922867,307.084930 243.982391,306.421814 244.071747,305.426697 
	C245.160614,305.367554 246.219635,305.640442 247.608795,305.934998 
	C248.510513,306.118103 249.082092,306.279572 249.847061,306.668579 
	C248.242050,307.236572 246.443649,307.576996 244.254303,307.832764 
z"/>
<path fill="#1C70B4" opacity="1.000000" stroke="none" 
	d="
M226.835815,329.094879 
	C227.393402,329.721466 227.691345,330.556305 227.947723,331.739563 
	C227.462814,331.159729 227.019516,330.231415 226.835815,329.094879 
z"/>
<path fill="#1C70B4" opacity="1.000000" stroke="none" 
	d="
M271.091064,414.139771 
	C273.972473,416.322723 276.850311,418.872437 279.866089,421.729492 
	C277.031860,419.526733 274.059723,417.016632 271.091064,414.139771 
z"/>
<path fill="#1C70B4" opacity="1.000000" stroke="none" 
	d="
M260.988892,402.369324 
	C262.974915,404.113678 264.958252,406.223145 266.996338,408.672058 
	C265.029480,406.919159 263.007843,404.826782 260.988892,402.369324 
z"/>
<path fill="#1D6FB4" opacity="1.000000" stroke="none" 
	d="
M296.062622,436.261963 
	C297.062286,435.901581 298.112061,435.899323 299.553223,435.855103 
	C299.237671,438.790466 297.891571,438.732758 296.062622,436.261963 
z"/>
<path fill="#1C70B4" opacity="1.000000" stroke="none" 
	d="
M257.978394,398.380737 
	C258.962799,399.129211 259.949463,400.239532 260.964905,401.679138 
	C259.989319,400.919800 258.984955,399.831207 257.978394,398.380737 
z"/>
<path fill="#1D6FB4" opacity="1.000000" stroke="none" 
	d="
M303.233215,433.901978 
	C303.096283,433.346375 303.290070,432.796509 304.031647,432.087036 
	C305.006592,431.931000 305.433777,431.934631 305.860931,431.938232 
	C305.860931,431.938232 305.955627,431.962189 306.002808,431.976685 
	C305.221344,432.630005 304.392670,433.268860 303.233215,433.901978 
z"/>
<path fill="#1D6FB4" opacity="1.000000" stroke="none" 
	d="
M301.983826,434.821686 
	C301.952881,434.620209 302.193268,434.362640 302.684937,434.020416 
	C302.709198,434.212402 302.482208,434.489014 301.983826,434.821686 
z"/>
<path fill="#0A4C8B" opacity="1.000000" stroke="none" 
	d="
M305.903168,431.612122 
	C305.433777,431.934631 305.006592,431.931000 304.258728,431.892151 
	C304.403503,431.265839 304.869049,430.674835 305.635376,430.027527 
	C305.939240,430.409515 305.942322,430.847748 305.903168,431.612122 
z"/>
<path fill="#417BB0" opacity="1.000000" stroke="none" 
	d="
M251.789185,306.151245 
	C251.891800,306.374329 251.734634,306.556458 251.306915,306.658539 
	C251.228790,306.435486 251.393127,306.279419 251.789185,306.151245 
z"/>
<path fill="#13C0E0" opacity="1.000000" stroke="none" 
	d="
M242.004486,316.767914 
	C244.794586,316.685425 247.584702,316.602936 251.088348,316.364288 
	C252.857819,316.227875 253.913727,316.247650 255.153961,316.444336 
	C255.894836,316.419312 256.451416,316.217377 257.007965,316.015472 
	C257.714417,315.949860 258.420898,315.884247 259.788330,315.837341 
	C260.971222,315.568146 261.493134,315.280273 262.015015,314.992401 
	C262.420532,314.940979 262.826019,314.889526 263.908325,314.833984 
	C266.723816,314.236359 268.862488,313.642792 271.008118,313.311371 
	C271.021088,313.748260 271.027130,313.923004 270.783447,314.348358 
	C264.959412,316.083557 259.440002,317.850494 253.790665,318.949310 
	C250.262650,319.635559 244.930817,317.936584 243.327057,319.808472 
	C241.499863,321.941223 242.821960,326.859009 242.946091,330.560608 
	C243.341904,342.364105 246.503494,353.523132 251.570877,364.083191 
	C261.451569,384.673828 276.068390,401.516907 293.515045,416.044830 
	C296.787445,418.769806 299.855957,418.477417 302.854492,415.668030 
	C308.433228,410.441071 313.979187,405.178741 319.596710,399.993896 
	C320.913239,398.778717 322.460938,397.814026 323.976074,396.931824 
	C324.170898,397.386627 324.344208,397.601471 324.569794,397.774109 
	C324.595825,398.203522 324.621887,398.632965 324.603821,399.380188 
	C324.559753,399.698029 324.196320,399.758118 323.688416,399.867096 
	C319.729279,403.576630 316.278046,407.177185 312.826782,410.777740 
	C311.655090,411.987091 310.483398,413.196442 308.718719,414.613586 
	C307.357910,415.483795 306.590088,416.146210 305.822266,416.808655 
	C305.479309,417.277191 305.136353,417.745728 304.627472,418.454956 
	C304.229004,418.804413 304.048279,418.969818 303.546936,419.440582 
	C302.379700,420.064850 301.584991,420.440460 300.406158,420.827942 
	C297.709381,420.166321 295.396729,419.492798 292.899536,418.544861 
	C288.951447,414.832825 285.144531,411.441193 281.435822,407.945374 
	C277.254272,404.003937 273.161133,399.968689 269.029541,395.974243 
	C269.029541,395.974243 268.993835,395.975800 268.970093,395.654297 
	C267.719940,394.116486 266.493500,392.900238 265.267059,391.683990 
	C265.267059,391.683990 265.166565,391.331635 265.061646,390.819244 
	C261.677185,385.519287 258.397675,380.731689 255.057571,375.589844 
	C253.394882,372.164764 251.459656,369.218658 250.255005,365.999176 
	C247.035324,357.394348 244.129242,348.672180 241.098541,339.996643 
	C241.114182,339.818207 241.129837,339.639740 241.136017,338.752197 
	C240.785904,331.742676 240.445236,325.442291 240.354980,318.958344 
	C241.071762,318.105865 241.538132,317.436890 242.004486,316.767914 
z"/>
<path fill="#0CC3EA" opacity="1.000000" stroke="none" 
	d="
M271.033142,314.097717 
	C271.027130,313.923004 271.021088,313.748260 271.319946,313.149109 
	C274.144531,311.459839 276.867493,310.480804 279.138336,308.865997 
	C282.950195,306.155457 286.474274,303.040222 290.119415,300.095245 
	C290.716217,299.611481 291.313019,299.127716 291.966492,298.346802 
	C293.185516,297.180695 294.347839,296.311798 296.123291,295.249207 
	C298.151093,295.382721 299.565826,295.709869 300.980560,296.037018 
	C303.041321,297.732849 305.102112,299.428650 307.580719,301.494995 
	C309.616913,302.947479 311.235229,304.029480 312.935242,305.418427 
	C313.677826,306.151428 314.338745,306.577454 315.310181,307.159119 
	C318.040619,308.989868 320.460541,310.664978 322.651459,312.556335 
	C316.445892,309.502228 309.967773,306.888489 304.615967,302.800293 
	C297.442596,297.320679 298.310028,297.472870 291.086060,303.022308 
	C285.098938,307.621643 277.768494,310.472351 271.033142,314.097717 
z"/>
<path fill="#0879C0" opacity="1.000000" stroke="none" 
	d="
M289.742706,300.054077 
	C286.474274,303.040222 282.950195,306.155457 279.138336,308.865997 
	C276.867493,310.480804 274.144531,311.459839 271.312988,312.886963 
	C268.862488,313.642792 266.723816,314.236359 264.209412,314.775238 
	C264.375671,314.164734 264.827240,313.453766 265.473602,313.076965 
	C272.642761,308.898010 279.833862,304.756378 287.046875,300.653564 
	C287.722748,300.269135 288.588440,300.218475 289.742706,300.054077 
z"/>
<path fill="#0879C0" opacity="1.000000" stroke="none" 
	d="
M257.010620,315.720306 
	C256.451416,316.217377 255.894836,316.419312 255.171875,316.135254 
	C255.007965,315.443970 255.010452,315.238647 255.012924,315.033356 
	C255.455261,314.999817 255.897598,314.966278 256.669373,314.883881 
	C257.003632,315.031738 257.008453,315.228455 257.010620,315.720306 
z"/>
<path fill="#0879C0" opacity="1.000000" stroke="none" 
	d="
M261.850403,314.778503 
	C261.493134,315.280273 260.971222,315.568146 260.138306,315.778137 
	C260.446747,315.321686 261.066254,314.943146 261.850403,314.778503 
z"/>
<path fill="#058BDF" opacity="1.000000" stroke="none" 
	d="
M349.982635,308.013031 
	C354.785370,308.018707 359.592682,308.154297 364.389343,307.986572 
	C367.869690,307.864868 369.251404,309.344238 368.990295,312.712128 
	C368.481537,319.275024 368.021576,325.841705 367.005920,332.483276 
	C363.663788,329.921967 363.152985,323.985413 357.047424,325.577393 
	C356.998413,324.306091 356.985870,323.487091 356.981628,322.668060 
	C356.946747,315.973755 356.944977,316.085999 350.018402,315.947754 
	C346.009064,315.867767 342.008331,315.356934 338.259827,314.761047 
	C339.484283,314.320465 340.517181,314.321686 341.409515,313.968109 
	C344.718903,312.656738 348.835297,312.449310 349.982635,308.013031 
z"/>
<path fill="#0477D2" opacity="1.000000" stroke="none" 
	d="
M357.087769,326.029663 
	C363.152985,323.985413 363.663788,329.921967 366.722290,332.776672 
	C364.511841,341.511780 362.049561,350.029968 358.963684,358.630127 
	C355.579376,358.814148 352.818634,358.916138 350.054413,358.696472 
	C350.363922,357.582397 350.676941,356.790070 351.312317,355.951019 
	C351.742645,354.933380 351.850677,353.962463 352.008850,352.621887 
	C352.746857,349.846069 353.434662,347.439911 354.397614,344.987732 
	C354.783417,344.294922 354.894073,343.648041 355.001892,342.630585 
	C355.049591,341.520874 355.100098,340.781738 355.454468,339.973846 
	C355.831451,338.934875 355.904572,337.964722 355.979492,336.624512 
	C356.033997,335.516693 356.086700,334.778870 356.444824,333.974182 
	C356.832031,332.937775 356.913849,331.968201 356.987122,330.583923 
	C357.014923,328.789368 357.051361,327.409515 357.087769,326.029663 
z"/>
<path fill="#0469BA" opacity="1.000000" stroke="none" 
	d="
M322.880463,312.340088 
	C320.460541,310.664978 318.040619,308.989868 315.261963,306.832062 
	C314.220032,305.936737 313.536804,305.524109 312.853577,305.111481 
	C311.235229,304.029480 309.616913,302.947479 307.932922,301.545258 
	C308.900940,298.675079 309.934631,296.125153 311.049194,293.175507 
	C316.552063,295.738098 321.973999,298.700378 327.699829,302.225708 
	C327.989227,305.837433 327.974762,308.886169 327.573853,311.942871 
	C326.411377,311.997345 325.635345,312.043854 324.527313,312.108032 
	C323.757019,312.197144 323.318726,312.268616 322.880463,312.340088 
z"/>
<path fill="#0477CC" opacity="1.000000" stroke="none" 
	d="
M327.960297,311.934875 
	C327.974762,308.886169 327.989227,305.837433 328.009521,302.375702 
	C335.071075,303.937103 342.126801,305.911499 349.582581,307.949463 
	C348.835297,312.449310 344.718903,312.656738 341.409515,313.968109 
	C340.517181,314.321686 339.484283,314.320465 337.889313,314.753784 
	C336.524261,314.972137 335.785797,314.918854 334.956390,314.526001 
	C332.563721,313.435913 330.262024,312.685394 327.960297,311.934875 
z"/>
<path fill="#076CC1" opacity="1.000000" stroke="none" 
	d="
M350.057922,359.018158 
	C352.818634,358.916138 355.579376,358.814148 358.693970,358.868866 
	C356.688354,364.328125 354.328888,369.630646 351.661804,375.025940 
	C349.154449,374.110657 346.954742,373.102631 344.398560,371.691589 
	C346.047394,367.198425 348.052673,363.108276 350.057922,359.018158 
z"/>
<path fill="#0979BB" opacity="1.000000" stroke="none" 
	d="
M313.183441,410.817627 
	C316.278046,407.177185 319.729279,403.576630 323.511292,399.917542 
	C320.408081,403.525177 316.974091,407.191376 313.183441,410.817627 
z"/>
<path fill="#0B71AF" opacity="1.000000" stroke="none" 
	d="
M306.164490,416.840393 
	C306.590088,416.146210 307.357910,415.483795 308.451813,414.782715 
	C308.020844,415.453461 307.263794,416.162842 306.164490,416.840393 
z"/>
<path fill="#0879C0" opacity="1.000000" stroke="none" 
	d="
M300.948059,295.674713 
	C299.565826,295.709869 298.151093,295.382721 296.369141,295.039368 
	C297.866791,291.263794 299.420715,292.786621 300.948059,295.674713 
z"/>
<path fill="#0BCBF0" opacity="1.000000" stroke="none" 
	d="
M350.054413,358.696472 
	C348.052673,363.108276 346.047394,367.198425 344.045807,371.649536 
	C344.049469,372.010529 343.926056,372.406036 343.585785,372.701813 
	C342.828949,373.665924 342.412384,374.334290 341.995789,375.002655 
	C341.995819,375.002655 341.896118,375.400391 341.572113,375.698517 
	C340.846466,376.673096 340.444824,377.349548 340.043182,378.026001 
	C340.043182,378.026001 339.934784,378.427185 339.585571,378.730988 
	C338.205322,380.730133 337.174347,382.425476 336.143341,384.120819 
	C336.042877,384.477722 335.942413,384.834656 335.457825,385.561279 
	C333.311310,388.225616 331.548859,390.520233 329.786438,392.814850 
	C328.269531,394.408051 326.752594,396.001251 324.902710,397.684265 
	C324.344208,397.601471 324.170898,397.386627 324.004456,396.594421 
	C324.689484,394.827515 325.336609,393.536194 326.166382,392.375458 
	C328.414978,389.229950 330.741150,386.139893 333.023285,383.021851 
	C333.010010,383.015869 333.024994,383.027069 333.323425,382.866180 
	C335.765564,379.143890 337.909271,375.582458 340.309631,371.820984 
	C341.063049,370.424805 341.559845,369.228699 342.355927,367.856873 
	C344.448944,363.455017 346.242645,359.228912 348.046143,354.642700 
	C348.058655,353.561981 348.061371,352.841431 348.411926,352.019989 
	C353.380127,344.501160 353.831207,336.094788 353.937469,327.787750 
	C354.079559,316.682800 356.025513,318.029114 343.557739,318.045044 
	C340.753357,318.002563 338.392242,317.977478 335.758362,317.690002 
	C331.969208,315.981628 328.452820,314.535583 325.345215,313.052856 
	C328.851807,313.632599 331.949585,314.249084 335.047333,314.865570 
	C335.785797,314.918854 336.524261,314.972137 337.633240,315.032715 
	C342.008331,315.356934 346.009064,315.867767 350.018402,315.947754 
	C356.944977,316.085999 356.946747,315.973755 356.981628,322.668060 
	C356.985870,323.487091 356.998413,324.306091 357.047424,325.577393 
	C357.051361,327.409515 357.014923,328.789368 356.733398,330.801514 
	C356.372009,332.302917 356.255737,333.171967 356.139435,334.041046 
	C356.086700,334.778870 356.033997,335.516693 355.728149,336.844543 
	C355.366882,338.303925 355.258728,339.173279 355.150604,340.042633 
	C355.100098,340.781738 355.049591,341.520874 354.760132,342.804047 
	C354.388275,343.909973 354.255371,344.471863 354.122467,345.033722 
	C353.434662,347.439911 352.746857,349.846069 351.760620,352.839447 
	C351.304810,354.283661 351.147400,355.140717 350.989990,355.997742 
	C350.676941,356.790070 350.363922,357.582397 350.054413,358.696472 
z"/>
<path fill="#0880C8" opacity="1.000000" stroke="none" 
	d="
M330.123352,392.744415 
	C331.548859,390.520233 333.311310,388.225616 335.390900,385.831207 
	C333.958801,388.045593 332.209534,390.359772 330.123352,392.744415 
z"/>
<path fill="#0880C8" opacity="1.000000" stroke="none" 
	d="
M336.452454,384.105042 
	C337.174347,382.425476 338.205322,380.730133 339.556274,378.936707 
	C339.353271,380.342865 338.830353,381.847107 338.152283,383.663849 
	C337.585236,384.014008 337.173401,384.051636 336.452454,384.105042 
z"/>
<path fill="#0880C8" opacity="1.000000" stroke="none" 
	d="
M342.325684,374.954956 
	C342.412384,374.334290 342.828949,373.665924 343.550537,372.905945 
	C343.455566,373.511963 343.055573,374.209595 342.325684,374.954956 
z"/>
<path fill="#0880C8" opacity="1.000000" stroke="none" 
	d="
M340.368652,377.969543 
	C340.444824,377.349548 340.846466,376.673096 341.550415,375.902405 
	C341.466522,376.509796 341.080322,377.211426 340.368652,377.969543 
z"/>
<path fill="#0B72AB" opacity="1.000000" stroke="none" 
	d="
M240.773865,340.209595 
	C244.129242,348.672180 247.035324,357.394348 250.255005,365.999176 
	C251.459656,369.218658 253.394882,372.164764 254.766342,375.612671 
	C254.341965,376.002991 254.148224,376.016174 253.954468,376.029358 
	C249.971390,367.355774 245.794861,358.763092 242.114883,349.962769 
	C240.900375,347.058380 240.967880,343.617920 240.773865,340.209595 
z"/>
<path fill="#0B6DA9" opacity="1.000000" stroke="none" 
	d="
M269.011749,396.339813 
	C273.161133,399.968689 277.254272,404.003937 281.435822,407.945374 
	C285.144531,411.441193 288.951447,414.832825 292.874023,418.893372 
	C293.026093,419.977966 293.019104,420.439667 293.012146,420.901398 
	C285.456268,413.859924 277.874634,406.845581 270.384430,399.734924 
	C269.636383,399.024811 269.444153,397.729248 269.011749,396.339813 
z"/>
<path fill="#0B72AB" opacity="1.000000" stroke="none" 
	d="
M240.104568,319.141876 
	C240.445236,325.442291 240.785904,331.742676 241.105774,338.485229 
	C240.193634,336.473419 238.658463,334.047913 238.548691,331.559509 
	C238.338089,326.785645 238.936447,321.976105 239.603638,317.434082 
	C240.040237,318.171814 240.072403,318.656830 240.104568,319.141876 
z"/>
<path fill="#09629F" opacity="1.000000" stroke="none" 
	d="
M254.012527,376.379761 
	C254.148224,376.016174 254.341965,376.002991 254.826920,375.966980 
	C258.397675,380.731689 261.677185,385.519287 264.973785,390.658447 
	C261.350769,386.250092 257.710693,381.490112 254.012527,376.379761 
z"/>
<path fill="#0B71AF" opacity="1.000000" stroke="none" 
	d="
M293.290771,421.076660 
	C293.019104,420.439667 293.026093,419.977966 293.058533,419.167755 
	C295.396729,419.492798 297.709381,420.166321 300.462738,421.110840 
	C300.909363,421.573181 300.915283,421.764496 300.921204,421.955780 
	C298.247070,424.056213 295.823456,423.539886 293.290771,421.076660 
z"/>
<path fill="#09629F" opacity="1.000000" stroke="none" 
	d="
M265.208557,392.048157 
	C266.493500,392.900238 267.719940,394.116486 268.966675,395.671814 
	C267.708008,394.811340 266.429047,393.611816 265.208557,392.048157 
z"/>
<path fill="#055195" opacity="1.000000" stroke="none" 
	d="
M254.790161,314.765106 
	C255.010452,315.238647 255.007965,315.443970 254.987549,315.958374 
	C253.913727,316.247650 252.857819,316.227875 251.412354,316.134796 
	C252.204361,315.539917 253.385880,315.018372 254.790161,314.765106 
z"/>
<path fill="#044385" opacity="1.000000" stroke="none" 
	d="
M301.306274,421.963562 
	C300.915283,421.764496 300.909363,421.573181 300.846832,421.098938 
	C301.584991,420.440460 302.379700,420.064850 303.498138,419.621521 
	C303.111664,420.359650 302.401489,421.165466 301.306274,421.963562 
z"/>
<path fill="#0879C0" opacity="1.000000" stroke="none" 
	d="
M240.354980,318.958344 
	C240.072403,318.656830 240.040237,318.171814 239.992767,317.322754 
	C240.544708,316.758362 241.111908,316.557953 241.841797,316.562744 
	C241.538132,317.436890 241.071762,318.105865 240.354980,318.958344 
z"/>
<path fill="#06FDFD" opacity="1.000000" stroke="none" 
	d="
M324.936401,313.089569 
	C328.452820,314.535583 331.969208,315.981628 335.515594,317.968353 
	C331.137634,321.207733 327.211517,319.232666 323.373474,317.147095 
	C316.113586,313.202026 308.914429,309.145325 301.678589,305.155823 
	C295.907257,301.973785 285.803131,307.719208 286.079376,314.309326 
	C286.410309,322.204132 287.094330,330.105438 288.119232,337.939301 
	C288.521729,341.015808 290.291504,343.906342 291.380585,346.902649 
	C292.125549,348.952179 292.622070,351.104065 293.504486,353.087952 
	C294.267365,354.803192 295.059631,356.887054 296.485626,357.830963 
	C298.343750,359.060883 300.840240,359.326294 303.015259,360.366516 
	C301.500031,363.778320 300.031616,366.830322 297.908020,371.244171 
	C293.345245,361.651642 289.502960,353.438202 285.540192,345.283295 
	C282.003418,338.004944 281.256348,337.719604 273.243744,338.063690 
	C269.234924,338.235840 268.122803,339.913055 269.802582,343.480133 
	C278.074188,361.045319 286.335876,378.615295 294.695374,396.138611 
	C295.398163,397.611847 296.798248,398.752472 298.488190,400.786316 
	C302.933014,391.894623 306.911896,383.935120 311.206665,376.123230 
	C314.072571,377.762177 317.185303,378.750549 319.058594,380.846619 
	C323.326660,385.622253 327.865509,385.605011 333.036560,383.027863 
	C330.741150,386.139893 328.414978,389.229950 326.166382,392.375458 
	C325.336609,393.536194 324.689484,394.827515 323.930664,396.396667 
	C322.460938,397.814026 320.913239,398.778717 319.596710,399.993896 
	C313.979187,405.178741 308.433228,410.441071 302.854492,415.668030 
	C299.855957,418.477417 296.787445,418.769806 293.515045,416.044830 
	C276.068390,401.516907 261.451569,384.673828 251.570877,364.083191 
	C246.503494,353.523132 243.341904,342.364105 242.946091,330.560608 
	C242.821960,326.859009 241.499863,321.941223 243.327057,319.808472 
	C244.930817,317.936584 250.262650,319.635559 253.790665,318.949310 
	C259.440002,317.850494 264.959412,316.083557 270.783447,314.348358 
	C277.768494,310.472351 285.098938,307.621643 291.086060,303.022308 
	C298.310028,297.472870 297.442596,297.320679 304.615967,302.800293 
	C309.967773,306.888489 316.445892,309.502228 322.651459,312.556335 
	C323.318726,312.268616 323.757019,312.197144 324.535217,312.358337 
	C324.895538,312.757172 324.915955,312.923370 324.936401,313.089569 
z"/>
<path fill="#0684CB" opacity="1.000000" stroke="none" 
	d="
M312.935242,305.418427 
	C313.536804,305.524109 314.220032,305.936737 314.951447,306.676453 
	C314.338745,306.577454 313.677826,306.151428 312.935242,305.418427 
z"/>
<path fill="#058BDF" opacity="1.000000" stroke="none" 
	d="
M355.454468,339.973846 
	C355.258728,339.173279 355.366882,338.303925 355.726349,337.214539 
	C355.904572,337.964722 355.831451,338.934875 355.454468,339.973846 
z"/>
<path fill="#058BDF" opacity="1.000000" stroke="none" 
	d="
M351.312317,355.951019 
	C351.147400,355.140717 351.304810,354.283661 351.710449,353.209106 
	C351.850677,353.962463 351.742645,354.933380 351.312317,355.951019 
z"/>
<path fill="#058BDF" opacity="1.000000" stroke="none" 
	d="
M356.444824,333.974182 
	C356.255737,333.171967 356.372009,332.302917 356.742004,331.216248 
	C356.913849,331.968201 356.832031,332.937775 356.444824,333.974182 
z"/>
<path fill="#058BDF" opacity="1.000000" stroke="none" 
	d="
M354.397614,344.987732 
	C354.255371,344.471863 354.388275,343.909973 354.762939,343.174652 
	C354.894073,343.648041 354.783417,344.294922 354.397614,344.987732 
z"/>
<path fill="#058BDF" opacity="1.000000" stroke="none" 
	d="
M325.345215,313.052856 
	C324.915955,312.923370 324.895538,312.757172 324.867249,312.340698 
	C325.635345,312.043854 326.411377,311.997345 327.573853,311.942871 
	C330.262024,312.685394 332.563721,313.435913 334.956390,314.526001 
	C331.949585,314.249084 328.851807,313.632599 325.345215,313.052856 
z"/>
<path fill="#00FFFF" opacity="1.000000" stroke="none" 
	d="
M303.062042,360.006744 
	C300.840240,359.326294 298.343750,359.060883 296.485626,357.830963 
	C295.059631,356.887054 294.267365,354.803192 293.504486,353.087952 
	C292.622070,351.104065 292.125549,348.952179 291.380585,346.902649 
	C290.291504,343.906342 288.521729,341.015808 288.119232,337.939301 
	C287.094330,330.105438 286.410309,322.204132 286.079376,314.309326 
	C285.803131,307.719208 295.907257,301.973785 301.678589,305.155823 
	C308.914429,309.145325 316.113586,313.202026 323.373474,317.147095 
	C327.211517,319.232666 331.137634,321.207733 335.788330,318.230713 
	C338.392242,317.977478 340.753357,318.002563 343.645935,318.404663 
	C344.516205,319.127594 344.804138,319.695740 345.201294,319.786621 
	C352.590332,321.477417 352.438019,321.440582 351.236938,328.922211 
	C350.000122,336.626343 349.107361,344.385681 348.064056,352.120880 
	C348.061371,352.841431 348.058655,353.561981 347.660400,354.648773 
	C343.473541,356.665070 340.820221,363.296875 342.056641,368.032593 
	C341.559845,369.228699 341.063049,370.424805 339.955017,371.851715 
	C335.390717,374.664490 332.554321,377.891144 333.024994,383.027069 
	C333.024994,383.027069 333.010010,383.015869 333.023285,383.021851 
	C327.865509,385.605011 323.326660,385.622253 319.058594,380.846619 
	C317.185303,378.750549 314.072571,377.762177 311.268707,375.756531 
	C312.157410,372.510345 313.200562,369.731598 314.461395,367.055420 
	C318.185242,359.151306 322.062195,351.318420 325.699402,343.375305 
	C326.245941,342.181854 329.116119,339.624634 324.242279,339.411377 
	C320.990082,339.400665 318.156860,339.430969 314.970367,339.362152 
	C313.439789,340.491333 311.887146,341.529541 311.151672,342.981659 
	C308.313538,348.584961 305.736450,354.320496 303.062042,360.006744 
z"/>
<path fill="#06FDFD" opacity="1.000000" stroke="none" 
	d="
M348.411926,352.019989 
	C349.107361,344.385681 350.000122,336.626343 351.236938,328.922211 
	C352.438019,321.440582 352.590332,321.477417 345.201294,319.786621 
	C344.804138,319.695740 344.516205,319.127594 344.089172,318.421997 
	C356.025513,318.029114 354.079559,316.682800 353.937469,327.787750 
	C353.831207,336.094788 353.380127,344.501160 348.411926,352.019989 
z"/>
<path fill="#06FDFD" opacity="1.000000" stroke="none" 
	d="
M342.355927,367.856873 
	C340.820221,363.296875 343.473541,356.665070 347.650604,355.008911 
	C346.242645,359.228912 344.448944,363.455017 342.355927,367.856873 
z"/>
<path fill="#06FDFD" opacity="1.000000" stroke="none" 
	d="
M333.323425,382.866180 
	C332.554321,377.891144 335.390717,374.664490 339.698364,372.051758 
	C337.909271,375.582458 335.765564,379.143890 333.323425,382.866180 
z"/>
<path fill="#02BED2" opacity="1.000000" stroke="none" 
	d="
M324.661255,339.452423 
	C329.116119,339.624634 326.245941,342.181854 325.699402,343.375305 
	C322.062195,351.318420 318.185242,359.151306 314.461395,367.055420 
	C313.200562,369.731598 312.157410,372.510345 310.952759,375.608887 
	C306.911896,383.935120 302.933014,391.894623 298.488190,400.786316 
	C296.798248,398.752472 295.398163,397.611847 294.695374,396.138611 
	C286.335876,378.615295 278.074188,361.045319 269.802582,343.480133 
	C268.122803,339.913055 269.234924,338.235840 273.243744,338.063690 
	C281.256348,337.719604 282.003418,338.004944 285.540192,345.283295 
	C289.502960,353.438202 293.345245,361.651642 297.908020,371.244171 
	C300.031616,366.830322 301.500031,363.778320 303.015259,360.366516 
	C305.736450,354.320496 308.313538,348.584961 311.151672,342.981659 
	C311.887146,341.529541 313.439789,340.491333 314.833252,339.667755 
	C310.366760,350.009094 305.726166,359.965973 300.946960,369.855896 
	C300.364838,371.060486 299.037506,371.904938 298.055542,372.916290 
	C297.050262,371.939056 295.685822,371.140167 295.097778,369.955811 
	C291.173401,362.052124 287.449280,354.049408 283.591614,346.112152 
	C280.323608,339.388031 279.124054,338.894440 270.742920,340.954437 
	C279.551819,359.497833 288.287292,377.886658 297.312897,396.886292 
	C298.626251,395.343903 299.040039,395.019684 299.244293,394.594788 
	C307.612701,377.185333 315.973877,359.772339 324.278168,342.332245 
	C324.674408,341.500153 324.545593,340.418091 324.661255,339.452423 
z"/>
<path fill="#005C9E" opacity="1.000000" stroke="none" 
	d="
M324.242310,339.411377 
	C324.545593,340.418091 324.674408,341.500153 324.278168,342.332245 
	C315.973877,359.772339 307.612701,377.185333 299.244293,394.594788 
	C299.040039,395.019684 298.626251,395.343903 297.312897,396.886292 
	C288.287292,377.886658 279.551819,359.497833 270.742920,340.954437 
	C279.124054,338.894440 280.323608,339.388031 283.591614,346.112152 
	C287.449280,354.049408 291.173401,362.052124 295.097778,369.955811 
	C295.685822,371.140167 297.050262,371.939056 298.055542,372.916290 
	C299.037506,371.904938 300.364838,371.060486 300.946960,369.855896 
	C305.726166,359.965973 310.366760,350.009094 315.186523,339.766907 
	C318.156860,339.430969 320.990082,339.400665 324.242310,339.411377 
z"/>
</svg>