<svg version="1.1" id="Layer_1" xmlns="http://www.w3.org/2000/svg" xmlns:xlink="http://www.w3.org/1999/xlink" x="0px" y="0px"
	 width="100%" viewBox="0 0 1088 688" enable-background="new 0 0 1088 688" xml:space="preserve">
<path fill="#3F3D56" opacity="1.000000" stroke="none" 
	d="
M492.000000,0.999998 
	C507.687561,1.000000 523.375122,1.000000 539.736206,1.367760 
	C547.699768,2.417762 554.995544,3.043813 562.278748,3.791624 
	C601.376282,7.805979 639.316406,16.822948 675.675415,31.690075 
	C775.833557,72.644569 854.088440,140.289902 911.812500,231.035263 
	C962.257263,310.337036 975.943420,397.152954 957.330811,489.206268 
	C952.000183,515.570251 943.766357,540.887024 931.670532,565.123535 
	C930.099060,564.313049 928.828796,563.522400 927.678955,562.584290 
	C844.802673,494.966858 761.936279,427.337402 679.067871,359.710358 
	C673.196472,354.918823 667.316040,350.138458 661.016357,345.008057 
	C648.655457,372.255737 636.560242,398.917694 624.183960,426.199280 
	C580.466187,376.093292 537.382202,326.713715 493.943298,276.927399 
	C485.180359,289.109894 476.926788,300.584290 468.409607,312.206940 
	C467.401184,313.555786 466.656403,314.756378 465.628662,316.133850 
	C447.093811,341.344849 428.841888,366.378937 410.041443,392.165344 
	C382.219604,320.748871 354.815918,250.405884 327.092499,179.242096 
	C325.786957,181.550278 324.949554,182.921860 324.214447,184.346222 
	C303.399506,224.677826 282.605103,265.020050 261.786224,305.349640 
	C228.155167,370.498474 194.518921,435.644623 160.813751,500.755127 
	C159.960739,502.402893 158.279327,503.621857 156.939972,504.679169 
	C153.227890,495.589661 149.150772,487.008484 145.960785,478.109344 
	C129.059784,430.960968 123.027206,382.180450 124.860703,332.315033 
	C126.438164,289.413147 135.933838,248.368134 154.496521,209.557617 
	C177.921127,160.581940 212.778824,121.107162 255.780075,88.538040 
	C322.037750,38.354515 396.640839,9.800829 479.465118,2.711231 
	C483.661499,2.352026 487.822510,1.579876 492.000000,0.999998 
M398.856812,208.753296 
	C400.228882,207.951553 401.704651,207.267273 402.873413,206.235321 
	C403.073975,206.058197 402.174377,203.852310 401.410797,203.561722 
	C400.427399,203.187500 398.199738,203.530594 398.042175,204.039581 
	C397.644165,205.325516 398.104614,206.877136 398.856812,208.753296 
M485.353119,101.209457 
	C483.252777,99.197273 481.242584,99.552933 480.341675,102.112831 
	C480.021637,103.022110 481.445129,105.517128 482.404022,105.719688 
	C485.136627,106.296921 486.285919,104.586075 485.353119,101.209457 
z"/>
<path fill="#FFFFFF" opacity="1.000000" stroke="none" 
	d="
M932.027954,565.074707 
	C943.766357,540.887024 952.000183,515.570251 957.330811,489.206268 
	C975.943420,397.152954 962.257263,310.337036 911.812500,231.035263 
	C854.088440,140.289902 775.833557,72.644569 675.675415,31.690075 
	C639.316406,16.822948 601.376282,7.805979 562.278748,3.791624 
	C554.995544,3.043813 547.699768,2.417762 540.204895,1.367760 
	C722.931091,1.000000 905.862244,1.000000 1089.000000,1.000000 
	C1089.000000,205.020844 1089.000000,409.041779 1088.701660,613.351685 
	C1083.330322,611.734924 1078.404053,609.113892 1073.160645,608.038391 
	C1037.086426,600.639038 1000.378296,598.723267 963.777344,595.974609 
	C947.867371,594.779724 931.930847,593.938416 916.011719,592.574585 
	C916.586060,591.059875 917.077148,589.860474 917.736328,588.761963 
	C922.481079,580.854675 927.259949,572.967957 932.027954,565.074707 
z"/>
<path fill="#FFFFFF" opacity="1.000000" stroke="none" 
	d="
M491.531342,0.999998 
	C487.822510,1.579876 483.661499,2.352026 479.465118,2.711231 
	C396.640839,9.800829 322.037750,38.354515 255.780075,88.538040 
	C212.778824,121.107162 177.921127,160.581940 154.496521,209.557617 
	C135.933838,248.368134 126.438164,289.413147 124.860703,332.315033 
	C123.027206,382.180450 129.059784,430.960968 145.960785,478.109344 
	C149.150772,487.008484 153.227890,495.589661 156.974701,505.036560 
	C160.674973,511.840637 164.296234,517.925720 168.057770,524.411621 
	C168.540619,527.189270 168.883163,529.566101 169.009308,531.620728 
	C158.802704,518.503967 148.812515,505.709259 138.091049,491.977997 
	C138.404373,507.737396 140.673782,521.899658 145.993011,535.430237 
	C155.358139,559.252441 170.066711,578.228333 194.731476,587.936707 
	C196.055161,588.457642 197.089355,589.714111 198.258301,590.628174 
	C196.842239,591.137268 195.449051,592.010681 194.006714,592.101379 
	C168.255966,593.718567 142.458603,594.755859 116.754425,596.910095 
	C86.599586,599.437256 56.476341,602.526428 26.445379,606.230896 
	C17.776060,607.300354 9.471697,611.328430 1.000005,614.000000 
	C1.000000,409.747589 1.000000,205.495178 1.000000,1.000000 
	C164.354141,1.000000 327.708405,1.000000 491.531342,0.999998 
z"/>
<path fill="#403E57" opacity="1.000000" stroke="none" 
	d="
M1.000005,614.333374 
	C9.471697,611.328430 17.776060,607.300354 26.445379,606.230896 
	C56.476341,602.526428 86.599586,599.437256 116.754425,596.910095 
	C142.458603,594.755859 168.255966,593.718567 194.006714,592.101379 
	C195.449051,592.010681 196.842239,591.137268 198.258301,590.628174 
	C197.089355,589.714111 196.055161,588.457642 194.731476,587.936707 
	C170.066711,578.228333 155.358139,559.252441 145.993011,535.430237 
	C140.673782,521.899658 138.404373,507.737396 138.091049,491.977997 
	C148.812515,505.709259 158.802704,518.503967 169.074310,531.905151 
	C169.937256,534.399780 170.585724,536.270203 171.089569,538.178833 
	C174.320969,550.419556 178.589417,562.270020 186.017319,572.617249 
	C189.574860,577.573059 194.102158,581.832825 198.117859,586.326721 
	C201.440598,581.802917 203.967072,578.363220 206.773926,574.785095 
	C208.819672,573.416748 210.435898,571.815918 212.381302,571.033997 
	C216.468704,569.391174 218.208359,566.535217 218.214874,562.268738 
	C218.216858,560.969421 218.699615,559.667786 218.985703,558.372375 
	C226.588608,523.944458 242.267029,494.698853 272.879028,474.984680 
	C274.473419,475.918884 275.781128,476.723663 277.272919,477.641754 
	C270.601593,483.116089 270.601593,483.116089 276.581146,488.574036 
	C275.059357,490.560944 272.311432,492.583130 272.392822,494.484283 
	C272.473602,496.372559 275.400574,498.139038 276.643005,499.485870 
	C275.065186,501.540161 272.303589,503.568268 272.397675,505.453918 
	C272.491760,507.339661 275.441284,509.082977 277.139099,510.888733 
	C276.679138,510.733459 276.219147,510.578156 275.759155,510.422882 
	C274.580170,513.084045 273.401154,515.745239 272.008911,518.723389 
	C260.978516,533.039001 250.161316,547.037659 239.344116,561.036255 
	C239.557541,561.275330 239.770966,561.514404 239.984406,561.753479 
	C240.685745,561.501404 241.387100,561.249390 242.517120,561.027344 
	C252.592804,560.211548 262.239838,559.365723 271.901093,558.915894 
	C273.475433,561.418274 275.035522,563.524597 276.600525,565.637451 
	C270.515289,570.502808 270.515289,570.502808 276.742615,576.202087 
	C271.265381,581.375366 271.265381,581.375366 276.631927,587.210571 
	C275.104736,588.880493 272.494568,590.467041 272.385162,592.210510 
	C272.275543,593.956604 274.663391,595.859497 276.080780,597.869812 
	C268.854309,597.372742 263.842133,593.220459 259.370300,587.774597 
	C258.630280,588.918823 258.199890,589.421753 257.953400,590.002747 
	C257.566284,590.915161 257.246368,591.865417 256.996429,592.825317 
	C254.515030,602.355774 258.472778,609.627869 264.700623,615.962036 
	C254.152435,616.321960 244.041382,616.988220 233.935425,616.918152 
	C220.951279,616.828125 207.811798,616.602417 198.973862,603.982178 
	C197.840134,610.238586 201.158722,616.539368 207.036850,619.475708 
	C218.588028,625.245667 231.204147,624.858582 243.561829,624.822754 
	C256.965302,624.783936 270.359894,623.387085 283.769440,623.099182 
	C292.372101,622.914490 300.992889,623.870850 309.608948,623.950378 
	C326.169495,624.103210 342.738525,624.236755 359.290009,623.821167 
	C363.217926,623.722534 367.090576,621.422791 371.454407,620.075073 
	C378.603180,619.961365 385.286133,619.908203 392.439117,619.880859 
	C406.947083,619.875916 420.985046,619.845093 435.470581,619.880371 
	C448.156433,620.869080 457.790649,617.121033 462.845245,605.033264 
	C463.127106,604.359253 464.005188,603.956848 464.516266,603.352234 
	C466.066437,601.518433 468.804260,599.624268 468.770142,597.796753 
	C468.731415,595.721375 466.197723,593.692688 464.792664,591.705933 
	C465.188324,589.904785 465.696838,587.590027 466.660828,585.264160 
	C476.740051,585.145935 486.363800,585.038757 496.421143,585.007141 
	C499.176086,585.054565 501.497406,585.026428 503.909790,585.341492 
	C504.132202,586.382385 504.263550,587.080017 503.930725,587.835938 
	C502.301422,587.929199 501.133636,588.031982 499.971558,587.987061 
	C495.405579,587.810547 492.247864,589.989136 490.587219,594.058167 
	C488.907684,598.173401 490.590759,601.500671 493.797791,604.216675 
	C494.399109,604.725952 494.977600,605.262268 495.646729,605.857361 
	C495.165497,606.447693 494.926483,606.884033 494.565430,607.161621 
	C490.962738,609.931458 488.752228,613.341919 490.594452,617.951599 
	C492.419159,622.517517 496.102905,624.207703 500.985992,624.050842 
	C507.309723,623.847778 513.644897,624.002563 519.975159,624.002380 
	C537.300110,624.001831 554.625183,623.955750 571.949829,624.030518 
	C576.502808,624.050171 579.687500,622.079346 581.382446,618.011719 
	C583.093689,613.904907 581.446411,610.580750 578.267456,607.823608 
	C577.585938,607.232483 577.026855,606.500183 576.325073,605.739319 
	C580.415283,602.648132 583.423706,599.269409 581.437195,594.114380 
	C579.465820,588.998413 575.220093,587.560547 570.090454,587.960083 
	C569.271240,588.023804 568.432922,587.841980 567.652588,587.422607 
	C567.858398,586.379761 568.015015,585.688049 568.629395,585.008728 
	C628.401245,585.572571 687.715332,586.124023 747.733337,586.681946 
	C732.375916,573.580444 725.615845,556.796448 722.870117,537.596313 
	C722.930176,534.829529 722.930176,532.499146 722.930176,529.050232 
	C730.457947,538.457397 737.168579,546.843445 743.935852,555.599976 
	C747.077026,564.134766 749.638794,572.549744 753.397156,580.391052 
	C756.964172,587.832886 762.736572,593.602051 770.668579,596.432617 
	C768.613342,596.954407 766.877319,597.268555 765.116638,597.587097 
	C764.855896,601.623291 765.794556,604.917236 769.809021,605.468506 
	C776.345459,606.366272 782.963013,606.737122 789.558899,607.105957 
	C792.145264,607.250610 793.035217,605.872925 792.059265,603.226685 
	C788.918945,594.711914 785.224121,592.545227 776.441162,594.304443 
	C775.792053,594.434448 775.135010,594.524536 774.324585,594.251709 
	C773.275452,591.887634 772.383423,589.905090 771.942505,587.888184 
	C774.638184,588.119446 776.095154,587.750671 776.337280,584.905518 
	C776.702148,580.618530 777.572998,576.374573 778.429749,571.799072 
	C784.071411,549.146423 794.553955,530.065063 814.255249,517.119263 
	C823.096191,511.309814 832.848389,508.154938 844.351990,508.034302 
	C839.216125,514.861328 834.566895,521.041504 829.645996,527.371460 
	C819.637695,540.125305 809.875427,552.709778 800.202026,565.362183 
	C799.183411,566.694519 798.688721,568.427490 797.975464,569.987305 
	C798.000000,570.000000 797.968323,569.954712 797.625671,569.853760 
	C796.534668,570.853149 795.786316,571.953491 795.019653,573.028809 
	C795.001465,573.003845 795.059509,573.025146 794.727661,573.099854 
	C794.236267,573.771179 794.076660,574.367798 793.951538,574.980103 
	C793.986023,574.995850 793.948242,574.930176 793.638550,574.912903 
	C793.204468,575.257935 793.080139,575.620178 792.977905,575.991577 
	C793.000000,576.000610 792.978638,575.957947 792.685242,575.973267 
	C792.254333,576.332397 792.116821,576.676208 791.980164,577.000854 
	C791.981018,576.981689 792.019348,576.979309 791.730225,577.006287 
	C791.301514,577.372253 791.161926,577.711182 791.011169,578.025085 
	C791.000000,578.000000 791.052795,578.014648 790.778137,578.070618 
	C790.361755,578.455383 790.220093,578.784119 790.060425,579.077148 
	C790.042480,579.041321 790.122253,579.049072 789.825806,579.162231 
	C789.322144,579.840149 789.114868,580.404968 788.945618,580.976318 
	C788.983704,580.982971 788.936646,580.921631 788.621826,580.987244 
	C788.054504,581.396667 787.802063,581.740479 787.403137,582.353516 
	C786.040039,584.231262 784.823425,585.839844 783.258728,587.908691 
	C786.785767,587.908691 789.401550,587.908691 792.457520,588.011414 
	C806.192322,588.580627 819.489075,588.994873 832.781189,589.524353 
	C860.524170,590.629456 888.264771,591.795471 916.006348,592.936523 
	C931.930847,593.938416 947.867371,594.779724 963.777344,595.974609 
	C1000.378296,598.723267 1037.086426,600.639038 1073.160645,608.038391 
	C1078.404053,609.113892 1083.330322,611.734924 1088.701660,613.820374 
	C1089.000000,614.444458 1089.000000,614.888916 1088.723511,615.862305 
	C1083.979370,618.637085 1079.511841,620.882874 1074.791138,622.859253 
	C1074.232666,622.469910 1073.909058,622.212158 1073.624390,622.249634 
	C1051.794067,625.127136 1030.009766,628.421570 1008.126038,630.804199 
	C990.174805,632.758667 972.114319,633.762329 954.086426,634.945435 
	C936.210083,636.118652 918.318298,637.077454 900.425110,637.966492 
	C884.507019,638.757324 868.579895,639.380981 852.652893,639.974609 
	C833.064941,640.704651 813.473938,641.357727 793.882385,641.984619 
	C781.589661,642.378052 769.294373,642.701294 756.998535,642.985840 
	C740.872192,643.358948 724.745361,643.729492 708.616821,643.981018 
	C683.492249,644.372864 658.365356,644.988281 633.240723,644.933167 
	C571.455261,644.797668 509.670135,644.389587 447.885620,643.976440 
	C420.759491,643.795044 393.634491,643.386047 366.510529,642.978027 
	C352.880890,642.773010 339.254913,642.331909 325.626923,642.010559 
	C310.999634,641.665710 296.372009,641.334900 281.744476,641.000305 
	C266.950378,640.661865 252.154831,640.376587 237.362579,639.970459 
	C228.731201,639.733459 220.101456,639.377441 211.477310,638.948120 
	C192.587326,638.007812 173.699509,637.020630 154.814484,635.985657 
	C143.552658,635.368530 132.283249,634.804565 121.043098,633.896790 
	C102.550110,632.403320 84.061867,630.811279 65.602936,628.950134 
	C53.249409,627.704590 40.938835,626.005005 28.631121,624.344788 
	C22.242075,623.482971 15.900947,622.265991 9.200424,621.185303 
	C6.241785,619.440735 3.620892,617.720398 1.000000,616.000000 
	C1.000000,615.555542 1.000000,615.111084 1.000005,614.333374 
M914.119263,612.447815 
	C907.979187,615.176453 901.839172,617.905151 895.221985,620.845825 
	C896.560547,624.316162 896.685791,630.115417 901.717468,630.400208 
	C912.743286,631.024231 923.854980,630.488464 934.912354,629.994385 
	C938.676636,629.826111 939.641052,626.984070 937.474060,623.925659 
	C935.080688,620.547729 931.882263,617.703979 929.729736,614.200439 
	C926.837524,609.492737 923.112183,609.360596 918.624939,610.928528 
	C917.372620,611.366089 916.095337,611.732239 914.119263,612.447815 
M648.214355,618.342041 
	C640.516418,609.263550 637.783447,608.872986 627.458862,614.948181 
	C625.353760,616.186951 622.953857,617.022827 620.592163,617.707214 
	C615.354553,619.224854 614.572388,620.611328 617.714966,625.047607 
	C618.896362,626.715393 621.355835,628.447998 623.253296,628.471252 
	C631.684692,628.574768 640.133972,628.234558 648.554932,627.706421 
	C652.174988,627.479492 652.939819,625.133728 651.062500,622.084534 
	C650.371094,620.961548 649.482117,619.960144 648.214355,618.342041 
M131.043060,621.775696 
	C136.690094,621.549438 142.358139,621.549072 147.977524,621.025818 
	C152.508301,620.603943 153.031815,618.969238 150.369400,615.217896 
	C144.238693,606.579529 142.137695,606.158508 132.743317,611.080994 
	C129.996201,612.520386 126.950394,613.389648 123.988304,614.540955 
	C124.211632,618.696350 125.887421,621.340881 131.043060,621.775696 
z"/>
<path fill="#3A384F" opacity="1.000000" stroke="none" 
	d="
M9.538168,621.209412 
	C15.900947,622.265991 22.242075,623.482971 28.631121,624.344788 
	C40.938835,626.005005 53.249409,627.704590 65.602936,628.950134 
	C84.061867,630.811279 102.550110,632.403320 121.043098,633.896790 
	C132.283249,634.804565 143.552658,635.368530 154.814484,635.985657 
	C173.699509,637.020630 192.587326,638.007812 211.477310,638.948120 
	C220.101456,639.377441 228.731201,639.733459 237.362579,639.970459 
	C252.154831,640.376587 266.950378,640.661865 281.744476,641.000305 
	C296.372009,641.334900 310.999634,641.665710 325.626923,642.010559 
	C339.254913,642.331909 352.880890,642.773010 366.510529,642.978027 
	C393.634491,643.386047 420.759491,643.795044 447.885620,643.976440 
	C509.670135,644.389587 571.455261,644.797668 633.240723,644.933167 
	C658.365356,644.988281 683.492249,644.372864 708.616821,643.981018 
	C724.745361,643.729492 740.872192,643.358948 756.998535,642.985840 
	C769.294373,642.701294 781.589661,642.378052 793.882385,641.984619 
	C813.473938,641.357727 833.064941,640.704651 852.652893,639.974609 
	C868.579895,639.380981 884.507019,638.757324 900.425110,637.966492 
	C918.318298,637.077454 936.210083,636.118652 954.086426,634.945435 
	C972.114319,633.762329 990.174805,632.758667 1008.126038,630.804199 
	C1030.009766,628.421570 1051.794067,625.127136 1073.624390,622.249634 
	C1073.909058,622.212158 1074.232666,622.469910 1074.631226,623.195190 
	C1068.874023,625.915955 1063.161743,628.605042 1057.150391,630.050598 
	C1025.807251,637.587219 994.572632,645.750305 962.957092,651.943298 
	C895.772949,665.103516 827.914551,673.937134 759.660950,679.079712 
	C709.342407,682.870911 658.906189,685.098206 608.524780,688.062256 
	C607.335571,688.132202 606.174316,688.676758 605.000000,689.000000 
	C595.645752,689.000000 586.291565,689.000000 576.203308,688.668945 
	C570.365356,688.223877 565.257935,687.942688 560.158447,688.046753 
	C555.767639,688.136414 551.385803,688.665283 547.000000,689.000000 
	C545.933289,689.000000 544.866638,689.000000 543.070984,688.750305 
	C534.254700,688.311218 526.167847,688.055664 518.079468,687.986267 
	C516.389343,687.971741 514.693298,688.644165 513.000000,689.000000 
	C503.645782,689.000000 494.291534,689.000000 484.264435,688.615967 
	C483.263794,688.175232 482.937164,688.076904 482.608093,688.067871 
	C419.518799,686.339417 356.529236,682.696716 293.806244,675.760681 
	C251.845306,671.120544 210.001892,665.260071 168.232391,659.089417 
	C123.515724,652.483276 79.185654,643.707031 35.752735,630.968201 
	C26.828209,628.350586 18.266893,624.494629 9.538168,621.209412 
z"/>
<path fill="#FEFEFE" opacity="1.000000" stroke="none" 
	d="
M9.200420,621.185303 
	C18.266893,624.494629 26.828209,628.350586 35.752735,630.968201 
	C79.185654,643.707031 123.515724,652.483276 168.232391,659.089417 
	C210.001892,665.260071 251.845306,671.120544 293.806244,675.760681 
	C356.529236,682.696716 419.518799,686.339417 482.608093,688.067871 
	C482.937164,688.076904 483.263794,688.175232 483.795776,688.615967 
	C323.000000,689.000000 161.999985,689.000000 1.000000,689.000000 
	C1.000000,664.899475 1.000000,640.918396 1.000000,616.468628 
	C3.620892,617.720398 6.241785,619.440735 9.200420,621.185303 
z"/>
<path fill="#FEFEFE" opacity="1.000000" stroke="none" 
	d="
M605.468628,689.000000 
	C606.174316,688.676758 607.335571,688.132202 608.524780,688.062256 
	C658.906189,685.098206 709.342407,682.870911 759.660950,679.079712 
	C827.914551,673.937134 895.772949,665.103516 962.957092,651.943298 
	C994.572632,645.750305 1025.807251,637.587219 1057.150391,630.050598 
	C1063.161743,628.605042 1068.874023,625.915955 1074.884277,623.464661 
	C1079.511841,620.882874 1083.979370,618.637085 1088.723511,616.195679 
	C1089.000000,640.314209 1089.000000,664.628418 1089.000000,689.000000 
	C927.979126,689.000000 766.958191,689.000000 605.468628,689.000000 
z"/>
<path fill="#6C6B76" opacity="1.000000" stroke="none" 
	d="
M513.468628,689.000000 
	C514.693298,688.644165 516.389343,687.971741 518.079468,687.986267 
	C526.167847,688.055664 534.254700,688.311218 542.671021,688.750305 
	C533.312439,689.000000 523.624878,689.000000 513.468628,689.000000 
z"/>
<path fill="#6C6B76" opacity="1.000000" stroke="none" 
	d="
M547.468628,689.000000 
	C551.385803,688.665283 555.767639,688.136414 560.158447,688.046753 
	C565.257935,687.942688 570.365356,688.223877 575.734619,688.668945 
	C566.645752,689.000000 557.291565,689.000000 547.468628,689.000000 
z"/>
<path fill="#F2F2F2" opacity="1.000000" stroke="none" 
	d="
M722.809998,538.032776 
	C725.615845,556.796448 732.375916,573.580444 747.733337,586.681946 
	C687.715332,586.124023 628.401245,585.572571 568.615723,584.590332 
	C567.960754,575.895569 568.924927,567.411194 567.387024,559.407593 
	C561.910767,530.906982 549.805542,504.773956 536.904053,479.009491 
	C536.729797,478.661438 536.164917,478.508942 535.406921,478.025970 
	C522.870178,503.594940 511.185333,529.253845 504.499512,556.924500 
	C503.220062,555.724976 502.051208,554.723511 501.336487,553.464355 
	C492.226105,537.414612 483.230194,521.299927 474.102997,505.259857 
	C467.200836,493.130127 460.152222,481.083771 453.100098,468.579224 
	C453.152161,458.761841 448.726685,451.969452 440.821594,446.861023 
	C440.346863,446.540100 440.014313,446.446716 439.662903,446.389099 
	C439.643982,446.424835 439.563446,446.417725 439.661438,446.038452 
	C434.870483,436.649963 430.023010,427.617859 425.075531,418.640900 
	C422.469666,413.912689 419.689117,409.280731 416.987457,404.605286 
	C416.397003,405.827271 416.476746,406.767120 416.844971,407.575562 
	C419.252808,412.861481 421.847809,418.065308 424.142242,423.398956 
	C427.209839,430.530060 430.060181,437.754669 432.536865,444.984924 
	C400.636841,445.032288 369.203705,445.006561 337.770782,445.077362 
	C334.604401,445.084503 332.212524,444.848419 330.510010,441.445160 
	C328.644043,437.715149 326.371643,437.982849 323.854156,441.552307 
	C323.219452,442.452179 322.516296,443.303741 321.786987,444.252411 
	C316.640900,437.202637 316.640900,437.202637 310.890198,443.888702 
	C305.425232,437.589722 306.106415,436.272003 299.811829,444.209991 
	C292.495880,439.101624 292.495880,439.101624 288.207703,446.495270 
	C285.223724,446.696381 281.180573,445.914825 280.219238,447.289124 
	C278.891205,449.187592 279.886108,452.710968 279.886108,455.447906 
	C270.924988,458.612122 270.924988,458.612122 277.514191,466.638184 
	C275.847412,469.330505 269.940826,469.595947 272.592346,474.855194 
	C242.267029,494.698853 226.588608,523.944458 218.985703,558.372375 
	C218.699615,559.667786 218.216858,560.969421 218.214874,562.268738 
	C218.208359,566.535217 216.468704,569.391174 212.381302,571.033997 
	C210.435898,571.815918 208.819672,573.416748 206.665985,574.419373 
	C193.207321,548.835083 180.137009,523.478088 167.066696,498.121124 
	C166.651154,498.235870 166.235611,498.350647 165.820068,498.465424 
	C166.519211,506.980530 167.218338,515.495667 167.917480,524.010803 
	C164.296234,517.925720 160.674973,511.840637 157.019012,505.398193 
	C158.279327,503.621857 159.960739,502.402893 160.813751,500.755127 
	C194.518921,435.644623 228.155167,370.498474 261.786224,305.349640 
	C282.605103,265.020050 303.399506,224.677826 324.214447,184.346222 
	C324.949554,182.921860 325.786957,181.550278 327.092499,179.242096 
	C354.815918,250.405884 382.219604,320.748871 410.041443,392.165344 
	C428.841888,366.378937 447.093811,341.344849 466.102936,316.148285 
	C474.024109,315.990662 481.200317,315.760010 488.345032,316.132843 
	C490.725555,316.257080 493.546875,317.368591 495.276398,318.982758 
	C505.615173,328.631653 515.733093,338.519104 525.851135,348.402283 
	C543.596375,365.735535 561.264526,383.147766 579.012207,400.478607 
	C588.416443,409.661987 597.910095,418.754059 607.397217,427.852112 
	C608.177002,428.599915 609.216919,429.076508 610.135986,429.679108 
	C609.786011,427.546295 608.709595,426.350739 607.646606,425.143402 
	C602.269348,419.035675 596.857361,412.957916 591.528198,406.808411 
	C579.244446,392.633545 567.013855,378.412537 554.737976,364.230774 
	C545.284363,353.309387 535.773254,342.437836 526.327026,331.510132 
	C516.666321,320.334381 507.035797,309.132355 497.432404,297.907349 
	C495.148468,295.237762 493.100311,294.146210 490.062317,297.176788 
	C487.496765,299.736053 484.460236,301.870300 481.449036,303.924164 
	C477.280334,306.767517 472.940033,309.359222 468.673218,312.058685 
	C476.926788,300.584290 485.180359,289.109894 493.943298,276.927399 
	C537.382202,326.713715 580.466187,376.093292 624.183960,426.199280 
	C636.560242,398.917694 648.655457,372.255737 661.016357,345.008057 
	C667.316040,350.138458 673.196472,354.918823 679.067871,359.710358 
	C761.936279,427.337402 844.802673,494.966858 927.678955,562.584290 
	C928.828796,563.522400 930.099060,564.313049 931.670532,565.123535 
	C927.259949,572.967957 922.481079,580.854675 917.736328,588.761963 
	C917.077148,589.860474 916.586060,591.059875 916.011719,592.574524 
	C888.264771,591.795471 860.524170,590.629456 832.781189,589.524353 
	C819.489075,588.994873 806.192322,588.580627 792.401978,587.673218 
	C790.898438,585.453979 789.890564,583.675659 788.927673,581.655212 
	C788.972656,581.413025 788.936646,580.921631 788.936646,580.921631 
	C788.936646,580.921631 788.983704,580.982971 789.242371,580.858643 
	C789.708130,580.172546 789.915222,579.610840 790.122253,579.049072 
	C790.122253,579.049072 790.042480,579.041321 790.358398,579.055420 
	C790.800476,578.717896 790.926636,578.366272 791.052795,578.014648 
	C791.052795,578.014648 791.000000,578.000000 791.298828,577.994324 
	C791.738159,577.652222 791.878784,577.315796 792.019409,576.979309 
	C792.019348,576.979309 791.981018,576.981689 792.267700,576.972412 
	C792.695801,576.628052 792.837219,576.293030 792.978638,575.957947 
	C792.978638,575.957947 793.000000,576.000610 793.255615,575.952026 
	C793.656860,575.579041 793.802551,575.254639 793.948242,574.930176 
	C793.948242,574.930176 793.986023,574.995850 794.270813,574.882446 
	C794.723572,574.187805 794.891541,573.606445 795.059509,573.025146 
	C795.059509,573.025146 795.001465,573.003845 795.361816,573.086975 
	C796.470947,572.098328 797.219666,571.026550 797.968323,569.954712 
	C797.968323,569.954712 798.000000,570.000000 798.316406,569.947266 
	C810.652893,555.989990 822.672913,542.085388 835.522095,527.221680 
	C832.750305,527.221680 831.333984,527.221680 829.917664,527.221680 
	C834.566895,521.041504 839.216125,514.861328 844.351990,508.034302 
	C832.848389,508.154938 823.096191,511.309814 814.255249,517.119263 
	C794.553955,530.065063 784.071411,549.146423 778.070740,571.747864 
	C770.691772,565.855286 763.906860,559.662231 757.027649,553.575745 
	C755.488037,552.213501 753.618103,551.224487 751.929810,550.029785 
	C751.959290,549.995911 751.934692,550.082275 751.927002,549.763062 
	C751.523926,548.989136 751.128479,548.534424 750.501587,547.835327 
	C747.616577,542.734924 744.963013,537.878906 742.309509,533.022888 
	C741.930603,533.171997 741.551697,533.321045 741.172852,533.470154 
	C741.385376,534.979187 741.597961,536.488159 741.482788,537.938354 
	C732.893372,530.199341 724.541016,522.614014 716.388550,514.819702 
	C698.241516,497.469940 680.203125,480.006744 662.102600,462.608307 
	C654.792542,455.581726 647.446716,448.592102 640.080078,441.624878 
	C639.471863,441.049591 638.578369,440.775940 636.918640,439.873383 
	C637.605042,441.410278 637.734131,442.059174 638.111267,442.491913 
	C652.065308,458.503296 666.049988,474.487976 680.013977,490.490692 
	C693.212341,505.616058 706.378479,520.769531 719.613403,535.862854 
	C720.435120,536.799988 721.733459,537.319153 722.809998,538.032776 
M306.712280,278.936035 
	C312.190186,273.207855 317.645721,267.458038 323.154053,261.759308 
	C326.664978,258.127075 330.254242,254.570496 334.252380,250.531464 
	C341.744446,264.979645 348.825806,278.635864 355.907166,292.292084 
	C356.289337,292.094635 356.671509,291.897186 357.053650,291.699707 
	C347.855957,270.564362 338.658234,249.429001 328.985504,227.202072 
	C322.572601,241.223373 316.730499,253.880447 311.002197,266.588806 
	C309.171448,270.650360 307.642334,274.847839 305.623810,279.232452 
	C305.566742,279.506195 305.509674,279.779968 305.452606,280.053711 
	C305.644684,279.712097 305.836761,279.370453 306.712280,278.936035 
M631.506042,433.454163 
	C631.506042,433.454163 631.541016,433.525909 631.506042,433.454163 
z"/>
<path fill="#DADADA" opacity="1.000000" stroke="none" 
	d="
M468.409576,312.206940 
	C472.940033,309.359222 477.280334,306.767517 481.449036,303.924164 
	C484.460236,301.870300 487.496765,299.736053 490.062317,297.176788 
	C493.100311,294.146210 495.148468,295.237762 497.432404,297.907349 
	C507.035797,309.132355 516.666321,320.334381 526.327026,331.510132 
	C535.773254,342.437836 545.284363,353.309387 554.737976,364.230774 
	C567.013855,378.412537 579.244446,392.633545 591.528198,406.808411 
	C596.857361,412.957916 602.269348,419.035675 607.646606,425.143402 
	C608.709595,426.350739 609.786011,427.546295 610.135986,429.679108 
	C609.216919,429.076508 608.177002,428.599915 607.397217,427.852112 
	C597.910095,418.754059 588.416443,409.661987 579.012207,400.478607 
	C561.264526,383.147766 543.596375,365.735535 525.851135,348.402283 
	C515.733093,338.519104 505.615173,328.631653 495.276398,318.982758 
	C493.546875,317.368591 490.725555,316.257080 488.345032,316.132843 
	C481.200317,315.760010 474.024109,315.990662 466.385895,315.971375 
	C466.656403,314.756378 467.401184,313.555786 468.409576,312.206940 
z"/>
<path fill="#DADADA" opacity="1.000000" stroke="none" 
	d="
M398.538940,208.537811 
	C398.104614,206.877136 397.644165,205.325516 398.042175,204.039581 
	C398.199738,203.530594 400.427399,203.187500 401.410797,203.561722 
	C402.174377,203.852310 403.073975,206.058197 402.873413,206.235321 
	C401.704651,207.267273 400.228882,207.951553 398.538940,208.537811 
z"/>
<path fill="#DADADA" opacity="1.000000" stroke="none" 
	d="
M485.566467,101.530403 
	C486.285919,104.586075 485.136627,106.296921 482.404022,105.719688 
	C481.445129,105.517128 480.021637,103.022110 480.341675,102.112831 
	C481.242584,99.552933 483.252777,99.197273 485.566467,101.530403 
z"/>
<path fill="#6D65FD" opacity="1.000000" stroke="none" 
	d="
M168.057770,524.411621 
	C167.218338,515.495667 166.519211,506.980530 165.820068,498.465424 
	C166.235611,498.350647 166.651154,498.235870 167.066696,498.121124 
	C180.137009,523.478088 193.207321,548.835083 206.385590,574.557800 
	C203.967072,578.363220 201.440598,581.802917 198.117859,586.326721 
	C194.102158,581.832825 189.574860,577.573059 186.017319,572.617249 
	C178.589417,562.270020 174.320969,550.419556 171.089569,538.178833 
	C170.585724,536.270203 169.937256,534.399780 169.290695,532.227295 
	C168.883163,529.566101 168.540619,527.189270 168.057770,524.411621 
z"/>
<path fill="#3ECC5F" opacity="1.000000" stroke="none" 
	d="
M272.879028,474.984680 
	C269.940826,469.595947 275.847412,469.330505 277.514191,466.638184 
	C270.924988,458.612122 270.924988,458.612122 279.886108,455.447906 
	C279.886108,452.710968 278.891205,449.187592 280.219238,447.289124 
	C281.180573,445.914825 285.223724,446.696381 288.207703,446.495270 
	C292.495880,439.101624 292.495880,439.101624 299.811829,444.209991 
	C306.106415,436.272003 305.425232,437.589722 310.890198,443.888702 
	C316.640900,437.202637 316.640900,437.202637 321.786987,444.252411 
	C322.516296,443.303741 323.219452,442.452179 323.854156,441.552307 
	C326.371643,437.982849 328.644043,437.715149 330.510010,441.445160 
	C332.212524,444.848419 334.604401,445.084503 337.770782,445.077362 
	C369.203705,445.006561 400.636841,445.032288 432.900085,445.092651 
	C435.674622,445.575592 437.619049,445.996674 439.563446,446.417725 
	C439.563446,446.417725 439.643982,446.424835 439.805054,446.610107 
	C440.298676,446.893066 440.631256,446.990814 440.963806,447.088562 
	C448.726685,451.969452 453.152161,458.761841 453.030212,469.017609 
	C453.002319,472.522675 452.975677,475.168213 452.491028,477.860718 
	C446.063293,478.274445 440.092926,478.631500 434.123901,479.009735 
	C414.891785,480.228455 395.649902,481.318359 376.433868,482.752991 
	C369.729706,483.253510 365.619141,488.065521 365.625122,494.213226 
	C365.631287,500.531616 370.134460,505.241089 376.872864,505.919128 
	C379.182220,506.151520 381.502502,506.275696 383.503296,506.735596 
	C378.655365,507.651306 374.137024,508.562836 369.582916,508.807129 
	C366.733734,508.959991 364.947327,509.618988 365.205811,512.664673 
	C365.709595,518.600952 366.287140,524.539062 367.178894,530.424194 
	C367.291504,531.167114 369.479584,531.595520 371.166504,532.175171 
	C373.157135,532.069214 374.687378,531.957886 376.540771,531.995117 
	C378.235657,532.441650 379.607391,532.739624 380.933167,533.389771 
	C377.950500,537.341309 375.934113,541.390076 377.160645,546.057678 
	C377.888885,548.828979 379.684418,551.319824 380.647644,554.012512 
	C379.576843,554.146667 378.858551,554.205017 377.905853,554.226868 
	C377.357727,554.221558 377.049316,554.280579 376.242920,554.414917 
	C373.409363,554.378845 371.046143,554.034668 368.763245,554.324158 
	C367.665009,554.463501 365.869537,555.765747 365.837830,556.596558 
	C365.593018,563.009216 365.703003,569.435425 365.703003,575.829712 
	C368.016449,576.033813 369.505310,576.165100 370.994324,576.677246 
	C370.665070,579.700256 371.128662,582.818542 369.875519,584.906372 
	C362.600555,597.026917 364.932526,608.985229 376.509399,616.861633 
	C376.934906,617.151123 377.139282,617.765625 377.596680,618.454529 
	C373.420715,618.946777 369.716431,619.383362 365.546478,619.884277 
	C337.824341,619.946228 310.567169,619.835022 283.311981,620.021118 
	C276.829620,620.065369 270.776978,619.183167 265.140045,615.941040 
	C258.472778,609.627869 254.515030,602.355774 256.996429,592.825317 
	C257.246368,591.865417 257.566284,590.915161 257.953400,590.002747 
	C258.199890,589.421753 258.630280,588.918823 259.370300,587.774597 
	C263.842133,593.220459 268.854309,597.372742 276.080780,597.869812 
	C274.663391,595.859497 272.275543,593.956604 272.385162,592.210510 
	C272.494568,590.467041 275.104736,588.880493 276.631927,587.210571 
	C271.265381,581.375366 271.265381,581.375366 276.742615,576.202087 
	C270.515289,570.502808 270.515289,570.502808 276.600525,565.637451 
	C275.035522,563.524597 273.475433,561.418274 272.104462,558.677734 
	C274.006500,556.857483 275.719421,555.671570 277.127411,554.696716 
	C275.321289,552.664185 272.259186,550.710876 272.361816,548.941162 
	C272.479828,546.907471 275.399567,545.036438 277.093018,543.105347 
	C269.910034,538.008057 269.910034,538.008057 276.976227,532.881470 
	C275.254700,530.718872 273.521088,528.541016 271.961365,526.024475 
	C273.772980,524.486694 275.410736,523.287659 277.895203,521.468628 
	C274.955109,519.881592 273.588623,519.143982 272.222168,518.406372 
	C273.401154,515.745239 274.580170,513.084045 275.759155,510.422882 
	C276.219147,510.578156 276.679138,510.733459 277.139099,510.888733 
	C275.441284,509.082977 272.491760,507.339661 272.397675,505.453918 
	C272.303589,503.568268 275.065186,501.540161 276.643005,499.485870 
	C275.400574,498.139038 272.473602,496.372559 272.392822,494.484283 
	C272.311432,492.583130 275.059357,490.560944 276.581146,488.574036 
	C270.601593,483.116089 270.601593,483.116089 277.272919,477.641754 
	C275.781128,476.723663 274.473419,475.918884 272.879028,474.984680 
M308.956238,464.269989 
	C302.636292,465.613953 298.585876,469.375366 297.515442,475.771667 
	C297.285400,477.146149 298.633911,478.784821 299.255280,480.301788 
	C300.466461,479.288116 302.444397,478.464386 302.751099,477.226593 
	C303.859558,472.752625 306.322540,470.061584 310.950439,470.092896 
	C315.582794,470.124298 317.994232,472.927765 319.112854,477.334656 
	C319.419647,478.543304 321.134552,479.394562 322.203278,480.409821 
	C322.941895,478.980957 324.388336,477.506683 324.300018,476.130859 
	C323.849640,469.111115 318.079346,464.532715 308.956238,464.269989 
z"/>
<path fill="#FF6685" opacity="1.000000" stroke="none" 
	d="
M504.821167,557.002808 
	C511.185333,529.253845 522.870178,503.594940 535.406921,478.025970 
	C536.164917,478.508942 536.729797,478.661438 536.904053,479.009491 
	C549.805542,504.773956 561.910767,530.906982 567.387024,559.407593 
	C568.924927,567.411194 567.960754,575.895569 568.157959,584.577881 
	C568.015015,585.688049 567.858398,586.379761 567.219482,587.492981 
	C561.500671,587.888123 556.264221,587.861877 551.020081,587.401855 
	C550.311462,570.986938 543.138489,557.274353 535.957581,541.847229 
	C533.288086,547.680359 531.167053,551.946960 529.358032,556.342041 
	C525.191528,566.464294 520.861938,576.565491 520.510986,587.901123 
	C514.831482,587.903809 509.613159,587.840759 504.394867,587.777710 
	C504.263550,587.080017 504.132202,586.382385 503.925507,584.923889 
	C504.173828,575.109680 504.497498,566.056213 504.821167,557.002808 
z"/>
<path fill="#2F2E41" opacity="1.000000" stroke="none" 
	d="
M551.027771,587.835571 
	C556.264221,587.861877 561.500671,587.888123 567.170288,587.844055 
	C568.432922,587.841980 569.271240,588.023804 570.090454,587.960083 
	C575.220093,587.560547 579.465820,588.998413 581.437195,594.114380 
	C583.423706,599.269409 580.415283,602.648132 576.325073,605.739319 
	C577.026855,606.500183 577.585938,607.232483 578.267456,607.823608 
	C581.446411,610.580750 583.093689,613.904907 581.382446,618.011719 
	C579.687500,622.079346 576.502808,624.050171 571.949829,624.030518 
	C554.625183,623.955750 537.300110,624.001831 519.975159,624.002380 
	C513.644897,624.002563 507.309723,623.847778 500.985992,624.050842 
	C496.102905,624.207703 492.419159,622.517517 490.594452,617.951599 
	C488.752228,613.341919 490.962738,609.931458 494.565430,607.161621 
	C494.926483,606.884033 495.165497,606.447693 495.646729,605.857361 
	C494.977600,605.262268 494.399109,604.725952 493.797791,604.216675 
	C490.590759,601.500671 488.907684,598.173401 490.587219,594.058167 
	C492.247864,589.989136 495.405579,587.810547 499.971558,587.987061 
	C501.133636,588.031982 502.301422,587.929199 503.930725,587.835938 
	C509.613159,587.840759 514.831482,587.903809 520.977783,587.964233 
	C531.613159,587.919556 541.320496,587.877563 551.027771,587.835571 
z"/>
<path fill="#FBFC51" opacity="1.000000" stroke="none" 
	d="
M435.023010,619.814331 
	C420.985046,619.845093 406.947083,619.875916 392.704987,619.655762 
	C399.629852,617.165710 404.888733,612.870544 407.801361,605.826294 
	C408.234589,604.778442 409.443481,604.034119 410.339325,603.198425 
	C411.843414,601.795349 413.384338,600.431702 415.386566,599.067017 
	C422.985687,599.082520 430.108002,599.082520 437.230347,599.082520 
	C437.230713,598.388977 437.231049,597.695496 437.231415,597.001953 
	C429.780243,597.001953 422.329071,597.001953 414.682373,596.738831 
	C412.916534,594.837891 411.346222,593.200134 410.120605,591.739746 
	C411.650635,591.280396 412.835968,590.643677 414.009949,590.002075 
	C413.998566,589.997131 414.002594,590.021362 414.343231,589.992798 
	C415.883698,589.296875 417.083527,588.629639 418.730133,588.026978 
	C425.202667,588.091675 431.228455,588.091675 437.254211,588.091675 
	C437.241547,587.369934 437.228882,586.648193 437.216187,585.926453 
	C431.569763,585.926453 425.923309,585.926453 420.356018,585.615967 
	C423.975464,582.030396 427.515808,578.755371 431.210632,575.259277 
	C431.964691,574.076904 432.564331,573.115662 433.453461,571.988098 
	C438.220306,565.264648 442.697662,558.707458 447.431946,551.925781 
	C449.188782,548.478882 450.688660,545.256531 452.482239,542.324585 
	C452.906433,546.471252 453.036896,550.327576 453.118744,554.638306 
	C453.098694,561.347656 453.127228,567.602600 453.095642,574.333862 
	C453.023041,581.277832 453.004944,587.745422 452.999298,594.212952 
	C452.986755,608.612793 448.473022,615.045105 435.023010,619.814331 
z"/>
<path fill="#F1F1F1" opacity="1.000000" stroke="none" 
	d="
M453.155762,573.857483 
	C453.127228,567.602600 453.098694,561.347656 453.514282,554.620972 
	C456.112885,554.239746 460.035645,554.769958 460.139801,554.350891 
	C460.920044,551.212097 467.034973,551.023621 464.578308,546.354980 
	C467.900146,544.175110 464.597046,541.871643 464.803497,539.843628 
	C465.470123,533.295715 461.319458,535.677307 458.390442,535.851746 
	C456.966431,535.936523 455.573486,536.543396 454.223969,536.534546 
	C455.120270,532.473022 456.465912,528.818787 456.671509,525.101501 
	C456.936981,520.302429 456.290894,515.452820 456.040619,510.560272 
	C456.043854,510.495575 456.006226,510.371643 456.261963,510.087402 
	C453.337341,509.428528 450.156921,509.053925 447.110840,508.348389 
	C452.514984,507.044189 453.644196,503.597565 453.067505,498.803040 
	C452.754089,496.197388 453.080536,493.514709 453.449768,490.968140 
	C454.918457,492.863525 456.287170,494.552307 457.157898,496.467499 
	C468.165253,520.678223 479.156891,544.896545 490.009644,569.176758 
	C492.297943,574.296204 494.009979,579.673218 495.987518,584.931519 
	C486.363800,585.038757 476.740051,585.145935 466.466278,584.916504 
	C463.361328,583.335938 460.906433,582.091919 458.187164,580.713867 
	C458.415863,577.540405 457.861847,574.296082 453.155762,573.857483 
z"/>
<path fill="#46D860" opacity="1.000000" stroke="none" 
	d="
M414.909790,599.051514 
	C413.384338,600.431702 411.843414,601.795349 410.339325,603.198425 
	C409.443481,604.034119 408.234589,604.778442 407.801361,605.826294 
	C404.888733,612.870544 399.629852,617.165710 392.234985,619.629883 
	C385.286133,619.908203 378.603180,619.961365 371.042175,620.018677 
	C368.780182,619.955139 367.396149,619.887512 366.012146,619.819946 
	C369.716431,619.383362 373.420715,618.946777 377.596680,618.454529 
	C377.139282,617.765625 376.934906,617.151123 376.509399,616.861633 
	C364.932526,608.985229 362.600555,597.026917 369.875519,584.906372 
	C371.128662,582.818542 370.665070,579.700256 371.334686,576.507446 
	C374.745392,575.303955 377.815918,574.651001 380.886414,573.998047 
	C380.865112,574.164062 380.843811,574.330078 380.822510,574.496094 
	C383.115875,573.257568 385.409210,572.018982 387.949219,571.039001 
	C390.118103,572.882690 392.040314,574.467773 393.982391,576.029785 
	C394.002258,576.006592 393.945648,576.029175 393.870789,576.342163 
	C394.211639,577.098633 394.627319,577.542053 395.020844,577.994385 
	C394.998718,578.003296 395.012726,577.957703 395.146515,578.245605 
	C395.845581,578.703003 396.410858,578.872437 396.988892,579.021545 
	C397.001648,579.001221 396.964203,579.030579 396.965820,579.323730 
	C397.301178,579.756165 397.634888,579.895508 397.984314,580.017456 
	C398.000000,580.000000 397.965240,580.031494 397.967346,580.324219 
	C398.302673,580.756104 398.635895,580.895386 398.984558,581.017334 
	C399.000000,581.000000 398.965668,581.031311 398.970917,581.320679 
	C399.307617,581.750854 399.639069,581.891663 399.983643,582.016235 
	C399.996796,582.000000 399.964722,582.031250 399.930237,582.377991 
	C401.604980,584.147705 403.314209,585.570679 405.010010,586.999207 
	C404.996643,587.004761 405.000366,586.975952 405.108093,587.281738 
	C405.804352,587.740845 406.392883,587.894165 406.992523,588.025085 
	C407.003632,588.002625 406.960022,588.027100 406.978027,588.313049 
	C407.326080,588.744141 407.656128,588.889282 407.992371,589.015381 
	C407.998596,588.996399 407.965332,589.018738 407.967896,589.345093 
	C408.656342,590.100769 409.342255,590.530151 410.021484,590.979309 
	C410.014862,590.999084 410.042572,590.963562 409.980042,591.115112 
	C409.917542,591.266663 409.775909,591.562378 409.775940,591.562378 
	C411.346222,593.200134 412.916534,594.837891 414.620605,597.079407 
	C414.806183,598.139221 414.858002,598.595398 414.909790,599.051514 
z"/>
<path fill="#DADADA" opacity="1.000000" stroke="none" 
	d="
M496.421143,585.007202 
	C494.009979,579.673218 492.297943,574.296204 490.009644,569.176758 
	C479.156891,544.896545 468.165253,520.678223 457.157898,496.467499 
	C456.287170,494.552307 454.918457,492.863525 453.362793,490.638885 
	C452.909088,489.983368 452.873718,489.758453 452.854980,489.247467 
	C452.888489,488.393311 452.905304,487.825287 452.948364,486.785400 
	C452.966095,483.480316 452.957550,480.647034 452.949036,477.813782 
	C452.975677,475.168213 453.002319,472.522675 453.098877,469.438721 
	C460.152222,481.083771 467.200836,493.130127 474.102997,505.259857 
	C483.230194,521.299927 492.226105,537.414612 501.336487,553.464355 
	C502.051208,554.723511 503.220062,555.724976 504.499512,556.924500 
	C504.497498,566.056213 504.173828,575.109680 503.834473,584.580688 
	C501.497406,585.026428 499.176086,585.054565 496.421143,585.007202 
z"/>
<path fill="#DADADA" opacity="1.000000" stroke="none" 
	d="
M722.870117,537.596313 
	C721.733459,537.319153 720.435120,536.799988 719.613403,535.862854 
	C706.378479,520.769531 693.212341,505.616058 680.013977,490.490692 
	C666.049988,474.487976 652.065308,458.503296 638.111267,442.491913 
	C637.734131,442.059174 637.605042,441.410278 636.918640,439.873383 
	C638.578369,440.775940 639.471863,441.049591 640.080078,441.624878 
	C647.446716,448.592102 654.792542,455.581726 662.102600,462.608307 
	C680.203125,480.006744 698.241516,497.469940 716.388550,514.819702 
	C724.541016,522.614014 732.893372,530.199341 741.556641,538.372620 
	C742.598633,544.320312 743.238892,549.774841 743.879211,555.229431 
	C737.168579,546.843445 730.457947,538.457397 722.930176,529.050232 
	C722.930176,532.499146 722.930176,534.829529 722.870117,537.596313 
z"/>
<path fill="#3A384F" opacity="1.000000" stroke="none" 
	d="
M365.546478,619.884277 
	C367.396149,619.887512 368.780182,619.955139 370.576416,620.079102 
	C367.090576,621.422791 363.217926,623.722534 359.290009,623.821167 
	C342.738525,624.236755 326.169495,624.103210 309.608948,623.950378 
	C300.992889,623.870850 292.372101,622.914490 283.769440,623.099182 
	C270.359894,623.387085 256.965302,624.783936 243.561829,624.822754 
	C231.204147,624.858582 218.588028,625.245667 207.036850,619.475708 
	C201.158722,616.539368 197.840134,610.238586 198.973862,603.982178 
	C207.811798,616.602417 220.951279,616.828125 233.935425,616.918152 
	C244.041382,616.988220 254.152435,616.321960 264.700623,615.962036 
	C270.776978,619.183167 276.829620,620.065369 283.311981,620.021118 
	C310.567169,619.835022 337.824341,619.946228 365.546478,619.884277 
z"/>
<path fill="#A4A4A4" opacity="1.000000" stroke="none" 
	d="
M914.474365,612.289429 
	C916.095337,611.732239 917.372620,611.366089 918.624939,610.928528 
	C923.112183,609.360596 926.837524,609.492737 929.729736,614.200439 
	C931.882263,617.703979 935.080688,620.547729 937.474060,623.925659 
	C939.641052,626.984070 938.676636,629.826111 934.912354,629.994385 
	C923.854980,630.488464 912.743286,631.024231 901.717468,630.400208 
	C896.685791,630.115417 896.560547,624.316162 895.221985,620.845825 
	C901.839172,617.905151 907.979187,615.176453 914.474365,612.289429 
z"/>
<path fill="#6D65FD" opacity="1.000000" stroke="none" 
	d="
M743.935852,555.599976 
	C743.238892,549.774841 742.598633,544.320312 741.884399,538.431458 
	C741.597961,536.488159 741.385376,534.979187 741.172852,533.470154 
	C741.551697,533.321045 741.930603,533.171997 742.309509,533.022888 
	C744.963013,537.878906 747.616577,542.734924 750.567017,548.135010 
	C751.220825,549.146912 751.577759,549.614563 751.934692,550.082275 
	C751.934692,550.082275 751.959290,549.995911 751.964722,550.389160 
	C758.477234,563.162476 764.984314,575.542480 771.491394,587.922546 
	C772.383423,589.905090 773.275452,591.887634 774.111694,594.502686 
	C773.033203,595.498474 772.010498,595.861694 770.987732,596.224915 
	C762.736572,593.602051 756.964172,587.832886 753.397156,580.391052 
	C749.638794,572.549744 747.077026,564.134766 743.935852,555.599976 
z"/>
<path fill="#EEEFEF" opacity="1.000000" stroke="none" 
	d="
M271.787476,526.363159 
	C273.521088,528.541016 275.254700,530.718872 276.976227,532.881470 
	C269.910034,538.008057 269.910034,538.008057 277.093018,543.105347 
	C275.399567,545.036438 272.479828,546.907471 272.361816,548.941162 
	C272.259186,550.710876 275.321289,552.664185 277.127411,554.696716 
	C275.719421,555.671570 274.006500,556.857483 272.090210,558.281616 
	C262.239838,559.365723 252.592804,560.211548 242.665421,560.733887 
	C252.185867,549.061340 261.986694,537.712280 271.787476,526.363159 
z"/>
<path fill="#46D860" opacity="1.000000" stroke="none" 
	d="
M453.095642,574.333862 
	C457.861847,574.296082 458.415863,577.540405 458.187164,580.713867 
	C460.906433,582.091919 463.361328,583.335938 466.010773,584.927612 
	C465.696838,587.590027 465.188324,589.904785 464.792664,591.705933 
	C466.197723,593.692688 468.731415,595.721375 468.770142,597.796753 
	C468.804260,599.624268 466.066437,601.518433 464.516266,603.352234 
	C464.005188,603.956848 463.127106,604.359253 462.845245,605.033264 
	C457.790649,617.121033 448.156433,620.869080 435.470581,619.880371 
	C448.473022,615.045105 452.986755,608.612793 452.999298,594.212952 
	C453.004944,587.745422 453.023041,581.277832 453.095642,574.333862 
z"/>
<path fill="#A4A4A4" opacity="1.000000" stroke="none" 
	d="
M648.448853,618.622681 
	C649.482117,619.960144 650.371094,620.961548 651.062500,622.084534 
	C652.939819,625.133728 652.174988,627.479492 648.554932,627.706421 
	C640.133972,628.234558 631.684692,628.574768 623.253296,628.471252 
	C621.355835,628.447998 618.896362,626.715393 617.714966,625.047607 
	C614.572388,620.611328 615.354553,619.224854 620.592163,617.707214 
	C622.953857,617.022827 625.353760,616.186951 627.458862,614.948181 
	C637.783447,608.872986 640.516418,609.263550 648.448853,618.622681 
z"/>
<path fill="#DADADA" opacity="1.000000" stroke="none" 
	d="
M771.942505,587.888184 
	C764.984314,575.542480 758.477234,563.162476 751.935181,550.423096 
	C753.618103,551.224487 755.488037,552.213501 757.027649,553.575745 
	C763.906860,559.662231 770.691772,565.855286 777.869751,572.061157 
	C777.572998,576.374573 776.702148,580.618530 776.337280,584.905518 
	C776.095154,587.750671 774.638184,588.119446 771.942505,587.888184 
z"/>
<path fill="#A4A4A4" opacity="1.000000" stroke="none" 
	d="
M770.668579,596.432617 
	C772.010498,595.861694 773.033203,595.498474 774.268799,594.884155 
	C775.135010,594.524536 775.792053,594.434448 776.441162,594.304443 
	C785.224121,592.545227 788.918945,594.711914 792.059265,603.226685 
	C793.035217,605.872925 792.145264,607.250610 789.558899,607.105957 
	C782.963013,606.737122 776.345459,606.366272 769.809021,605.468506 
	C765.794556,604.917236 764.855896,601.623291 765.116638,597.587097 
	C766.877319,597.268555 768.613342,596.954407 770.668579,596.432617 
z"/>
<path fill="#A4A4A4" opacity="1.000000" stroke="none" 
	d="
M130.608810,621.756470 
	C125.887421,621.340881 124.211632,618.696350 123.988304,614.540955 
	C126.950394,613.389648 129.996201,612.520386 132.743317,611.080994 
	C142.137695,606.158508 144.238693,606.579529 150.369400,615.217896 
	C153.031815,618.969238 152.508301,620.603943 147.977524,621.025818 
	C142.358139,621.549072 136.690094,621.549438 130.608810,621.756470 
z"/>
<path fill="#7068F7" opacity="1.000000" stroke="none" 
	d="
M271.961365,526.024475 
	C261.986694,537.712280 252.185867,549.061340 242.236755,560.703857 
	C241.387100,561.249390 240.685745,561.501404 239.984406,561.753479 
	C239.770966,561.514404 239.557541,561.275330 239.344116,561.036255 
	C250.161316,547.037659 260.978516,533.039001 272.008911,518.723389 
	C273.588623,519.143982 274.955109,519.881592 277.895203,521.468628 
	C275.410736,523.287659 273.772980,524.486694 271.961365,526.024475 
z"/>
<path fill="#7068F7" opacity="1.000000" stroke="none" 
	d="
M829.645996,527.371460 
	C831.333984,527.221680 832.750305,527.221680 835.522095,527.221680 
	C822.672913,542.085388 810.652893,555.989990 798.291870,569.934570 
	C798.688721,568.427490 799.183411,566.694519 800.202026,565.362183 
	C809.875427,552.709778 819.637695,540.125305 829.645996,527.371460 
z"/>
<path fill="#DADADA" opacity="1.000000" stroke="none" 
	d="
M788.882690,581.897400 
	C789.890564,583.675659 790.898438,585.453979 791.961792,587.570496 
	C789.401550,587.908691 786.785767,587.908691 783.258728,587.908691 
	C784.823425,585.839844 786.040039,584.231262 787.739990,582.329529 
	C788.443054,581.989990 788.662903,581.943665 788.882690,581.897400 
z"/>
<path fill="#7068F7" opacity="1.000000" stroke="none" 
	d="
M797.625671,569.853760 
	C797.219666,571.026550 796.470947,572.098328 795.380066,573.111938 
	C795.786316,571.953491 796.534668,570.853149 797.625671,569.853760 
z"/>
<path fill="#7068F7" opacity="1.000000" stroke="none" 
	d="
M789.825806,579.162231 
	C789.915222,579.610840 789.708130,580.172546 789.204285,580.851990 
	C789.114868,580.404968 789.322144,579.840149 789.825806,579.162231 
z"/>
<path fill="#7068F7" opacity="1.000000" stroke="none" 
	d="
M794.727661,573.099854 
	C794.891541,573.606445 794.723572,574.187805 794.236328,574.866760 
	C794.076660,574.367798 794.236267,573.771179 794.727661,573.099854 
z"/>
<path fill="#7068F7" opacity="1.000000" stroke="none" 
	d="
M793.638550,574.912903 
	C793.802551,575.254639 793.656860,575.579041 793.233521,575.942993 
	C793.080139,575.620178 793.204468,575.257935 793.638550,574.912903 
z"/>
<path fill="#7068F7" opacity="1.000000" stroke="none" 
	d="
M792.685242,575.973267 
	C792.837219,576.293030 792.695801,576.628052 792.266846,576.991577 
	C792.116821,576.676208 792.254333,576.332397 792.685242,575.973267 
z"/>
<path fill="#7068F7" opacity="1.000000" stroke="none" 
	d="
M791.730286,577.006287 
	C791.878784,577.315796 791.738159,577.652222 791.309937,578.019409 
	C791.161926,577.711182 791.301514,577.372253 791.730286,577.006287 
z"/>
<path fill="#7068F7" opacity="1.000000" stroke="none" 
	d="
M788.927673,581.655212 
	C788.662903,581.943665 788.443054,581.989990 787.886475,582.060303 
	C787.802063,581.740479 788.054504,581.396667 788.621826,580.987244 
	C788.936646,580.921631 788.972656,581.413025 788.927673,581.655212 
z"/>
<path fill="#7068F7" opacity="1.000000" stroke="none" 
	d="
M790.778137,578.070618 
	C790.926636,578.366272 790.800476,578.717896 790.376404,579.091187 
	C790.220093,578.784119 790.361755,578.455383 790.778137,578.070618 
z"/>
<path fill="#DADADA" opacity="1.000000" stroke="none" 
	d="
M305.975220,278.983124 
	C307.642334,274.847839 309.171448,270.650360 311.002197,266.588806 
	C316.730499,253.880447 322.572601,241.223373 328.985504,227.202072 
	C338.658234,249.429001 347.855957,270.564362 357.053650,291.699707 
	C356.671509,291.897186 356.289337,292.094635 355.907166,292.292084 
	C348.825806,278.635864 341.744446,264.979645 334.252380,250.531464 
	C330.254242,254.570496 326.664978,258.127075 323.154053,261.759308 
	C317.645721,267.458038 312.190186,273.207855 306.357849,278.969971 
	C306.003448,279.003937 305.975189,278.983124 305.975220,278.983124 
z"/>
<path fill="#DADADA" opacity="1.000000" stroke="none" 
	d="
M439.661438,446.038452 
	C437.619049,445.996674 435.674622,445.575592 433.367004,445.046814 
	C430.060181,437.754669 427.209839,430.530060 424.142242,423.398956 
	C421.847809,418.065308 419.252808,412.861481 416.844971,407.575562 
	C416.476746,406.767120 416.397003,405.827271 416.987457,404.605286 
	C419.689117,409.280731 422.469666,413.912689 425.075531,418.640900 
	C430.023010,427.617859 434.870483,436.649963 439.661438,446.038452 
z"/>
<path fill="#DADADA" opacity="1.000000" stroke="none" 
	d="
M306.016144,279.016357 
	C305.836761,279.370453 305.644684,279.712097 305.452637,280.053711 
	C305.509674,279.779968 305.566742,279.506195 305.799500,279.107788 
	C305.975189,278.983124 306.003448,279.003937 306.016144,279.016357 
z"/>
<path fill="#DADADA" opacity="1.000000" stroke="none" 
	d="
M751.927002,549.763062 
	C751.577759,549.614563 751.220825,549.146912 750.798462,548.379456 
	C751.128479,548.534424 751.523926,548.989136 751.927002,549.763062 
z"/>
<path fill="#DADADA" opacity="1.000000" stroke="none" 
	d="
M631.523560,433.490051 
	C631.541016,433.525909 631.506042,433.454163 631.523560,433.490051 
z"/>
<path fill="#DADADA" opacity="1.000000" stroke="none" 
	d="
M440.821594,446.861023 
	C440.631256,446.990814 440.298676,446.893066 439.823975,446.574341 
	C440.014313,446.446716 440.346863,446.540100 440.821594,446.861023 
z"/>
<path fill="#05FAFC" opacity="1.000000" stroke="none" 
	d="
M380.979095,533.037659 
	C379.607391,532.739624 378.235657,532.441650 376.502930,531.659302 
	C376.112244,529.455750 376.082520,527.736450 376.111511,525.576782 
	C376.033966,523.075378 375.897705,521.014465 375.811890,518.635986 
	C375.884003,517.890442 375.905731,517.462341 376.385681,516.988831 
	C383.037750,515.699829 389.231506,514.456299 395.691467,513.189636 
	C396.270142,512.999878 396.582642,512.833191 397.207458,512.701172 
	C398.336761,512.161621 399.153809,511.587341 399.988373,511.015381 
	C400.005890,511.017670 400.022308,510.985474 400.372375,510.965271 
	C404.356171,508.401031 407.989929,505.856964 411.702362,503.257812 
	C413.895752,504.840485 416.047241,506.392944 418.378174,508.218445 
	C421.628357,510.026794 424.699066,511.562103 427.929871,513.274658 
	C428.348328,513.669800 428.644836,513.755127 429.296600,513.817749 
	C430.056244,513.981262 430.498688,514.034912 431.221680,514.347290 
	C435.258881,515.076294 439.018402,515.933533 442.771393,515.906128 
	C446.390167,515.879700 447.659821,517.243103 447.212524,520.603149 
	C446.358551,527.018311 445.467407,533.428406 444.403625,540.055542 
	C444.054901,540.993896 443.894226,541.717285 443.408234,542.599854 
	C442.692413,543.824646 442.301941,544.890259 441.650635,546.107727 
	C441.197052,546.814636 441.004242,547.369812 440.584961,548.168213 
	C436.905640,553.616089 433.452789,558.820740 429.746979,564.171936 
	C429.018494,564.925537 428.542938,565.532532 427.788300,566.212402 
	C427.090057,566.892761 426.670929,567.500122 426.179016,568.125732 
	C426.106232,568.143921 426.065796,568.288452 425.858215,568.316833 
	C425.372620,568.505249 425.259705,568.743591 425.031433,569.212036 
	C424.211304,570.008057 423.671509,570.652161 422.863525,571.363403 
	C422.344055,571.893372 422.092743,572.356201 421.835205,572.877136 
	C421.828918,572.935242 421.872894,572.827576 421.581696,572.852600 
	C420.917206,573.292847 420.543915,573.708130 419.908020,574.250854 
	C419.121826,574.946594 418.598267,575.514893 417.773865,576.139282 
	C416.920105,576.768555 416.367188,577.341797 415.564514,578.019226 
	C414.913086,578.478210 414.511444,578.833069 413.756195,579.255798 
	C412.256744,579.593140 411.110870,579.862549 409.785583,579.918213 
	C409.119232,579.451477 408.632294,579.198364 408.042114,578.700806 
	C407.630157,578.302856 407.321411,578.149414 406.860382,577.700012 
	C404.989777,575.969849 403.271393,574.535645 401.505981,572.849609 
	C400.938904,572.202332 400.418884,571.806946 399.748505,571.106812 
	C398.592163,569.905884 397.586182,569.009644 396.542969,567.844543 
	C395.984528,567.114319 395.463348,566.652954 394.804749,565.878967 
	C392.047089,562.045654 389.426819,558.525024 387.215759,554.936157 
	C389.963715,554.860168 392.302460,554.852539 394.641235,554.844849 
	C394.370117,551.072632 401.024963,550.817749 399.111511,546.135864 
	C399.073639,546.043152 400.152283,545.494141 400.828461,545.495972 
	C404.292877,552.845520 407.638855,559.857056 411.383820,567.704712 
	C417.552338,554.732971 423.293823,542.659302 429.061157,530.531311 
	C423.530182,528.880127 420.591492,530.552063 418.795807,535.639832 
	C416.980286,540.783936 414.243988,545.603088 411.530792,551.373230 
	C408.466858,545.096741 405.610229,540.001892 403.461273,534.624207 
	C401.419220,529.514099 398.183899,528.991760 393.375977,530.932861 
	C389.004761,531.693420 384.991943,532.365540 380.979095,533.037659 
z"/>
<path fill="#F9FBFA" opacity="1.000000" stroke="none" 
	d="
M452.491028,477.860718 
	C452.957550,480.647034 452.966095,483.480316 452.609863,486.792908 
	C450.540771,488.961182 448.743195,490.567719 447.156738,492.360931 
	C445.371643,494.378693 443.776917,496.564850 442.099396,498.677765 
	C440.362152,496.607452 438.356842,494.704529 436.939514,492.434479 
	C433.173889,486.403473 429.271790,486.385895 425.269409,492.390198 
	C423.872131,494.486389 421.902283,496.200897 419.880920,497.942780 
	C417.394470,495.598724 415.221039,493.401550 413.076050,490.794922 
	C409.072021,487.172668 406.173492,488.950592 403.560333,492.462463 
	C398.854462,498.786804 398.241516,498.776489 393.084961,492.661133 
	C389.989441,488.990021 386.471252,488.406891 383.204834,491.152527 
	C380.665497,493.287079 378.241394,495.558685 375.564636,497.949310 
	C379.267700,499.432251 381.065765,496.795807 383.097534,494.564941 
	C386.577301,490.744263 388.761047,490.740845 391.807159,494.894287 
	C394.164337,498.108276 396.730804,500.259125 400.856384,499.212280 
	C400.515594,500.216888 400.286194,500.948883 399.730469,501.796326 
	C399.180267,501.967743 398.956421,502.023743 398.424561,502.019226 
	C397.110565,502.575653 396.104675,503.192596 394.989655,504.029419 
	C394.718231,504.547363 394.484680,504.770935 393.861023,504.803284 
	C393.315857,504.681610 393.089539,504.676727 392.775940,504.573608 
	C392.374268,504.438568 392.210510,504.579742 391.972809,505.133789 
	C391.671661,505.571442 391.595123,505.774139 391.463318,505.939758 
	C391.408112,505.902679 391.324219,506.005920 390.942993,505.951599 
	C388.313782,506.081299 386.065765,506.265289 383.817780,506.449280 
	C381.502502,506.275696 379.182220,506.151520 376.872864,505.919128 
	C370.134460,505.241089 365.631287,500.531616 365.625122,494.213226 
	C365.619141,488.065521 369.729706,483.253510 376.433868,482.752991 
	C395.649902,481.318359 414.891785,480.228455 434.123901,479.009735 
	C440.092926,478.631500 446.063293,478.274445 452.491028,477.860718 
z"/>
<path fill="#45D664" opacity="1.000000" stroke="none" 
	d="
M400.710022,545.158020 
	C400.152283,545.494141 399.073639,546.043152 399.111511,546.135864 
	C401.024963,550.817749 394.370117,551.072632 394.641235,554.844849 
	C392.302460,554.852539 389.963715,554.860168 386.854370,554.882874 
	C384.389221,554.577515 382.694641,554.257141 381.000061,553.936768 
	C379.684418,551.319824 377.888885,548.828979 377.160645,546.057678 
	C375.934113,541.390076 377.950500,537.341309 380.933167,533.389771 
	C384.991943,532.365540 389.004761,531.693420 393.589844,531.223999 
	C397.693878,535.360413 401.079559,539.363831 400.710022,545.158020 
z"/>
<path fill="#053D79" opacity="1.000000" stroke="none" 
	d="
M380.647614,554.012512 
	C382.694641,554.257141 384.389221,554.577515 386.445190,554.951172 
	C389.426819,558.525024 392.047089,562.045654 394.846405,566.151367 
	C395.543701,567.195435 396.061951,567.654419 396.580200,568.113464 
	C397.586182,569.009644 398.592163,569.905884 399.809265,571.354797 
	C400.531250,572.305481 401.042114,572.703491 401.553009,573.101440 
	C403.271393,574.535645 404.989777,575.969849 406.981873,577.928406 
	C407.552155,578.616943 407.848755,578.781128 408.145355,578.945312 
	C408.632294,579.198364 409.119232,579.451477 410.006042,580.182739 
	C411.640564,580.169922 412.875183,579.678894 414.109802,579.187866 
	C414.511444,578.833069 414.913086,578.478210 415.898376,578.017395 
	C417.012909,577.301941 417.543823,576.692566 418.074707,576.083191 
	C418.598267,575.514893 419.121826,574.946594 420.203796,574.224365 
	C421.132416,573.656189 421.502655,573.241882 421.872894,572.827576 
	C421.872894,572.827576 421.828918,572.935242 422.121063,572.952026 
	C422.609619,572.979492 422.806030,572.990112 423.321106,573.145142 
	C424.809662,574.267761 425.979584,575.245850 427.025391,576.531250 
	C425.169586,578.547363 423.333740,580.165283 421.737915,581.992737 
	C420.368561,583.560974 419.273682,585.368896 418.036835,587.034302 
	C418.016235,586.997803 418.082520,587.049255 417.729858,586.958130 
	C416.252350,587.918457 415.127441,588.969910 414.002563,590.021362 
	C414.002594,590.021362 413.998566,589.997131 413.666687,589.937012 
	C412.237396,590.239075 411.139984,590.601318 410.042572,590.963501 
	C410.042572,590.963562 410.014862,590.999084 410.020020,590.654907 
	C409.338562,589.880005 408.651947,589.449402 407.965332,589.018738 
	C407.965332,589.018738 407.998596,588.996399 407.929016,588.758301 
	C407.559662,588.355835 407.259857,588.191467 406.960022,588.027100 
	C406.960022,588.027100 407.003632,588.002625 406.860352,587.739502 
	C406.144836,587.309570 405.572601,587.142761 405.000366,586.975952 
	C405.000366,586.975952 404.996643,587.004761 405.021545,586.654297 
	C403.352570,584.879639 401.658661,583.455444 399.964722,582.031250 
	C399.964722,582.031250 399.996796,582.000000 399.929321,581.756592 
	C399.563141,581.352539 399.264404,581.191895 398.965668,581.031311 
	C398.965668,581.031311 399.000000,581.000000 398.927795,580.759094 
	C398.558838,580.355957 398.262024,580.193726 397.965240,580.031494 
	C397.965240,580.031494 398.000000,580.000000 397.926880,579.759888 
	C397.557251,579.356750 397.260742,579.193665 396.964203,579.030579 
	C396.964203,579.030579 397.001648,579.001221 396.872253,578.721497 
	C396.166168,578.280396 395.589447,578.119019 395.012726,577.957703 
	C395.012726,577.957703 394.998718,578.003296 395.089111,577.680054 
	C394.768219,576.914307 394.356934,576.471741 393.945648,576.029175 
	C393.945648,576.029175 394.002258,576.006592 393.912903,575.695312 
	C389.197571,569.932068 384.571564,564.480225 379.973022,559.015869 
	C380.000549,559.003418 379.961060,559.049255 380.057312,558.718750 
	C379.482452,557.013367 378.811340,555.638367 378.140228,554.263428 
	C378.858551,554.205017 379.576843,554.146667 380.647614,554.012512 
z"/>
<path fill="#FBFC51" opacity="1.000000" stroke="none" 
	d="
M387.702576,570.780457 
	C385.409210,572.018982 383.115875,573.257568 380.822510,574.496094 
	C380.843811,574.330078 380.865112,574.164062 380.886414,573.998047 
	C377.815918,574.651001 374.745392,575.303955 371.334534,576.126709 
	C369.505310,576.165100 368.016449,576.033813 365.703003,575.829712 
	C365.703003,569.435425 365.593018,563.009216 365.837830,556.596558 
	C365.869537,555.765747 367.665009,554.463501 368.763245,554.324158 
	C371.046143,554.034668 373.409363,554.378845 376.329529,554.660156 
	C377.933350,556.255005 378.947205,557.652100 379.961060,559.049255 
	C379.961060,559.049255 380.000549,559.003418 380.014648,559.362671 
	C382.586700,563.408081 385.144623,567.094299 387.702576,570.780457 
z"/>
<path fill="#053D79" opacity="1.000000" stroke="none" 
	d="
M376.052765,526.017212 
	C376.082520,527.736450 376.112244,529.455750 376.179779,531.510742 
	C374.687378,531.957886 373.157135,532.069214 370.834412,532.047852 
	C366.532959,525.369324 366.825684,518.415283 367.233521,511.790619 
	C374.251709,510.724670 380.613739,509.758392 386.982056,509.234161 
	C386.971039,511.415619 386.953735,513.155029 386.519745,514.924072 
	C382.711212,515.647217 379.319305,516.340759 375.927429,517.034302 
	C375.905731,517.462341 375.884003,517.890442 375.599121,518.944641 
	C375.574890,521.719604 375.813843,523.868408 376.052765,526.017212 
z"/>
<path fill="#030B05" opacity="1.000000" stroke="none" 
	d="
M309.355652,464.224121 
	C318.079346,464.532715 323.849640,469.111115 324.300018,476.130859 
	C324.388336,477.506683 322.941895,478.980957 322.203278,480.409821 
	C321.134552,479.394562 319.419647,478.543304 319.112854,477.334656 
	C317.994232,472.927765 315.582794,470.124298 310.950439,470.092896 
	C306.322540,470.061584 303.859558,472.752625 302.751099,477.226593 
	C302.444397,478.464386 300.466461,479.288116 299.255280,480.301788 
	C298.633911,478.784821 297.285400,477.146149 297.515442,475.771667 
	C298.585876,469.375366 302.636292,465.613953 309.355652,464.224121 
z"/>
<path fill="#2C93CB" opacity="1.000000" stroke="none" 
	d="
M386.975739,508.792145 
	C380.613739,509.758392 374.251709,510.724670 367.233521,511.790619 
	C366.825684,518.415283 366.532959,525.369324 370.373962,532.042358 
	C369.479584,531.595520 367.291504,531.167114 367.178894,530.424194 
	C366.287140,524.539062 365.709595,518.600952 365.205811,512.664673 
	C364.947327,509.618988 366.733734,508.959991 369.582916,508.807129 
	C374.137024,508.562836 378.655365,507.651306 383.503296,506.735596 
	C386.065765,506.265289 388.313782,506.081299 390.776550,506.260101 
	C389.652832,507.346008 388.314270,508.069092 386.975739,508.792145 
z"/>
<path fill="#2C93CB" opacity="1.000000" stroke="none" 
	d="
M380.057312,558.718750 
	C378.947205,557.652100 377.933350,556.255005 376.832886,554.612610 
	C377.049316,554.280579 377.357727,554.221558 377.905853,554.226868 
	C378.811340,555.638367 379.482452,557.013367 380.057312,558.718750 
z"/>
<path fill="#E65B77" opacity="1.000000" stroke="none" 
	d="
M551.020081,587.401855 
	C541.320496,587.877563 531.613159,587.919556 521.439087,587.898438 
	C520.861938,576.565491 525.191528,566.464294 529.358032,556.342041 
	C531.167053,551.946960 533.288086,547.680359 535.957581,541.847229 
	C543.138489,557.274353 550.311462,570.986938 551.020081,587.401855 
z"/>
<path fill="#45D664" opacity="1.000000" stroke="none" 
	d="
M454.166504,536.913940 
	C455.573486,536.543396 456.966431,535.936523 458.390442,535.851746 
	C461.319458,535.677307 465.470123,533.295715 464.803497,539.843628 
	C464.597046,541.871643 467.900146,544.175110 464.578308,546.354980 
	C467.034973,551.023621 460.920044,551.212097 460.139801,554.350891 
	C460.035645,554.769958 456.112885,554.239746 453.562927,554.166504 
	C453.036896,550.327576 452.906433,546.471252 452.536072,541.988281 
	C452.919617,539.879089 453.543060,538.396545 454.166504,536.913940 
z"/>
<path fill="#33D6E8" opacity="1.000000" stroke="none" 
	d="
M454.223999,536.534607 
	C453.543060,538.396545 452.919617,539.879089 452.242310,541.697937 
	C450.688660,545.256531 449.188782,548.478882 447.225769,551.759888 
	C446.625000,551.708313 446.487305,551.598022 446.485657,551.179504 
	C447.042938,549.588440 447.464233,548.305542 448.046967,546.725586 
	C448.824860,545.003479 449.441345,543.578491 450.242432,542.003967 
	C450.655945,541.613586 450.772644,541.326965 450.835510,540.759888 
	C450.893860,540.525085 450.943146,540.043701 451.135193,539.717163 
	C452.897278,529.802124 454.467316,520.213562 456.037354,510.624969 
	C456.290894,515.452820 456.936981,520.302429 456.671509,525.101501 
	C456.465912,528.818787 455.120270,532.473022 454.223999,536.534607 
z"/>
<path fill="#030B05" opacity="1.000000" stroke="none" 
	d="
M415.386566,599.067017 
	C414.858002,598.595398 414.806183,598.139221 414.816162,597.342529 
	C422.329071,597.001953 429.780243,597.001953 437.231415,597.001953 
	C437.231049,597.695496 437.230713,598.388977 437.230347,599.082520 
	C430.108002,599.082520 422.985687,599.082520 415.386566,599.067017 
z"/>
<path fill="#33D6E8" opacity="1.000000" stroke="none" 
	d="
M446.968842,551.984436 
	C442.697662,558.707458 438.220306,565.264648 433.310730,571.851562 
	C432.878510,571.881287 432.593781,571.607422 432.741028,571.304016 
	C434.986084,568.030212 437.083832,565.059814 439.462891,561.909302 
	C441.946014,558.315369 444.147827,554.901550 446.349640,551.487671 
	C446.487305,551.598022 446.625000,551.708313 446.968842,551.984436 
z"/>
<path fill="#030B05" opacity="1.000000" stroke="none" 
	d="
M420.276855,585.926453 
	C425.923309,585.926453 431.569763,585.926453 437.216187,585.926453 
	C437.228882,586.648193 437.241547,587.369934 437.254211,588.091675 
	C431.228455,588.091675 425.202667,588.091675 418.728149,587.788086 
	C418.279358,587.484497 418.082520,587.049255 418.082520,587.049255 
	C418.082520,587.049255 418.016235,586.997803 418.359985,587.030518 
	C419.228088,586.684326 419.752472,586.305359 420.276855,585.926453 
z"/>
<path fill="#2C93CB" opacity="1.000000" stroke="none" 
	d="
M420.356018,585.615967 
	C419.752472,586.305359 419.228088,586.684326 418.380585,587.067078 
	C419.273682,585.368896 420.368561,583.560974 421.737915,581.992737 
	C423.333740,580.165283 425.169586,578.547363 427.281067,576.367432 
	C428.459564,575.301392 429.258240,574.706543 430.153931,574.304688 
	C430.519379,574.825195 430.787781,575.152771 431.056152,575.480347 
	C427.515808,578.755371 423.975464,582.030396 420.356018,585.615967 
z"/>
<path fill="#33D6E8" opacity="1.000000" stroke="none" 
	d="
M431.210632,575.259277 
	C430.787781,575.152771 430.519379,574.825195 430.328674,574.058655 
	C431.135529,572.948914 431.864655,572.278198 432.593781,571.607422 
	C432.593781,571.607422 432.878510,571.881287 433.021240,572.017822 
	C432.564331,573.115662 431.964691,574.076904 431.210632,575.259277 
z"/>
<path fill="#2C93CB" opacity="1.000000" stroke="none" 
	d="
M417.729858,586.958130 
	C418.082520,587.049255 418.279358,587.484497 418.281372,587.723389 
	C417.083527,588.629639 415.883698,589.296875 414.343201,589.992798 
	C415.127441,588.969910 416.252350,587.918457 417.729858,586.958130 
z"/>
<path fill="#2C93CB" opacity="1.000000" stroke="none" 
	d="
M409.980042,591.115112 
	C411.139984,590.601318 412.237396,590.239075 413.678040,589.941895 
	C412.835968,590.643677 411.650635,591.280396 410.120605,591.739746 
	C409.775909,591.562378 409.917542,591.266663 409.980042,591.115112 
z"/>
<path fill="#047FD6" opacity="1.000000" stroke="none" 
	d="
M456.040588,510.560272 
	C454.467316,520.213562 452.897278,529.802124 450.690704,539.703857 
	C448.233337,539.958191 446.412506,539.899414 444.591675,539.840637 
	C445.467407,533.428406 446.358551,527.018311 447.212524,520.603149 
	C447.659821,517.243103 446.390167,515.879700 442.771393,515.906128 
	C439.018402,515.933533 435.258881,515.076294 431.237244,513.955627 
	C432.022827,511.666962 428.290283,508.653931 432.895691,507.888611 
	C440.851288,508.689545 448.428741,509.530609 456.006226,510.371643 
	C456.006226,510.371643 456.043854,510.495575 456.040588,510.560272 
z"/>
<path fill="#F9FBFA" opacity="1.000000" stroke="none" 
	d="
M452.838318,489.533569 
	C452.873718,489.758453 452.909088,489.983368 453.031403,490.537537 
	C453.080536,493.514709 452.754089,496.197388 453.067505,498.803040 
	C453.644196,503.597565 452.514984,507.044189 446.710419,508.366882 
	C439.165802,506.757355 432.155945,504.798462 425.119263,502.853149 
	C425.092438,502.866760 425.076813,502.924805 425.041718,502.640381 
	C424.657654,502.248444 424.308685,502.140961 423.977936,502.020813 
	C423.996185,502.008118 423.978180,502.048889 423.923615,501.795105 
	C423.417694,501.026794 422.966309,500.512268 422.776306,499.687866 
	C424.161713,497.971893 425.441620,496.662292 426.382965,495.142975 
	C430.461761,488.559631 432.017059,488.585022 435.861816,495.446838 
	C436.023041,495.734589 436.070221,496.138916 436.302032,496.326080 
	C438.258331,497.905914 440.275696,500.696777 442.214447,500.649536 
	C444.150543,500.602417 446.179382,497.851532 447.870331,496.012634 
	C449.705078,494.017334 451.196930,491.706696 452.838318,489.533569 
z"/>
<path fill="#33D6E8" opacity="1.000000" stroke="none" 
	d="
M425.146057,502.839569 
	C432.155945,504.798462 439.165802,506.757355 446.576111,508.697784 
	C450.156921,509.053925 453.337341,509.428528 456.261963,510.087402 
	C448.428741,509.530609 440.851288,508.689545 432.644226,507.611267 
	C429.678802,506.246185 427.342926,505.118317 424.988892,503.696350 
	C425.029205,503.214691 425.087616,503.027130 425.146057,502.839569 
z"/>
<path fill="#2C93CB" opacity="1.000000" stroke="none" 
	d="
M387.949219,571.039001 
	C385.144623,567.094299 382.586700,563.408081 379.987152,559.375122 
	C384.571564,564.480225 389.197571,569.932068 393.893066,575.718445 
	C392.040314,574.467773 390.118103,572.882690 387.949219,571.039001 
z"/>
<path fill="#2C93CB" opacity="1.000000" stroke="none" 
	d="
M399.930237,582.377991 
	C401.658661,583.455444 403.352570,584.879639 405.034943,586.648804 
	C403.314209,585.570679 401.604980,584.147705 399.930237,582.377991 
z"/>
<path fill="#2C93CB" opacity="1.000000" stroke="none" 
	d="
M407.967896,589.345093 
	C408.651947,589.449402 409.338562,589.880005 410.026672,590.635132 
	C409.342255,590.530151 408.656342,590.100769 407.967896,589.345093 
z"/>
<path fill="#2C93CB" opacity="1.000000" stroke="none" 
	d="
M405.108093,587.281738 
	C405.572601,587.142761 406.144836,587.309570 406.849243,587.761963 
	C406.392883,587.894165 405.804352,587.740845 405.108093,587.281738 
z"/>
<path fill="#2C93CB" opacity="1.000000" stroke="none" 
	d="
M395.146515,578.245605 
	C395.589447,578.119019 396.166168,578.280396 396.859497,578.741821 
	C396.410858,578.872437 395.845581,578.703003 395.146515,578.245605 
z"/>
<path fill="#2C93CB" opacity="1.000000" stroke="none" 
	d="
M393.870789,576.342163 
	C394.356934,576.471741 394.768219,576.914307 395.111206,577.671143 
	C394.627319,577.542053 394.211639,577.098633 393.870789,576.342163 
z"/>
<path fill="#2C93CB" opacity="1.000000" stroke="none" 
	d="
M396.965820,579.323730 
	C397.260742,579.193665 397.557251,579.356750 397.911194,579.777344 
	C397.634888,579.895508 397.301178,579.756165 396.965820,579.323730 
z"/>
<path fill="#2C93CB" opacity="1.000000" stroke="none" 
	d="
M406.978027,588.313049 
	C407.259857,588.191467 407.559662,588.355835 407.922821,588.777344 
	C407.656128,588.889282 407.326080,588.744141 406.978027,588.313049 
z"/>
<path fill="#2C93CB" opacity="1.000000" stroke="none" 
	d="
M398.970917,581.320679 
	C399.264404,581.191895 399.563141,581.352539 399.916168,581.772827 
	C399.639069,581.891663 399.307617,581.750854 398.970917,581.320679 
z"/>
<path fill="#2C93CB" opacity="1.000000" stroke="none" 
	d="
M397.967346,580.324219 
	C398.262024,580.193726 398.558838,580.355957 398.912354,580.776428 
	C398.635895,580.895386 398.302673,580.756104 397.967346,580.324219 
z"/>
<path fill="#1D1E1E" opacity="1.000000" stroke="none" 
	d="
M452.854980,489.247437 
	C451.196930,491.706696 449.705078,494.017334 447.870331,496.012634 
	C446.179382,497.851532 444.150543,500.602417 442.214447,500.649536 
	C440.275696,500.696777 438.258331,497.905914 436.302032,496.326080 
	C436.070221,496.138916 436.023041,495.734589 435.861816,495.446838 
	C432.017059,488.585022 430.461761,488.559631 426.382965,495.142975 
	C425.441620,496.662292 424.161713,497.971893 422.531189,499.502258 
	C421.414429,499.114197 420.804169,498.601959 420.193878,498.089691 
	C421.902283,496.200897 423.872131,494.486389 425.269409,492.390198 
	C429.271790,486.385895 433.173889,486.403473 436.939514,492.434479 
	C438.356842,494.704529 440.362152,496.607452 442.099396,498.677765 
	C443.776917,496.564850 445.371643,494.378693 447.156738,492.360931 
	C448.743195,490.567719 450.540771,488.961182 452.583618,487.264740 
	C452.905304,487.825287 452.888489,488.393311 452.854980,489.247437 
z"/>
<path fill="#01599C" opacity="1.000000" stroke="none" 
	d="
M400.828461,545.495972 
	C401.079559,539.363831 397.693878,535.360413 393.948242,531.135437 
	C398.183899,528.991760 401.419220,529.514099 403.461273,534.624207 
	C405.610229,540.001892 408.466858,545.096741 411.530792,551.373230 
	C414.243988,545.603088 416.980286,540.783936 418.795807,535.639832 
	C420.591492,530.552063 423.530182,528.880127 429.061157,530.531311 
	C423.293823,542.659302 417.552338,554.732971 411.383820,567.704712 
	C407.638855,559.857056 404.292877,552.845520 400.828461,545.495972 
z"/>
<path fill="#0565B1" opacity="1.000000" stroke="none" 
	d="
M425.119263,502.853149 
	C425.087616,503.027130 425.029205,503.214691 424.985413,504.070374 
	C424.148560,505.625549 423.447266,506.853119 422.406891,507.312103 
	C421.154755,507.864532 419.614349,507.763519 418.198730,507.945374 
	C416.047241,506.392944 413.895752,504.840485 411.702362,503.257812 
	C407.989929,505.856964 404.356171,508.401031 400.505127,510.657043 
	C403.320007,506.536499 409.015839,504.077576 406.944885,497.322449 
	C407.020142,496.717712 407.033081,496.371674 407.026978,496.009888 
	C407.007904,495.994110 407.030090,496.037231 407.309326,496.014374 
	C407.742554,495.677917 407.896545,495.364319 408.026337,495.024719 
	C408.002136,494.998779 408.046082,495.052673 408.329132,495.039795 
	C408.764191,494.706879 408.916168,494.386810 409.035278,494.032776 
	C409.002441,493.998779 409.062469,494.070526 409.345154,494.056885 
	C409.780823,493.723999 409.933777,493.404785 410.094208,493.108032 
	C410.101685,493.130524 410.141693,493.155548 410.468018,493.236053 
	C412.334167,494.489777 413.808777,495.763489 415.428192,496.813904 
	C418.230896,498.631836 421.123383,500.311310 423.978180,502.048889 
	C423.978180,502.048889 423.996185,502.008118 424.021301,502.303528 
	C424.389893,502.707520 424.733368,502.816162 425.076813,502.924805 
	C425.076813,502.924805 425.092438,502.866760 425.119263,502.853149 
z"/>
<path fill="#054C8F" opacity="1.000000" stroke="none" 
	d="
M406.882629,497.581146 
	C409.015839,504.077576 403.320007,506.536499 400.155029,510.677246 
	C400.022308,510.985474 400.005890,511.017670 399.661804,510.994202 
	C398.510193,511.535980 397.702667,512.101257 396.895142,512.666504 
	C396.582642,512.833191 396.270142,512.999878 395.274780,513.123657 
	C392.040100,513.685303 389.488251,514.289856 386.936401,514.894470 
	C386.953735,513.155029 386.971039,511.415619 386.982056,509.234161 
	C388.314270,508.069092 389.652832,507.346008 391.157776,506.314423 
	C391.324219,506.005920 391.408112,505.902679 391.847260,505.990387 
	C392.917572,505.692078 393.548737,505.306061 394.179901,504.920044 
	C394.484680,504.770935 394.718231,504.547363 395.308807,504.046997 
	C396.735596,503.256287 397.734100,502.667999 398.732605,502.079712 
	C398.956421,502.023743 399.180267,501.967743 400.026245,501.786133 
	C402.063629,500.569702 403.478973,499.478851 405.219910,498.237488 
	C405.991241,497.918365 406.436920,497.749756 406.882629,497.581146 
z"/>
<path fill="#0565B1" opacity="1.000000" stroke="none" 
	d="
M446.485657,551.179504 
	C444.147827,554.901550 441.946014,558.315369 439.190857,561.690552 
	C438.007416,560.780212 437.377319,559.908508 436.818268,559.135132 
	C434.367249,560.893005 432.183563,562.459167 429.999908,564.025330 
	C433.452789,558.820740 436.905640,553.616089 440.883392,548.155090 
	C441.575989,547.251160 441.743713,546.603516 441.911438,545.955933 
	C442.301941,544.890259 442.692413,543.824646 443.476349,543.017334 
	C444.005035,544.541809 444.140259,545.807861 444.269989,547.022644 
	C445.627411,547.022644 446.756470,547.022644 447.885559,547.022644 
	C447.464233,548.305542 447.042938,549.588440 446.485657,551.179504 
z"/>
<path fill="#054C8F" opacity="1.000000" stroke="none" 
	d="
M429.746948,564.171936 
	C432.183563,562.459167 434.367249,560.893005 436.818268,559.135132 
	C437.377319,559.908508 438.007416,560.780212 438.909576,561.870605 
	C437.083832,565.059814 434.986084,568.030212 432.741028,571.304016 
	C431.864655,572.278198 431.135529,572.948914 430.231659,573.865601 
	C429.258240,574.706543 428.459564,575.301392 427.405212,576.060059 
	C425.979584,575.245850 424.809662,574.267761 423.338806,572.860474 
	C423.069153,572.053040 423.100433,571.674622 423.131714,571.296265 
	C423.671509,570.652161 424.211304,570.008057 425.194489,569.124512 
	C425.842255,568.730530 425.984894,568.531616 426.065796,568.288452 
	C426.065796,568.288452 426.106232,568.143921 426.464966,568.058105 
	C427.238220,567.361267 427.652771,566.750366 428.067383,566.139465 
	C428.542938,565.532532 429.018494,564.925537 429.746948,564.171936 
z"/>
<path fill="#046FBE" opacity="1.000000" stroke="none" 
	d="
M418.378174,508.218445 
	C419.614349,507.763519 421.154755,507.864532 422.406891,507.312103 
	C423.447266,506.853119 424.148560,505.625549 425.003540,504.364441 
	C427.342926,505.118317 429.678802,506.246185 432.266113,507.651398 
	C428.290283,508.653931 432.022827,511.666962 430.956726,513.696899 
	C430.498688,514.034912 430.056244,513.981262 429.134766,513.652100 
	C428.391113,513.186462 428.095764,513.093384 427.769775,513.097412 
	C424.699066,511.562103 421.628357,510.026794 418.378174,508.218445 
z"/>
<path fill="#046FBE" opacity="1.000000" stroke="none" 
	d="
M448.046936,546.725586 
	C446.756470,547.022644 445.627411,547.022644 444.269989,547.022644 
	C444.140259,545.807861 444.005035,544.541809 443.801697,542.858154 
	C443.894226,541.717285 444.054901,540.993896 444.403625,540.055542 
	C446.412506,539.899414 448.233337,539.958191 450.498657,540.030396 
	C450.943146,540.043701 450.893860,540.525085 450.663818,540.916016 
	C450.222107,541.550720 450.096771,541.832886 450.057800,542.153442 
	C449.441345,543.578491 448.824860,545.003479 448.046936,546.725586 
z"/>
<path fill="#0565B1" opacity="1.000000" stroke="none" 
	d="
M386.519745,514.924072 
	C389.488251,514.289856 392.040100,513.685303 395.008606,513.146729 
	C389.231506,514.456299 383.037750,515.699829 376.385681,516.988831 
	C379.319305,516.340759 382.711212,515.647217 386.519745,514.924072 
z"/>
<path fill="#0565B1" opacity="1.000000" stroke="none" 
	d="
M376.111511,525.576782 
	C375.813843,523.868408 375.574890,521.719604 375.548706,519.262207 
	C375.897705,521.014465 376.033966,523.075378 376.111511,525.576782 
z"/>
<path fill="#0565B1" opacity="1.000000" stroke="none" 
	d="
M413.756195,579.255798 
	C412.875183,579.678894 411.640564,580.169922 410.185486,580.396423 
	C411.110870,579.862549 412.256744,579.593140 413.756195,579.255798 
z"/>
<path fill="#0565B1" opacity="1.000000" stroke="none" 
	d="
M397.207458,512.701172 
	C397.702667,512.101257 398.510193,511.535980 399.644287,510.991882 
	C399.153809,511.587341 398.336761,512.161621 397.207458,512.701172 
z"/>
<path fill="#046FBE" opacity="1.000000" stroke="none" 
	d="
M441.650635,546.107727 
	C441.743713,546.603516 441.575989,547.251160 441.109863,547.911865 
	C441.004242,547.369812 441.197052,546.814636 441.650635,546.107727 
z"/>
<path fill="#054C8F" opacity="1.000000" stroke="none" 
	d="
M396.542969,567.844543 
	C396.061951,567.654419 395.543701,567.195435 394.983826,566.463989 
	C395.463348,566.652954 395.984528,567.114319 396.542969,567.844543 
z"/>
<path fill="#0565B1" opacity="1.000000" stroke="none" 
	d="
M417.773865,576.139282 
	C417.543823,576.692566 417.012909,577.301941 416.148132,577.913208 
	C416.367188,577.341797 416.920105,576.768555 417.773865,576.139282 
z"/>
<path fill="#054C8F" opacity="1.000000" stroke="none" 
	d="
M401.505981,572.849609 
	C401.042114,572.703491 400.531250,572.305481 399.959595,571.659546 
	C400.418884,571.806946 400.938904,572.202332 401.505981,572.849609 
z"/>
<path fill="#0565B1" opacity="1.000000" stroke="none" 
	d="
M427.788269,566.212402 
	C427.652771,566.750366 427.238220,567.361267 426.537720,568.039917 
	C426.670929,567.500122 427.090057,566.892761 427.788269,566.212402 
z"/>
<path fill="#0565B1" opacity="1.000000" stroke="none" 
	d="
M422.863525,571.363403 
	C423.100433,571.674622 423.069153,572.053040 423.020142,572.716064 
	C422.806030,572.990112 422.609619,572.979492 422.127319,572.893921 
	C422.092743,572.356201 422.344055,571.893372 422.863525,571.363403 
z"/>
<path fill="#0565B1" opacity="1.000000" stroke="none" 
	d="
M421.581696,572.852600 
	C421.502655,573.241882 421.132416,573.656189 420.466400,574.096924 
	C420.543915,573.708130 420.917206,573.292847 421.581696,572.852600 
z"/>
<path fill="#047FD6" opacity="1.000000" stroke="none" 
	d="
M427.929871,513.274658 
	C428.095764,513.093384 428.391113,513.186462 428.817627,513.542236 
	C428.644836,513.755127 428.348328,513.669800 427.929871,513.274658 
z"/>
<path fill="#0565B1" opacity="1.000000" stroke="none" 
	d="
M425.858215,568.316833 
	C425.984894,568.531616 425.842255,568.730530 425.474854,568.972656 
	C425.259705,568.743591 425.372620,568.505249 425.858215,568.316833 
z"/>
<path fill="#054C8F" opacity="1.000000" stroke="none" 
	d="
M408.042114,578.700806 
	C407.848755,578.781128 407.552155,578.616943 407.134094,578.224365 
	C407.321411,578.149414 407.630157,578.302856 408.042114,578.700806 
z"/>
<path fill="#1D1E1E" opacity="1.000000" stroke="none" 
	d="
M400.967773,498.939697 
	C396.730804,500.259125 394.164337,498.108276 391.807159,494.894287 
	C388.761047,490.740845 386.577301,490.744263 383.097534,494.564941 
	C381.065765,496.795807 379.267700,499.432251 375.564636,497.949310 
	C378.241394,495.558685 380.665497,493.287079 383.204834,491.152527 
	C386.471252,488.406891 389.989441,488.990021 393.084961,492.661133 
	C398.241516,498.776489 398.854462,498.786804 403.560333,492.462463 
	C406.173492,488.950592 409.072021,487.172668 412.719269,490.743164 
	C411.856659,491.154358 411.379303,491.207825 410.540894,491.164612 
	C407.109161,493.691864 404.038483,496.315765 400.967773,498.939697 
z"/>
<path fill="#33D6E8" opacity="1.000000" stroke="none" 
	d="
M410.901917,491.261292 
	C411.379303,491.207825 411.856659,491.154358 412.690796,491.152649 
	C415.221039,493.401550 417.394470,495.598724 419.880920,497.942780 
	C420.804169,498.601959 421.414429,499.114197 422.269836,499.812103 
	C422.966309,500.512268 423.417694,501.026794 423.923615,501.795105 
	C421.123383,500.311310 418.230896,498.631836 415.428192,496.813904 
	C413.808777,495.763489 412.334167,494.489777 410.495026,492.977722 
	C410.431091,492.179657 410.666504,491.720459 410.901917,491.261292 
z"/>
<path fill="#DADADA" opacity="1.000000" stroke="none" 
	d="
M410.540894,491.164612 
	C410.666504,491.720459 410.431091,492.179657 410.168701,492.897217 
	C410.141693,493.155548 410.101685,493.130524 409.844666,493.174683 
	C409.412598,493.502747 409.237518,493.786621 409.062439,494.070526 
	C409.062469,494.070526 409.002441,493.998779 408.781311,494.093811 
	C408.388824,494.476776 408.217468,494.764740 408.046082,495.052673 
	C408.046082,495.052673 408.002136,494.998779 407.761719,495.068298 
	C407.357544,495.437592 407.193817,495.737396 407.030090,496.037231 
	C407.030090,496.037231 407.007904,495.994110 406.694794,496.097290 
	C405.885895,496.929657 405.390106,497.658813 404.894287,498.387970 
	C403.478973,499.478851 402.063629,500.569702 400.352539,501.670715 
	C400.286194,500.948883 400.515594,500.216888 400.856384,499.212280 
	C404.038483,496.315765 407.109161,493.691864 410.540894,491.164612 
z"/>
<path fill="#DADADA" opacity="1.000000" stroke="none" 
	d="
M398.424561,502.019226 
	C397.734100,502.667999 396.735596,503.256287 395.417938,503.827057 
	C396.104675,503.192596 397.110565,502.575653 398.424561,502.019226 
z"/>
<path fill="#2C93CB" opacity="1.000000" stroke="none" 
	d="
M393.861023,504.803284 
	C393.548737,505.306061 392.917572,505.692078 391.902466,506.027466 
	C391.595123,505.774139 391.671661,505.571442 392.158142,505.136597 
	C392.568085,504.904419 392.863220,504.671814 392.863220,504.671814 
	C393.089539,504.676727 393.315857,504.681610 393.861023,504.803284 
z"/>
<path fill="#DADADA" opacity="1.000000" stroke="none" 
	d="
M392.775940,504.573608 
	C392.863220,504.671814 392.568085,504.904419 392.382751,504.901642 
	C392.210510,504.579742 392.374268,504.438568 392.775940,504.573608 
z"/>
<path fill="#047FD6" opacity="1.000000" stroke="none" 
	d="
M450.242432,542.003967 
	C450.096771,541.832886 450.222107,541.550720 450.605469,541.150879 
	C450.772644,541.326965 450.655945,541.613586 450.242432,542.003967 
z"/>
<path fill="#33D6E8" opacity="1.000000" stroke="none" 
	d="
M425.041718,502.640381 
	C424.733368,502.816162 424.389893,502.707520 424.003052,502.316193 
	C424.308685,502.140961 424.657654,502.248444 425.041718,502.640381 
z"/>
<path fill="#33D6E8" opacity="1.000000" stroke="none" 
	d="
M405.219910,498.237488 
	C405.390106,497.658813 405.885895,496.929657 406.713867,496.113068 
	C407.033081,496.371674 407.020142,496.717712 406.944885,497.322449 
	C406.436920,497.749756 405.991241,497.918365 405.219910,498.237488 
z"/>
<path fill="#33D6E8" opacity="1.000000" stroke="none" 
	d="
M407.309326,496.014374 
	C407.193817,495.737396 407.357544,495.437592 407.785889,495.094238 
	C407.896545,495.364319 407.742554,495.677917 407.309326,496.014374 
z"/>
<path fill="#33D6E8" opacity="1.000000" stroke="none" 
	d="
M408.329163,495.039825 
	C408.217468,494.764740 408.388824,494.476776 408.814148,494.127777 
	C408.916168,494.386810 408.764191,494.706879 408.329163,495.039825 
z"/>
<path fill="#33D6E8" opacity="1.000000" stroke="none" 
	d="
M409.345154,494.056885 
	C409.237518,493.786621 409.412598,493.502747 409.837219,493.152222 
	C409.933777,493.404785 409.780823,493.723999 409.345154,494.056885 
z"/>
</svg>