<svg version="1.1" id="Layer_1" xmlns="http://www.w3.org/2000/svg" xmlns:xlink="http://www.w3.org/1999/xlink" x="0px" y="0px"
	 width="100%" viewBox="0 0 768 446" enable-background="new 0 0 768 446" xml:space="preserve">
<path fill="#F2F2F2" opacity="1.000000" stroke="none" 
	d="
M769.000000,21.000000 
	C769.000000,130.021439 769.000000,239.042862 768.531372,348.538879 
	C741.457031,348.996429 714.851257,348.979431 688.177734,348.500610 
	C688.099548,340.232727 688.080872,332.426605 688.080078,324.620514 
	C688.076660,289.409454 688.080505,254.198410 688.074768,218.987350 
	C688.074280,215.986160 688.452942,212.718369 683.565308,212.338165 
	C679.955200,212.208252 676.803223,212.174072 673.651062,212.166016 
	C648.102417,212.100739 622.553833,212.040344 596.997925,211.511200 
	C596.988708,149.786224 597.048645,88.528343 596.870361,27.271156 
	C596.855713,22.246376 598.079956,20.861710 603.205078,20.879812 
	C658.469543,21.075018 713.734863,21.000652 769.000000,21.000000 
z"/>
<path fill="#DADADA" opacity="1.000000" stroke="none" 
	d="
M769.000000,20.541931 
	C713.734863,21.000652 658.469543,21.075018 603.205078,20.879812 
	C598.079956,20.861710 596.855713,22.246376 596.870361,27.271156 
	C597.048645,88.528343 596.988708,149.786224 596.543091,211.580353 
	C592.723511,212.051636 589.351440,211.986496 585.978943,211.458420 
	C585.979187,149.501175 585.934692,88.006744 586.075623,26.512747 
	C586.085693,22.116907 584.918701,20.898415 580.490173,20.905519 
	C498.831238,21.036587 417.171906,21.035269 335.512939,20.908089 
	C331.135376,20.901272 329.880829,22.033220 329.891693,26.479473 
	C330.042603,88.306755 330.002869,150.134506 329.554504,212.029358 
	C325.725616,212.035339 322.351990,211.974106 318.978699,211.449677 
	C318.980194,149.855072 318.981903,88.723656 318.981628,27.592243 
	C318.981598,21.009756 318.976196,21.002880 312.579041,21.002754 
	C231.625671,21.001167 150.672287,21.001375 69.718910,21.002323 
	C63.001144,21.002401 62.997154,21.006435 62.997097,27.771151 
	C62.996239,132.877274 62.996487,237.983414 62.996597,343.089539 
	C62.996597,344.088959 63.091011,345.098694 62.981781,346.085938 
	C62.631199,349.254639 64.201256,350.112427 67.110138,350.016418 
	C71.935555,349.857178 76.769745,349.963898 81.701828,350.407166 
	C81.736885,353.917023 81.670372,356.978302 81.160217,360.041016 
	C76.399971,360.035217 72.070122,360.234192 67.770790,359.957977 
	C64.086266,359.721283 62.872288,360.954254 62.913765,364.721252 
	C63.094711,381.155792 62.992241,397.593414 62.548843,414.113983 
	C58.517059,414.555511 54.301991,413.818268 51.446396,415.454132 
	C36.662197,423.923401 22.225504,432.999268 7.306856,441.960876 
	C6.630697,443.705414 6.315349,445.352722 6.000000,447.000000 
	C4.334755,447.000000 2.669511,447.000000 1.057394,447.000000 
	C1.057394,298.333313 1.057394,149.666641 1.057394,1.000000 
	C21.430754,1.000000 41.746719,1.000000 62.530144,1.455151 
	C63.096886,11.039472 61.946800,9.984476 70.872360,9.986972 
	C150.586914,10.009263 230.301468,9.999968 310.016022,9.999952 
	C318.948975,9.999950 318.948975,9.999897 319.000000,1.000000 
	C322.361298,1.000000 325.722565,1.000000 329.538147,1.455199 
	C330.080933,11.052683 328.967224,9.984229 337.867920,9.986756 
	C417.583069,10.009393 497.298218,9.999969 577.013367,9.999953 
	C585.944031,9.999951 585.944031,9.999894 586.000000,1.000000 
	C589.361267,1.000000 592.722595,1.000000 596.536316,1.455228 
	C597.070557,11.051098 595.975159,9.982238 604.854553,9.986571 
	C659.569702,10.013269 714.284851,9.999988 769.000000,10.000000 
	C769.000000,13.361287 769.000000,16.722574 769.000000,20.541931 
z"/>
<path fill="#39374E" opacity="1.000000" stroke="none" 
	d="
M533.000000,447.000000 
	C438.979095,447.000000 344.958221,447.000000 250.468353,446.570557 
	C249.991989,444.422760 249.984558,442.704437 249.985214,440.520752 
	C250.289200,430.964752 250.585129,421.874054 250.927872,412.334473 
	C251.336044,404.591187 251.697388,397.296814 252.439255,389.951111 
	C256.026886,389.272095 259.272888,387.958771 262.434235,388.138031 
	C274.647705,388.830566 286.821808,390.206451 299.033905,390.937866 
	C313.921356,391.829498 328.826324,392.572540 343.734528,392.940247 
	C366.160980,393.493378 388.596222,393.852600 411.028961,393.928894 
	C424.637146,393.975189 438.248535,393.363739 451.856873,392.989960 
	C462.304932,392.703033 472.756165,392.444214 483.195190,391.946198 
	C489.961853,391.623352 496.700958,390.740356 503.466858,390.379181 
	C514.308472,389.800476 525.162048,389.446411 536.097290,389.205627 
	C536.322388,389.703888 536.545959,389.893616 536.858154,390.430939 
	C536.549744,397.332062 536.237732,403.785309 535.910583,410.644287 
	C535.263611,420.366669 534.631836,429.683350 533.838989,439.364685 
	C533.451965,442.152924 533.225952,444.576447 533.000000,447.000000 
z"/>
<path fill="#F1F1F2" opacity="1.000000" stroke="none" 
	d="
M769.000000,361.000000 
	C769.000000,389.666656 769.000000,418.333344 769.000000,447.000000 
	C767.314087,447.000000 765.656555,447.000000 763.469849,446.552246 
	C761.978577,442.557007 765.608337,437.270844 758.852234,435.564331 
	C742.491638,427.099243 726.360535,418.855652 710.141724,410.788330 
	C708.013000,409.729523 705.433044,409.066681 703.065918,409.077118 
	C678.096680,409.187042 653.128113,409.470978 628.099243,409.262146 
	C628.044373,403.215210 628.049683,397.613068 628.519653,392.006897 
	C647.320068,392.359161 665.655701,392.715454 684.394287,393.119873 
	C685.890015,391.240936 687.838867,389.352661 687.928284,387.380035 
	C688.325867,378.612335 688.190857,369.820496 688.701416,361.026245 
	C715.769592,361.010101 742.384766,361.005035 769.000000,361.000000 
z"/>
<path fill="#F2F2F2" opacity="1.000000" stroke="none" 
	d="
M585.531372,1.000000 
	C585.944031,9.999894 585.944031,9.999951 577.013367,9.999953 
	C497.298218,9.999969 417.583069,10.009393 337.867920,9.986756 
	C328.967224,9.984229 330.080933,11.052683 329.996216,1.455199 
	C415.020905,1.000000 500.041779,1.000000 585.531372,1.000000 
z"/>
<path fill="#F2F2F2" opacity="1.000000" stroke="none" 
	d="
M318.531342,1.000000 
	C318.948975,9.999897 318.948975,9.999950 310.016022,9.999952 
	C230.301468,9.999968 150.586914,10.009263 70.872360,9.986972 
	C61.946800,9.984476 63.096886,11.039472 62.998802,1.455151 
	C148.020889,1.000000 233.041794,1.000000 318.531342,1.000000 
z"/>
<path fill="#49465A" opacity="1.000000" stroke="none" 
	d="
M759.054382,435.840729 
	C765.608337,437.270844 761.978577,442.557007 762.970337,446.552246 
	C686.645752,447.000000 610.291565,447.000000 533.468628,447.000000 
	C533.225952,444.576447 533.451965,442.152924 534.307617,439.364258 
	C565.348389,438.666107 595.758728,438.161743 626.170654,438.041504 
	C668.268982,437.875031 710.368652,438.029938 752.467285,437.904572 
	C754.664978,437.898010 756.858765,436.559235 759.054382,435.840729 
z"/>
<path fill="#F2F2F2" opacity="1.000000" stroke="none" 
	d="
M769.000000,9.508951 
	C714.284851,9.999988 659.569702,10.013269 604.854553,9.986571 
	C595.975159,9.982238 597.070557,11.051098 596.994385,1.455228 
	C654.333313,1.000000 711.666687,1.000000 769.000000,1.000000 
	C769.000000,3.698809 769.000000,6.358356 769.000000,9.508951 
z"/>
<path fill="#49465A" opacity="1.000000" stroke="none" 
	d="
M249.977142,440.986084 
	C249.984558,442.704437 249.991989,444.422760 249.999695,446.570557 
	C168.979111,447.000000 87.958206,447.000000 6.468657,447.000000 
	C6.315349,445.352722 6.630697,443.705414 7.799586,442.002472 
	C56.101986,441.632416 103.550507,441.239716 150.999832,441.030548 
	C183.991684,440.885132 216.984665,440.991943 249.977142,440.986084 
z"/>
<path fill="#DCDCDC" opacity="1.000000" stroke="none" 
	d="
M769.000000,360.539368 
	C742.384766,361.005035 715.769592,361.010101 688.629028,360.567474 
	C688.150940,356.400665 688.198181,352.681549 688.245483,348.962402 
	C714.851257,348.979431 741.457031,348.996429 768.531372,349.006714 
	C769.000000,352.692902 769.000000,356.385834 769.000000,360.539368 
z"/>
<path fill="#66627D" opacity="1.000000" stroke="none" 
	d="
M683.991394,393.071747 
	C665.655701,392.715454 647.320068,392.359161 628.048096,392.004211 
	C611.009888,391.683594 594.907959,391.361603 578.405029,390.965485 
	C564.287598,390.588593 550.571106,390.285828 536.854614,389.983032 
	C536.545959,389.893616 536.322388,389.703888 536.114258,388.831238 
	C536.029663,387.499054 536.014832,386.749542 536.001831,385.616272 
	C535.085083,380.111115 531.752686,376.971802 526.571594,377.059540 
	C519.983521,377.171112 513.402649,377.710846 506.628418,378.043732 
	C506.438171,378.021423 506.063812,377.939850 506.055298,377.550262 
	C505.666962,375.149200 505.287201,373.137756 505.357208,371.114014 
	C509.110138,371.383057 512.409058,371.832733 515.717224,371.917145 
	C531.351074,372.316040 546.987793,372.605164 562.622986,372.952393 
	C576.925598,373.269989 591.226685,373.661346 605.530151,373.931396 
	C626.830933,374.333618 648.137451,374.512482 669.431702,375.125366 
	C674.277893,375.264832 675.161072,373.556152 675.148071,369.166595 
	C675.009399,322.504333 674.970825,275.841095 675.189880,229.179459 
	C675.214294,223.981110 673.715393,222.872635 668.757446,222.888885 
	C614.596069,223.066406 560.433777,222.981064 506.271790,223.017960 
	C496.844391,223.024384 498.030640,221.778336 498.006958,231.183014 
	C497.912170,268.843323 497.875610,306.503815 497.589539,343.867981 
	C494.459595,333.135651 491.557617,322.699554 488.689178,311.779785 
	C488.733398,280.635284 488.736603,249.974411 488.760925,219.313538 
	C488.765991,212.930130 489.535126,212.190460 496.014099,212.170609 
	C503.012726,212.149170 510.011566,212.183914 517.010193,212.161896 
	C539.999939,212.089584 562.989624,212.002640 585.979370,211.921341 
	C589.351440,211.986496 592.723511,212.051636 596.550415,212.047638 
	C622.553833,212.040344 648.102417,212.100739 673.651062,212.166016 
	C676.803223,212.174072 679.955200,212.208252 683.562256,212.776154 
	C684.008606,273.238586 684.000000,333.155182 683.991394,393.071747 
z"/>
<path fill="#5C5872" opacity="1.000000" stroke="none" 
	d="
M684.394287,393.119873 
	C684.000000,333.155182 684.008606,273.238586 684.020203,212.884018 
	C688.452942,212.718369 688.074280,215.986160 688.074768,218.987350 
	C688.080505,254.198410 688.076660,289.409454 688.080078,324.620514 
	C688.080872,332.426605 688.099548,340.232727 688.177734,348.500610 
	C688.198181,352.681549 688.150940,356.400665 688.176025,360.578613 
	C688.190857,369.820496 688.325867,378.612335 687.928284,387.380035 
	C687.838867,389.352661 685.890015,391.240936 684.394287,393.119873 
z"/>
<path fill="#F2F2F2" opacity="1.000000" stroke="none" 
	d="
M81.600243,349.958588 
	C76.769745,349.963898 71.935555,349.857178 67.110138,350.016418 
	C64.201256,350.112427 62.631199,349.254639 62.981781,346.085938 
	C63.091011,345.098694 62.996597,344.088959 62.996597,343.089539 
	C62.996487,237.983414 62.996239,132.877274 62.997097,27.771151 
	C62.997154,21.006435 63.001144,21.002401 69.718910,21.002323 
	C150.672287,21.001375 231.625671,21.001167 312.579041,21.002754 
	C318.976196,21.002880 318.981598,21.009756 318.981628,27.592243 
	C318.981903,88.723656 318.980194,149.855072 318.518005,211.534668 
	C308.754730,212.105927 299.452301,212.173782 290.150360,212.131744 
	C285.999725,212.112976 284.094910,213.972717 284.106171,218.168320 
	C284.191620,250.062241 284.215179,281.956329 284.182983,314.307037 
	C283.155518,320.536285 282.203094,326.308838 281.220032,331.608765 
	C281.175049,294.329590 281.161224,257.523041 281.145935,220.716476 
	C281.142517,212.501846 280.820404,212.166595 272.798004,212.166306 
	C212.341660,212.164032 151.885300,212.162643 91.428955,212.176743 
	C89.605591,212.177155 87.782249,212.350418 85.595352,212.402985 
	C81.457283,213.323059 81.860802,216.341141 81.861023,219.176331 
	C81.864288,260.780518 81.866722,302.384735 81.851822,343.988922 
	C81.851112,345.978851 81.687820,347.968689 81.600243,349.958588 
z"/>
<path fill="#F2F2F2" opacity="1.000000" stroke="none" 
	d="
M585.978943,211.458420 
	C562.989624,212.002640 539.999939,212.089584 517.010193,212.161896 
	C510.011566,212.183914 503.012726,212.149170 496.014099,212.170609 
	C489.535126,212.190460 488.765991,212.930130 488.760925,219.313538 
	C488.736603,249.974411 488.733398,280.635284 488.496704,311.476807 
	C486.747589,308.413818 485.224487,305.170227 483.743073,301.462708 
	C483.795929,273.779816 483.818481,246.560867 483.809540,219.341919 
	C483.807556,213.302917 482.628540,212.209213 476.476746,212.139709 
	C473.327271,212.104126 470.178406,212.017334 466.987549,211.529480 
	C464.501648,187.682053 453.836365,167.699539 439.804047,149.543625 
	C436.285736,144.991333 429.667938,141.897034 423.871887,140.236938 
	C411.617920,136.727142 398.938324,134.728119 386.485626,131.880508 
	C374.085327,129.044891 364.355560,133.390900 356.213654,142.486343 
	C352.332092,146.822479 348.666748,151.378845 344.522461,155.447357 
	C336.430176,163.391678 333.524353,172.207230 338.747711,182.873703 
	C339.173889,183.743958 339.204559,184.807877 339.079681,186.001251 
	C335.128815,194.681122 335.436127,203.421448 336.453308,212.212219 
	C334.019928,212.108276 332.014832,212.035202 330.009705,211.962143 
	C330.002869,150.134506 330.042603,88.306755 329.891693,26.479473 
	C329.880829,22.033220 331.135376,20.901272 335.512939,20.908089 
	C417.171906,21.035269 498.831238,21.036587 580.490173,20.905519 
	C584.918701,20.898415 586.085693,22.116907 586.075623,26.512747 
	C585.934692,88.006744 585.979187,149.501175 585.978943,211.458420 
z"/>
<path fill="#524F64" opacity="1.000000" stroke="none" 
	d="
M249.985214,440.520752 
	C216.984665,440.991943 183.991684,440.885132 150.999832,441.030548 
	C103.550507,441.239716 56.101986,441.632416 8.160397,441.905212 
	C22.225504,432.999268 36.662197,423.923401 51.446396,415.454132 
	C54.301991,413.818268 58.517059,414.555511 63.010262,414.208130 
	C91.243263,414.076202 118.571022,413.934143 145.925293,414.233826 
	C146.148819,420.906433 147.217102,421.726562 153.456085,420.930481 
	C157.047592,420.472229 160.673019,420.091187 164.288071,420.042877 
	C173.577042,419.918793 182.868774,420.000549 192.159393,419.998535 
	C199.664413,419.996918 199.664413,419.995972 200.682114,412.743652 
	C217.698563,412.869354 234.289795,412.826385 250.881042,412.783386 
	C250.585129,421.874054 250.289200,430.964752 249.985214,440.520752 
z"/>
<path fill="#F1F1F1" opacity="1.000000" stroke="none" 
	d="
M145.898773,413.792084 
	C118.571022,413.934143 91.243263,414.076202 63.454094,414.124084 
	C62.992241,397.593414 63.094711,381.155792 62.913765,364.721252 
	C62.872288,360.954254 64.086266,359.721283 67.770790,359.957977 
	C72.070122,360.234192 76.399971,360.035217 81.255257,360.498718 
	C81.819672,369.902649 81.847511,378.850311 81.869911,387.797974 
	C81.877014,390.637878 82.112007,393.287598 86.469849,393.155823 
	C107.575264,392.837433 128.218826,392.432770 148.874344,392.494446 
	C148.888000,395.432312 148.968033,397.906830 148.874557,400.374756 
	C148.698578,405.019409 150.205078,410.057892 145.898773,413.792084 
z"/>
<path fill="#696580" opacity="1.000000" stroke="none" 
	d="
M329.554504,212.029358 
	C332.014832,212.035202 334.019928,212.108276 336.491150,212.581482 
	C337.969452,216.314758 338.981628,219.647903 339.525879,222.988541 
	C326.613861,222.998047 314.167755,223.127411 301.727051,222.924133 
	C298.013916,222.863464 296.879639,223.987137 296.921112,227.715012 
	C297.107483,244.470978 297.016418,261.230042 296.880005,278.291870 
	C291.325928,283.886353 288.309570,290.414337 286.965332,297.759583 
	C285.986298,303.109161 285.155121,308.485779 284.258026,313.850342 
	C284.215179,281.956329 284.191620,250.062241 284.106171,218.168320 
	C284.094910,213.972717 285.999725,212.112976 290.150360,212.131744 
	C299.452301,212.173782 308.754730,212.105927 318.517639,211.997864 
	C322.351990,211.974106 325.725616,212.035339 329.554504,212.029358 
z"/>
<path fill="#5C5872" opacity="1.000000" stroke="none" 
	d="
M86.007988,393.069611 
	C82.112007,393.287598 81.877014,390.637878 81.869911,387.797974 
	C81.847511,378.850311 81.819672,369.902649 81.698891,360.497314 
	C81.670372,356.978302 81.736885,353.917023 81.701828,350.407166 
	C81.687820,347.968689 81.851112,345.978851 81.851822,343.988922 
	C81.866722,302.384735 81.864288,260.780518 81.861023,219.176331 
	C81.860802,216.341141 81.457283,213.323059 85.604324,212.841095 
	C85.987228,273.236084 85.997612,333.152863 86.007988,393.069611 
z"/>
<path fill="#403D56" opacity="1.000000" stroke="none" 
	d="
M339.418976,185.781799 
	C339.204559,184.807877 339.173889,183.743958 338.747711,182.873703 
	C333.524353,172.207230 336.430176,163.391678 344.522461,155.447357 
	C348.666748,151.378845 352.332092,146.822479 356.213654,142.486343 
	C364.355560,133.390900 374.085327,129.044891 386.485626,131.880508 
	C398.938324,134.728119 411.617920,136.727142 423.871887,140.236938 
	C429.667938,141.897034 436.285736,144.991333 439.804047,149.543625 
	C453.836365,167.699539 464.501648,187.682053 466.965179,211.973083 
	C466.698792,216.239044 466.413025,219.637192 466.036926,223.404388 
	C463.704559,228.910156 461.049774,233.914032 459.341248,239.222458 
	C457.759216,244.137817 456.003937,249.480453 456.429688,254.454803 
	C457.228516,263.788635 459.546600,272.992401 461.298645,282.448456 
	C461.488251,282.950104 461.712738,283.080688 462.034058,283.013977 
	C462.030334,282.989624 461.988708,282.963440 461.894287,283.377563 
	C463.324097,290.410126 464.720428,297.061157 466.397339,303.640686 
	C470.832489,321.042236 466.981384,336.292084 455.516510,350.095184 
	C444.125214,363.809723 430.276886,373.977264 413.686768,381.125732 
	C409.234863,382.622467 405.153992,384.099365 401.073120,385.576263 
	C401.129913,386.074310 401.186707,386.572327 401.243500,387.070343 
	C432.484283,385.855499 463.726379,384.672516 494.964264,383.387207 
	C499.076050,383.218018 503.166260,382.525604 507.705811,382.061646 
	C511.429779,381.962952 514.820862,382.372223 517.977051,381.691711 
	C524.797180,380.221100 530.996460,380.332367 536.000000,386.000000 
	C536.014832,386.749542 536.029663,387.499054 536.027588,388.622986 
	C525.162048,389.446411 514.308472,389.800476 503.466858,390.379181 
	C496.700958,390.740356 489.961853,391.623352 483.195190,391.946198 
	C472.756165,392.444214 462.304932,392.703033 451.856873,392.989960 
	C438.248535,393.363739 424.637146,393.975189 411.028961,393.928894 
	C388.596222,393.852600 366.160980,393.493378 343.734528,392.940247 
	C328.826324,392.572540 313.921356,391.829498 299.033905,390.937866 
	C286.821808,390.206451 274.647705,388.830566 262.434235,388.138031 
	C259.272888,387.958771 256.026886,389.272095 252.348907,389.771271 
	C251.878021,389.642792 251.845917,389.241577 251.912567,388.878723 
	C252.315811,387.342896 252.652435,386.169983 253.305023,384.843750 
	C256.897369,383.451477 260.096405,381.890259 263.475525,381.079498 
	C266.002472,380.473267 268.761627,380.834869 271.798248,380.876556 
	C276.797668,381.378418 281.409149,381.935150 286.035980,382.133331 
	C317.676819,383.488556 349.321899,384.745667 380.962463,386.107788 
	C384.166321,386.245728 386.576843,385.713196 387.290405,381.777527 
	C393.897583,368.197540 397.727448,352.532684 396.229675,345.052185 
	C387.007904,357.542755 377.629211,369.482269 362.358154,374.414001 
	C347.306549,379.274780 332.750366,378.277222 318.220001,370.563232 
	C330.983429,364.376465 336.629181,354.047913 337.079193,341.058777 
	C337.411377,331.469849 335.965057,321.826202 336.156006,312.223755 
	C336.423370,298.781860 337.476379,285.355560 338.418762,271.633118 
	C342.122070,259.622650 345.599945,247.901657 349.349091,235.948059 
	C350.928650,232.305389 352.428802,228.954514 353.503540,225.472336 
	C355.461121,219.129486 355.845673,212.360260 350.744965,207.675690 
	C344.750488,202.170349 341.599731,195.776901 340.428864,188.024582 
	C340.310944,187.243958 339.765839,186.527847 339.418976,185.781799 
z"/>
<path fill="#524F65" opacity="1.000000" stroke="none" 
	d="
M758.852234,435.564331 
	C756.858765,436.559235 754.664978,437.898010 752.467285,437.904572 
	C710.368652,438.029938 668.268982,437.875031 626.170654,438.041504 
	C595.758728,438.161743 565.348389,438.666107 534.468628,438.999573 
	C534.631836,429.683350 535.263611,420.366669 536.384277,410.655365 
	C550.869934,410.089630 564.866760,409.918549 578.889099,410.155334 
	C578.841003,411.053284 578.894409,411.610931 578.674927,412.023407 
	C574.816162,419.276184 576.402466,421.979462 584.584045,421.990662 
	C596.054565,422.006378 607.525146,421.998627 618.995667,422.005951 
	C629.270264,422.012512 629.264221,422.016205 628.069214,411.695709 
	C627.993896,411.044983 628.124573,410.370422 628.159424,409.706909 
	C653.128113,409.470978 678.096680,409.187042 703.065918,409.077118 
	C705.433044,409.066681 708.013000,409.729523 710.141724,410.788330 
	C726.360535,418.855652 742.491638,427.099243 758.852234,435.564331 
z"/>
<path fill="#F0F0F1" opacity="1.000000" stroke="none" 
	d="
M251.845917,389.241577 
	C251.845917,389.241577 251.878021,389.642792 251.968384,389.822632 
	C251.697388,397.296814 251.336044,404.591187 250.927872,412.334473 
	C234.289795,412.826385 217.698563,412.869354 200.700012,412.346802 
	C199.527893,410.501923 198.134033,409.236237 198.105942,407.940979 
	C197.976868,401.985962 198.229126,396.022736 198.784180,390.154388 
	C216.764511,389.911407 234.305206,389.576477 251.845917,389.241577 
z"/>
<path fill="#F0F0F1" opacity="1.000000" stroke="none" 
	d="
M578.863647,409.747498 
	C564.866760,409.918549 550.869934,410.089630 536.399414,410.249634 
	C536.237732,403.785309 536.549744,397.332062 536.858154,390.430939 
	C550.571106,390.285828 564.287598,390.588593 578.400269,391.431000 
	C578.818848,397.896271 578.841248,403.821869 578.863647,409.747498 
z"/>
<path fill="#3F3D55" opacity="1.000000" stroke="none" 
	d="
M578.889160,410.155334 
	C578.841248,403.821869 578.818848,397.896271 578.801270,391.505127 
	C594.907959,391.361603 611.009888,391.683594 627.583374,392.008240 
	C628.049683,397.613068 628.044373,403.215210 628.099243,409.262146 
	C628.124573,410.370422 627.993896,411.044983 628.069214,411.695709 
	C629.264221,422.016205 629.270264,422.012512 618.995667,422.005951 
	C607.525146,421.998627 596.054565,422.006378 584.584045,421.990662 
	C576.402466,421.979462 574.816162,419.276184 578.674927,412.023407 
	C578.894409,411.610931 578.841003,411.053284 578.889160,410.155334 
z"/>
<path fill="#39374D" opacity="1.000000" stroke="none" 
	d="
M497.817474,344.164215 
	C497.875610,306.503815 497.912170,268.843323 498.006958,231.183014 
	C498.030640,221.778336 496.844391,223.024384 506.271790,223.017960 
	C560.433777,222.981064 614.596069,223.066406 668.757446,222.888885 
	C673.715393,222.872635 675.214294,223.981110 675.189880,229.179459 
	C674.970825,275.841095 675.009399,322.504333 675.148071,369.166595 
	C675.161072,373.556152 674.277893,375.264832 669.431702,375.125366 
	C648.137451,374.512482 626.830933,374.333618 605.530151,373.931396 
	C591.226685,373.661346 576.925598,373.269989 562.622986,372.952393 
	C546.987793,372.605164 531.351074,372.316040 515.717224,371.917145 
	C512.409058,371.832733 509.110138,371.383057 505.141846,370.802979 
	C502.256989,361.724213 500.037231,352.944214 497.817474,344.164215 
M546.880005,323.526581 
	C558.552368,343.843506 580.054199,353.039612 601.105103,347.537933 
	C620.300476,342.521210 640.148254,321.534698 636.152527,294.666290 
	C632.413269,269.521851 608.567383,249.155609 580.456055,254.323074 
	C551.304443,259.681793 530.918457,292.488129 546.880005,323.526581 
z"/>
<path fill="#FE6584" opacity="1.000000" stroke="none" 
	d="
M497.589539,343.867981 
	C500.037231,352.944214 502.256989,361.724213 504.692078,370.815247 
	C505.287201,373.137756 505.666962,375.149200 505.752869,377.844666 
	C486.686584,379.685028 467.923431,381.041046 449.137909,381.916626 
	C439.203369,382.379700 429.229523,382.049805 419.274261,381.970184 
	C417.533234,381.956238 415.796478,381.407593 414.057770,381.105927 
	C430.276886,373.977264 444.125214,363.809723 455.516510,350.095184 
	C466.981384,336.292084 470.832489,321.042236 466.397339,303.640686 
	C464.720428,297.061157 463.324097,290.410126 462.264130,283.346985 
	C466.184570,284.937500 469.640808,286.972748 473.247559,289.299866 
	C476.832550,293.703400 480.266937,297.815033 483.701355,301.926636 
	C485.224487,305.170227 486.747589,308.413818 488.463196,311.960419 
	C491.557617,322.699554 494.459595,333.135651 497.589539,343.867981 
z"/>
<path fill="#E15A76" opacity="1.000000" stroke="none" 
	d="
M413.686768,381.125732 
	C415.796478,381.407593 417.533234,381.956238 419.274261,381.970184 
	C429.229523,382.049805 439.203369,382.379700 449.137909,381.916626 
	C467.923431,381.041046 486.686584,379.685028 505.761414,378.234253 
	C506.063812,377.939850 506.438171,378.021423 506.652649,378.445007 
	C507.000244,379.937561 507.133362,381.006500 507.266479,382.075500 
	C503.166260,382.525604 499.076050,383.218018 494.964264,383.387207 
	C463.726379,384.672516 432.484283,385.855499 401.243500,387.070343 
	C401.186707,386.572327 401.129913,386.074310 401.073120,385.576263 
	C405.153992,384.099365 409.234863,382.622467 413.686768,381.125732 
z"/>
<path fill="#5C5872" opacity="1.000000" stroke="none" 
	d="
M507.705811,382.061615 
	C507.133362,381.006500 507.000244,379.937561 506.842896,378.467316 
	C513.402649,377.710846 519.983521,377.171112 526.571594,377.059540 
	C531.752686,376.971802 535.085083,380.111115 536.001831,385.616272 
	C530.996460,380.332367 524.797180,380.221100 517.977051,381.691711 
	C514.820862,382.372223 511.429779,381.962952 507.705811,382.061615 
z"/>
<path fill="#66627D" opacity="1.000000" stroke="none" 
	d="
M251.912567,388.878723 
	C234.305206,389.576477 216.764511,389.911407 198.338333,390.160736 
	C195.327866,390.362122 193.208649,390.840820 191.076950,390.905060 
	C177.006912,391.329193 162.934219,391.664124 148.862381,392.028137 
	C128.218826,392.432770 107.575264,392.837433 86.469849,393.155823 
	C85.997612,333.152863 85.987228,273.236084 85.967873,212.881226 
	C87.782249,212.350418 89.605591,212.177155 91.428955,212.176743 
	C151.885300,212.162643 212.341660,212.164032 272.798004,212.166306 
	C280.820404,212.166595 281.142517,212.501846 281.145935,220.716476 
	C281.161224,257.523041 281.175049,294.329590 281.141296,331.981903 
	C278.088562,339.227386 275.083984,345.627106 272.041992,351.559143 
	C272.003571,310.093719 271.979797,269.095917 272.045197,228.098267 
	C272.050354,224.865173 271.861786,222.904816 267.638153,222.914581 
	C211.474869,223.044632 155.311127,223.023743 99.147629,222.945450 
	C95.861855,222.940872 94.864471,224.024734 94.869888,227.264511 
	C94.949814,275.095123 94.949280,322.925903 94.870354,370.756500 
	C94.865013,373.989929 95.841835,375.209320 99.149162,375.066437 
	C109.446350,374.621552 119.751617,374.344788 130.055862,374.086548 
	C145.024155,373.711456 159.994324,373.411224 174.963608,373.075745 
	C189.766357,372.743988 204.568893,372.403900 219.371704,372.075348 
	C236.006882,371.706055 252.642258,371.345551 269.476196,371.290710 
	C269.931152,373.323578 270.187500,375.046906 269.945709,376.839172 
	C266.479095,376.942200 263.501862,376.844360 260.544128,377.040588 
	C255.832397,377.353119 252.703354,380.750397 252.989044,384.997040 
	C252.652435,386.169983 252.315811,387.342896 251.912567,388.878723 
z"/>
<path fill="#FE6584" opacity="1.000000" stroke="none" 
	d="
M270.443817,376.770233 
	C270.187500,375.046906 269.931152,373.323578 269.459839,370.832153 
	C270.189667,364.051666 271.134521,358.039215 272.079407,352.026794 
	C275.083984,345.627106 278.088562,339.227386 281.171875,332.454529 
	C282.203094,326.308838 283.155518,320.536285 284.182983,314.307037 
	C285.155121,308.485779 285.986298,303.109161 286.965332,297.759583 
	C288.309570,290.414337 291.325928,283.886353 297.197571,278.174316 
	C310.051483,268.023071 323.991882,269.065643 338.193298,271.922607 
	C337.476379,285.355560 336.423370,298.781860 336.156006,312.223755 
	C335.965057,321.826202 337.411377,331.469849 337.079193,341.058777 
	C336.629181,354.047913 330.983429,364.376465 318.220001,370.563232 
	C332.750366,378.277222 347.306549,379.274780 362.358154,374.414001 
	C377.629211,369.482269 387.007904,357.542755 396.229675,345.052185 
	C397.727448,352.532684 393.897583,368.197540 386.818848,381.773926 
	C366.859924,381.664246 347.606750,381.697266 328.391571,380.859802 
	C309.252136,380.025696 290.150787,378.318115 270.889648,376.926758 
	C270.746582,376.859955 270.443817,376.770233 270.443817,376.770233 
z"/>
<path fill="#696683" opacity="1.000000" stroke="none" 
	d="
M483.743042,301.462708 
	C480.266937,297.815033 476.832550,293.703400 473.527893,288.991394 
	C473.781586,267.611938 473.946625,246.832779 473.904999,226.054016 
	C473.902954,225.041153 472.254333,223.542679 471.076721,223.144150 
	C469.585419,222.639465 467.790955,223.030579 466.127258,223.035339 
	C466.413025,219.637192 466.698792,216.239044 467.006897,212.397293 
	C470.178406,212.017334 473.327271,212.104126 476.476746,212.139709 
	C482.628540,212.209213 483.807556,213.302917 483.809540,219.341919 
	C483.818481,246.560867 483.795929,273.779816 483.743042,301.462708 
z"/>
<path fill="#F7BCBC" opacity="1.000000" stroke="none" 
	d="
M339.079681,186.001251 
	C339.765839,186.527847 340.310944,187.243958 340.428864,188.024582 
	C341.599731,195.776901 344.750488,202.170349 350.744965,207.675690 
	C355.845673,212.360260 355.461121,219.129486 353.503540,225.472336 
	C352.428802,228.954514 350.928650,232.305389 349.070709,235.737854 
	C345.678650,231.500519 342.836243,227.240768 339.993835,222.981018 
	C338.981628,219.647903 337.969452,216.314758 336.919434,212.612366 
	C335.436127,203.421448 335.128815,194.681122 339.079681,186.001251 
z"/>
<path fill="#3F3D55" opacity="1.000000" stroke="none" 
	d="
M148.874344,392.494476 
	C162.934219,391.664124 177.006912,391.329193 191.076950,390.905060 
	C193.208649,390.840820 195.327866,390.362122 197.898712,390.068787 
	C198.229126,396.022736 197.976868,401.985962 198.105942,407.940979 
	C198.134033,409.236237 199.527893,410.501923 200.274811,412.178101 
	C199.664413,419.995972 199.664413,419.996918 192.159393,419.998535 
	C182.868774,420.000549 173.577042,419.918793 164.288071,420.042877 
	C160.673019,420.091187 157.047592,420.472229 153.456085,420.930481 
	C147.217102,421.726562 146.148819,420.906433 145.925293,414.233826 
	C150.205078,410.057892 148.698578,405.019409 148.874557,400.374756 
	C148.968033,397.906830 148.888000,395.432312 148.874344,392.494476 
z"/>
<path fill="#4367B2" opacity="1.000000" stroke="none" 
	d="
M339.525879,222.988525 
	C342.836243,227.240768 345.678650,231.500519 348.799469,235.970459 
	C345.599945,247.901657 342.122070,259.622650 338.418732,271.633118 
	C323.991882,269.065643 310.051483,268.023071 297.342987,277.870422 
	C297.016418,261.230042 297.107483,244.470978 296.921112,227.715012 
	C296.879639,223.987137 298.013916,222.863464 301.727051,222.924133 
	C314.167755,223.127411 326.613861,222.998047 339.525879,222.988525 
z"/>
<path fill="#4367B2" opacity="1.000000" stroke="none" 
	d="
M466.036926,223.404388 
	C467.790955,223.030579 469.585419,222.639465 471.076721,223.144150 
	C472.254333,223.542679 473.902954,225.041153 473.904999,226.054016 
	C473.946625,246.832779 473.781586,267.611938 473.377319,288.699493 
	C469.640808,286.972748 466.184570,284.937500 462.358521,282.932861 
	C461.988708,282.963440 462.030334,282.989624 461.973572,282.821045 
	C461.738892,282.433289 461.510925,282.299225 461.232910,282.250275 
	C459.546600,272.992401 457.228516,263.788635 456.429688,254.454803 
	C456.003937,249.480453 457.759216,244.137817 459.341248,239.222458 
	C461.049774,233.914032 463.704559,228.910156 466.036926,223.404388 
z"/>
<path fill="#E15A76" opacity="1.000000" stroke="none" 
	d="
M271.032745,376.993530 
	C290.150787,378.318115 309.252136,380.025696 328.391571,380.859802 
	C347.606750,381.697266 366.859924,381.664246 386.567993,382.016327 
	C386.576843,385.713196 384.166321,386.245728 380.962463,386.107788 
	C349.321899,384.745667 317.676819,383.488556 286.035980,382.133331 
	C281.409149,381.935150 276.797668,381.378418 271.718323,380.506042 
	C271.182587,379.014191 271.107666,378.003845 271.032745,376.993530 
z"/>
<path fill="#5C5872" opacity="1.000000" stroke="none" 
	d="
M270.889648,376.926758 
	C271.107666,378.003845 271.182587,379.014191 271.337463,380.395020 
	C268.761627,380.834869 266.002472,380.473267 263.475525,381.079498 
	C260.096405,381.890259 256.897369,383.451477 253.305023,384.843750 
	C252.703354,380.750397 255.832397,377.353119 260.544128,377.040588 
	C263.501862,376.844360 266.479095,376.942200 269.945709,376.839172 
	C270.443817,376.770233 270.746582,376.859955 270.889648,376.926758 
z"/>
<path fill="#FE6584" opacity="1.000000" stroke="none" 
	d="
M461.298645,282.448456 
	C461.510925,282.299225 461.738892,282.433289 461.977295,282.845398 
	C461.712738,283.080688 461.488251,282.950104 461.298645,282.448456 
z"/>
<path fill="#29BFA6" opacity="1.000000" stroke="none" 
	d="
M546.674072,323.213440 
	C530.918457,292.488129 551.304443,259.681793 580.456055,254.323074 
	C608.567383,249.155609 632.413269,269.521851 636.152527,294.666290 
	C640.148254,321.534698 620.300476,342.521210 601.105103,347.537933 
	C580.054199,353.039612 558.552368,343.843506 546.674072,323.213440 
M606.164490,284.383759 
	C597.702026,291.454834 589.239563,298.525909 580.842773,305.542145 
	C577.677063,302.910004 573.822510,299.204895 569.426025,296.328125 
	C567.940613,295.356171 564.331543,295.648132 563.016235,296.832306 
	C560.665039,298.948914 561.994507,301.466797 564.236145,303.603760 
	C568.895874,308.045746 573.454102,312.610107 577.816040,317.343506 
	C581.353943,321.182739 584.001343,320.997101 586.738708,316.511292 
	C593.247131,305.845734 601.334045,296.850952 612.837891,291.217651 
	C614.442810,290.431763 614.955383,287.415009 615.973633,285.430939 
	C614.049255,284.631866 612.178833,283.603149 610.177185,283.132507 
	C609.206116,282.904144 607.989197,283.721222 606.164490,284.383759 
z"/>
<path fill="#39374D" opacity="1.000000" stroke="none" 
	d="
M272.041992,351.559143 
	C271.134521,358.039215 270.189667,364.051666 269.261169,370.522644 
	C252.642258,371.345551 236.006882,371.706055 219.371704,372.075348 
	C204.568893,372.403900 189.766357,372.743988 174.963608,373.075745 
	C159.994324,373.411224 145.024155,373.711456 130.055862,374.086548 
	C119.751617,374.344788 109.446350,374.621552 99.149162,375.066437 
	C95.841835,375.209320 94.865013,373.989929 94.870354,370.756500 
	C94.949280,322.925903 94.949814,275.095123 94.869888,227.264511 
	C94.864471,224.024734 95.861855,222.940872 99.147629,222.945450 
	C155.311127,223.023743 211.474869,223.044632 267.638153,222.914581 
	C271.861786,222.904816 272.050354,224.865173 272.045197,228.098267 
	C271.979797,269.095917 272.003571,310.093719 272.041992,351.559143 
M199.811737,335.181671 
	C200.075668,334.982788 200.289810,334.739990 201.040695,334.140381 
	C202.552734,332.601807 204.122757,331.115631 205.567932,329.516632 
	C221.093475,312.338593 230.425369,292.585297 230.808762,269.060608 
	C230.866089,265.542572 230.062973,264.073730 226.027283,264.365662 
	C212.242584,265.362793 200.249710,260.735870 189.855453,251.762024 
	C188.019409,250.176880 186.204254,248.567535 184.215622,246.825912 
	C176.671494,254.646744 168.284332,260.439209 157.260757,263.223633 
	C152.659149,263.777832 148.047256,264.832794 143.458969,264.738464 
	C139.281387,264.652618 137.935013,265.815063 138.065079,270.000549 
	C138.845291,295.105652 149.475693,315.634399 167.090485,333.552277 
	C167.287460,333.840668 167.555252,334.027618 168.150711,334.611694 
	C168.617584,334.910828 169.084442,335.209961 169.805527,335.874908 
	C169.998871,336.109650 170.228363,336.301056 170.738052,336.867188 
	C170.955322,337.106384 171.206009,337.302979 171.753448,337.873230 
	C171.985123,338.106110 172.244049,338.303162 172.829971,339.062592 
	C175.072266,340.882660 177.314575,342.702728 179.900085,345.118835 
	C182.468918,348.653381 185.300888,348.877686 188.471802,345.871857 
	C190.941895,343.530365 193.477936,341.258423 196.497238,338.668518 
	C197.134277,337.930237 197.771332,337.191925 198.819672,336.202728 
	C199.088745,336.003693 199.280365,335.746826 199.811737,335.181671 
z"/>
<path fill="#F5FBF9" opacity="1.000000" stroke="none" 
	d="
M606.524048,284.224396 
	C607.989197,283.721222 609.206116,282.904144 610.177185,283.132507 
	C612.178833,283.603149 614.049255,284.631866 615.973633,285.430939 
	C614.955383,287.415009 614.442810,290.431763 612.837891,291.217651 
	C601.334045,296.850952 593.247131,305.845734 586.738708,316.511292 
	C584.001343,320.997101 581.353943,321.182739 577.816040,317.343506 
	C573.454102,312.610107 568.895874,308.045746 564.236145,303.603760 
	C561.994507,301.466797 560.665039,298.948914 563.016235,296.832306 
	C564.331543,295.648132 567.940613,295.356171 569.426025,296.328125 
	C573.822510,299.204895 577.677063,302.910004 580.842773,305.542145 
	C589.239563,298.525909 597.702026,291.454834 606.524048,284.224396 
z"/>
<path fill="#25C7DC" opacity="1.000000" stroke="none" 
	d="
M158.073303,263.254425 
	C168.284332,260.439209 176.671494,254.646744 184.215622,246.825912 
	C186.204254,248.567535 188.019409,250.176880 189.855453,251.762024 
	C200.249710,260.735870 212.242584,265.362793 226.027283,264.365662 
	C230.062973,264.073730 230.866089,265.542572 230.808762,269.060608 
	C230.425369,292.585297 221.093475,312.338593 205.567932,329.516632 
	C204.122757,331.115631 202.552734,332.601807 200.625702,334.172302 
	C200.210724,334.204254 199.958694,333.963928 200.025208,333.632874 
	C204.092773,328.213104 208.093857,323.124420 212.384674,317.869080 
	C215.427948,312.802399 218.181488,307.902344 221.188812,302.775146 
	C221.971191,301.038666 222.499771,299.529388 223.285858,297.767883 
	C225.000458,291.358490 226.457535,285.201294 227.950760,278.622925 
	C228.292282,275.129211 228.778671,272.057129 228.786652,268.983795 
	C228.788879,268.123993 227.448608,266.600067 226.607834,266.513702 
	C223.080994,266.151550 219.509995,266.219269 215.566833,266.076111 
	C211.456070,265.010651 207.733643,263.998657 203.783081,262.742737 
	C201.695847,261.683319 199.836777,260.867859 197.759247,259.790955 
	C193.869720,256.970947 190.198639,254.412354 186.380463,251.569519 
	C185.130554,251.132294 183.662827,250.447159 182.984161,250.912582 
	C178.536407,253.963013 174.259186,257.262085 169.572449,260.612396 
	C165.520523,262.088287 161.822418,263.431732 158.110657,264.521729 
	C158.089096,263.930359 158.081192,263.592377 158.073303,263.254425 
z"/>
<path fill="#207FC6" opacity="1.000000" stroke="none" 
	d="
M157.667023,263.239014 
	C158.081192,263.592377 158.089096,263.930359 157.820419,264.630310 
	C157.016769,265.278534 156.489685,265.564728 155.501648,265.899689 
	C150.368866,266.052002 145.697052,266.155579 140.806808,266.281067 
	C140.298035,266.458313 140.158936,266.700562 140.130722,267.485931 
	C139.551331,286.601379 145.798141,303.052948 156.493134,318.018433 
	C160.033920,322.973083 163.780151,327.780884 167.299408,332.763367 
	C167.166382,332.870911 166.904343,333.090881 166.904343,333.090881 
	C149.475693,315.634399 138.845291,295.105652 138.065079,270.000549 
	C137.935013,265.815063 139.281387,264.652618 143.458969,264.738464 
	C148.047256,264.832794 152.659149,263.777832 157.667023,263.239014 
z"/>
<path fill="#207FC6" opacity="1.000000" stroke="none" 
	d="
M195.984665,338.955566 
	C193.477936,341.258423 190.941895,343.530365 188.471802,345.871857 
	C185.300888,348.877686 182.468918,348.653381 179.882248,344.642731 
	C179.864410,344.166626 180.163269,343.803162 180.492706,343.918854 
	C183.229340,346.076324 185.398514,346.597992 187.928162,343.894226 
	C189.774673,341.920654 192.234741,340.521149 194.812866,338.875671 
	C195.464508,338.908966 195.724579,338.932281 195.984665,338.955566 
z"/>
<path fill="#207FC6" opacity="1.000000" stroke="none" 
	d="
M179.710648,344.344727 
	C177.314575,342.702728 175.072266,340.882660 172.859009,338.584625 
	C173.001724,337.982056 173.115402,337.857483 173.534485,337.856689 
	C175.947693,339.921387 178.055481,341.862274 180.163269,343.803162 
	C180.163269,343.803162 179.864410,344.166626 179.710648,344.344727 
z"/>
<path fill="#25C7DC" opacity="1.000000" stroke="none" 
	d="
M196.240952,338.812042 
	C195.724579,338.932281 195.464508,338.908966 195.022278,338.594177 
	C195.070831,337.898376 195.301514,337.494049 195.786743,336.985138 
	C196.690536,336.582703 197.339798,336.284882 198.093475,336.104065 
	C198.197922,336.221069 198.408401,336.453644 198.408386,336.453613 
	C197.771332,337.191925 197.134277,337.930237 196.240952,338.812042 
z"/>
<path fill="#207FC6" opacity="1.000000" stroke="none" 
	d="
M169.551300,335.509125 
	C169.084442,335.209961 168.617584,334.910828 168.141693,334.218750 
	C168.132660,333.825806 168.365845,333.533905 168.622742,333.644623 
	C169.320267,334.099182 169.760895,334.443054 170.033722,334.962708 
	C169.865906,335.138550 169.551300,335.509125 169.551300,335.509125 
z"/>
<path fill="#207FC6" opacity="1.000000" stroke="none" 
	d="
M168.013260,333.969482 
	C167.555252,334.027618 167.287460,333.840668 166.997406,333.321594 
	C166.904343,333.090881 167.166382,332.870911 167.458710,332.903259 
	C167.964157,333.126648 168.169083,333.326080 168.365845,333.533905 
	C168.365845,333.533905 168.132660,333.825806 168.013260,333.969482 
z"/>
<path fill="#207FC6" opacity="1.000000" stroke="none" 
	d="
M172.709137,338.285522 
	C172.244049,338.303162 171.985123,338.106110 171.811432,337.499359 
	C171.989273,337.007874 172.109116,336.890259 172.424225,336.900818 
	C172.866989,337.225220 173.070190,337.459869 173.229065,337.732880 
	C173.115402,337.857483 173.001724,337.982056 172.709137,338.285522 
z"/>
<path fill="#207FC6" opacity="1.000000" stroke="none" 
	d="
M171.679749,337.291229 
	C171.206009,337.302979 170.955322,337.106384 170.804321,336.495056 
	C170.870575,336.122925 171.226974,335.774780 171.425262,335.907257 
	C171.874069,336.243835 172.075882,336.488129 172.228973,336.772675 
	C172.109116,336.890259 171.989273,337.007874 171.679749,337.291229 
z"/>
<path fill="#25C7DC" opacity="1.000000" stroke="none" 
	d="
M199.394531,335.432159 
	C199.280365,335.746826 199.088745,336.003693 198.614044,336.328186 
	C198.408401,336.453644 198.197922,336.221069 198.166229,335.858154 
	C198.419785,335.326935 198.705032,335.158569 199.091644,335.100403 
	C199.193008,335.210602 199.394531,335.432159 199.394531,335.432159 
z"/>
<path fill="#207FC6" opacity="1.000000" stroke="none" 
	d="
M170.682281,336.286011 
	C170.228363,336.301056 169.998871,336.109650 169.678406,335.692017 
	C169.551300,335.509125 169.865906,335.138550 170.236755,335.091492 
	C170.865448,335.244293 171.071899,335.487762 171.226974,335.774780 
	C171.226974,335.774780 170.870575,336.122925 170.682281,336.286011 
z"/>
<path fill="#25C7DC" opacity="1.000000" stroke="none" 
	d="
M200.332443,334.328766 
	C200.289810,334.739990 200.075668,334.982788 199.603134,335.306915 
	C199.394531,335.432159 199.193008,335.210602 199.159882,334.855377 
	C199.404083,334.321411 199.681396,334.142670 199.958710,333.963928 
	C199.958694,333.963928 200.210724,334.204254 200.332443,334.328766 
z"/>
<path fill="#054A8D" opacity="1.000000" stroke="none" 
	d="
M200.025208,333.632874 
	C199.681396,334.142670 199.404083,334.321411 199.058517,334.745178 
	C198.705032,335.158569 198.419785,335.326935 198.061798,335.741150 
	C197.339798,336.284882 196.690536,336.582703 195.415039,336.943146 
	C193.521881,335.979858 192.254990,334.953949 190.991943,333.614655 
	C191.006104,332.880859 191.016373,332.460510 191.170807,331.782104 
	C191.922333,331.040131 192.529694,330.556183 193.431671,330.040314 
	C194.104553,329.606323 194.482834,329.204254 194.883392,328.855347 
	C194.905685,328.908478 194.803024,328.856110 195.075851,328.788422 
	C195.610275,328.248901 195.871872,327.777039 196.274887,327.018555 
	C197.049362,326.178223 197.682419,325.624542 198.480774,324.982483 
	C198.851715,324.737823 198.995178,324.537079 199.097900,324.222168 
	C199.119354,324.152466 199.261047,324.117767 199.550262,324.053925 
	C200.252274,323.377625 200.665070,322.765167 201.193893,321.881592 
	C201.880753,321.084473 202.451569,320.558502 203.367157,320.000488 
	C205.571060,318.445496 207.430176,316.922546 209.455521,315.263428 
	C210.328308,316.180176 211.211624,317.107941 212.094925,318.035736 
	C208.093857,323.124420 204.092773,328.213104 200.025208,333.632874 
z"/>
<path fill="#0578D1" opacity="1.000000" stroke="none" 
	d="
M227.914612,279.044098 
	C226.457535,285.201294 225.000458,291.358490 222.942459,297.726379 
	C220.249100,298.297394 218.156647,298.657684 216.038925,298.681213 
	C216.013885,297.894775 216.014099,297.445099 216.178177,296.720093 
	C216.566147,295.634003 216.790268,294.823212 217.262421,293.803589 
	C217.866974,292.391296 218.223495,291.187805 218.703323,289.626709 
	C218.892349,288.518372 218.958054,287.767670 219.255310,286.785645 
	C219.536530,285.700745 219.586212,284.847168 219.752319,283.583191 
	C219.947403,281.469635 220.026047,279.766510 220.296936,277.931976 
	C220.685547,277.555847 220.837158,277.286011 221.311035,277.035980 
	C223.756897,277.735352 225.835754,278.389740 227.914612,279.044098 
z"/>
<path fill="#0488DF" opacity="1.000000" stroke="none" 
	d="
M227.950760,278.622925 
	C225.835754,278.389740 223.756897,277.735352 221.272797,276.673035 
	C220.236847,274.906891 219.606140,273.548645 218.549255,272.139404 
	C216.404968,272.009125 214.686859,271.929840 212.987091,271.491364 
	C213.988678,269.464630 214.971924,267.797119 215.955170,266.129578 
	C219.509995,266.219269 223.080994,266.151550 226.607834,266.513702 
	C227.448608,266.600067 228.788879,268.123993 228.786652,268.983795 
	C228.778671,272.057129 228.292282,275.129211 227.950760,278.622925 
z"/>
<path fill="#0565B1" opacity="1.000000" stroke="none" 
	d="
M212.384674,317.869080 
	C211.211624,317.107941 210.328308,316.180176 209.455521,315.263428 
	C207.430176,316.922546 205.571060,318.445496 203.393280,319.689026 
	C203.435028,318.662140 203.795410,317.914642 204.142792,317.136169 
	C204.129791,317.105225 204.062607,317.104889 204.318878,317.022156 
	C204.766907,316.644196 204.958649,316.348907 205.415039,315.922974 
	C206.165573,314.975494 206.651474,314.158691 207.392471,313.131989 
	C207.834915,312.315430 208.022247,311.708771 208.165741,311.088257 
	C208.121872,311.074432 208.127396,311.166260 208.397156,311.102722 
	C208.821121,310.717377 208.975327,310.395538 209.075043,310.080170 
	C209.020523,310.086670 209.125076,310.120209 209.418365,309.988342 
	C210.280869,309.213959 210.850082,308.571411 211.554565,307.810364 
	C211.851349,307.503998 211.956558,307.288635 212.045990,306.741821 
	C212.437256,305.961731 212.788025,305.485474 213.334900,304.878235 
	C213.767654,304.517822 213.904480,304.239319 213.933411,303.951202 
	C213.925339,303.990631 213.885147,303.920868 214.256073,303.882202 
	C215.069626,302.544952 215.512238,301.246338 215.964096,299.953339 
	C215.973328,299.958923 215.942184,299.943939 216.195831,300.158447 
	C216.736481,303.310455 218.587830,303.579346 220.935028,303.002319 
	C218.181488,307.902344 215.427948,312.802399 212.384674,317.869080 
z"/>
<path fill="#0565B1" opacity="1.000000" stroke="none" 
	d="
M186.527588,251.853760 
	C190.198639,254.412354 193.869720,256.970947 197.761261,260.142639 
	C197.656830,262.508728 197.637009,264.451538 194.810165,262.997498 
	C194.163757,262.665009 192.803116,263.721069 191.569839,264.186707 
	C191.368484,264.235321 190.987671,264.404480 190.688660,264.093201 
	C190.184158,263.580536 189.978668,263.379120 189.734192,263.145447 
	C189.695206,263.113159 189.526825,262.968964 189.174683,262.859406 
	C188.585266,262.685425 188.347992,262.620972 188.057739,262.388794 
	C187.864777,262.005737 187.666428,261.895691 187.245056,261.633362 
	C186.749527,261.144135 186.418625,260.912445 186.015411,260.487030 
	C185.776215,260.047333 185.544708,259.911865 185.099442,259.680725 
	C184.536423,259.609039 184.122528,259.743530 183.432755,259.895020 
	C182.793488,259.958130 182.430099,260.004242 182.042694,259.664490 
	C183.521637,256.803650 185.024612,254.328705 186.527588,251.853760 
z"/>
<path fill="#054A8D" opacity="1.000000" stroke="none" 
	d="
M155.962601,265.850922 
	C156.489685,265.564728 157.016769,265.278534 157.834076,264.883728 
	C161.822418,263.431732 165.520523,262.088287 169.593079,261.016479 
	C170.973724,262.852081 171.979904,264.416016 172.974640,266.227539 
	C172.963196,266.475098 173.003174,266.968750 173.002991,266.991272 
	C173.002808,267.013794 172.958725,267.004425 172.754272,267.042206 
	C172.283279,267.194183 172.086334,267.381500 171.751892,267.771790 
	C171.544800,267.901642 171.072449,268.027588 170.850494,268.053772 
	C170.333496,268.183167 170.112152,268.372498 169.714142,268.792786 
	C169.096863,269.045532 168.729919,269.153320 167.942474,269.173065 
	C163.683121,269.725952 159.844284,270.366913 156.006088,270.580444 
	C155.992020,268.718964 155.977310,267.284943 155.962601,265.850922 
z"/>
<path fill="#00599D" opacity="1.000000" stroke="none" 
	d="
M172.986099,265.979980 
	C171.979904,264.416016 170.973724,262.852081 169.946915,260.884033 
	C174.259186,257.262085 178.536407,253.963013 182.984161,250.912582 
	C183.662827,250.447159 185.130554,251.132294 186.380463,251.569519 
	C185.024612,254.328705 183.521637,256.803650 182.030792,259.653229 
	C182.042908,260.027863 182.051132,260.046448 181.695343,260.059509 
	C178.555054,262.041687 175.770569,264.010834 172.986099,265.979980 
z"/>
<path fill="#0578D1" opacity="1.000000" stroke="none" 
	d="
M215.566833,266.076111 
	C214.971924,267.797119 213.988678,269.464630 212.580200,271.549316 
	C210.783859,271.949677 209.412766,271.932922 207.794189,271.693665 
	C206.355560,270.997864 205.164444,270.524536 203.977570,269.671875 
	C203.991608,267.190552 204.001404,265.088623 204.011215,262.986664 
	C207.733643,263.998657 211.456070,265.010651 215.566833,266.076111 
z"/>
<path fill="#046FBE" opacity="1.000000" stroke="none" 
	d="
M203.783081,262.742737 
	C204.001404,265.088623 203.991608,267.190552 203.604553,269.667542 
	C202.482971,270.100586 201.738602,270.158630 200.699677,270.048920 
	C198.764801,269.212494 197.124481,268.543884 195.301407,267.635620 
	C194.758072,267.240570 194.397522,267.085175 194.037201,266.966400 
	C194.037430,267.003021 194.066299,266.935303 193.941620,266.658264 
	C193.135025,265.633484 192.453110,264.885773 191.771194,264.138062 
	C192.803116,263.721069 194.163757,262.665009 194.810165,262.997498 
	C197.637009,264.451538 197.656830,262.508728 197.979706,260.404053 
	C199.836777,260.867859 201.695847,261.683319 203.783081,262.742737 
z"/>
<path fill="#046FBE" opacity="1.000000" stroke="none" 
	d="
M221.188812,302.775146 
	C218.587830,303.579346 216.736481,303.310455 216.189056,299.922180 
	C215.928619,299.471436 216.064194,299.017944 216.064194,299.017944 
	C218.156647,298.657684 220.249100,298.297394 222.684967,297.978577 
	C222.499771,299.529388 221.971191,301.038666 221.188812,302.775146 
z"/>
<path fill="#033874" opacity="1.000000" stroke="none" 
	d="
M155.501648,265.899689 
	C155.977310,267.284943 155.992020,268.718964 155.638062,270.737091 
	C152.716370,271.674194 150.163376,272.027191 147.196106,272.437469 
	C147.838257,275.792969 148.434097,278.906494 149.021576,282.358917 
	C150.021667,287.784210 151.030151,292.870605 152.027435,298.283844 
	C152.676193,299.416565 153.336121,300.222473 154.103851,301.138000 
	C154.211655,301.247681 154.242554,301.553650 154.231964,301.849670 
	C154.477158,302.424316 154.732925,302.702972 155.219025,303.204773 
	C155.975464,304.599365 156.501587,305.770752 157.004807,307.312653 
	C158.128067,309.317596 159.274231,310.952026 160.426270,312.620667 
	C160.432159,312.654877 160.500961,312.663940 160.369568,313.005280 
	C161.426239,314.599335 162.614273,315.852020 163.855164,317.107758 
	C163.908020,317.110779 163.880005,317.212860 163.896790,317.548676 
	C164.613480,318.587341 165.313370,319.290161 166.265259,320.144867 
	C166.989914,320.913727 167.462585,321.530731 167.963455,322.438080 
	C168.542694,323.199493 169.093735,323.670563 169.933441,324.301178 
	C171.106857,325.424347 171.991608,326.388000 172.926025,327.621277 
	C173.525635,328.304840 174.075577,328.718719 174.921478,329.285156 
	C176.816299,330.947845 178.415176,332.458008 180.042770,334.303101 
	C180.972519,335.130310 181.873566,335.622559 182.834503,336.105072 
	C182.894379,336.095337 182.911224,336.215485 182.991150,336.539764 
	C186.446854,338.769409 188.002945,336.984955 188.950882,333.953339 
	C188.952042,333.941742 188.934341,333.926422 189.275818,333.967163 
	C190.074219,333.981323 190.531143,333.954681 190.988083,333.928070 
	C192.254990,334.953949 193.521881,335.979858 195.160492,337.047760 
	C195.301514,337.494049 195.070831,337.898376 194.630722,338.584229 
	C192.234741,340.521149 189.774673,341.920654 187.928162,343.894226 
	C185.398514,346.597992 183.229340,346.076324 180.492722,343.918854 
	C178.055481,341.862274 175.947693,339.921387 173.534485,337.856689 
	C173.070190,337.459869 172.866989,337.225220 172.424225,336.900818 
	C172.075882,336.488129 171.874069,336.243835 171.425262,335.907257 
	C171.071899,335.487762 170.865448,335.244293 170.404572,334.915649 
	C169.760895,334.443054 169.320267,334.099182 168.622742,333.644623 
	C168.169083,333.326080 167.964157,333.126648 167.591736,332.795715 
	C163.780151,327.780884 160.033920,322.973083 156.493134,318.018433 
	C145.798141,303.052948 139.551331,286.601379 140.295258,267.383728 
	C140.711960,266.670746 140.886993,266.481995 141.025238,266.259155 
	C145.697052,266.155579 150.368866,266.052002 155.501648,265.899689 
z"/>
<path fill="#054A8D" opacity="1.000000" stroke="none" 
	d="
M140.806808,266.281067 
	C140.886993,266.481995 140.711960,266.670746 140.335602,266.927551 
	C140.158936,266.700562 140.298035,266.458313 140.806808,266.281067 
z"/>
<path fill="#07F7FB" opacity="1.000000" stroke="none" 
	d="
M157.027710,306.942169 
	C156.501587,305.770752 155.975464,304.599365 155.202087,302.920776 
	C154.717392,302.126923 154.479965,301.840302 154.242554,301.553650 
	C154.242554,301.553650 154.211655,301.247681 154.115631,300.796906 
	C153.359283,299.549744 152.698959,298.753387 152.038635,297.957001 
	C151.030151,292.870605 150.021667,287.784210 149.079285,281.903931 
	C149.145386,278.522583 149.145386,275.935120 149.145386,273.592133 
	C155.484985,272.607849 161.165787,271.725861 166.888458,271.243347 
	C165.733826,278.498962 159.386292,275.698486 155.563797,277.682098 
	C154.578888,281.597443 153.593842,285.513397 152.451019,290.056488 
	C154.509857,290.321198 156.491745,290.575989 158.217270,290.797852 
	C158.718811,292.898499 158.774109,295.274323 159.812912,297.086273 
	C163.179932,302.959381 163.704941,310.824219 171.224930,313.887512 
	C171.469528,313.987152 171.715149,314.428223 171.722397,314.716125 
	C171.883224,321.097931 177.352936,324.175659 180.477600,328.689789 
	C182.636017,331.808044 185.901901,331.541565 188.378845,328.603668 
	C190.378448,326.231964 192.361053,323.691193 194.848602,321.926605 
	C197.661209,319.931580 201.029297,318.719635 204.155823,317.167145 
	C203.795410,317.914642 203.435028,318.662140 203.048508,319.721069 
	C202.451569,320.558502 201.880753,321.084473 200.910217,321.945923 
	C200.094025,322.893494 199.677536,323.505646 199.261047,324.117767 
	C199.261047,324.117767 199.119354,324.152466 198.882797,324.242004 
	C198.354126,324.496521 198.243881,324.742950 198.315475,325.070862 
	C197.682419,325.624542 197.049362,326.178223 195.999023,327.077942 
	C195.322174,327.901398 195.062607,328.378754 194.803040,328.856110 
	C194.803024,328.856110 194.905685,328.908478 194.597733,328.894104 
	C193.905548,329.277222 193.521317,329.674744 193.137085,330.072266 
	C192.529694,330.556183 191.922333,331.040131 190.879257,331.848755 
	C189.940491,332.757751 189.437424,333.342102 188.934341,333.926422 
	C188.934341,333.926422 188.952042,333.941742 188.593811,334.005646 
	C186.460785,334.784851 184.686005,335.500153 182.911224,336.215454 
	C182.911224,336.215485 182.894379,336.095337 182.741501,335.811493 
	C181.730438,335.007812 180.872253,334.488007 180.014053,333.968170 
	C178.415176,332.458008 176.816299,330.947845 174.883041,329.014038 
	C173.991241,328.177429 173.433807,327.764526 172.876373,327.351624 
	C171.991608,326.388000 171.106857,325.424347 169.905640,324.017578 
	C169.037857,323.098846 168.486557,322.623291 167.935257,322.147736 
	C167.462585,321.530731 166.989914,320.913727 166.232407,319.834625 
	C165.258362,318.652649 164.569183,317.932739 163.880005,317.212860 
	C163.880005,317.212860 163.908020,317.110779 163.809174,316.785278 
	C162.640549,315.194489 161.570755,313.929230 160.500961,312.663940 
	C160.500961,312.663940 160.432159,312.654877 160.380844,312.293396 
	C159.228928,310.268646 158.128311,308.605408 157.027710,306.942169 
z"/>
<path fill="#0565B1" opacity="1.000000" stroke="none" 
	d="
M189.275818,333.967163 
	C189.437424,333.342102 189.940491,332.757751 190.735107,332.106781 
	C191.016373,332.460510 191.006104,332.880859 190.991943,333.614655 
	C190.531143,333.954681 190.074219,333.981323 189.275818,333.967163 
z"/>
<path fill="#0565B1" opacity="1.000000" stroke="none" 
	d="
M199.550262,324.053925 
	C199.677536,323.505646 200.094025,322.893494 200.794189,322.217041 
	C200.665070,322.765167 200.252274,323.377625 199.550262,324.053925 
z"/>
<path fill="#0565B1" opacity="1.000000" stroke="none" 
	d="
M193.431686,330.040344 
	C193.521317,329.674744 193.905548,329.277222 194.575439,328.840942 
	C194.482834,329.204254 194.104553,329.606323 193.431686,330.040344 
z"/>
<path fill="#0565B1" opacity="1.000000" stroke="none" 
	d="
M195.075867,328.788422 
	C195.062607,328.378754 195.322174,327.901398 195.857605,327.364624 
	C195.871872,327.777039 195.610275,328.248901 195.075867,328.788422 
z"/>
<path fill="#0565B1" opacity="1.000000" stroke="none" 
	d="
M198.480774,324.982483 
	C198.243881,324.742950 198.354126,324.496521 198.861359,324.311707 
	C198.995178,324.537079 198.851715,324.737823 198.480774,324.982483 
z"/>
<path fill="#00FEFE" opacity="1.000000" stroke="none" 
	d="
M204.142807,317.136169 
	C201.029297,318.719635 197.661209,319.931580 194.848602,321.926605 
	C192.361053,323.691193 190.378448,326.231964 188.378845,328.603668 
	C185.901901,331.541565 182.636017,331.808044 180.477600,328.689789 
	C177.352936,324.175659 171.883224,321.097931 171.722397,314.716125 
	C171.715149,314.428223 171.469528,313.987152 171.224930,313.887512 
	C163.704941,310.824219 163.179932,302.959381 159.812912,297.086273 
	C158.774109,295.274323 158.718811,292.898499 158.217270,290.797852 
	C156.491745,290.575989 154.509857,290.321198 152.451019,290.056488 
	C153.593842,285.513397 154.578888,281.597443 155.563797,277.682098 
	C159.386292,275.698486 165.733826,278.498962 166.906036,271.256500 
	C166.881744,270.870117 166.903778,270.906982 167.278412,270.945251 
	C169.289673,271.816589 170.926300,272.649689 173.098984,273.755676 
	C173.732498,271.373047 174.336914,269.099884 175.078033,266.615875 
	C175.673752,266.233032 176.132767,266.061066 176.897339,265.815277 
	C177.443085,265.415253 177.683228,265.089081 178.030426,264.560364 
	C178.349136,264.110992 178.617340,263.979889 179.254883,263.952271 
	C180.011490,263.561188 180.455338,263.182312 180.915390,262.845276 
	C180.931595,262.887115 180.841934,262.890259 181.094711,262.807404 
	C181.534943,262.434143 181.722412,262.143707 181.892670,261.891846 
	C181.875473,261.930420 181.815704,261.870758 181.995087,261.854675 
	C182.270325,261.772644 182.456955,261.682800 182.446930,261.644684 
	C182.392410,261.437317 182.289444,261.242706 182.175446,260.792816 
	C182.115540,260.376770 182.083344,260.211609 182.051132,260.046448 
	C182.051132,260.046448 182.042908,260.027863 182.054810,260.039124 
	C182.430099,260.004242 182.793488,259.958130 183.818451,259.920166 
	C184.736221,259.914490 184.992386,259.900696 185.248566,259.886902 
	C185.544708,259.911865 185.776215,260.047333 186.122803,260.793274 
	C186.671600,261.492462 187.040649,261.691681 187.409698,261.890900 
	C187.666428,261.895691 187.864777,262.005737 188.154999,262.721069 
	C188.690872,263.441986 189.076492,263.662903 189.585907,263.727539 
	C189.709686,263.571320 189.773193,263.177734 189.773193,263.177734 
	C189.978668,263.379120 190.184158,263.580536 190.750580,264.394714 
	C192.096451,265.650055 193.081375,266.292694 194.066299,266.935303 
	C194.066299,266.935303 194.037430,267.003021 194.196732,267.226685 
	C194.732086,267.591980 195.108124,267.733612 195.484177,267.875244 
	C197.124481,268.543884 198.764801,269.212494 200.790833,270.379822 
	C203.464935,271.224396 205.753311,271.570282 208.041672,271.916138 
	C209.412766,271.932922 210.783859,271.949677 212.561859,271.908508 
	C214.686859,271.929840 216.404968,272.009125 218.554993,272.527527 
	C219.359512,274.665588 219.732117,276.364471 220.104706,278.063385 
	C220.026047,279.766510 219.947403,281.469635 219.470215,283.659912 
	C219.055725,285.103699 219.039749,286.060333 219.023773,287.016968 
	C218.958054,287.767670 218.892349,288.518372 218.403595,289.694763 
	C217.658524,291.417755 217.336456,292.715088 217.014404,294.012421 
	C216.790268,294.823212 216.566147,295.634003 215.803741,296.807098 
	C214.947159,298.287140 214.628891,299.404877 214.283234,300.859589 
	C214.132294,302.104675 214.008713,303.012756 213.885147,303.920868 
	C213.885147,303.920868 213.925339,303.990631 213.713715,304.060120 
	C213.242035,304.365448 213.120926,304.658661 213.138779,305.009247 
	C212.788025,305.485474 212.437256,305.961731 211.830933,306.737305 
	C211.575378,307.036621 211.145920,307.062897 210.785263,307.098938 
	C209.991425,308.130035 209.558243,309.125122 209.125076,310.120209 
	C209.125076,310.120209 209.020523,310.086670 208.828415,310.178162 
	C208.466675,310.568542 208.297043,310.867401 208.127396,311.166260 
	C208.127396,311.166260 208.121872,311.074432 207.860092,311.243286 
	C207.444672,312.055389 207.291031,312.698639 207.137390,313.341858 
	C206.651474,314.158691 206.165573,314.975494 205.164093,316.015717 
	C204.453201,316.527710 204.257904,316.816284 204.062607,317.104889 
	C204.062607,317.104889 204.129791,317.105225 204.142807,317.136169 
M180.594894,315.859558 
	C181.744339,318.212555 182.893784,320.565552 184.415756,323.681183 
	C190.564682,310.755188 196.317551,298.661743 202.091064,286.524933 
	C196.565308,284.860779 193.595520,286.531128 191.766479,291.583466 
	C189.907349,296.718811 187.178391,301.539215 184.497589,307.200226 
	C181.567520,301.216248 178.757339,296.271729 176.695297,291.032745 
	C174.796417,286.208252 171.914520,284.874634 166.805786,286.647461 
	C171.348343,296.303375 175.792877,305.750916 180.594894,315.859558 
M168.925064,275.291992 
	C168.977905,275.775574 169.030762,276.259125 169.083603,276.742706 
	C169.513565,276.631073 169.943542,276.519440 170.373505,276.407806 
	C170.082794,275.994080 169.792084,275.580353 168.925064,275.291992 
z"/>
<path fill="#07F7FB" opacity="1.000000" stroke="none" 
	d="
M220.296936,277.931976 
	C219.732117,276.364471 219.359512,274.665588 218.981171,272.578552 
	C219.606140,273.548645 220.236847,274.906891 220.905792,276.628052 
	C220.837158,277.286011 220.685547,277.555847 220.296936,277.931976 
z"/>
<path fill="#07F7FB" opacity="1.000000" stroke="none" 
	d="
M217.262421,293.803589 
	C217.336456,292.715088 217.658524,291.417755 218.280304,290.052368 
	C218.223495,291.187805 217.866974,292.391296 217.262421,293.803589 
z"/>
<path fill="#07F7FB" opacity="1.000000" stroke="none" 
	d="
M214.310608,300.522614 
	C214.628891,299.404877 214.947159,298.287140 215.639893,297.082397 
	C216.014099,297.445099 216.013885,297.894775 216.038925,298.681213 
	C216.064194,299.017944 215.928619,299.471436 215.935394,299.707703 
	C215.942184,299.943939 215.973328,299.958923 215.680115,300.019043 
	C215.028152,300.226990 214.669373,300.374786 214.310608,300.522614 
z"/>
<path fill="#07F7FB" opacity="1.000000" stroke="none" 
	d="
M219.255310,286.785645 
	C219.039749,286.060333 219.055725,285.103699 219.353790,284.070343 
	C219.586212,284.847168 219.536530,285.700745 219.255310,286.785645 
z"/>
<path fill="#046FBE" opacity="1.000000" stroke="none" 
	d="
M214.283234,300.859589 
	C214.669373,300.374786 215.028152,300.226990 215.670898,300.013458 
	C215.512238,301.246338 215.069626,302.544952 214.256073,303.882202 
	C214.008713,303.012756 214.132294,302.104675 214.283234,300.859589 
z"/>
<path fill="#07F7FB" opacity="1.000000" stroke="none" 
	d="
M209.418365,309.988342 
	C209.558243,309.125122 209.991425,308.130035 210.830429,307.322510 
	C211.236252,307.510101 211.419281,307.928894 211.419281,307.928894 
	C210.850082,308.571411 210.280869,309.213959 209.418365,309.988342 
z"/>
<path fill="#07F7FB" opacity="1.000000" stroke="none" 
	d="
M207.392487,313.131989 
	C207.291031,312.698639 207.444672,312.055389 207.903961,311.257141 
	C208.022247,311.708771 207.834915,312.315430 207.392487,313.131989 
z"/>
<path fill="#046FBE" opacity="1.000000" stroke="none" 
	d="
M211.554565,307.810364 
	C211.419281,307.928894 211.236252,307.510101 211.191086,307.286499 
	C211.145920,307.062897 211.575378,307.036621 211.790436,307.041168 
	C211.956558,307.288635 211.851349,307.503998 211.554565,307.810364 
z"/>
<path fill="#046FBE" opacity="1.000000" stroke="none" 
	d="
M213.334900,304.878235 
	C213.120926,304.658661 213.242035,304.365448 213.721802,304.020691 
	C213.904480,304.239319 213.767654,304.517822 213.334900,304.878235 
z"/>
<path fill="#07F7FB" opacity="1.000000" stroke="none" 
	d="
M208.397156,311.102722 
	C208.297043,310.867401 208.466675,310.568542 208.882935,310.171692 
	C208.975327,310.395538 208.821121,310.717377 208.397156,311.102722 
z"/>
<path fill="#07F7FB" opacity="1.000000" stroke="none" 
	d="
M204.318878,317.022156 
	C204.257904,316.816284 204.453201,316.527710 204.899445,316.146362 
	C204.958649,316.348907 204.766907,316.644196 204.318878,317.022156 
z"/>
<path fill="#07F7FB" opacity="1.000000" stroke="none" 
	d="
M193.941620,266.658264 
	C193.081375,266.292694 192.096451,265.650055 191.049591,264.705963 
	C190.987671,264.404480 191.368484,264.235321 191.569839,264.186707 
	C192.453110,264.885773 193.135025,265.633484 193.941620,266.658264 
z"/>
<path fill="#07F7FB" opacity="1.000000" stroke="none" 
	d="
M185.099442,259.680725 
	C184.992386,259.900696 184.736221,259.914490 184.094330,259.903137 
	C184.122528,259.743530 184.536423,259.609039 185.099442,259.680725 
z"/>
<path fill="#046FBE" opacity="1.000000" stroke="none" 
	d="
M189.734192,263.145447 
	C189.773193,263.177734 189.709686,263.571320 189.569733,263.496216 
	C189.429764,263.421143 189.526825,262.968964 189.526825,262.968964 
	C189.526825,262.968964 189.695206,263.113159 189.734192,263.145447 
z"/>
<path fill="#07F7FB" opacity="1.000000" stroke="none" 
	d="
M189.174683,262.859406 
	C189.526825,262.968964 189.429764,263.421143 189.445938,263.652466 
	C189.076492,263.662903 188.690872,263.441986 188.207993,262.888794 
	C188.347992,262.620972 188.585266,262.685425 189.174683,262.859406 
z"/>
<path fill="#07F7FB" opacity="1.000000" stroke="none" 
	d="
M187.245056,261.633362 
	C187.040649,261.691681 186.671600,261.492462 186.195145,260.987000 
	C186.418625,260.912445 186.749527,261.144135 187.245056,261.633362 
z"/>
<path fill="#0565B1" opacity="1.000000" stroke="none" 
	d="
M166.864166,270.856995 
	C161.165787,271.725861 155.484985,272.607849 149.145386,273.592133 
	C149.145386,275.935120 149.145386,278.522583 149.087677,281.565063 
	C148.434097,278.906494 147.838257,275.792969 147.196106,272.437469 
	C150.163376,272.027191 152.716370,271.674194 155.637421,271.164551 
	C159.844284,270.366913 163.683121,269.725952 167.755310,269.381409 
	C167.627029,270.087555 167.265411,270.497284 166.903778,270.906982 
	C166.903778,270.906982 166.881744,270.870117 166.864166,270.856995 
z"/>
<path fill="#07F7FB" opacity="1.000000" stroke="none" 
	d="
M167.278412,270.945251 
	C167.265411,270.497284 167.627029,270.087555 168.175827,269.469482 
	C168.729919,269.153320 169.096863,269.045532 169.951279,268.814148 
	C170.775024,268.589142 170.986252,268.368164 171.072449,268.027588 
	C171.072449,268.027588 171.544800,267.901642 171.979462,267.790863 
	C172.741852,267.572754 172.923386,267.347534 172.958725,267.004425 
	C172.958725,267.004425 173.002808,267.013794 173.327667,267.008636 
	C174.082123,266.944550 174.511719,266.885620 174.941315,266.826721 
	C174.336914,269.099884 173.732498,271.373047 173.098984,273.755676 
	C170.926300,272.649689 169.289673,271.816589 167.278412,270.945251 
z"/>
<path fill="#0565B1" opacity="1.000000" stroke="none" 
	d="
M175.078033,266.615875 
	C174.511719,266.885620 174.082123,266.944550 173.327850,266.986115 
	C173.003174,266.968750 172.963196,266.475098 172.974640,266.227539 
	C175.770569,264.010834 178.555054,262.041687 181.695343,260.059509 
	C182.083344,260.211609 182.115540,260.376770 182.019257,260.971863 
	C181.890762,261.401764 181.815704,261.870758 181.815704,261.870758 
	C181.815704,261.870758 181.875473,261.930420 181.624680,261.954834 
	C181.196564,262.282928 181.019241,262.586578 180.841919,262.890259 
	C180.841934,262.890259 180.931595,262.887115 180.611115,262.855896 
	C179.841110,263.204620 179.391617,263.584564 178.942108,263.964508 
	C178.617340,263.979889 178.349136,264.110992 177.756378,264.678345 
	C177.114090,265.295593 176.852936,265.592316 176.591766,265.889099 
	C176.132767,266.061066 175.673752,266.233032 175.078033,266.615875 
z"/>
<path fill="#0565B1" opacity="1.000000" stroke="none" 
	d="
M172.754272,267.042206 
	C172.923386,267.347534 172.741852,267.572754 172.186554,267.661011 
	C172.086334,267.381500 172.283279,267.194183 172.754272,267.042206 
z"/>
<path fill="#0565B1" opacity="1.000000" stroke="none" 
	d="
M170.850494,268.053772 
	C170.986252,268.368164 170.775024,268.589142 170.201630,268.669250 
	C170.112152,268.372498 170.333496,268.183167 170.850494,268.053772 
z"/>
<path fill="#07F7FB" opacity="1.000000" stroke="none" 
	d="
M207.794189,271.693665 
	C205.753311,271.570282 203.464935,271.224396 201.085419,270.547607 
	C201.738602,270.158630 202.482971,270.100586 203.600327,270.046875 
	C205.164444,270.524536 206.355560,270.997864 207.794189,271.693665 
z"/>
<path fill="#07F7FB" opacity="1.000000" stroke="none" 
	d="
M195.301407,267.635620 
	C195.108124,267.733612 194.732086,267.591980 194.196503,267.190063 
	C194.397522,267.085175 194.758072,267.240570 195.301407,267.635620 
z"/>
<path fill="#00599D" opacity="1.000000" stroke="none" 
	d="
M182.991150,336.539734 
	C184.686005,335.500153 186.460785,334.784851 188.592651,334.017242 
	C188.002945,336.984955 186.446854,338.769409 182.991150,336.539734 
z"/>
<path fill="#00599D" opacity="1.000000" stroke="none" 
	d="
M157.004807,307.312653 
	C158.128311,308.605408 159.228928,310.268646 160.374969,312.259186 
	C159.274231,310.952026 158.128067,309.317596 157.004807,307.312653 
z"/>
<path fill="#00599D" opacity="1.000000" stroke="none" 
	d="
M160.369568,313.005280 
	C161.570755,313.929230 162.640549,315.194489 163.756332,316.782257 
	C162.614273,315.852020 161.426239,314.599335 160.369568,313.005280 
z"/>
<path fill="#00599D" opacity="1.000000" stroke="none" 
	d="
M163.896790,317.548676 
	C164.569183,317.932739 165.258362,318.652649 165.980408,319.682770 
	C165.313370,319.290161 164.613480,318.587341 163.896790,317.548676 
z"/>
<path fill="#00599D" opacity="1.000000" stroke="none" 
	d="
M152.027435,298.283844 
	C152.698959,298.753387 153.359283,299.549744 154.007828,300.687256 
	C153.336121,300.222473 152.676193,299.416565 152.027435,298.283844 
z"/>
<path fill="#00599D" opacity="1.000000" stroke="none" 
	d="
M180.042770,334.303101 
	C180.872253,334.488007 181.730438,335.007812 182.681610,335.821228 
	C181.873566,335.622559 180.972519,335.130310 180.042770,334.303101 
z"/>
<path fill="#00599D" opacity="1.000000" stroke="none" 
	d="
M167.963455,322.438080 
	C168.486557,322.623291 169.037857,323.098846 169.616974,323.858032 
	C169.093735,323.670563 168.542694,323.199493 167.963455,322.438080 
z"/>
<path fill="#00599D" opacity="1.000000" stroke="none" 
	d="
M172.926025,327.621277 
	C173.433807,327.764526 173.991241,328.177429 174.587097,328.861511 
	C174.075577,328.718719 173.525635,328.304840 172.926025,327.621277 
z"/>
<path fill="#00599D" opacity="1.000000" stroke="none" 
	d="
M154.231964,301.849670 
	C154.479965,301.840302 154.717392,302.126923 154.971771,302.697571 
	C154.732925,302.702972 154.477158,302.424316 154.231964,301.849670 
z"/>
<path fill="#00599D" opacity="1.000000" stroke="none" 
	d="
M180.416138,315.528992 
	C175.792877,305.750916 171.348343,296.303375 166.805786,286.647461 
	C171.914520,284.874634 174.796417,286.208252 176.695297,291.032745 
	C178.757339,296.271729 181.567520,301.216248 184.497589,307.200226 
	C187.178391,301.539215 189.907349,296.718811 191.766479,291.583466 
	C193.595520,286.531128 196.565308,284.860779 202.091064,286.524933 
	C196.317551,298.661743 190.564682,310.755188 184.415756,323.681183 
	C182.893784,320.565552 181.744339,318.212555 180.416138,315.528992 
z"/>
<path fill="#07F7FB" opacity="1.000000" stroke="none" 
	d="
M169.213226,275.229309 
	C169.792084,275.580353 170.082794,275.994080 170.373505,276.407806 
	C169.943542,276.519440 169.513565,276.631073 169.083618,276.742706 
	C169.030762,276.259125 168.977905,275.775574 169.213226,275.229309 
z"/>
<path fill="#07F7FB" opacity="1.000000" stroke="none" 
	d="
M179.254883,263.952271 
	C179.391617,263.584564 179.841110,263.204620 180.594910,262.814026 
	C180.455338,263.182312 180.011490,263.561188 179.254883,263.952271 
z"/>
<path fill="#07F7FB" opacity="1.000000" stroke="none" 
	d="
M181.094696,262.807404 
	C181.019241,262.586578 181.196564,262.282928 181.641876,261.916290 
	C181.722412,262.143707 181.534943,262.434143 181.094696,262.807404 
z"/>
<path fill="#07F7FB" opacity="1.000000" stroke="none" 
	d="
M176.897339,265.815247 
	C176.852936,265.592316 177.114090,265.295593 177.649307,264.880859 
	C177.683228,265.089081 177.443085,265.415253 176.897339,265.815247 
z"/>
<path fill="#07F7FB" opacity="1.000000" stroke="none" 
	d="
M181.995087,261.854675 
	C181.815704,261.870758 181.890762,261.401764 182.046951,261.222717 
	C182.289444,261.242706 182.392410,261.437317 182.446930,261.644684 
	C182.456955,261.682800 182.270325,261.772644 181.995087,261.854675 
z"/>
</svg>